<svg xmlns="http://www.w3.org/2000/svg" viewBox="0 0 75.61 75.61"><defs><style>.cls-1{isolation:isolate;}.cls-2{fill:#234e9f;}.cls-3,.cls-4{fill:#f1f2f2;}.cls-4{mix-blend-mode:multiply;opacity:0.75;}</style></defs><g class="cls-1"><g id="Layer_2" data-name="Layer 2"><g id="Layer_1-2" data-name="Layer 1"><circle class="cls-2" cx="37.81" cy="37.81" r="37.81"/><path class="cls-3" d="M54.27,28.82c-7-3-16.46-2.88-16.46-2.88s-9.43-.14-16.47,2.88l-.76,13.56s4.49,3.89,17.23,3.89S55,42.38,55,42.38Z"/><path class="cls-3" d="M37.81,44.13c-11.59,0-16.35-3.22-17.11-3.8l-.06,1.05c.55.44,5.24,3.85,17.17,3.85S54.43,41.82,55,41.38l0-1.05C54.15,40.91,49.4,44.13,37.81,44.13Z"/><path class="cls-4" d="M54.71,36.58l-.44-7.76a40.17,40.17,0,0,0-11.51-2.64l-16.18,1a30.66,30.66,0,0,0-5.24,1.65L21,34.31C26.24,37.21,39.6,43,54.71,36.58Z"/><polygon class="cls-3" points="37.81 37.02 37.81 38.14 10.16 28.2 10.16 27.64 37.81 37.02"/><polygon class="cls-3" points="37.81 18.26 10.16 27.64 37.81 37.02 65.45 27.64 37.81 18.26"/><polygon class="cls-3" points="37.81 37.02 37.81 38.14 65.45 28.2 65.45 27.64 37.81 37.02"/><path class="cls-3" d="M55.86,38.28a.27.27,0,0,1-.3-.2c-1.75-6.31-4.07-9.83-7.11-10.74-4-1.2-9.89.26-10,.28a.28.28,0,1,1-.14-.55c.25-.06,6.15-1.52,10.25-.28,3.24,1,5.69,4.62,7.49,11.14a.26.26,0,0,1-.19.34Z"/><path class="cls-3" d="M55.35,38.86l1.2,6.37a7.09,7.09,0,0,0,3.08-.82l-3-5.9S55.67,38.4,55.35,38.86Z"/><path class="cls-3" d="M55.56,37c-.75.41-.21,1.82-.21,1.82a2.41,2.41,0,0,0,1.31-.35S56.42,37,55.56,37Z"/><polygon class="cls-3" points="37.81 55.88 40.6 57.35 40.07 54.24 42.33 52.04 39.2 51.59 37.81 48.76 36.41 51.59 33.29 52.04 35.55 54.24 35.02 57.35 37.81 55.88"/><polygon class="cls-3" points="28.75 53.27 30.36 54.12 30.05 52.32 31.35 51.05 29.55 50.79 28.75 49.16 27.94 50.79 26.14 51.05 27.44 52.32 27.14 54.12 28.75 53.27"/><polygon class="cls-3" points="22.28 50.47 23.57 51.15 23.32 49.71 24.37 48.69 22.92 48.48 22.28 47.16 21.63 48.48 20.18 48.69 21.23 49.71 20.98 51.15 22.28 50.47"/><polygon class="cls-3" points="46.87 53.27 48.48 54.12 48.17 52.32 49.48 51.05 47.67 50.79 46.87 49.16 46.06 50.79 44.26 51.05 45.56 52.32 45.26 54.12 46.87 53.27"/><polygon class="cls-3" points="53.34 50.47 54.63 51.15 54.38 49.71 55.43 48.69 53.98 48.48 53.34 47.16 52.69 48.48 51.24 48.69 52.29 49.71 52.04 51.15 53.34 50.47"/></g></g></g></svg>