<svg xmlns="http://www.w3.org/2000/svg" viewBox="0 0 75.61 75.61"><defs><style>.cls-1{fill:#234e9f;}.cls-2,.cls-6{fill:#fff;}.cls-3{fill:#f1f2f2;}.cls-3,.cls-4,.cls-5,.cls-6{fill-rule:evenodd;}.cls-4{fill:#e6e7e8;}.cls-5{fill:#f15640;}</style></defs><g id="Layer_2" data-name="Layer 2"><g id="Layer_1-2" data-name="Layer 1"><circle class="cls-1" cx="37.81" cy="37.81" r="37.81"/><polygon class="cls-2" points="69.74 30 37.84 18.95 5.88 30 22.88 35.99 21.37 42.21 54.23 42.21 53.21 35.82 69.74 30"/><path class="cls-3" d="M34.49,46.14s0,0,0,.07a.57.57,0,0,1-.42.61.66.66,0,0,0-.35.44.77.77,0,0,0,0,.15.56.56,0,0,0,0,.25.67.67,0,0,1,.08.3.5.5,0,0,1-.1.31H22.06a.5.5,0,0,1-.51-.48c0-.17,0-.35,0-.53a9.53,9.53,0,0,1,.53-2.63.44.44,0,0,1,.51-.31c4.46.27,9,.42,13.46.45a.52.52,0,0,0-.32.34.68.68,0,0,1-.6.44A.65.65,0,0,0,34.49,46.14Z"/><path class="cls-3" d="M40.78,47.26a2.75,2.75,0,0,1,.34,1h-.38a2.46,2.46,0,0,0-.37-1A2.9,2.9,0,0,0,37.84,46a2.81,2.81,0,0,0-2.3,1.4,2.72,2.72,0,0,0-.31.88h-.39a2.72,2.72,0,0,1,.32-1,3.23,3.23,0,0,1,2.68-1.62A3.13,3.13,0,0,1,40.78,47.26Z"/><path class="cls-3" d="M54.1,47.79a.51.51,0,0,1-.52.48H42.5a.55.55,0,0,0-.2-.3.7.7,0,0,1-.22-.49.57.57,0,0,1,0-.22.54.54,0,0,0,.05-.21.64.64,0,0,0-.43-.58.61.61,0,0,1-.46-.57.74.74,0,0,0-.74-.61.76.76,0,0,1-.65-.36.62.62,0,0,0-.11-.17c4.43,0,8.86-.18,13.25-.44a.46.46,0,0,1,.51.31,6.78,6.78,0,0,1,.55,2.63C54.1,47.44,54.1,47.62,54.1,47.79Z"/><path class="cls-4" d="M37.75,52.71l.06,0h-.52l-2.09,0h-.33c-4,0-8.17.17-12.26.44h0A.53.53,0,0,1,22.1,53,9.85,9.85,0,0,1,21,47.75a.5.5,0,0,1,.51-.49H33.73a.77.77,0,0,0,0,.15.56.56,0,0,0,0,.25.67.67,0,0,1,.08.3.5.5,0,0,1-.1.31l-.08.09a.68.68,0,0,0-.17.45.59.59,0,0,0,.22.47.69.69,0,0,1,.23.5.78.78,0,0,1,0,.21.54.54,0,0,0,0,.21.65.65,0,0,0,.46.58.73.73,0,0,1,.47.57.66.66,0,0,0,.7.61h.11a.75.75,0,0,1,.54.34.59.59,0,0,0,.57.39.71.71,0,0,0,.31-.08,1,1,0,0,1,.29,0A.83.83,0,0,1,37.75,52.71Z"/><polygon class="cls-4" points="38.01 52.72 38.05 52.77 37.99 52.77 38.01 52.72"/><path class="cls-4" d="M39.89,51a3,3,0,0,1-1.35.57l-.37,0a3.05,3.05,0,0,1-.8-.06A3.2,3.2,0,0,1,36.05,51a3,3,0,0,1-1.22-2.22,2.66,2.66,0,0,1,0-.49,2.72,2.72,0,0,1,.32-1h0a.51.51,0,0,1,.34.13,2.72,2.72,0,0,0-.31.88,2,2,0,0,0,0,.49,2.55,2.55,0,0,0,1,1.87,2.84,2.84,0,0,0,1.69.62h.22a3.21,3.21,0,0,0,.62-.1,2.87,2.87,0,0,0,1-.47,2.55,2.55,0,0,0,1.07-2.2.78.78,0,0,0,0-.22,2.46,2.46,0,0,0-.37-1h.41a2.75,2.75,0,0,1,.34,1,1.64,1.64,0,0,1,0,.22A2.86,2.86,0,0,1,39.89,51Z"/><path class="cls-4" d="M53.54,52.89a.47.47,0,0,1-.51.35c-4-.27-8.09-.4-12.07-.44h-.19l-2.2,0a.52.52,0,0,0,.11-.1.69.69,0,0,1,.47-.2.66.66,0,0,1,.27.06.68.68,0,0,0,.2,0,.73.73,0,0,0,.68-.41.55.55,0,0,1,.12-.24.62.62,0,0,1,.44-.2.67.67,0,0,0,.7-.66.34.34,0,0,1,0-.1.57.57,0,0,1,.38-.52.62.62,0,0,0,.39-.56.66.66,0,0,0-.06-.27.51.51,0,0,1-.08-.29.55.55,0,0,1,.17-.41.7.7,0,0,0,.15-.62.55.55,0,0,0-.2-.3.7.7,0,0,1-.22-.49.57.57,0,0,1,0-.22h12a.51.51,0,0,1,.51.49A10.27,10.27,0,0,1,53.54,52.89Z"/><path class="cls-3" d="M37.81,52.76H38l0,.08L36.4,56.18l-.78-1.32-1.54.35,1.12-2.42.39-.82a.75.75,0,0,1,.54.34.59.59,0,0,0,.57.39.71.71,0,0,0,.31-.08,1,1,0,0,1,.29,0,.83.83,0,0,1,.45.14Z"/><path class="cls-5" d="M38.74,51.16l-.2.41-.37,0a3.05,3.05,0,0,1-.8-.06A3.2,3.2,0,0,1,36.05,51l.16-.35a2.84,2.84,0,0,0,1.69.62h.22A3.21,3.21,0,0,0,38.74,51.16Z"/><path class="cls-5" d="M38.17,51.61a3.05,3.05,0,0,1-.8-.06l.53-.3h.22a3.21,3.21,0,0,0,.62-.1,2.87,2.87,0,0,0,1-.47l.19.31a3,3,0,0,1-1.35.57Z"/><path class="cls-3" d="M42.58,55.52l-1.53-.18-.65,1.32-2.28-3.78-.07-.12h.52a.52.52,0,0,0,.11-.1.69.69,0,0,1,.47-.2.66.66,0,0,1,.27.06.68.68,0,0,0,.2,0,.73.73,0,0,0,.68-.41.55.55,0,0,1,.12-.24l.54.9Z"/><path class="cls-6" d="M41.12,48.27a2.75,2.75,0,0,0-.34-1,3.13,3.13,0,0,0-2.94-1.62,3.23,3.23,0,0,0-2.68,1.62,2.72,2.72,0,0,0-.32,1,2.66,2.66,0,0,0,0,.49A3,3,0,0,0,36.05,51a3.2,3.2,0,0,0,1.32.57,3.05,3.05,0,0,0,.8.06l.37,0A3,3,0,0,0,39.89,51a2.86,2.86,0,0,0,1.25-2.51A1.64,1.64,0,0,0,41.12,48.27ZM39.7,50.69a2.87,2.87,0,0,1-1,.47,3.21,3.21,0,0,1-.62.1H37.9a2.84,2.84,0,0,1-1.69-.62,2.55,2.55,0,0,1-1-1.87,2,2,0,0,1,0-.49,2.72,2.72,0,0,1,.31-.88,2.81,2.81,0,0,1,2.3-1.4,2.9,2.9,0,0,1,2.53,1.28,2.46,2.46,0,0,1,.37,1,.78.78,0,0,1,0,.22A2.55,2.55,0,0,1,39.7,50.69Z"/></g></g></svg>