<svg xmlns="http://www.w3.org/2000/svg" viewBox="0 0 75.61 75.61"><defs><style>.cls-1{fill:#234e9f;}.cls-2,.cls-3{fill:#fff;}.cls-3{stroke:#143359;stroke-miterlimit:10;stroke-width:0.27px;}</style></defs><g id="Layer_2" data-name="Layer 2"><g id="Layer_1-2" data-name="Layer 1"><circle class="cls-1" cx="37.81" cy="37.81" r="37.81"/><path class="cls-2" d="M40.19,38.8,17.05,31.46a.85.85,0,0,0-1.11.81V46a.85.85,0,0,0,.6.81l23.65,7.51a.92.92,0,0,0,.52,0l23.65-7.51A.85.85,0,0,0,65,46V32.27a.85.85,0,0,0-1.11-.81L40.71,38.8A.77.77,0,0,1,40.19,38.8Z"/><path class="cls-2" d="M17.34,30.67l22,7a.82.82,0,0,0,.44,0l22-7a.72.72,0,0,0,0-1.37l-22-6a.62.62,0,0,0-.38,0l-22,6A.71.71,0,0,0,17.34,30.67Z"/><path class="cls-3" d="M17.34,29.56l22,7.05a.82.82,0,0,0,.44,0l22-7a.71.71,0,0,0,0-1.36l-22-6a.81.81,0,0,0-.38,0l-22,6A.71.71,0,0,0,17.34,29.56Z"/><path class="cls-2" d="M17.34,28.63l22,7.05a.82.82,0,0,0,.44,0l22-7a.72.72,0,0,0,0-1.37l-22-6a.81.81,0,0,0-.38,0l-22,6A.71.71,0,0,0,17.34,28.63Z"/><path class="cls-2" d="M37.88,30.46l6.27,2a.15.15,0,0,0,.13,0l10.6-3.37a.2.2,0,0,0,0-.39L48.6,27a.2.2,0,0,0-.11,0l-10.6,3.09A.2.2,0,0,0,37.88,30.46Z"/><path class="cls-2" d="M25.65,28c0,.54,1,1,2.22,1s2.22-.44,2.22-1-1-1-2.22-1S25.65,27.42,25.65,28Z"/><path class="cls-2" d="M11.69,43.14A1.12,1.12,0,1,0,12.81,42,1.12,1.12,0,0,0,11.69,43.14Z"/><path class="cls-2" d="M12.81,43.73c.87,0,1-.16,1-.16v.91h-2.1v-.91S11.93,43.73,12.81,43.73Z"/><path class="cls-2" d="M11.27,44.79A1.92,1.92,0,0,1,12.78,44a1.9,1.9,0,0,1,1.63.93c.82,1.4.17,3.49-.74,4.69l-.15.23,0,0a1.74,1.74,0,0,0-.11.18l0,0-.11.2v0a2.53,2.53,0,0,0-.12.23c-.14.28-.26.56-.35.79a6,6,0,0,1-1.23-1.66,6.08,6.08,0,0,1-.79-2A3.65,3.65,0,0,1,11.27,44.79Z"/><path class="cls-2" d="M13.38,44.39l.14.17a4.68,4.68,0,0,1,.32.49,3.84,3.84,0,0,1,.17.35c0,.06,0,.13.07.2s0,.13.06.21,0,.14,0,.21l0,.23,0,.12v.35c0,.16,0,.32-.05.47s-.07.3-.11.44-.1.28-.15.41-.11.24-.16.35l-.08.16-.08.13-.13.22-.11.19.14-.17.15-.21.1-.12.09-.15.2-.35.17-.41c0-.14.09-.3.13-.46l.06-.49v-.38l0-.12,0-.24-.07-.23a1.72,1.72,0,0,0-.07-.21l-.09-.2a3.63,3.63,0,0,0-.2-.35l-.2-.27-.18-.19Z"/><path class="cls-2" d="M13,44.39l.05.24c0,.07,0,.16,0,.26l.05.35c0,.25.08.54.11.86,0,.16,0,.32,0,.49s0,.34,0,.51,0,.33,0,.5,0,.33,0,.49-.05.3-.08.45-.07.27-.11.39-.08.23-.12.33a1.85,1.85,0,0,1-.11.24l-.11.21.14-.19c0-.07.1-.14.14-.24a3.26,3.26,0,0,0,.15-.32c0-.12.09-.25.14-.39s.07-.3.1-.46,0-.33.07-.5,0-.34,0-.51,0-.35,0-.52,0-.34-.05-.5-.05-.31-.08-.46-.06-.28-.08-.4-.13-.46-.17-.6Z"/><path class="cls-2" d="M12.72,45s0,.08-.07.22-.09.34-.13.58,0,.26-.08.4l-.06.45c0,.31-.06.64-.07,1,0,.17,0,.34,0,.5s0,.32,0,.48a3.14,3.14,0,0,0,0,.45c0,.14,0,.28,0,.4a5.85,5.85,0,0,0,.11.59l.05.23,0-.23,0-.26,0-.34c0-.12,0-.26,0-.4s0-.29,0-.45,0-.31,0-.47,0-.33,0-.49c0-.33,0-.66,0-1s.05-.6.08-.84.05-.45.08-.6Z"/><path class="cls-2" d="M12.55,44.33l-.1.19a3.11,3.11,0,0,0-.24.51,7.43,7.43,0,0,0-.26.76c0,.15-.08.29-.11.45a3.4,3.4,0,0,0-.07.46,3.56,3.56,0,0,0,0,.47c0,.15,0,.3,0,.45a3,3,0,0,0,0,.43l0,.19,0,.18c0,.12,0,.23.06.32l.06.24.06.2L12,49l0-.24,0-.32,0-.18V48a2.94,2.94,0,0,1,0-.42,3.31,3.31,0,0,1,0-.44,3.59,3.59,0,0,1,0-.46,3.5,3.5,0,0,1,.07-.45c0-.15.05-.3.08-.44s.07-.28.1-.41.07-.25.11-.36.13-.4.18-.53S12.55,44.33,12.55,44.33Z"/><path class="cls-2" d="M11.69,45a4.39,4.39,0,0,0-.28.75,3.54,3.54,0,0,0-.09.38c0,.13-.06.28-.08.43s0,.3-.06.46,0,.32,0,.48,0,.32,0,.48a3.14,3.14,0,0,0,.08.46,1.86,1.86,0,0,0,.12.42,3.18,3.18,0,0,0,.14.37c.05.11.1.2.15.29l.14.21.13.18-.1-.2-.11-.22-.12-.3a3.07,3.07,0,0,1-.11-.36,2.59,2.59,0,0,1-.09-.42,3.06,3.06,0,0,1-.06-.45,3.55,3.55,0,0,1,0-.46c0-.16,0-.32,0-.47a3.42,3.42,0,0,1,0-.46c0-.14,0-.28,0-.42l.06-.38c.05-.23.09-.42.13-.56A1.83,1.83,0,0,1,11.69,45Z"/><path class="cls-2" d="M24.07,26.87,22.53,27c-2.07.22-2.19,0-4.29.26-.41.05-.84.06-1.3.07a4.9,4.9,0,0,0-3.19.77c-1.1.94-1,2.77-.92,4.23q0,.36,0,.69a44.77,44.77,0,0,1,.05,4.76c0,.28-.05.6-.06,1.34,0,2.31,0,3.74,0,3.75h-.34s0-1.45,0-3.76c0-.75,0-1.08.05-1.37a38.76,38.76,0,0,0,0-4.72c0-.21,0-.44,0-.68-.09-1.54-.19-3.46,1-4.51A5.13,5.13,0,0,1,16.94,27,12.59,12.59,0,0,0,18.2,27c2.1-.26,2.22,0,4.29-.26L24,26.53Z"/></g></g></svg>