<svg xmlns="http://www.w3.org/2000/svg" viewBox="0 0 75.61 75.61"><defs><style>.cls-1{isolation:isolate;}.cls-2{fill:#234e9f;}.cls-3,.cls-4{fill:#f1f2f2;}.cls-4{mix-blend-mode:multiply;opacity:0.75;}</style></defs><g class="cls-1"><g id="Layer_2" data-name="Layer 2"><g id="Layer_1-2" data-name="Layer 1"><circle class="cls-2" cx="37.81" cy="37.81" r="37.81"/><path class="cls-3" d="M31.25,49.51C29.77,48.15,28.31,47,27,45.79a25.21,25.21,0,0,1-3.33-3.39l-.07-.09a9.69,9.69,0,0,1-2-4.81v0c.09-3.94,3.11-4.09,4.15-2.1l.05.1a.69.69,0,0,1,0,.1,1.45,1.45,0,0,1,.09.22l0,.11h0A3.32,3.32,0,0,1,26,37a1.94,1.94,0,0,1,0,.24,4.41,4.41,0,0,1-.11.7,0,0,0,0,0,0,0,.25.25,0,0,0,.25.27h.48a.32.32,0,0,0,.26-.1.22.22,0,0,0,.05-.11c0-.09,0-.17,0-.25v0a7.84,7.84,0,0,0,0-1.45l0-.25h0a.22.22,0,0,1,0-.08c0-.1,0-.2-.05-.29h0a5.08,5.08,0,0,0-.15-.59c0-.11-.07-.22-.11-.33-1.46-3.6-6.56-1.87-6.27,2.74,0,2,1.22,4.38,3.34,6.84l.14.16a37,37,0,0,0,5.11,4.72l1.11.84c1.29.85.45,1.28.23,1.93,0,0-.11.14.15.44a.3.3,0,0,0,.18.11.6.6,0,0,0,.44-.19l-.19.22a1,1,0,0,1-.23.13l.09.18a1.3,1.3,0,0,0,.37-.11,1,1,0,0,0,.17-.1l.18-.13h0l.1-.1.1-.11.17-.24a1.66,1.66,0,0,0,.19-.43,2,2,0,0,0,.05-.24A2.2,2.2,0,0,0,31.25,49.51Zm-.41.68,0,0h0a1.7,1.7,0,0,1,.17.23c-.05-.08-.11-.15-.17-.23l0,0Zm.31,1.4-.06.12.06-.12a.79.79,0,0,0,.08-.26A.79.79,0,0,1,31.15,51.59Zm0-1a1,1,0,0,1,.12.32A1,1,0,0,0,31.1,50.57ZM25.29,34.21a2.1,2.1,0,0,0-.66-.38,2.1,2.1,0,0,1,.66.38l.15.13Zm.61.51-.11-.09Zm-.43-.36,0,0h0ZM21,35.59a3.69,3.69,0,0,1,.17-.42C21.09,35.31,21,35.45,21,35.59Zm1.64,6.78A11.84,11.84,0,0,1,21.81,41c-.14-.27-.27-.53-.38-.8.11.27.24.53.38.8a11.84,11.84,0,0,0,.81,1.33c.19.28.4.56.63.85C23,42.94,22.81,42.65,22.62,42.37Zm1.09,1.41-.09-.11-.09-.1.09.1h0l.09.11.13.15ZM27,47c-.27-.22-.52-.45-.77-.67.25.22.5.44.77.66l1.37,1.15Z"/><path class="cls-3" d="M32,51.41a2,2,0,0,1-.05.24,1.66,1.66,0,0,1-.19.43l-.17.24-.1.11-.1.1h0l-.18.13a1,1,0,0,1-.17.1,1.3,1.3,0,0,1-.37.11s-.16-.2-.14-.27l0-.07c.19-.32.75-.36.92-.74a1.72,1.72,0,0,0-.37-1.94l0,0-3.8-3.19-.05,0A25.13,25.13,0,0,1,23.65,43h0l-.07-.08a10,10,0,0,1-2.42-5.4,4.46,4.46,0,0,1,.51-2.46l.1-.14,0-.06.17-.21h0v0a2.68,2.68,0,0,1,.62-.54,2.23,2.23,0,0,1,2.69.1l.17.16h0a2.78,2.78,0,0,1,.6,1,4.26,4.26,0,0,1,.15.54c0,.14.05.29.07.45h0a2.83,2.83,0,0,1,0,.41h0v.45h0c0,.08,0,.15,0,.22a.08.08,0,0,1,0,0,6.5,6.5,0,0,1-.08.73,0,0,0,0,1,0,0h0c-.1,0-.39.09-.36,0s.05-.18.07-.27a4,4,0,0,0,.13-.73A1.94,1.94,0,0,0,26,37a3.1,3.1,0,0,0-.14-1.13l0-.1a1.45,1.45,0,0,0-.09-.22.69.69,0,0,0,0-.1l-.05-.1c-1.05-2-4.06-1.83-4.14,2.1h0a9.66,9.66,0,0,0,2,4.82l.07.09A24.49,24.49,0,0,0,27,45.76c1.33,1.17,2.8,2.37,4.29,3.74A2.18,2.18,0,0,1,32,51.41Z"/><path class="cls-3" d="M43.46,52.33s.38.39.64.09.15-.44.15-.44c-.23-.65-1.07-1.08.22-1.93,5.83-4.26,9.74-9,9.7-12.56.36-5.65-7.38-7-6.58.53,0,.13.11.22.3.22h.49a.25.25,0,0,0,.24-.3c-1-4.28,4.23-5.71,4.35-.49v0c-.61,5.08-5.08,7.76-9.72,12-1.59,1.53-.48,3.22.56,3.36l.09-.18a1.78,1.78,0,0,1-.82-.74,1.79,1.79,0,0,0,.58.61Zm5.76-18.12a2.22,2.22,0,0,1,2.69-.11,2.82,2.82,0,0,1,.92,1,2.82,2.82,0,0,0-.92-1,2.22,2.22,0,0,0-2.69.11Zm-5.59,16,0,0L47.47,47a23.38,23.38,0,0,0,4.41-4.62,9.73,9.73,0,0,0,1.87-4.81,4.88,4.88,0,0,0-.59-2.77,4.9,4.9,0,0,1,.59,2.78,9.81,9.81,0,0,1-1.86,4.8A24.06,24.06,0,0,1,47.47,47l-3.8,3.19,0,0a1.26,1.26,0,0,0-.28,1.37.75.75,0,0,0,.07.12.75.75,0,0,1-.07-.12A1.26,1.26,0,0,1,43.63,50.22Z"/><path class="cls-3" d="M43.25,49.5c4.64-4.26,9.11-6.94,9.72-12h0c-.12-5.36-5.68-3.66-4.27.79,0,.09-.27,0-.37,0a.07.07,0,0,1,0,0c-.29-1.82,0-3.27.93-4a2.25,2.25,0,0,1,2.7-.1,3.64,3.64,0,0,1,1.43,3.43c-.2,2.83-2.25,5.88-6.11,9.08l-3.85,3.23v0A1.73,1.73,0,0,0,43,51.79c.19.4.81.42.95.81,0,.07-.13.27-.13.27C42.77,52.74,41.66,51,43.25,49.5Z"/><path class="cls-3" d="M32.9,51c.11.55,1,1.17,1.16,1.7l0,0,.19.18.15.13.21.19.28.24.18.16c.23.19.47.38.72.56v.06h3v-.06L39,54l.28-.22h0l.09-.07.06,0,.11-.09c.34-.28.67-.58,1-.89.12-.12.25-.24.37-.37l.33-.34a.12.12,0,0,1,.05-.05l.36-.41,0,0,.31-.38.21-.26.17-.21.17-.22h0l0,0h0c.1-.12.19-.25.28-.38l.31-.44h0l0-.06h0c.06-.09.12-.19.19-.28l.18-.29c.06-.1.12-.19.17-.29s.12-.19.17-.29l.18-.31c.11-.2.22-.4.32-.61s.2-.39.3-.59l0,0c.08-.17.17-.35.24-.53.2-.44.39-.89.56-1.34.09-.23.17-.46.25-.69s.17-.47.24-.7.16-.48.23-.72.14-.49.2-.74.12-.44.18-.66a1.24,1.24,0,0,1,0-.16c0-.16.08-.33.11-.5s.06-.27.09-.41.09-.4.13-.61.07-.33.1-.5,0-.19,0-.28l0-.13c0-.2.07-.4.1-.61s.08-.51.11-.77v0c0-.28.07-.55.11-.83h0v0c0-.23.05-.46.07-.69a0,0,0,0,0,0,0s0-.1,0-.15c0-.26,0-.51.07-.76l.06-.86c0-.19,0-.39,0-.58s0-.2,0-.29,0-.15,0-.22a1.85,1.85,0,0,1,0-.23c0-.14,0-.28,0-.42a.85.85,0,0,0-.06-.36.16.16,0,0,0,0-.07.35.35,0,0,0,0-.08l0-.06a.63.63,0,0,0-.48-.23H27.34a.65.65,0,0,0-.48.23l0,.06a.35.35,0,0,0-.05.08.93.93,0,0,0-.1.37v.06c0,.79.06,1.56.12,2.33l0,.37c0,.17,0,.34,0,.51h0c0,.15,0,.3.05.45a.22.22,0,0,0,0,.08,2.06,2.06,0,0,0,0,.26c.07.65.16,1.28.26,1.91h0a.88.88,0,0,0,0,.16c.05.27.09.53.14.8h0c.18.93.39,1.83.63,2.71l.06.24c0,.12.07.24.11.36.09.32.19.64.29,1l0,.08Z"/><path class="cls-3" d="M44.44,61.83V62a.73.73,0,0,1-.67.76H30.32a.73.73,0,0,1-.67-.78v-.13a.87.87,0,0,1,.06-.32.68.68,0,0,1,.59-.45c2.51-.09,4.24,1.26,5.3-.28l0,0,.15-.23,0,0c.05,0,.1-.2.16-.5a.5.5,0,0,1,0-.12l0-.23a30.21,30.21,0,0,0,.27-3.22c0-.33,0-.64,0-.92,0-.11,0-.22,0-.32a.37.37,0,0,0,0-.11.74.74,0,0,1,.67-.84h.75a.62.62,0,0,1,.46.22.82.82,0,0,1,.21.63h0c0,.1,0,.2,0,.3a.49.49,0,0,1,0,.12,28.29,28.29,0,0,0,.19,4.13l0,.23a.5.5,0,0,0,0,.12c0,.32.1.5.15.45l.06.09.09.12a1.71,1.71,0,0,0,.11.14c1.2,1.52,2.83.09,4.84.26a.68.68,0,0,1,.57.46A.81.81,0,0,1,44.44,61.83Z"/><path class="cls-3" d="M34.63,50.81c0,.1,0,.2,0,.3a6.48,6.48,0,0,0,.47,2.5,3.42,3.42,0,0,0,1.18,1.58,1.76,1.76,0,0,0,1,.32,1.55,1.55,0,0,0,.56-.11,1.81,1.81,0,0,0,.54-.3,3.37,3.37,0,0,0,1-1.29,6.06,6.06,0,0,0,.53-2.1,5.12,5.12,0,0,0,0-.56v0c0-2.43-1.18-4.4-2.63-4.4"/><path class="cls-3" d="M37.82,54.86a0,0,0,0,0,0,0v.51c0,1.63.06,3.12.18,4.29l0,0a.47.47,0,0,1,.26.81l-.09.05c.8,2.54,3.29,1.3,6.24,1.41v-.17a.74.74,0,0,0-.63-.77c-2.07-.17-3.74,1.21-5-.4l-.09-.12a.32.32,0,0,0,.21-.08.45.45,0,0,0,.16-.36h0a.47.47,0,0,0-.47-.44h-.16a28.29,28.29,0,0,1-.19-4.13l0-.4,0,0a3.44,3.44,0,0,0,1-1.27v0c5.58-4.43,8.26-12.09,8.5-21.49a1,1,0,0,0-.06-.36,0,0,0,0,1,0-.07h.38a0,0,0,0,0,.05-.05V30a0,0,0,0,0-.05-.05H45.7a.05.05,0,0,0-.05.05c0,.44,0,1.14,0,1.56,0,.12,0,.25,0,.37-.35,7.2-1.92,13.78-5.71,19.27-.41.59-.84,1.17-1.31,1.74v0a4,4,0,0,1-.3,1.33,1.51,1.51,0,0,1-.11.22A2.41,2.41,0,0,1,37.82,54.86Z"/><path class="cls-3" d="M32.81,32.47l-2.2-.08h-.2l-.41,0-1.91-.06-1.39-.05h0a.05.05,0,0,1,0,0v-.42a0,0,0,0,1,.05-.05H47.79a0,0,0,0,1,.05.05v1.13s0,0,0,0h0l-2.26-.08-3.18-.1h-.24l-.77,0-.85,0h-.17l-.77,0"/><rect class="cls-3" x="26.35" y="29.82" width="21.92" height="1.98" rx="0.31"/><path class="cls-3" d="M44.44,61.83V62a.73.73,0,0,1-.67.76H30.32a.73.73,0,0,1-.67-.78v-.13a.87.87,0,0,1,.06-.32H44.38A.81.81,0,0,1,44.44,61.83Z"/><rect class="cls-3" x="32.3" y="55.51" width="9.97" height="3.86" rx="1.34"/><path class="cls-3" d="M50.44,21c-5.4-2.31-12.63-2.2-12.63-2.2s-7.24-.11-12.64,2.2l-.58,10.41s3.45,3,13.22,3,13.21-3,13.21-3Z"/><path class="cls-3" d="M37.81,32.7c-8.89,0-12.54-2.47-13.13-2.92l0,.81c.42.34,4,3,13.17,3s12.75-2.62,13.17-3l0-.81C50.35,30.23,46.7,32.7,37.81,32.7Z"/><path class="cls-4" d="M50.77,26.91l-.33-6a30.79,30.79,0,0,0-8.83-2l-12.42.75a25.37,25.37,0,0,0-4,1.27l-.23,4.22C28.93,27.39,39.18,31.82,50.77,26.91Z"/><polygon class="cls-3" points="37.81 27.25 37.81 28.11 16.59 20.48 16.59 20.05 37.81 27.25"/><polygon class="cls-3" points="37.81 12.85 16.59 20.05 37.81 27.25 59.02 20.05 37.81 12.85"/><polygon class="cls-3" points="37.81 27.25 37.81 28.11 59.02 20.48 59.02 20.05 37.81 27.25"/><path class="cls-3" d="M51.66,28.21a.21.21,0,0,1-.23-.15c-1.34-4.84-3.13-7.54-5.46-8.24-3-.92-7.59.2-7.63.21a.22.22,0,0,1-.27-.16.21.21,0,0,1,.16-.26c.19-.05,4.72-1.16,7.87-.21,2.48.75,4.36,3.54,5.75,8.54a.22.22,0,0,1-.16.27Z"/><path class="cls-3" d="M51.27,28.65l.92,4.9a5.51,5.51,0,0,0,2.36-.63l-2.28-4.53S51.51,28.31,51.27,28.65Z"/><path class="cls-3" d="M51.43,27.26c-.58.32-.16,1.39-.16,1.39a1.69,1.69,0,0,0,1-.26S52.09,27.24,51.43,27.26Z"/></g></g></g></svg>