<?xml version="1.0" encoding="UTF-8"?><svg xmlns="http://www.w3.org/2000/svg" viewBox="0 0 310 399.99"><defs><style>.d{fill:#fff;}.e{fill:#cbcdce;}</style></defs><g id="a"/><g id="b"><g id="c"><path class="d" d="M278.83,33.42c18.43,5.09,31.17,21.67,31.17,40.56v251.62c0,19.06-13.01,35.7-31.68,40.65l-115.42,32.39,37.1-78.63V70.01L168.52,1.16l110.31,32.26Z"/><path class="e" d="M200,310.01v39.27c0,38.03-38.24,62.49-70.19,44.91l-69.36-44.45c-8.02-4.66-12.36-14.62-9.64-24.57,2.53-9.26,11.21-15.16,20.34-15.16H200Z"/><path class="e" d="M64.56,282.29l-34,15.02c-13.62,8.02-30.56-2.12-30.56-18.29V109.05c0-15.36,8.11-29.5,21.16-36.91L139.46,5.27c27.23-15.43,60.54,4.88,60.54,36.92v30.9l-100.37,34.86c-11.83,4.69-19.63,16.42-19.63,29.49v117.42c0,11.33-5.9,21.8-15.44,27.43Z"/></g></g></svg>