<svg id="Layer_1" data-name="Layer 1" xmlns="http://www.w3.org/2000/svg" viewBox="0 0 500 500"><defs><style>.cls-1{fill:#f2decf;}.cls-2{fill:#f2decc;}.cls-3{fill:#484548;}.cls-4{fill:#fff;}.cls-5{fill:#f6ba18;}.cls-6{fill:#c7e2ef;}.cls-7{fill:#274e9f;}</style></defs><path class="cls-1" d="M96.91,105.13v212.1c9.87,101.21,159.77,168.69,159.77,168.69S400,418.44,409.87,317.23l2.9-212.1L256.22,73.73,96.91,105.13Z"/><path class="cls-2" d="M245.41,127.8c-10.52-11.83-26.07-22.5-48.86-26.14v-44c42.4,8.9,48.21,50.23,48.44,52.07l.42,3.17v14.9Z"/><path class="cls-3" d="M203,66.16c30.91,11,35.4,42.86,35.6,44.39l.29,2.26A87.24,87.24,0,0,0,203,96.3V66.16Zm-12.9-16v57.2c34.44,3.51,52.49,23.59,61.75,41.12V108.85l-.46.06c-.29-2.2-7.4-52.76-61.29-58.8"/><path class="cls-2" d="M256.3,75.51A86.79,86.79,0,0,0,242.15,57l14.44-13.76,14,13.63A86.29,86.29,0,0,0,256.3,75.51"/><path class="cls-3" d="M256.53,52.14l5,4.88c-1.84,2.1-3.6,4.3-5.26,6.6q-2.42-3.33-5.08-6.41l5.32-5.07Zm.11-23.66-24,28.58c12.44,10.23,19.59,23.09,23.62,33.3,4-10.23,11.21-23.12,23.7-33.36L256.64,28.48Z"/><path class="cls-2" d="M268.18,106.53C270.5,95.85,280.23,65.18,316,57.66v44c-22.15,3.55-37.43,13.77-47.85,25.07v-20.2Z"/><path class="cls-3" d="M309.59,66.12V96.31a87.06,87.06,0,0,0-35,15.82v-4.88a64,64,0,0,1,11-23.76,50.57,50.57,0,0,1,23.95-17.37m12.89-16c-47,5.27-58.4,44.33-60.75,55.75v40.75c9.53-17.07,27.49-35.91,60.75-39.3V50.11Z"/><path class="cls-2" d="M158.72,319.65c-19.59-29.43-48-46.43-82.69-49.57,1.87-22.81,9.55-57.11,26.2-87.54,13.1-23.95,35.91-52.62,71.47-57.74V193c-13,5-23.9,16.61-31.71,33.88a125.56,125.56,0,0,0-9,29l-1,6.36,22.49,3.62,1-6.35c1.42-8.61,7.12-29.23,18.17-39.89v43.72l.05.94,0,.2c0,.35,3.51,34.54-15.06,55.1"/><path class="cls-3" d="M167.25,132.68V188.8c-31.51,15.4-39.68,60.58-40.57,66.13l-2,12.73,12.72,2,9.76,1.58,12.63,2,2.13-12.62a95.61,95.61,0,0,1,5.37-18.42V263.6l0,.36,0,.57v.29l.06.39c0,.3,2.47,25.14-8.56,43.52a116.91,116.91,0,0,0-31.52-28.6,114.64,114.64,0,0,0-44.23-15.72c2.59-21.83,10.09-51.85,24.82-78.78,18.84-34.44,41-48.16,59.37-52.95m12.9-15c-42.27,2.35-68.69,34.56-83.58,61.75C78.76,212,70.18,250.4,69.2,276.1c38.59,1.52,68.94,20.66,88.2,53.6,27.51-21.76,22.83-65.43,22.78-65.9l0-.58V208.06c-23.94,8.51-30.91,50-31,50.49L139.41,257c.34-2.13,8.62-51.22,40.74-59.24V117.69Z"/><path class="cls-2" d="M187.19,422.11c-1-31.22-6.7-58.66-17.1-81.74,12.2-10.7,20.6-26,24.41-44.68a118.38,118.38,0,0,0,2-33.05V182.81l.08-6.45V124.78c42.39,9,48.21,51.11,48.44,53l.42,3.24V301.87c0,18.61-4.43,50.18-16.86,77.85-7.74,17.21-21,37.68-41.36,42.39"/><path class="cls-3" d="M203,133.32c30.9,11.22,35.4,43.7,35.6,45.26l.36,2.84V301.87c0,18-4.26,48.47-16.29,75.21-6.06,13.48-15.67,29.12-29.44,36-1.61-26.62-6.78-50.45-15.42-71.13,11.39-11.39,19.27-26.75,23-45a125.63,125.63,0,0,0,2.11-34.62v-73.1H203V133.32Zm-12.9-16.1v59.14H190V263a110.65,110.65,0,0,1-1.84,31.43c-3.94,19.29-12.89,34.36-26.07,44.16,11.91,24.28,18.5,54.91,18.77,90.73l.24.19c27.14-1.61,43.93-26.26,53.31-47.11,12.85-28.59,17.42-61.23,17.42-80.49v-125l-.46.06c-.29-2.24-7.4-53.65-61.29-59.74"/><path class="cls-2" d="M338.66,255.14c0-58.39,17.65-74.21,32.65-79.8l49.75,55.22-21,40.34c-12.74,1.15-40.3,5.13-61.4,18.72V255.14Z"/><path class="cls-3" d="M369.67,183.15l43.6,48.4L396,264.84c-12.13,1.34-32.46,4.84-50.85,13.81V255.14c0-49,12.53-65.59,24.57-72m3.63-15.24c-28,8-41.08,35.71-41.08,87.23v47.68C354,281.8,393,277.77,404.12,277l24.72-47.47L373.3,167.91Z"/><path class="cls-2" d="M255.71,468.74c-8-3.56-24.45-11.14-36.76-18.73-3.87-2.38-8.7-5.75-14.23-9.92,18-8.42,33.27-25.82,44.6-51,13.92-31,18.85-66.31,18.85-87.19V174.52c2.55-11.87,13.65-46.9,56.45-51l30.72,34.11c-35.15,18.84-39.45,64.1-39.45,97.54v84.05c0,35.33-8.07,66.06-23.95,91.35a130.44,130.44,0,0,1-36.23,38.2"/><path class="cls-3" d="M322.05,130.28l23.34,25.91c-12.7,8.94-22.09,22.19-28,39.57-7.11,20.79-7.93,43.85-7.93,59.38v84.05c0,34.1-7.72,63.67-23,87.92A125.1,125.1,0,0,1,255,461.35c-8.53-3.87-22.16-10.36-32.65-16.83-1.7-1-3.6-2.3-5.68-3.74,15.41-10.13,28.5-26.73,38.55-49.07,14.34-31.89,19.43-68.33,19.43-89.84V175.22a65.38,65.38,0,0,1,11.82-25.28C295,139,307,132.39,322.05,130.28m5.24-13.46c-51,3.06-63.12,45-65.56,57v128c0,20.24-4.79,54.52-18.29,84.55-13,28.92-30.82,46.45-52,51.53,7.32,5.84,16.62,12.93,24.11,17.55,14.51,8.94,34.11,17.67,40.79,20.57,21.48-13.87,66-52.78,66-136.88V255.14c0-34.5,4.71-81,43.72-95.28l-38.76-43Z"/><path class="cls-2" d="M332.36,107.7V39.52l-5.22.29c-16.15.89-28.87,5.28-38.94,11.4L256.72,12.83,224.44,51.25c-10.07-6.14-22.83-10.54-39-11.44l-5.21-.29v68.27c-84.4,4.14-121,115.71-121,173.15v4.94h4.94c65.91,0,106.84,55.83,106.84,145.69v2.28l1.72,1.48c.91.78,22.34,19.13,37.66,28.58,18.32,11.29,43.44,21.83,44.5,22.28l2.34,1,2.16-1.33c21.89-13.44,72.84-54.64,72.84-146.65V318.56c17.38-29.61,74.56-31.77,75.14-31.79l2.9-.09,30.52-58.63L332.36,107.7Zm-9.88-.39c-33.26,3.39-51.21,22.22-60.75,39.3V105.86c2.35-11.42,13.79-50.48,60.75-55.75v57.2ZM256.64,28.47,280,57c-12.49,10.24-19.65,23.13-23.7,33.36-4-10.21-11.18-23.07-23.62-33.29l24-28.6Zm-5.25,80.44.46-.06v39.58c-9.26-17.53-27.31-37.61-61.75-41.12V50.11c53.89,6,61,56.59,61.29,58.8M69.2,276.1c1-25.7,9.56-64.1,27.37-96.66,14.89-27.19,41.31-59.4,83.58-61.75v80.05c-32.12,8-40.4,57.11-40.74,59.23l9.76,1.58c.07-.45,7-42,31-50.49v55.17l0,.57c.06.47,4.74,44.14-22.77,65.9-19.26-32.94-49.61-52.08-88.2-53.6m92.91,62.45c13.17-9.8,22.13-24.87,26.07-44.16A110.65,110.65,0,0,0,190,263v-86.6h.08V117.22c53.89,6.09,61,57.5,61.29,59.74l.46-.06v125c0,19.26-4.57,51.89-17.42,80.49-9.38,20.85-26.17,45.5-53.31,47.11l-.24-.19c-.27-35.82-6.85-66.45-18.77-90.73m160.22.64c0,84.1-44.5,123-66,136.88-6.68-2.9-26.28-11.63-40.79-20.57-7.49-4.62-16.79-11.71-24.11-17.55,21.17-5.08,39-22.61,52-51.53,13.49-30,18.28-64.31,18.28-84.55v-128c2.44-12,14.58-54,65.56-57l38.76,43c-39,14.29-43.72,60.78-43.72,95.28v84.05ZM404.12,277c-11.09.73-50.12,4.76-71.9,25.79V255.14c0-51.51,13.08-79.26,41.08-87.23l55.54,61.66L404.12,277Z"/><path class="cls-3" d="M256.72,12.83,224.44,51.25c-10.07-6.14-22.83-10.54-39-11.44l-5.22-.28v68.26c-84.4,4.14-121,115.71-121,173.15v4.94h4.93c65.91,0,106.84,55.83,106.84,145.7v2.27l1.72,1.48c.91.78,22.34,19.13,37.66,28.58,18.32,11.29,43.44,21.83,44.5,22.28l2.34,1,2.16-1.33c21.9-13.44,72.84-54.64,72.84-146.65V318.56c17.38-29.61,74.56-31.77,75.14-31.79l2.89-.09,30.53-58.63L332.36,107.7V39.53l-5.22.28c-16.15.89-28.87,5.28-38.94,11.4L256.72,12.83Zm-.43,77.53c-4-10.21-11.18-23.07-23.62-33.29l24-28.59L280,57c-12.49,10.24-19.65,23.13-23.7,33.36m5.44,56.25V105.86c2.35-11.42,13.79-50.48,60.75-55.75v57.2c-33.26,3.39-51.22,22.23-60.75,39.3m-9.88,1.81c-9.26-17.52-27.31-37.6-61.75-41.11V50.11c53.89,6,61,56.59,61.29,58.8l.46-.06v39.57Zm4.5,327.65c-6.68-2.9-26.28-11.63-40.79-20.58-7.49-4.61-16.79-11.71-24.11-17.54,21.17-5.08,39-22.61,52-51.53,13.49-30,18.28-64.31,18.28-84.55v-128c2.44-12,14.58-54,65.56-57l38.76,43c-39,14.29-43.72,60.78-43.72,95.28v84.05c0,84.1-44.5,123-66,136.88m-75.23-46.6-.24-.19c-.27-35.82-6.86-66.45-18.77-90.74,13.18-9.79,22.13-24.86,26.08-44.15A111.47,111.47,0,0,0,190,263v-86.6h.07V117.22c53.89,6.09,61,57.5,61.29,59.74l.46-.06v125c0,19.26-4.56,51.89-17.42,80.49-9.38,20.85-26.17,45.5-53.31,47.11M157.4,329.69c-19.26-32.93-49.6-52.07-88.2-53.59,1-25.7,9.56-64.1,27.37-96.66,14.89-27.19,41.31-59.4,83.58-61.75v80.05c-32.12,8-40.4,57.11-40.74,59.24l9.76,1.57c.07-.45,7-42,31-50.49v55.17l0,.57c0,.47,4.74,44.14-22.78,65.89m174.82-26.87V255.14c0-51.52,13.08-79.26,41.08-87.23l55.54,61.66L404.12,277c-11.09.73-50.12,4.76-71.9,25.78"/><path class="cls-4" d="M322.48,107.31c-33.26,3.39-51.22,22.23-60.75,39.3V105.86c2.35-11.42,13.79-50.48,60.75-55.75v57.2Z"/><path class="cls-5" d="M256.64,28.47,280,57c-12.49,10.24-19.65,23.13-23.7,33.36-4-10.21-11.18-23.07-23.62-33.29l24-28.6Z"/><path class="cls-4" d="M251.39,108.91l.46-.06v39.58c-9.26-17.53-27.31-37.61-61.75-41.12V50.11c53.89,6,61,56.6,61.29,58.8"/><path class="cls-4" d="M69.2,276.1c1-25.7,9.56-64.09,27.37-96.66,14.89-27.19,41.31-59.4,83.58-61.75v80.05c-32.12,8-40.4,57.11-40.74,59.24l9.76,1.57c.07-.45,7-42,31-50.49v55.17l0,.57c0,.47,4.74,44.14-22.78,65.9-19.26-32.94-49.61-52.08-88.2-53.6"/><path class="cls-6" d="M162.11,338.55c13.17-9.8,22.13-24.87,26.07-44.16A110.65,110.65,0,0,0,190,263v-86.6h.08V117.22c53.89,6.09,61,57.5,61.29,59.74l.46-.06v125c0,19.26-4.56,51.89-17.42,80.49-9.38,20.85-26.17,45.5-53.31,47.11l-.24-.19c-.27-35.82-6.85-66.45-18.77-90.73"/><path class="cls-7" d="M322.33,339.19c0,84.1-44.5,123-66,136.88-6.68-2.9-26.27-11.63-40.79-20.57-7.49-4.62-16.79-11.71-24.11-17.55,21.17-5.08,39-22.61,52-51.53,13.49-30,18.28-64.31,18.28-84.55v-128c2.44-12,14.58-54,65.56-57l38.76,43c-39,14.29-43.72,60.78-43.72,95.28v84.05Z"/><path class="cls-4" d="M404.12,277c-11.09.73-50.12,4.76-71.9,25.79V255.14c0-51.51,13.08-79.26,41.08-87.23l55.54,61.66L404.12,277Z"/><polygon class="cls-3" points="389.2 209.35 369.89 209.35 389.2 221.89 389.2 209.35 389.2 209.35"/></svg>