<?xml version="1.0" encoding="UTF-8" standalone="no"?>
<svg
   id="Layer_1"
   data-name="Layer 1"
   viewBox="0 0 500 500"
   version="1.1"
   sodipodi:docname="2.svg"
   inkscape:version="1.1.2 (b8e25be833, 2022-02-05)"
   xmlns:inkscape="http://www.inkscape.org/namespaces/inkscape"
   xmlns:sodipodi="http://sodipodi.sourceforge.net/DTD/sodipodi-0.dtd"
   xmlns="http://www.w3.org/2000/svg"
   xmlns:svg="http://www.w3.org/2000/svg">
  <sodipodi:namedview
     id="namedview597"
     pagecolor="#ffffff"
     bordercolor="#666666"
     borderopacity="1.0"
     inkscape:pageshadow="2"
     inkscape:pageopacity="0.0"
     inkscape:pagecheckerboard="0"
     showgrid="false"
     showguides="false"
     inkscape:zoom="0.4384062"
     inkscape:cx="-99.223048"
     inkscape:cy="132.2974"
     inkscape:window-width="1600"
     inkscape:window-height="829"
     inkscape:window-x="-8"
     inkscape:window-y="-8"
     inkscape:window-maximized="1"
     inkscape:current-layer="layer1" />
  <defs
     id="defs306">
    <style
       id="style304">.cls-1{fill:#231f20;}</style>
  </defs>
  <g
     inkscape:groupmode="layer"
     id="layer1"
     inkscape:label="Layer 1"
     style="opacity:0.05">
    <g
       id="g4041">
      <path
         class="cls-1"
         d="M 122.43656,97.288032 C 93.560317,100.18902 77.967546,116.37346 69.703568,131.12647 V 95.971147 C 71.74569,86.123065 81.670132,52.475483 122.43656,47.933161 Z"
         id="path392"
         style="stroke-width:1.90854" />
      <path
         class="cls-1"
         d="M 65.275725,29.286722 85.544447,53.868728 A 70.616036,70.616036 0 0 0 64.970386,82.611339 70.348839,70.348839 0 0 0 44.472644,53.983228 L 65.275725,29.343952 Z"
         id="path394"
         style="stroke-width:1.90854" />
      <path
         class="cls-1"
         d="m 60.733402,98.585847 h 0.381719 V 132.6724 C 53.080142,117.57582 37.411031,100.2272 7.5232658,97.268962 V 47.933161 C 54.301617,53.143471 60.485313,96.696404 60.733402,98.585847"
         id="path396"
         style="stroke-width:1.90854" />
      <path
         class="cls-1"
         d="m 245.93827,97.288032 c -28.87624,2.900988 -44.44992,19.085428 -52.73298,33.838438 V 95.971147 c 2.04214,-9.848082 11.96652,-43.495664 52.73298,-48.037986 z"
         id="path398"
         style="stroke-width:1.90854" />
      <path
         class="cls-1"
         d="m 188.77746,29.286722 20.2878,24.582006 A 70.272497,70.272497 0 0 0 188.49117,82.611339 70.616036,70.616036 0 0 0 167.97436,53.983228 l 20.8031,-24.639276 z"
         id="path400"
         style="stroke-width:1.90854" />
      <path
         class="cls-1"
         d="m 184.23512,98.585847 h 0.40081 V 132.6724 C 176.60095,117.57582 160.91275,100.2272 131.025,97.268962 V 47.933161 c 46.77835,5.21031 52.96201,48.763243 53.21012,50.652686"
         id="path402"
         style="stroke-width:1.90854" />
      <path
         class="cls-1"
         d="m 369.45908,97.288032 c -28.87624,2.900988 -44.46901,19.085428 -52.73299,33.838438 V 95.971147 c 2.02304,-9.848082 11.94746,-43.495664 52.73299,-48.037986 z"
         id="path404"
         style="stroke-width:1.90854" />
      <path
         class="cls-1"
         d="m 312.29825,29.286722 20.26874,24.582006 A 70.444267,70.444267 0 0 0 311.99291,82.611339 70.711462,70.711462 0 0 0 291.49515,53.983228 l 20.8031,-24.639276 z"
         id="path406"
         style="stroke-width:1.90854" />
      <path
         class="cls-1"
         d="m 307.73686,98.585847 h 0.40079 V 132.6724 C 300.0836,117.57582 284.43356,100.2272 254.52672,97.268962 V 47.933161 c 46.77835,5.21031 52.96201,48.763243 53.21014,50.652686"
         id="path408"
         style="stroke-width:1.90854" />
      <path
         class="cls-1"
         d="m 122.43656,210.97987 c -28.876243,2.92004 -44.469014,19.08538 -52.732992,33.85751 v -35.11717 c 2.042122,-9.82899 11.966564,-43.49564 52.732992,-48.03796 z"
         id="path428"
         style="stroke-width:1.90854" />
      <path
         class="cls-1"
         d="m 65.275725,143.09304 20.268722,24.582 A 70.616036,70.616036 0 0 0 64.970386,196.30317 70.348839,70.348839 0 0 0 44.472644,167.67504 Z"
         id="path430"
         style="stroke-width:1.90854" />
      <path
         class="cls-1"
         d="m 60.733402,212.354 h 0.381719 v 34.08655 C 53.080142,231.344 37.411031,213.99536 7.5232658,211.01803 V 161.68225 C 54.301617,166.89256 60.485313,210.44547 60.733402,212.354"
         id="path432"
         style="stroke-width:1.90854" />
      <path
         class="cls-1"
         d="m 245.93827,210.97987 c -28.87624,2.92004 -44.44992,19.08538 -52.73298,33.85751 v -35.11717 c 2.04214,-9.82899 11.96652,-43.49564 52.73298,-48.03796 z"
         id="path434"
         style="stroke-width:1.90854" />
      <path
         class="cls-1"
         d="m 188.77746,143.09304 20.2878,24.582 a 70.21524,70.21524 0 0 0 -20.57409,28.62813 70.616036,70.616036 0 0 0 -20.51681,-28.62813 l 20.8031,-24.6202 z"
         id="path436"
         style="stroke-width:1.90854" />
      <path
         class="cls-1"
         d="m 184.23512,212.354 h 0.40081 v 34.08655 C 176.60095,231.344 160.91275,213.99536 131.025,211.01803 v -49.33578 c 46.77835,5.21031 52.96201,48.76322 53.21012,50.67175"
         id="path438"
         style="stroke-width:1.90854" />
      <path
         class="cls-1"
         d="m 369.45908,210.97987 c -28.87624,2.92004 -44.46901,19.08538 -52.73299,33.85751 v -35.11717 c 2.02304,-9.82899 11.94746,-43.49564 52.73299,-48.03796 z"
         id="path440"
         style="stroke-width:1.90854" />
      <path
         class="cls-1"
         d="m 312.29825,143.09304 20.26874,24.582 a 70.406095,70.406095 0 0 0 -20.57408,28.62813 70.711462,70.711462 0 0 0 -20.49776,-28.62813 l 20.8031,-24.6202 z"
         id="path442"
         style="stroke-width:1.90854" />
      <path
         class="cls-1"
         d="m 307.73686,212.354 h 0.40079 v 34.08655 C 300.0836,231.344 284.43356,213.99536 254.52672,211.01803 v -49.33578 c 46.77835,5.21031 52.96201,48.76322 53.21014,50.67175"
         id="path444"
         style="stroke-width:1.90854" />
      <path
         class="cls-1"
         d="m 122.43656,321.46533 c -28.876243,2.92006 -44.469014,19.08541 -52.732992,33.85754 v -35.09812 c 2.042122,-9.84804 11.966564,-43.49564 52.732992,-48.03799 z"
         id="path464"
         style="stroke-width:1.90854" />
      <path
         class="cls-1"
         d="m 65.275725,253.54032 20.268722,24.58201 A 70.616036,70.616036 0 0 0 64.970386,306.86498 70.348839,70.348839 0 0 0 44.472644,278.23685 l 20.803081,-24.63926 z"
         id="path466"
         style="stroke-width:1.90854" />
      <path
         class="cls-1"
         d="m 60.733402,322.83949 h 0.381719 v 34.01019 C 53.080142,341.75311 37.411031,324.40446 7.5232658,321.42716 v -49.2404 c 46.7783512,5.21033 52.9620472,48.76325 53.2101362,50.65273"
         id="path468"
         style="stroke-width:1.90854" />
      <path
         class="cls-1"
         d="m 245.93827,321.46533 c -28.87624,2.92006 -44.44992,19.08541 -52.73298,33.85754 v -35.09812 c 2.04214,-9.84804 11.96652,-43.49564 52.73298,-48.03799 z"
         id="path470"
         style="stroke-width:1.90854" />
      <path
         class="cls-1"
         d="m 188.77746,253.54032 20.2878,24.58201 a 70.272497,70.272497 0 0 0 -20.57409,28.74265 70.616036,70.616036 0 0 0 -20.51681,-28.62813 l 20.8031,-24.63926 z"
         id="path472"
         style="stroke-width:1.90854" />
      <path
         class="cls-1"
         d="m 184.23512,322.83949 h 0.40081 v 34.01019 C 176.60095,341.75311 160.91275,324.40446 131.025,321.42716 v -49.2404 c 46.77835,5.21033 52.96201,48.76325 53.21012,50.65273"
         id="path474"
         style="stroke-width:1.90854" />
      <path
         class="cls-1"
         d="m 369.45908,321.46533 c -28.87624,2.92006 -44.46901,19.08541 -52.73299,33.85754 v -35.09812 c 2.02304,-9.84804 11.94746,-43.49564 52.73299,-48.03799 z"
         id="path476"
         style="stroke-width:1.90854" />
      <path
         class="cls-1"
         d="m 312.29825,253.54032 20.26874,24.58201 a 70.444267,70.444267 0 0 0 -20.57408,28.74265 70.711462,70.711462 0 0 0 -20.49776,-28.62813 l 20.8031,-24.63926 z"
         id="path478"
         style="stroke-width:1.90854" />
      <path
         class="cls-1"
         d="m 307.73686,322.83949 h 0.40079 v 34.01019 c -8.05405,-15.09657 -23.70409,-32.44522 -53.61093,-35.42252 v -49.2404 c 46.77835,5.21033 52.96201,48.76325 53.21014,50.65273"
         id="path480"
         style="stroke-width:1.90854" />
      <path
         class="cls-1"
         d="M 122.43656,435.21438 C 93.560317,438.15355 77.967546,454.29981 69.703568,469.091 v -35.11716 c 2.042122,-9.84807 11.966564,-43.49565 52.732992,-48.03799 z"
         id="path500"
         style="stroke-width:1.90854" />
      <path
         class="cls-1"
         d="m 65.275725,367.28941 20.268722,24.58201 A 70.616036,70.616036 0 0 0 64.970386,420.61403 70.234326,70.234326 0 0 0 44.472644,391.98592 l 20.803081,-24.63926 z"
         id="path502"
         style="stroke-width:1.90854" />
      <path
         class="cls-1"
         d="m 60.733402,436.60762 h 0.381719 v 34.10564 C 53.080142,455.5976 37.411031,438.26805 7.5232658,435.27165 v -49.3358 c 46.7783512,5.21031 52.9620472,48.76326 53.2101362,50.67177"
         id="path504"
         style="stroke-width:1.90854" />
      <path
         class="cls-1"
         d="m 245.93827,435.21438 c -28.87624,2.93917 -44.44992,19.08543 -52.73298,33.87662 v -35.11716 c 2.04214,-9.84807 11.96652,-43.49565 52.73298,-48.03799 z"
         id="path506"
         style="stroke-width:1.90854" />
      <path
         class="cls-1"
         d="m 188.77746,367.28941 20.2878,24.58201 a 70.272497,70.272497 0 0 0 -20.57409,28.74261 70.482437,70.482437 0 0 0 -20.51681,-28.62811 l 20.8031,-24.63926 z"
         id="path508"
         style="stroke-width:1.90854" />
      <path
         class="cls-1"
         d="m 184.23512,436.60762 h 0.40081 v 34.10564 C 176.60095,455.5976 160.91275,438.26805 131.025,435.27165 v -49.3358 c 46.77835,5.21031 52.96201,48.76326 53.21012,50.67177"
         id="path510"
         style="stroke-width:1.90854" />
      <path
         class="cls-1"
         d="m 369.45908,435.21438 c -28.87624,2.93917 -44.46901,19.08543 -52.73299,33.87662 v -35.11716 c 2.02304,-9.84807 11.94746,-43.49565 52.73299,-48.03799 z"
         id="path512"
         style="stroke-width:1.90854" />
      <path
         class="cls-1"
         d="m 312.29825,367.28941 20.26874,24.58201 a 70.444267,70.444267 0 0 0 -20.57408,28.74261 70.616036,70.616036 0 0 0 -20.49776,-28.62811 l 20.8031,-24.63926 z"
         id="path514"
         style="stroke-width:1.90854" />
      <path
         class="cls-1"
         d="m 307.73686,436.60762 h 0.40079 v 34.10564 C 300.0836,455.5976 284.43356,438.26805 254.52672,435.27165 v -49.3358 c 46.77835,5.21031 52.96201,48.76326 53.21014,50.67177"
         id="path516"
         style="stroke-width:1.90854" />
      <path
         class="cls-1"
         d="m 492.63252,97.288032 c -28.87624,2.900988 -44.46901,19.085428 -52.73299,33.838438 V 95.971147 c 2.02304,-9.848082 11.94746,-43.495664 52.73299,-48.037986 z"
         id="path3916"
         style="stroke-width:1.90854" />
      <path
         class="cls-1"
         d="m 435.47169,29.286722 20.26874,24.582006 A 70.444267,70.444267 0 0 0 435.16635,82.611339 70.711462,70.711462 0 0 0 414.66859,53.983228 l 20.8031,-24.639276 z"
         id="path3918"
         style="stroke-width:1.90854" />
      <path
         class="cls-1"
         d="m 430.9103,98.585847 h 0.40079 V 132.6724 C 423.25704,117.57582 407.607,100.2272 377.70016,97.268962 V 47.933161 c 46.77835,5.21031 52.96201,48.763243 53.21014,50.652686"
         id="path3920"
         style="stroke-width:1.90854" />
      <path
         class="cls-1"
         d="m 492.63252,210.97987 c -28.87624,2.92004 -44.46901,19.08538 -52.73299,33.85751 v -35.11717 c 2.02304,-9.82899 11.94746,-43.49564 52.73299,-48.03796 z"
         id="path3922"
         style="stroke-width:1.90854" />
      <path
         class="cls-1"
         d="m 435.47169,143.09304 20.26874,24.582 a 70.406095,70.406095 0 0 0 -20.57408,28.62813 70.711462,70.711462 0 0 0 -20.49776,-28.62813 l 20.8031,-24.6202 z"
         id="path3924"
         style="stroke-width:1.90854" />
      <path
         class="cls-1"
         d="m 430.9103,212.354 h 0.40079 v 34.08655 C 423.25704,231.344 407.607,213.99536 377.70016,211.01803 v -49.33578 c 46.77835,5.21031 52.96201,48.76322 53.21014,50.67175"
         id="path3926"
         style="stroke-width:1.90854" />
      <path
         class="cls-1"
         d="m 492.63252,321.46533 c -28.87624,2.92006 -44.46901,19.08541 -52.73299,33.85754 v -35.09812 c 2.02304,-9.84804 11.94746,-43.49564 52.73299,-48.03799 z"
         id="path3928"
         style="stroke-width:1.90854" />
      <path
         class="cls-1"
         d="m 435.47169,253.54032 20.26874,24.58201 a 70.444267,70.444267 0 0 0 -20.57408,28.74265 70.711462,70.711462 0 0 0 -20.49776,-28.62813 l 20.8031,-24.63926 z"
         id="path3930"
         style="stroke-width:1.90854" />
      <path
         class="cls-1"
         d="m 430.9103,322.83949 h 0.40079 v 34.01019 C 423.25704,341.75311 407.607,324.40446 377.70016,321.42716 v -49.2404 c 46.77835,5.21033 52.96201,48.76325 53.21014,50.65273"
         id="path3932"
         style="stroke-width:1.90854" />
      <path
         class="cls-1"
         d="m 492.63252,435.21438 c -28.87624,2.93917 -44.46901,19.08543 -52.73299,33.87662 v -35.11716 c 2.02304,-9.84807 11.94746,-43.49565 52.73299,-48.03799 z"
         id="path3934"
         style="stroke-width:1.90854" />
      <path
         class="cls-1"
         d="m 435.47169,367.28941 20.26874,24.58201 a 70.444267,70.444267 0 0 0 -20.57408,28.74261 70.616036,70.616036 0 0 0 -20.49776,-28.62811 l 20.8031,-24.63926 z"
         id="path3936"
         style="stroke-width:1.90854" />
      <path
         class="cls-1"
         d="m 430.9103,436.60762 h 0.40079 v 34.10564 C 423.25704,455.5976 407.607,438.26805 377.70016,435.27165 v -49.3358 c 46.77835,5.21031 52.96201,48.76326 53.21014,50.67177"
         id="path3938"
         style="stroke-width:1.90854" />
    </g>
  </g>
</svg>
