<?xml version="1.0" encoding="UTF-8" standalone="no"?>
<svg
   id="Layer_1"
   data-name="Layer 1"
   viewBox="0 0 518.41822 528.90338"
   version="1.1"
   sodipodi:docname="3.svg"
   inkscape:version="1.1.2 (b8e25be833, 2022-02-05)"
   width="518.41821"
   height="528.90338"
   xmlns:inkscape="http://www.inkscape.org/namespaces/inkscape"
   xmlns:sodipodi="http://sodipodi.sourceforge.net/DTD/sodipodi-0.dtd"
   xmlns="http://www.w3.org/2000/svg"
   xmlns:svg="http://www.w3.org/2000/svg">
  <sodipodi:namedview
     id="namedview4788"
     pagecolor="#ffffff"
     bordercolor="#666666"
     borderopacity="1.0"
     inkscape:pageshadow="2"
     inkscape:pageopacity="0.0"
     inkscape:pagecheckerboard="0"
     showgrid="false"
     inkscape:zoom="0.22733483"
     inkscape:cx="-1229.464"
     inkscape:cy="-598.23653"
     inkscape:window-width="1600"
     inkscape:window-height="829"
     inkscape:window-x="-8"
     inkscape:window-y="-8"
     inkscape:window-maximized="1"
     inkscape:current-layer="layer2" />
  <defs
     id="defs4497">
    <style
       id="style4495">.cls-1{fill:#231f20;}</style>
  </defs>
  <g
     inkscape:groupmode="layer"
     id="layer2"
     inkscape:label="Layer 1"
     style="opacity:0.03"
     transform="translate(9.209114,14.451688)">
    <g
       id="g5662"
       transform="matrix(1.0772187,0,0,1.0772187,-11.2916,-19.304675)">
      <path
         class="cls-1"
         d="m 317.54785,458.56241 c -2.03497,0.14072 -9.23312,0.87677 -13.24893,4.75187 v -8.7352 c 0,-9.48208 2.41381,-14.60197 7.577,-16.06325 l 10.22895,11.35468 -4.55702,8.74603 z"
         id="path4499"
         style="stroke-width:1.08243" />
      <path
         class="cls-1"
         d="m 167.58814,458.56241 c 2.04579,0.14072 9.23312,0.87677 13.24893,4.75187 v -8.7352 c 0,-9.48208 -2.41382,-14.60197 -7.57701,-16.06325 l -10.22895,11.35468 4.5462,8.74603 z"
         id="path4501"
         style="stroke-width:1.08243" />
      <path
         class="cls-1"
         d="m 251.58463,429.25024 a 13.811794,13.811794 0 0 0 11.19231,-7.24145 v 7.51206 a 12.577825,12.577825 0 0 1 -11.19231,10.27225 z"
         id="path4503"
         style="stroke-width:1.08243" />
      <path
         class="cls-1"
         d="m 264.68202,428.95798 h -0.0866 v -7.28474 a 13.876739,13.876739 0 0 0 11.37633,7.577 v 10.54286 c -9.92587,-1.08243 -11.23561,-10.42379 -11.28973,-10.82429"
         id="path4505"
         style="stroke-width:1.08243" />
      <path
         class="cls-1"
         d="m 281.09164,386.64583 a 13.054093,13.054093 0 0 0 -4.80599,8.13987 19.927517,19.927517 0 0 0 -0.33555,5.78017 v 15.96583 0 10.90006 c -9.92587,-1.08243 -11.23561,-10.59698 -11.28973,-11.01913 h -0.0866 v -23.01244 a 39.270523,39.270523 0 0 1 3.24729,-14.82928 c 1.72106,-3.84262 4.81681,-8.38882 9.81763,-8.65943 v 0 a 38.686012,38.686012 0 0 0 3.46377,16.72353"
         id="path4507"
         style="stroke-width:1.08243" />
      <path
         class="cls-1"
         d="m 251.60627,386.52677 c 0,-15.50039 8.20482,-22.66607 12.15568,-25.2206 a 66.255478,66.255478 0 0 1 7.52288,3.7885 49.618544,49.618544 0 0 1 4.43796,3.24729 c -3.89674,0.93089 -7.18733,4.15653 -9.57949,9.4929 a 41.132301,41.132301 0 0 0 -3.36636,15.57615 v 23.58613 a 12.675243,12.675243 0 0 1 -12.07991,10.52121 l -7.14403,-7.92338 c 7.18733,-2.64112 8.05327,-11.20314 8.05327,-17.557 z"
         id="path4509"
         style="stroke-width:1.08243" />
      <path
         class="cls-1"
         d="m 302.31807,427.41011 a 13.811794,13.811794 0 0 0 -11.19231,7.24145 v -7.51206 a 12.577825,12.577825 0 0 1 11.19231,-10.27225 z"
         id="path4511"
         style="stroke-width:1.08243" />
      <path
         class="cls-1"
         d="m 289.22068,427.70236 h 0.0758 v 7.29558 a 13.844267,13.844267 0 0 0 -11.37633,-7.57701 v -10.54285 c 9.9367,1.08242 11.24644,10.42379 11.30056,10.82428"
         id="path4513"
         style="stroke-width:1.08243" />
      <path
         class="cls-1"
         d="m 272.76776,470.01451 a 13.054093,13.054093 0 0 0 4.80599,-8.13986 20.425435,20.425435 0 0 0 0.33555,-5.791 v -15.955 0 -10.88924 c 9.9367,1.08243 11.24644,10.58616 11.30056,10.99748 h 0.0758 v 23.00162 a 39.194753,39.194753 0 0 1 -3.24729,14.82928 c -1.73189,3.84262 -4.81681,8.378 -9.82846,8.65943 v 0 a 38.534472,38.534472 0 0 0 -3.45294,-16.72353"
         id="path4515"
         style="stroke-width:1.08243" />
      <path
         class="cls-1"
         d="m 302.2856,470.13358 c 0,15.50038 -8.19399,22.66606 -12.15568,25.2206 a 67.218839,67.218839 0 0 1 -7.51206,-3.78851 49.791733,49.791733 0 0 1 -4.44878,-3.24728 c 3.90757,-0.93089 7.18733,-4.16735 9.59032,-9.4929 a 41.38126,41.38126 0 0 0 3.36636,-15.58698 v -23.56448 a 12.664419,12.664419 0 0 1 12.0799,-10.51039 l 7.13321,7.92338 c -7.1765,2.64113 -8.05327,11.20314 -8.05327,17.557 z"
         id="path4517"
         style="stroke-width:1.08243" />
      <path
         class="cls-1"
         d="m 233.54053,429.39095 a 13.833442,13.833442 0 0 1 -11.20314,-7.28474 v 7.577 a 12.588649,12.588649 0 0 0 11.20314,10.27225 V 429.4126 Z"
         id="path4519"
         style="stroke-width:1.08243" />
      <path
         class="cls-1"
         d="m 220.47562,429.0987 v 0 -7.29557 a 13.898388,13.898388 0 0 1 -11.37633,7.577 v 10.54286 c 9.92587,-1.08243 11.23561,-10.43462 11.28973,-10.82429"
         id="path4521"
         style="stroke-width:1.08243" />
      <path
         class="cls-1"
         d="m 203.99022,386.78655 a 13.043269,13.043269 0 0 1 4.79516,8.13987 20.566151,20.566151 0 0 1 0.34638,5.79099 v 15.97665 0 10.82429 c 9.92587,-1.08243 11.23561,-10.58615 11.28974,-11.0083 h 0.0541 v -22.96914 a 39.400415,39.400415 0 0 0 -3.24729,-14.82928 c -1.73189,-3.84262 -4.82763,-8.38883 -9.82846,-8.65943 v 0 a 38.848376,38.848376 0 0 1 -3.45294,16.72353"
         id="path4523"
         style="stroke-width:1.08243" />
      <path
         class="cls-1"
         d="m 233.46476,386.66748 c 0,-15.50038 -8.20481,-22.66606 -12.15567,-25.22059 a 65.400359,65.400359 0 0 0 -7.51206,3.7885 49.791733,49.791733 0 0 0 -4.44878,3.24729 c 3.90757,0.93088 7.18733,4.16735 9.57949,9.4929 a 41.132301,41.132301 0 0 1 3.36636,15.57615 v 23.5753 a 12.686068,12.686068 0 0 0 12.0799,10.51039 l 7.14404,-7.92338 c -7.18733,-2.64113 -8.05328,-11.20314 -8.05328,-17.557 z"
         id="path4525"
         style="stroke-width:1.08243" />
      <path
         class="cls-1"
         d="m 182.79626,427.51835 a 13.811794,13.811794 0 0 1 11.19232,7.24145 v -7.51206 a 12.567,12.567 0 0 0 -11.19232,-10.27225 z"
         id="path4527"
         style="stroke-width:1.08243" />
      <path
         class="cls-1"
         d="m 195.89365,427.84308 h -0.0758 v 7.25227 a 13.822618,13.822618 0 0 1 11.37633,-7.577 v -10.54286 c -9.93669,1.08243 -11.24643,10.43462 -11.30056,10.82429"
         id="path4529"
         style="stroke-width:1.08243" />
      <path
         class="cls-1"
         d="m 212.34658,470.15523 a 12.989148,12.989148 0 0 1 -4.80599,-8.12904 20.955825,20.955825 0 0 1 -0.33555,-5.80182 v -15.955 0 -10.88924 c -9.9367,1.08243 -11.24644,10.58616 -11.30056,10.99748 h -0.0758 v 23.02326 a 39.400415,39.400415 0 0 0 3.24729,14.82928 c 1.73188,3.84262 4.82763,8.378 9.82845,8.65943 v 0 a 38.534472,38.534472 0 0 1 3.45295,-16.72353"
         id="path4531"
         style="stroke-width:1.08243" />
      <path
         class="cls-1"
         d="m 182.82874,470.2743 c 0,15.50038 8.19398,22.66606 12.15567,25.22059 a 66.298775,66.298775 0 0 0 7.51206,-3.7885 51.956591,51.956591 0 0 0 4.44878,-3.24729 c -3.90756,-0.93089 -7.18732,-4.16735 -9.57949,-9.4929 a 41.218895,41.218895 0 0 1 -3.37718,-15.57615 V 439.7931 a 12.664419,12.664419 0 0 0 -12.07991,-10.49956 l -7.1332,7.96667 c 7.18732,2.64113 8.05327,11.20314 8.05327,17.56782 v 15.47874 z"
         id="path4533"
         style="stroke-width:1.08243" />
      <path
         class="cls-1"
         d="m 317.54785,339.60347 c -2.03497,0.12989 -9.23312,0.87677 -13.24893,4.75186 v -8.78932 c 0,-9.4929 2.41381,-14.60197 7.577,-16.07407 l 10.22895,11.3655 z"
         id="path4535"
         style="stroke-width:1.08243" />
      <path
         class="cls-1"
         d="m 167.58814,339.60347 c 2.04579,0.12989 9.23312,0.87677 13.24893,4.75186 v -8.78932 c 0,-9.4929 -2.41382,-14.60197 -7.57701,-16.07407 l -10.22895,11.3655 4.5462,8.74603 z"
         id="path4537"
         style="stroke-width:1.08243" />
      <path
         class="cls-1"
         d="m 251.58463,310.29129 a 13.855091,13.855091 0 0 0 11.19231,-7.25227 v 7.577 a 12.567,12.567 0 0 1 -11.19231,10.26143 z"
         id="path4539"
         style="stroke-width:1.08243" />
      <path
         class="cls-1"
         d="m 264.68202,309.99904 h -0.0866 v -7.28475 a 13.898388,13.898388 0 0 0 11.37633,7.577 v 10.53204 c -9.92587,-1.08243 -11.23561,-10.42379 -11.28973,-10.82429"
         id="path4541"
         style="stroke-width:1.08243" />
      <path
         class="cls-1"
         d="m 281.09164,267.67607 a 13.086566,13.086566 0 0 0 -4.80599,8.13986 19.992463,19.992463 0 0 0 -0.33555,5.791 v 15.955 0 10.88923 c -9.92587,-1.08242 -11.23561,-10.59698 -11.28973,-11.0083 h -0.0866 v -23.00161 a 39.227226,39.227226 0 0 1 3.24729,-14.82928 c 1.72106,-3.84262 4.81681,-8.38883 9.81763,-8.65943 v 0 a 38.642714,38.642714 0 0 0 3.46377,16.7127"
         id="path4543"
         style="stroke-width:1.08243" />
      <path
         class="cls-1"
         d="m 251.60627,267.557 c 0,-15.48956 8.20482,-22.65524 12.15568,-25.2206 a 68.647646,68.647646 0 0 1 7.52288,3.79933 49.467004,49.467004 0 0 1 4.43796,3.24729 c -3.89674,0.94171 -7.18733,4.16735 -9.57949,9.50372 a 41.132301,41.132301 0 0 0 -3.36636,15.57615 v 23.58613 a 12.686068,12.686068 0 0 1 -12.07991,10.51039 l -7.14403,-7.92338 c 7.18733,-2.64113 8.05327,-11.21397 8.05327,-17.56782 z"
         id="path4545"
         style="stroke-width:1.08243" />
      <path
         class="cls-1"
         d="m 302.31807,308.45116 a 13.855091,13.855091 0 0 0 -11.19231,7.24145 v -7.50123 a 12.556176,12.556176 0 0 1 11.19231,-10.27225 z"
         id="path4547"
         style="stroke-width:1.08243" />
      <path
         class="cls-1"
         d="m 289.22068,308.74342 h 0.0758 v 7.28475 a 13.865915,13.865915 0 0 0 -11.37633,-7.57701 v -10.53203 c 9.9367,1.08243 11.24644,10.42379 11.30056,10.82429"
         id="path4549"
         style="stroke-width:1.08243" />
      <path
         class="cls-1"
         d="m 272.76776,351.05557 a 13.086566,13.086566 0 0 0 4.80599,-8.13987 20.425435,20.425435 0 0 0 0.33555,-5.79099 v -15.955 0 -10.90006 c 9.9367,1.08242 11.24644,10.59698 11.30056,11.0083 h 0.0758 v 23.02326 a 39.23805,39.23805 0 0 1 -3.24729,14.8401 c -1.73189,3.84263 -4.81681,8.378 -9.82846,8.65944 v 0 a 38.523647,38.523647 0 0 0 -3.45294,-16.71271"
         id="path4551"
         style="stroke-width:1.08243" />
      <path
         class="cls-1"
         d="m 302.2856,351.17464 c 0,15.48955 -8.19399,22.66606 -12.15568,25.22059 a 67.218839,67.218839 0 0 1 -7.51206,-3.7885 51.956591,51.956591 0 0 1 -4.44878,-3.24729 c 3.90757,-0.94171 7.18733,-4.16735 9.59032,-9.4929 a 41.435381,41.435381 0 0 0 3.36636,-15.58698 v -23.5753 a 12.675243,12.675243 0 0 1 12.0799,-10.51038 l 7.13321,7.9342 c -7.1765,2.6303 -8.05327,11.20314 -8.05327,17.557 z"
         id="path4553"
         style="stroke-width:1.08243" />
      <path
         class="cls-1"
         d="m 233.54053,310.43201 a 13.855091,13.855091 0 0 1 -11.20314,-7.24145 v 7.50123 a 12.577825,12.577825 0 0 0 11.20314,10.28308 z"
         id="path4555"
         style="stroke-width:1.08243" />
      <path
         class="cls-1"
         d="m 220.47562,310.13975 v 0 -7.29557 a 13.898388,13.898388 0 0 1 -11.37633,7.57701 v 10.54285 c 9.92587,-1.08243 11.23561,-10.43461 11.28973,-10.82429"
         id="path4557"
         style="stroke-width:1.08243" />
      <path
         class="cls-1"
         d="m 203.99022,267.81678 a 13.075742,13.075742 0 0 1 4.79516,8.16152 20.631096,20.631096 0 0 1 0.34638,5.79099 v 15.96583 0 10.88923 c 9.92587,-1.08243 11.23561,-10.59698 11.28974,-11.0083 h 0.0541 v -23.03409 a 39.454536,39.454536 0 0 0 -3.24729,-14.8401 c -1.73189,-3.8318 -4.82763,-8.378 -9.82846,-8.65943 v 0 a 38.837552,38.837552 0 0 1 -3.45294,16.7127"
         id="path4559"
         style="stroke-width:1.08243" />
      <path
         class="cls-1"
         d="m 233.46476,267.70854 c 0,-15.50038 -8.20481,-22.73101 -12.15567,-25.23142 a 65.854979,65.854979 0 0 0 -7.51206,3.79932 49.586071,49.586071 0 0 0 -4.44878,3.24729 c 3.90757,0.94171 7.18733,4.16735 9.57949,9.4929 a 41.218895,41.218895 0 0 1 3.36636,15.58698 v 23.56448 a 12.686068,12.686068 0 0 0 12.0799,10.51038 l 7.14404,-7.9342 c -7.18733,-2.6303 -8.05328,-11.19232 -8.05328,-17.557 z"
         id="path4561"
         style="stroke-width:1.08243" />
      <path
         class="cls-1"
         d="m 182.79626,308.58106 a 13.855091,13.855091 0 0 1 11.19232,7.24145 v -7.50124 A 12.567,12.567 0 0 0 182.79626,298.0382 Z"
         id="path4563"
         style="stroke-width:1.08243" />
      <path
         class="cls-1"
         d="m 195.89365,308.88414 h -0.0758 v 7.29557 a 13.865915,13.865915 0 0 1 11.37633,-7.57701 v -10.54285 c -9.93669,1.08243 -11.24643,10.43461 -11.30056,10.82429"
         id="path4565"
         style="stroke-width:1.08243" />
      <path
         class="cls-1"
         d="m 212.34658,351.18546 a 12.989148,12.989148 0 0 1 -4.80599,-8.12904 20.880055,20.880055 0 0 1 -0.33555,-5.791 v -15.955 0 -10.90006 c -9.9367,1.08243 -11.24644,10.59698 -11.30056,11.0083 h -0.0758 v 23.02327 a 39.454536,39.454536 0 0 0 3.24729,14.8401 c 1.73188,3.84262 4.82763,8.378 9.82845,8.65943 v 0 a 38.566944,38.566944 0 0 1 3.45295,-16.72353"
         id="path4567"
         style="stroke-width:1.08243" />
      <path
         class="cls-1"
         d="m 182.82874,351.31535 c 0,15.48956 8.19398,22.66606 12.15567,25.2206 a 66.775043,66.775043 0 0 0 7.51206,-3.79933 49.586071,49.586071 0 0 0 4.44878,-3.24729 c -3.90756,-0.94171 -7.18732,-4.16735 -9.57949,-9.4929 a 41.218895,41.218895 0 0 1 -3.37718,-15.58697 v -23.56448 a 12.664419,12.664419 0 0 0 -12.07991,-10.51039 l -7.1332,7.93421 c 7.18732,2.6303 8.05327,11.19231 8.05327,17.55699 z"
         id="path4569"
         style="stroke-width:1.08243" />
      <path
         class="cls-1"
         d="m 156.46077,458.56241 c -2.04579,0.14072 -9.24395,0.87677 -13.24893,4.75187 v -8.7352 c 0,-9.48208 2.40299,-14.60197 7.577,-16.06325 l 10.23978,11.35468 -4.55703,8.74603 z"
         id="path4571"
         style="stroke-width:1.08243" />
      <path
         class="cls-1"
         d="m 6.4902322,458.56241 c 2.0457908,0.14072 9.2439438,0.87677 13.2489308,4.75187 v -8.7352 c 0,-9.48208 -2.402992,-14.60197 -7.577003,-16.06325 l -10.2289537,11.35468 4.5462017,8.74603 z"
         id="path4573"
         style="stroke-width:1.08243" />
      <path
         class="cls-1"
         d="m 90.486721,429.25024 a 13.811794,13.811794 0 0 0 11.192319,-7.24145 v 7.51206 A 12.577825,12.577825 0 0 1 90.486721,439.7931 Z"
         id="path4575"
         style="stroke-width:1.08243" />
      <path
         class="cls-1"
         d="m 103.57329,428.95798 h -0.0866 v -7.28474 a 13.876739,13.876739 0 0 0 11.37633,7.577 v 10.54286 c -9.92587,-1.08243 -11.23561,-10.42379 -11.28973,-10.82429"
         id="path4577"
         style="stroke-width:1.08243" />
      <path
         class="cls-1"
         d="m 120.03703,386.64583 a 13.054093,13.054093 0 0 0 -4.80598,8.13987 20.360489,20.360489 0 0 0 -0.33556,5.78017 v 15.96583 0 10.90006 c -9.92587,-1.08243 -11.23561,-10.59698 -11.28973,-11.01913 h -0.0866 v -23.01244 a 39.270523,39.270523 0 0 1 3.24728,-14.82928 c 1.72106,-3.84262 4.81681,-8.38882 9.81763,-8.65943 h 0.0541 a 38.534472,38.534472 0 0 0 3.45294,16.72353"
         id="path4579"
         style="stroke-width:1.08243" />
      <path
         class="cls-1"
         d="m 90.50837,386.52677 c 0,-15.50039 8.20481,-22.66607 12.1665,-25.2206 a 66.298775,66.298775 0 0 1 7.51206,3.7885 48.113968,48.113968 0 0 1 4.43796,3.24729 c -3.89675,0.93089 -7.17651,4.15653 -9.5795,9.4929 a 41.132301,41.132301 0 0 0 -3.36635,15.57615 v 23.58613 a 12.664419,12.664419 0 0 1 -12.079911,10.52121 l -7.144031,-7.92338 c 7.187329,-2.64112 8.053272,-11.20314 8.053272,-17.557 z"
         id="path4581"
         style="stroke-width:1.08243" />
      <path
         class="cls-1"
         d="m 141.22017,427.41011 a 13.811794,13.811794 0 0 0 -11.19232,7.24145 v -7.51206 a 12.577825,12.577825 0 0 1 11.19232,-10.27225 z"
         id="path4583"
         style="stroke-width:1.08243" />
      <path
         class="cls-1"
         d="m 128.12278,427.70236 h 0.0866 v 7.29558 a 13.876739,13.876739 0 0 0 -11.38715,-7.57701 v -10.54285 c 9.9367,1.08242 11.24644,10.42379 11.30056,10.82428"
         id="path4585"
         style="stroke-width:1.08243" />
      <path
         class="cls-1"
         d="m 111.66986,470.01451 a 13.054093,13.054093 0 0 0 4.80598,-8.13986 20.425435,20.425435 0 0 0 0.33555,-5.791 v -15.955 0 -10.88924 c 9.9367,1.08243 11.24644,10.58616 11.30056,10.99748 h 0.0866 v 23.00162 a 39.227226,39.227226 0 0 1 -3.24729,14.82928 c -1.72106,3.84262 -4.81681,8.378 -9.81763,8.65943 v 0 a 38.686012,38.686012 0 0 0 -3.46377,-16.72353"
         id="path4587"
         style="stroke-width:1.08243" />
      <path
         class="cls-1"
         d="m 141.19852,470.13358 c 0,15.50038 -8.20481,22.66606 -12.1665,25.2206 a 67.218839,67.218839 0 0 1 -7.51206,-3.78851 49.791733,49.791733 0 0 1 -4.44878,-3.24728 c 3.90757,-0.93089 7.18733,-4.16735 9.59032,-9.4929 a 41.38126,41.38126 0 0 0 3.36635,-15.58698 v -23.56448 a 12.675243,12.675243 0 0 1 12.07991,-10.51039 l 7.14403,7.92338 c -7.18733,2.64113 -8.05327,11.20314 -8.05327,17.557 z"
         id="path4589"
         style="stroke-width:1.08243" />
      <path
         class="cls-1"
         d="m 72.44263,429.39095 a 13.811794,13.811794 0 0 1 -11.192315,-7.28474 v 7.577 A 12.567,12.567 0 0 0 72.44263,439.95546 V 429.4126 Z"
         id="path4591"
         style="stroke-width:1.08243" />
      <path
         class="cls-1"
         d="m 59.334415,429.0987 h 0.08659 v -7.29557 a 13.876739,13.876739 0 0 1 -11.376329,7.577 v 10.54286 c 9.936698,-1.08243 11.246437,-10.43462 11.289734,-10.82429"
         id="path4593"
         style="stroke-width:1.08243" />
      <path
         class="cls-1"
         d="m 42.892319,386.78655 a 13.054093,13.054093 0 0 1 4.805985,8.13987 20.425435,20.425435 0 0 1 0.335553,5.79099 v 15.97665 0 10.82429 c 9.936698,-1.08243 11.246437,-10.58615 11.289734,-11.0083 h 0.08659 v -22.96914 a 39.194753,39.194753 0 0 0 -3.247287,-14.82928 c -1.731886,-3.84262 -4.827633,-8.38883 -9.828455,-8.65943 v 0 a 38.696836,38.696836 0 0 1 -3.452948,16.72353"
         id="path4595"
         style="stroke-width:1.08243" />
      <path
         class="cls-1"
         d="m 72.410157,386.66748 c 0,-15.50038 -8.193987,-22.66606 -12.155677,-25.22059 a 66.298775,66.298775 0 0 0 -7.512057,3.7885 49.791733,49.791733 0 0 0 -4.448783,3.24729 c 3.907568,0.93088 7.187328,4.16735 9.579496,9.4929 a 41.218895,41.218895 0 0 1 3.377179,15.57615 v 23.5753 a 12.664419,12.664419 0 0 0 12.069083,10.51039 l 7.144031,-7.92338 c -7.187328,-2.64113 -8.053272,-11.20314 -8.053272,-17.557 z"
         id="path4597"
         style="stroke-width:1.08243" />
      <path
         class="cls-1"
         d="M 21.709184,427.51835 A 13.844267,13.844267 0 0 1 32.9015,434.7598 v -7.51206 A 12.577825,12.577825 0 0 0 21.709184,416.97549 Z"
         id="path4599"
         style="stroke-width:1.08243" />
      <path
         class="cls-1"
         d="m 34.79575,427.84308 h -0.07577 v 7.25227 a 13.833442,13.833442 0 0 1 11.376329,-7.577 v -10.54286 c -9.925874,1.08243 -11.235613,10.43462 -11.300559,10.82429"
         id="path4601"
         style="stroke-width:1.08243" />
      <path
         class="cls-1"
         d="m 51.248671,470.15523 a 12.989148,12.989148 0 0 1 -4.79516,-8.12904 20.696042,20.696042 0 0 1 -0.346378,-5.80182 v -15.955 0 -10.88924 c -9.925873,1.08243 -11.235613,10.58616 -11.300558,10.99748 h -0.07577 v 23.02326 a 39.194753,39.194753 0 0 0 3.247287,14.82928 c 1.731886,3.84262 4.827633,8.378 9.828455,8.65943 v 0 a 38.848376,38.848376 0 0 1 3.452948,-16.72353"
         id="path4603"
         style="stroke-width:1.08243" />
      <path
         class="cls-1"
         d="m 21.730833,470.2743 c 0,15.50038 8.193987,22.66606 12.155677,25.22059 a 66.298775,66.298775 0 0 0 7.512057,-3.7885 50.343772,50.343772 0 0 0 4.448783,-3.24729 c -3.896744,-0.93089 -7.187328,-4.16735 -9.579496,-9.4929 A 41.132301,41.132301 0 0 1 32.9015,463.39005 V 439.7931 A 12.696892,12.696892 0 0 0 20.810768,429.29354 l -7.079085,7.96667 c 7.187328,2.64113 8.053271,11.20314 8.053271,17.56782 v 15.47874 z"
         id="path4605"
         style="stroke-width:1.08243" />
      <path
         class="cls-1"
         d="m 156.46077,339.60347 c -2.04579,0.12989 -9.24395,0.87677 -13.24893,4.75186 v -8.78932 c 0,-9.4929 2.40299,-14.60197 7.577,-16.07407 l 10.23978,11.3655 -4.55703,8.74603 z"
         id="path4607"
         style="stroke-width:1.08243" />
      <path
         class="cls-1"
         d="m 6.4902322,339.60347 c 2.0457908,0.12989 9.2439438,0.87677 13.2489308,4.75186 v -8.78932 c 0,-9.4929 -2.402992,-14.60197 -7.577003,-16.07407 l -10.2289537,11.3655 4.5462017,8.74603 z"
         id="path4609"
         style="stroke-width:1.08243" />
      <path
         class="cls-1"
         d="m 90.486721,310.29129 a 13.855091,13.855091 0 0 0 11.192319,-7.25227 v 7.577 a 12.567,12.567 0 0 1 -11.192319,10.26143 z"
         id="path4611"
         style="stroke-width:1.08243" />
      <path
         class="cls-1"
         d="m 103.57329,309.99904 h -0.0866 v -7.28475 a 13.898388,13.898388 0 0 0 11.37633,7.577 v 10.53204 c -9.92587,-1.08243 -11.23561,-10.42379 -11.28973,-10.82429"
         id="path4613"
         style="stroke-width:1.08243" />
      <path
         class="cls-1"
         d="m 120.03703,267.67607 a 13.086566,13.086566 0 0 0 -4.80598,8.13986 20.425435,20.425435 0 0 0 -0.33556,5.791 v 15.955 0 10.88923 c -9.92587,-1.08242 -11.23561,-10.59698 -11.28973,-11.0083 h -0.0866 v -23.00161 a 39.227226,39.227226 0 0 1 3.24728,-14.82928 c 1.72106,-3.84262 4.81681,-8.38883 9.81763,-8.65943 h 0.0541 a 38.491174,38.491174 0 0 0 3.45294,16.7127"
         id="path4615"
         style="stroke-width:1.08243" />
      <path
         class="cls-1"
         d="m 90.50837,267.557 c 0,-15.48956 8.20481,-22.65524 12.1665,-25.2206 a 68.701767,68.701767 0 0 1 7.51206,3.79933 47.962428,47.962428 0 0 1 4.43796,3.24729 c -3.89675,0.94171 -7.17651,4.16735 -9.5795,9.50372 a 41.132301,41.132301 0 0 0 -3.36635,15.57615 v 23.58613 a 12.675243,12.675243 0 0 1 -12.079911,10.51039 l -7.144031,-7.92338 c 7.187329,-2.64113 8.053272,-11.21397 8.053272,-17.56782 z"
         id="path4617"
         style="stroke-width:1.08243" />
      <path
         class="cls-1"
         d="m 141.22017,308.45116 a 13.855091,13.855091 0 0 0 -11.19232,7.24145 v -7.50123 a 12.556176,12.556176 0 0 1 11.19232,-10.27225 z"
         id="path4619"
         style="stroke-width:1.08243" />
      <path
         class="cls-1"
         d="m 128.12278,308.74342 h 0.0866 v 7.28475 a 13.898388,13.898388 0 0 0 -11.38715,-7.57701 v -10.53203 c 9.9367,1.08243 11.24644,10.42379 11.30056,10.82429"
         id="path4621"
         style="stroke-width:1.08243" />
      <path
         class="cls-1"
         d="m 111.66986,351.05557 a 13.086566,13.086566 0 0 0 4.80598,-8.13987 20.425435,20.425435 0 0 0 0.33555,-5.79099 v -15.955 0 -10.90006 c 9.9367,1.08242 11.24644,10.59698 11.30056,11.0083 h 0.0866 v 23.02326 a 39.281348,39.281348 0 0 1 -3.24729,14.8401 c -1.72106,3.84263 -4.81681,8.378 -9.81763,8.65944 v 0 a 38.675187,38.675187 0 0 0 -3.46377,-16.71271"
         id="path4623"
         style="stroke-width:1.08243" />
      <path
         class="cls-1"
         d="m 141.19852,351.17464 c 0,15.48955 -8.20481,22.66606 -12.1665,25.22059 a 67.218839,67.218839 0 0 1 -7.51206,-3.7885 51.956591,51.956591 0 0 1 -4.44878,-3.24729 c 3.90757,-0.94171 7.18733,-4.16735 9.59032,-9.4929 a 41.435381,41.435381 0 0 0 3.36635,-15.58698 v -23.5753 a 12.686068,12.686068 0 0 1 12.07991,-10.51038 l 7.14403,7.9342 c -7.18733,2.6303 -8.05327,11.20314 -8.05327,17.557 z"
         id="path4625"
         style="stroke-width:1.08243" />
      <path
         class="cls-1"
         d="m 72.44263,310.43201 a 13.833442,13.833442 0 0 1 -11.192315,-7.24145 v 7.50123 a 12.567,12.567 0 0 0 11.192315,10.28308 z"
         id="path4627"
         style="stroke-width:1.08243" />
      <path
         class="cls-1"
         d="m 59.334415,310.13975 h 0.08659 v -7.29557 a 13.876739,13.876739 0 0 1 -11.376329,7.57701 v 10.54285 c 9.936698,-1.08243 11.246437,-10.43461 11.289734,-10.82429"
         id="path4629"
         style="stroke-width:1.08243" />
      <path
         class="cls-1"
         d="m 42.892319,267.81678 a 13.086566,13.086566 0 0 1 4.805985,8.13987 20.425435,20.425435 0 0 1 0.335553,5.79099 v 15.96583 0 10.88923 c 9.936698,-1.08242 11.246437,-10.59697 11.289734,-11.0083 h 0.08659 v -23.01244 a 39.23805,39.23805 0 0 0 -3.247287,-14.8401 c -1.731886,-3.8318 -4.827633,-8.378 -9.828455,-8.65943 v 0 a 38.675187,38.675187 0 0 1 -3.452948,16.7127"
         id="path4631"
         style="stroke-width:1.08243" />
      <path
         class="cls-1"
         d="m 72.410157,267.70854 c 0,-15.50038 -8.193987,-22.73101 -12.155677,-25.23142 a 66.775043,66.775043 0 0 0 -7.512057,3.79932 49.586071,49.586071 0 0 0 -4.448783,3.24729 c 3.907568,0.94171 7.187328,4.16735 9.579496,9.4929 a 41.262193,41.262193 0 0 1 3.377179,15.58698 v 23.56448 a 12.664419,12.664419 0 0 0 12.069083,10.51038 l 7.144031,-7.9342 c -7.187328,-2.6303 -8.053272,-11.19232 -8.053272,-17.557 z"
         id="path4633"
         style="stroke-width:1.08243" />
      <path
         class="cls-1"
         d="m 21.709184,308.58106 a 13.887564,13.887564 0 0 1 11.192316,7.24145 v -7.50124 A 12.577825,12.577825 0 0 0 21.709184,298.0382 Z"
         id="path4635"
         style="stroke-width:1.08243" />
      <path
         class="cls-1"
         d="m 34.79575,308.88414 h -0.07577 v 7.29557 a 13.876739,13.876739 0 0 1 11.376329,-7.57701 v -10.54285 c -9.925874,1.08243 -11.235613,10.43461 -11.300559,10.82429"
         id="path4637"
         style="stroke-width:1.08243" />
      <path
         class="cls-1"
         d="m 51.248671,351.18546 a 12.989148,12.989148 0 0 1 -4.79516,-8.12904 20.631096,20.631096 0 0 1 -0.346378,-5.791 v -15.955 0 -10.90006 c -9.925873,1.08243 -11.235613,10.59698 -11.300558,11.0083 h -0.07577 v 23.02327 a 39.23805,39.23805 0 0 0 3.247287,14.8401 c 1.731886,3.84262 4.827633,8.378 9.828455,8.65943 v 0 a 38.891673,38.891673 0 0 1 3.452948,-16.72353"
         id="path4639"
         style="stroke-width:1.08243" />
      <path
         class="cls-1"
         d="m 21.730833,351.31535 c 0,15.48956 8.193987,22.66606 12.155677,25.2206 a 66.775043,66.775043 0 0 0 7.512057,-3.79933 48.092319,48.092319 0 0 0 4.448783,-3.24729 c -3.896744,-0.94171 -7.187328,-4.16735 -9.579496,-9.4929 A 41.132301,41.132301 0 0 1 32.9015,344.40946 V 320.84498 A 12.696892,12.696892 0 0 0 20.810768,310.33459 l -7.079085,7.93421 c 7.187328,2.6303 8.053271,11.19231 8.053271,17.55699 v 15.48956 z"
         id="path4641"
         style="stroke-width:1.08243" />
      <path
         class="cls-1"
         d="m 317.54785,220.77442 c -2.03497,0.14071 -9.23312,0.87677 -13.24893,4.75186 v -8.78932 c 0,-9.48208 2.41381,-14.60197 7.577,-16.06325 l 10.22895,11.35468 z"
         id="path4643"
         style="stroke-width:1.08243" />
      <path
         class="cls-1"
         d="m 167.58814,220.77442 c 2.04579,0.14071 9.23312,0.87677 13.24893,4.75186 v -8.78932 c 0,-9.48208 -2.41382,-14.60197 -7.57701,-16.06325 l -10.22895,11.35468 4.5462,8.74603 z"
         id="path4645"
         style="stroke-width:1.08243" />
      <path
         class="cls-1"
         d="m 251.58463,191.40812 a 13.822618,13.822618 0 0 0 11.19231,-7.23063 v 7.50124 a 12.556176,12.556176 0 0 1 -11.19231,10.27225 z"
         id="path4647"
         style="stroke-width:1.08243" />
      <path
         class="cls-1"
         d="m 264.68202,191.11586 h -0.0866 v -7.28474 a 13.887564,13.887564 0 0 0 11.37633,7.577 v 10.54286 c -9.92587,-1.08243 -11.23561,-10.42379 -11.28973,-10.82429"
         id="path4649"
         style="stroke-width:1.08243" />
      <path
         class="cls-1"
         d="m 281.09164,148.80372 a 13.054093,13.054093 0 0 0 -4.76269,8.10739 19.992463,19.992463 0 0 0 -0.33555,5.79099 v 15.95501 0 10.90006 c -9.92587,-1.08243 -11.23561,-10.59698 -11.28974,-11.00831 h -0.0866 v -22.99079 a 39.227226,39.227226 0 0 1 3.24729,-14.82928 c 1.72106,-3.84262 4.81681,-8.378 9.81763,-8.65943 v 0 a 38.675187,38.675187 0 0 0 3.46377,16.71271"
         id="path4651"
         style="stroke-width:1.08243" />
      <path
         class="cls-1"
         d="m 251.60627,148.68465 c 0,-15.50038 8.20482,-22.66606 12.15568,-25.2206 a 66.255478,66.255478 0 0 1 7.52288,3.7885 51.848348,51.848348 0 0 1 4.43796,3.24729 c -3.89674,0.93089 -7.18733,4.16735 -9.57949,9.4929 a 41.132301,41.132301 0 0 0 -3.36636,15.57616 v 23.58612 a 12.696892,12.696892 0 0 1 -12.07991,10.52121 l -7.14403,-7.9342 c 7.18733,-2.6303 8.05327,-11.20314 8.05327,-17.557 z"
         id="path4653"
         style="stroke-width:1.08243" />
      <path
         class="cls-1"
         d="m 302.31807,189.56799 a 13.833442,13.833442 0 0 0 -11.19231,7.24145 v -7.51206 a 12.577825,12.577825 0 0 1 11.19231,-10.27225 z"
         id="path4655"
         style="stroke-width:1.08243" />
      <path
         class="cls-1"
         d="m 289.22068,189.86025 h 0.0758 v 7.29557 a 13.844267,13.844267 0 0 0 -11.37633,-7.57701 v -10.54285 c 9.9367,1.08243 11.24644,10.43461 11.30056,10.82429"
         id="path4657"
         style="stroke-width:1.08243" />
      <path
         class="cls-1"
         d="m 272.76776,232.17239 a 13.064918,13.064918 0 0 0 4.80599,-8.12904 20.436259,20.436259 0 0 0 0.33555,-5.79099 v -15.96583 0 -10.88923 c 9.9367,1.08242 11.24644,10.58615 11.30056,11.0083 h 0.0758 v 23.02326 a 39.194753,39.194753 0 0 1 -3.24729,14.82928 c -1.73189,3.84262 -4.81681,8.38882 -9.82846,8.65943 v 0 a 38.566944,38.566944 0 0 0 -3.45294,-16.72353"
         id="path4659"
         style="stroke-width:1.08243" />
      <path
         class="cls-1"
         d="m 302.2856,232.29146 c 0,15.50038 -8.19399,22.66606 -12.15568,25.2206 a 67.218839,67.218839 0 0 1 -7.51206,-3.7885 49.791733,49.791733 0 0 1 -4.44878,-3.24729 c 3.90757,-0.93089 7.18733,-4.15653 9.59032,-9.4929 a 41.38126,41.38126 0 0 0 3.36636,-15.57616 v -23.5753 a 12.664419,12.664419 0 0 1 12.0799,-10.51038 l 7.13321,7.92338 c -7.1765,2.64112 -8.05327,11.20314 -8.05327,17.55699 z"
         id="path4661"
         style="stroke-width:1.08243" />
      <path
         class="cls-1"
         d="m 233.54053,191.54884 a 13.833442,13.833442 0 0 1 -11.20314,-7.24145 v 7.51205 a 12.588649,12.588649 0 0 0 11.20314,10.27225 z"
         id="path4663"
         style="stroke-width:1.08243" />
      <path
         class="cls-1"
         d="m 220.47562,191.25658 v 0 -7.28475 a 13.876739,13.876739 0 0 1 -11.37633,7.57701 v 10.54285 c 9.92587,-1.08243 11.23561,-10.42379 11.28973,-10.82429"
         id="path4665"
         style="stroke-width:1.08243" />
      <path
         class="cls-1"
         d="m 203.99022,148.94443 a 13.043269,13.043269 0 0 1 4.79516,8.13987 20.631096,20.631096 0 0 1 0.34638,5.79099 v 15.955 0 10.90006 c 9.92587,-1.08242 11.23561,-10.59698 11.28974,-11.0083 h 0.0541 v -23.02326 a 39.443712,39.443712 0 0 0 -3.24729,-14.82928 c -1.73189,-3.84262 -4.82763,-8.38882 -9.82846,-8.65943 v 0 a 38.891673,38.891673 0 0 1 -3.45294,16.72353"
         id="path4667"
         style="stroke-width:1.08243" />
      <path
         class="cls-1"
         d="m 233.46476,148.82536 c 0,-15.50038 -8.20481,-22.66606 -12.15567,-25.22059 a 65.400359,65.400359 0 0 0 -7.51206,3.7885 51.956591,51.956591 0 0 0 -4.44878,3.24729 c 3.90757,0.93089 7.18733,4.15652 9.57949,9.4929 a 41.132301,41.132301 0 0 1 3.36636,15.57615 v 23.58613 a 12.707716,12.707716 0 0 0 12.0799,10.52121 l 7.14404,-7.93421 c -7.18733,-2.64112 -8.05328,-11.20314 -8.05328,-17.55699 z"
         id="path4669"
         style="stroke-width:1.08243" />
      <path
         class="cls-1"
         d="m 182.79626,189.70871 a 13.811794,13.811794 0 0 1 11.19232,7.25227 v -7.51206 a 12.567,12.567 0 0 0 -11.19232,-10.27225 v 10.54286 z"
         id="path4671"
         style="stroke-width:1.08243" />
      <path
         class="cls-1"
         d="m 195.89365,190.00096 h -0.0758 v 7.29557 a 13.844267,13.844267 0 0 1 11.37633,-7.577 v -10.54286 c -9.93669,1.08243 -11.24643,10.43462 -11.30056,10.82429"
         id="path4673"
         style="stroke-width:1.08243" />
      <path
         class="cls-1"
         d="m 212.34658,232.31311 a 13.064918,13.064918 0 0 1 -4.80599,-8.12904 20.955825,20.955825 0 0 1 -0.33555,-5.80182 v -15.955 0 -10.87841 c -9.9367,1.08242 -11.24644,10.59698 -11.30056,10.99747 h -0.0758 v 23.02327 a 39.400415,39.400415 0 0 0 3.24729,14.82927 c 1.73188,3.84263 4.82763,8.38883 9.82845,8.65944 v 0 a 38.534472,38.534472 0 0 1 3.45295,-16.72353"
         id="path4675"
         style="stroke-width:1.08243" />
      <path
         class="cls-1"
         d="m 182.82874,232.43218 c 0,15.50038 8.19398,22.66606 12.15567,25.22059 a 66.298775,66.298775 0 0 0 7.51206,-3.7885 49.791733,49.791733 0 0 0 4.44878,-3.24729 c -3.90756,-0.93088 -7.18732,-4.16735 -9.57949,-9.4929 a 41.218895,41.218895 0 0 1 -3.37718,-15.57615 v -23.5753 a 12.664419,12.664419 0 0 0 -12.07991,-10.51039 l -7.1332,7.92338 c 7.18732,2.64113 8.05327,11.20314 8.05327,17.557 z"
         id="path4677"
         style="stroke-width:1.08243" />
      <path
         class="cls-1"
         d="m 317.54785,101.76135 c -2.03497,0.14072 -9.23312,0.87677 -13.24893,4.75187 v -8.789328 c 0,-9.492902 2.41381,-14.601967 7.577,-16.063246 l 10.22895,11.387153 -4.55702,8.746021 z"
         id="path4679"
         style="stroke-width:1.08243" />
      <path
         class="cls-1"
         d="m 167.58814,101.76135 c 2.04579,0.14072 9.23312,0.87677 13.24893,4.75187 v -8.789328 c 0,-9.492902 -2.41382,-14.601967 -7.57701,-16.063246 l -10.21812,11.387153 4.5462,8.746021 z"
         id="path4681"
         style="stroke-width:1.08243" />
      <path
         class="cls-1"
         d="m 251.58463,72.481648 a 13.833442,13.833442 0 0 0 11.19231,-7.24145 v 7.512057 a 12.577825,12.577825 0 0 1 -11.19231,10.272251 z"
         id="path4683"
         style="stroke-width:1.08243" />
      <path
         class="cls-1"
         d="m 264.68202,72.156919 h -0.0866 v -7.252274 a 13.876739,13.876739 0 0 0 11.37633,7.577003 V 83.024506 C 266.04588,81.942077 264.73614,72.589891 264.68202,72.200217"
         id="path4685"
         style="stroke-width:1.08243" />
      <path
         class="cls-1"
         d="m 281.09164,29.844771 a 12.989148,12.989148 0 0 0 -4.80599,8.129041 19.992463,19.992463 0 0 0 -0.33555,5.790995 v 15.965828 0 10.889235 C 266.02423,69.537441 264.71449,60.033715 264.66037,59.611568 h -0.0866 v -23.01244 a 39.227226,39.227226 0 0 1 3.24729,-14.829277 c 1.72106,-3.842623 4.81681,-8.388825 9.81763,-8.659432 v 0 a 38.718484,38.718484 0 0 0 3.45295,16.734352"
         id="path4687"
         style="stroke-width:1.08243" />
      <path
         class="cls-1"
         d="m 251.60627,29.725704 c 0,-15.500383 8.20482,-22.6660632 12.15568,-25.2205956 a 66.255478,66.255478 0 0 1 7.52288,3.7885014 51.848348,51.848348 0 0 1 4.43796,3.2472872 c -3.89674,0.930889 -7.18733,4.156527 -9.57949,9.492902 a 41.132301,41.132301 0 0 0 -3.36636,15.576153 V 60.185255 A 12.675243,12.675243 0 0 1 250.69703,70.69564 L 243.553,62.739787 c 7.18733,-2.641126 8.05327,-11.20314 8.05327,-17.556998 z"
         id="path4689"
         style="stroke-width:1.08243" />
      <path
         class="cls-1"
         d="m 302.31807,70.609046 a 13.822618,13.822618 0 0 0 -11.19231,7.284747 V 70.31679 a 12.567,12.567 0 0 1 11.19231,-10.272251 v 10.542858 z"
         id="path4691"
         style="stroke-width:1.08243" />
      <path
         class="cls-1"
         d="m 289.22068,70.901302 h 0.0758 v 7.295571 A 13.822618,13.822618 0 0 0 277.92012,70.61987 V 60.066188 c 9.9367,1.082429 11.24644,10.423791 11.30056,10.824289"
         id="path4693"
         style="stroke-width:1.08243" />
      <path
         class="cls-1"
         d="m 272.76776,113.21345 a 13.054093,13.054093 0 0 0 4.80599,-8.13987 20.425435,20.425435 0 0 0 0.33555,-5.790991 v -15.976651 0 -10.82429 c 9.9367,1.082429 11.24644,10.586155 11.30056,10.997478 h 0.0758 v 23.034094 a 39.194753,39.194753 0 0 1 -3.24729,14.82927 c -1.73189,3.84262 -4.81681,8.378 -9.82846,8.65943 v 0 a 38.523647,38.523647 0 0 0 -3.45294,-16.7127"
         id="path4695"
         style="stroke-width:1.08243" />
      <path
         class="cls-1"
         d="m 302.2856,113.33252 c 0,15.50038 -8.19399,22.66606 -12.15568,25.22059 a 67.218839,67.218839 0 0 1 -7.51206,-3.7885 49.791733,49.791733 0 0 1 -4.44878,-3.24729 c 3.90757,-0.93088 7.18733,-4.16735 9.59032,-9.4929 a 41.38126,41.38126 0 0 0 3.36636,-15.57615 V 82.862142 a 12.653595,12.653595 0 0 1 12.0799,-10.499561 l 7.11156,7.92338 c -7.1765,2.641127 -8.05327,11.20314 -8.05327,17.556998 v 15.489561 z"
         id="path4697"
         style="stroke-width:1.08243" />
      <path
         class="cls-1"
         d="m 233.54053,72.589891 a 13.833442,13.833442 0 0 1 -11.20314,-7.24145 v 7.512057 a 12.588649,12.588649 0 0 0 11.20314,10.272251 z"
         id="path4699"
         style="stroke-width:1.08243" />
      <path
         class="cls-1"
         d="m 220.47562,72.297635 v 0 -7.284747 a 13.898388,13.898388 0 0 1 -11.37633,7.577003 v 10.542858 c 9.92587,-1.082429 11.23561,-10.434615 11.28973,-10.82429"
         id="path4701"
         style="stroke-width:1.08243" />
      <path
         class="cls-1"
         d="m 203.99022,29.985487 a 12.989148,12.989148 0 0 1 4.79516,8.129041 20.696042,20.696042 0 0 1 0.34638,5.801819 v 15.955004 0 10.889235 c 9.92587,-1.082429 11.23561,-10.586155 11.28974,-11.008303 h 0.0541 V 36.761492 a 39.400415,39.400415 0 0 0 -3.24729,-14.829277 c -1.73189,-3.842623 -4.82763,-8.388825 -9.82846,-8.659432 v 0 a 38.891673,38.891673 0 0 1 -3.45294,16.723528"
         id="path4703"
         style="stroke-width:1.08243" />
      <path
         class="cls-1"
         d="m 233.46476,29.866419 c 0,-15.500383 -8.20481,-22.6660624 -12.15567,-25.2205948 a 65.400359,65.400359 0 0 0 -7.51206,3.7885014 47.691821,47.691821 0 0 0 -4.44878,3.2472874 c 3.90757,0.930888 7.18733,4.156527 9.57949,9.492902 a 41.132301,41.132301 0 0 1 3.40965,15.586977 v 23.564479 a 12.686068,12.686068 0 0 0 12.07991,10.510385 l 7.14403,-7.92338 c -7.18733,-2.641127 -8.09657,-11.20314 -8.09657,-17.556998 z"
         id="path4705"
         style="stroke-width:1.08243" />
      <path
         class="cls-1"
         d="m 182.79626,70.749762 a 13.811794,13.811794 0 0 1 11.19232,7.24145 V 70.479154 A 12.556176,12.556176 0 0 0 182.79626,60.206903 Z"
         id="path4707"
         style="stroke-width:1.08243" />
      <path
         class="cls-1"
         d="m 195.89365,71.042018 h -0.0758 v 7.284747 a 13.822618,13.822618 0 0 1 11.37633,-7.577003 V 60.206903 c -9.93669,1.082429 -11.24643,10.423792 -11.30056,10.82429"
         id="path4709"
         style="stroke-width:1.08243" />
      <path
         class="cls-1"
         d="m 212.34658,113.35417 a 13.054093,13.054093 0 0 1 -4.80599,-8.13987 20.880055,20.880055 0 0 1 -0.33555,-5.790995 v -15.955003 0 -10.90006 c -9.9367,1.082429 -11.24644,10.59698 -11.30056,11.008303 h -0.0758 v 23.034085 a 39.443712,39.443712 0 0 0 3.24729,14.82928 c 1.73188,3.84262 4.82763,8.378 9.82845,8.65943 v 0 a 38.534472,38.534472 0 0 1 3.45295,-16.72353"
         id="path4711"
         style="stroke-width:1.08243" />
      <path
         class="cls-1"
         d="m 182.82874,113.47323 c 0,15.48956 8.19398,22.66607 12.15567,25.2206 a 66.298775,66.298775 0 0 0 7.51206,-3.7885 51.956591,51.956591 0 0 0 4.44878,-3.24729 c -3.90756,-0.94171 -7.18732,-4.16735 -9.57949,-9.4929 a 41.218895,41.218895 0 0 1 -3.37718,-15.57615 V 83.002858 a 12.653595,12.653595 0 0 0 -12.07991,-10.52121 l -7.1332,7.92338 c 7.18732,2.630303 8.05327,11.20314 8.05327,17.556998 v 15.489554 z"
         id="path4713"
         style="stroke-width:1.08243" />
      <path
         class="cls-1"
         d="m 156.46077,220.77442 c -2.04579,0.14071 -9.24395,0.87677 -13.24893,4.75186 v -8.78932 c 0,-9.48208 2.40299,-14.60197 7.577,-16.06325 l 10.23978,11.35468 z"
         id="path4715"
         style="stroke-width:1.08243" />
      <path
         class="cls-1"
         d="m 6.4902322,220.77442 c 2.0457908,0.14071 9.2439438,0.87677 13.2489308,4.75186 v -8.78932 c 0,-9.48208 -2.402992,-14.60197 -7.577003,-16.06325 l -10.2289537,11.35468 4.5462017,8.74603 z"
         id="path4717"
         style="stroke-width:1.08243" />
      <path
         class="cls-1"
         d="m 90.486721,191.40812 a 13.822618,13.822618 0 0 0 11.192319,-7.23063 v 7.50124 a 12.556176,12.556176 0 0 1 -11.192319,10.27225 z"
         id="path4719"
         style="stroke-width:1.08243" />
      <path
         class="cls-1"
         d="m 103.57329,191.11586 h -0.0866 v -7.28474 a 13.887564,13.887564 0 0 0 11.37633,7.577 v 10.54286 c -9.92587,-1.08243 -11.23561,-10.42379 -11.28973,-10.82429"
         id="path4721"
         style="stroke-width:1.08243" />
      <path
         class="cls-1"
         d="m 120.03703,148.80372 a 13.054093,13.054093 0 0 0 -4.80598,8.13986 20.425435,20.425435 0 0 0 -0.33556,5.791 v 15.955 0 10.90006 c -9.92587,-1.08243 -11.23561,-10.59698 -11.28973,-11.0083 h -0.0866 v -23.02327 a 39.227226,39.227226 0 0 1 3.24728,-14.82928 c 1.72106,-3.84262 4.81681,-8.378 9.81763,-8.65943 h 0.0541 a 38.523647,38.523647 0 0 0 3.45294,16.71271"
         id="path4723"
         style="stroke-width:1.08243" />
      <path
         class="cls-1"
         d="m 90.50837,148.68465 c 0,-15.50038 8.20481,-22.66606 12.1665,-25.2206 a 66.298775,66.298775 0 0 1 7.51206,3.7885 50.203056,50.203056 0 0 1 4.43796,3.24729 c -3.89675,0.93089 -7.17651,4.16735 -9.5795,9.4929 a 41.132301,41.132301 0 0 0 -3.36635,15.57616 v 23.58612 a 12.686068,12.686068 0 0 1 -12.079911,10.52121 l -7.144031,-7.9342 c 7.187329,-2.6303 8.053272,-11.20314 8.053272,-17.557 z"
         id="path4725"
         style="stroke-width:1.08243" />
      <path
         class="cls-1"
         d="m 141.22017,189.56799 a 13.833442,13.833442 0 0 0 -11.19232,7.24145 v -7.51206 a 12.577825,12.577825 0 0 1 11.19232,-10.27225 z"
         id="path4727"
         style="stroke-width:1.08243" />
      <path
         class="cls-1"
         d="m 128.12278,189.86025 h 0.0866 v 7.29557 a 13.876739,13.876739 0 0 0 -11.38715,-7.57701 v -10.54285 c 9.9367,1.08243 11.24644,10.43461 11.30056,10.82429"
         id="path4729"
         style="stroke-width:1.08243" />
      <path
         class="cls-1"
         d="m 111.66986,232.17239 a 13.064918,13.064918 0 0 0 4.80598,-8.12904 20.436259,20.436259 0 0 0 0.33555,-5.79099 v -15.96583 0 -10.88923 c 9.9367,1.08242 11.24644,10.58615 11.30056,11.0083 h 0.0866 v 23.02326 a 39.227226,39.227226 0 0 1 -3.24729,14.82928 c -1.72106,3.84262 -4.81681,8.38882 -9.81763,8.65943 v 0 a 38.718484,38.718484 0 0 0 -3.46377,-16.72353"
         id="path4731"
         style="stroke-width:1.08243" />
      <path
         class="cls-1"
         d="m 141.19852,232.29146 c 0,15.50038 -8.20481,22.66606 -12.1665,25.2206 a 67.218839,67.218839 0 0 1 -7.51206,-3.7885 49.791733,49.791733 0 0 1 -4.44878,-3.24729 c 3.90757,-0.93089 7.18733,-4.15653 9.59032,-9.4929 a 41.38126,41.38126 0 0 0 3.36635,-15.57616 v -23.5753 a 12.675243,12.675243 0 0 1 12.07991,-10.51038 l 7.14403,7.92338 c -7.18733,2.64112 -8.05327,11.20314 -8.05327,17.55699 z"
         id="path4733"
         style="stroke-width:1.08243" />
      <path
         class="cls-1"
         d="m 72.44263,191.54884 a 13.811794,13.811794 0 0 1 -11.192315,-7.24145 v 7.51205 a 12.567,12.567 0 0 0 11.192315,10.27225 z"
         id="path4735"
         style="stroke-width:1.08243" />
      <path
         class="cls-1"
         d="m 59.334415,191.25658 h 0.08659 v -7.28475 a 13.855091,13.855091 0 0 1 -11.376329,7.57701 v 10.54285 c 9.936703,-1.08243 11.246442,-10.42379 11.289739,-10.82429"
         id="path4737"
         style="stroke-width:1.08243" />
      <path
         class="cls-1"
         d="m 42.892319,148.94443 a 13.054093,13.054093 0 0 1 4.805985,8.13987 20.425435,20.425435 0 0 1 0.335553,5.79099 v 15.955 0 10.90006 c 9.936698,-1.08242 11.246437,-10.59698 11.289734,-11.0083 h 0.08659 v -23.02326 a 39.227226,39.227226 0 0 0 -3.247287,-14.82928 c -1.731886,-3.84262 -4.827633,-8.38882 -9.828455,-8.65943 v 0 a 38.729309,38.729309 0 0 1 -3.452948,16.72353"
         id="path4739"
         style="stroke-width:1.08243" />
      <path
         class="cls-1"
         d="m 72.410157,148.82536 c 0,-15.50038 -8.193987,-22.66606 -12.155677,-25.22059 a 66.298775,66.298775 0 0 0 -7.512057,3.7885 51.956591,51.956591 0 0 0 -4.448783,3.24729 c 3.907568,0.93089 7.187328,4.15652 9.579496,9.4929 a 41.218895,41.218895 0 0 1 3.377179,15.57615 v 23.58613 a 12.675243,12.675243 0 0 0 12.069083,10.52121 l 7.144031,-7.93421 c -7.187328,-2.64112 -8.053272,-11.20314 -8.053272,-17.55699 z"
         id="path4741"
         style="stroke-width:1.08243" />
      <path
         class="cls-1"
         d="m 21.709184,189.70871 a 13.844267,13.844267 0 0 1 11.192316,7.25227 v -7.51206 A 12.577825,12.577825 0 0 0 21.709184,179.17667 v 10.54286 z"
         id="path4743"
         style="stroke-width:1.08243" />
      <path
         class="cls-1"
         d="m 34.79575,190.00096 h -0.07577 v 7.29557 a 13.855091,13.855091 0 0 1 11.376329,-7.577 v -10.54286 c -9.925874,1.08243 -11.235613,10.43462 -11.300559,10.82429"
         id="path4745"
         style="stroke-width:1.08243" />
      <path
         class="cls-1"
         d="m 51.248671,232.31311 a 13.054093,13.054093 0 0 1 -4.79516,-8.12904 20.696042,20.696042 0 0 1 -0.346378,-5.80182 v -15.955 0 -10.87841 c -9.925873,1.08242 -11.235613,10.59698 -11.300558,10.99747 h -0.07577 v 23.02327 a 39.194753,39.194753 0 0 0 3.247287,14.82927 c 1.731886,3.84263 4.827633,8.38883 9.828455,8.65944 v 0 a 38.848376,38.848376 0 0 1 3.452948,-16.72353"
         id="path4747"
         style="stroke-width:1.08243" />
      <path
         class="cls-1"
         d="m 21.730833,232.43218 c 0,15.50038 8.193987,22.66606 12.155677,25.22059 a 66.298775,66.298775 0 0 0 7.512057,-3.7885 48.233035,48.233035 0 0 0 4.448783,-3.24729 c -3.896744,-0.93088 -7.187328,-4.16735 -9.579496,-9.4929 A 41.132301,41.132301 0 0 1 32.9015,225.54793 v -23.5753 A 12.696892,12.696892 0 0 0 20.810768,191.46224 l -7.079085,7.92338 c 7.187328,2.64113 8.053271,11.20314 8.053271,17.557 v 15.48956 z"
         id="path4749"
         style="stroke-width:1.08243" />
      <path
         class="cls-1"
         d="m 156.46077,101.76135 c -2.04579,0.14072 -9.24395,0.87677 -13.24893,4.75187 v -8.789328 c 0,-9.492902 2.40299,-14.601967 7.577,-16.063246 l 10.22895,11.387153 -4.55702,8.746021 z"
         id="path4751"
         style="stroke-width:1.08243" />
      <path
         class="cls-1"
         d="m 6.4902322,101.76135 c 2.0457908,0.14072 9.2439438,0.87677 13.2489308,4.75187 v -8.789328 c 0,-9.492902 -2.402992,-14.601967 -7.577003,-16.063246 L 1.9440305,93.047799 6.4902322,101.79382 Z"
         id="path4753"
         style="stroke-width:1.08243" />
      <path
         class="cls-1"
         d="m 90.486721,72.481648 a 13.833442,13.833442 0 0 0 11.192319,-7.24145 v 7.512057 A 12.577825,12.577825 0 0 1 90.486721,83.024506 Z"
         id="path4755"
         style="stroke-width:1.08243" />
      <path
         class="cls-1"
         d="m 103.57329,72.156919 h -0.0866 v -7.252274 a 13.876739,13.876739 0 0 0 11.37633,7.577003 V 83.024506 C 104.93715,81.942077 103.62741,72.589891 103.57329,72.200217"
         id="path4757"
         style="stroke-width:1.08243" />
      <path
         class="cls-1"
         d="m 120.03703,29.844771 a 12.989148,12.989148 0 0 0 -4.80598,8.129041 20.436259,20.436259 0 0 0 -0.33556,5.790995 v 15.965828 0 10.889235 C 104.96962,69.537441 103.65988,60.033715 103.60576,59.611568 h -0.0866 v -23.01244 a 39.227226,39.227226 0 0 1 3.24728,-14.829277 c 1.72106,-3.842623 4.81681,-8.388825 9.81763,-8.659432 h 0.0541 a 38.566944,38.566944 0 0 0 3.45294,16.723527"
         id="path4759"
         style="stroke-width:1.08243" />
      <path
         class="cls-1"
         d="m 90.50837,29.725704 c 0,-15.500383 8.20481,-22.6660632 12.1665,-25.2205956 a 66.298775,66.298775 0 0 1 7.51206,3.7885014 50.203056,50.203056 0 0 1 4.43796,3.2472872 c -3.89675,0.930889 -7.17651,4.156527 -9.5795,9.492902 a 41.132301,41.132301 0 0 0 -3.36635,15.576153 V 60.185255 A 12.664419,12.664419 0 0 1 89.599129,70.69564 l -7.144031,-7.955853 c 7.187329,-2.641126 8.053272,-11.20314 8.053272,-17.556998 z"
         id="path4761"
         style="stroke-width:1.08243" />
      <path
         class="cls-1"
         d="m 141.22017,70.609046 a 13.822618,13.822618 0 0 0 -11.19232,7.284747 V 70.31679 a 12.567,12.567 0 0 1 11.19232,-10.272251 v 10.542858 z"
         id="path4763"
         style="stroke-width:1.08243" />
      <path
         class="cls-1"
         d="m 128.12278,70.901302 h 0.0866 v 7.295571 A 13.855091,13.855091 0 0 0 116.82222,70.61987 V 60.066188 c 9.9367,1.082429 11.24644,10.423791 11.30056,10.824289"
         id="path4765"
         style="stroke-width:1.08243" />
      <path
         class="cls-1"
         d="m 111.66986,113.21345 a 13.054093,13.054093 0 0 0 4.80598,-8.13987 20.425435,20.425435 0 0 0 0.33555,-5.790991 v -15.976651 0 -10.82429 c 9.9367,1.082429 11.24644,10.586155 11.30056,10.997478 h 0.0866 v 23.034094 a 39.227226,39.227226 0 0 1 -3.24729,14.82927 c -1.72106,3.84262 -4.81681,8.378 -9.81763,8.65943 v 0 a 38.675187,38.675187 0 0 0 -3.46377,-16.7127"
         id="path4767"
         style="stroke-width:1.08243" />
      <path
         class="cls-1"
         d="m 141.19852,113.33252 c 0,15.50038 -8.20481,22.66606 -12.1665,25.22059 a 67.218839,67.218839 0 0 1 -7.51206,-3.7885 49.791733,49.791733 0 0 1 -4.44878,-3.24729 c 3.90757,-0.93088 7.18733,-4.16735 9.59032,-9.4929 a 41.38126,41.38126 0 0 0 3.36635,-15.57615 V 82.862142 a 12.664419,12.664419 0 0 1 12.07991,-10.499561 l 7.14403,7.92338 c -7.18733,2.641127 -8.05327,11.20314 -8.05327,17.556998 z"
         id="path4769"
         style="stroke-width:1.08243" />
      <path
         class="cls-1"
         d="m 72.44263,72.589891 a 13.811794,13.811794 0 0 1 -11.192315,-7.24145 v 7.512057 A 12.567,12.567 0 0 0 72.44263,83.132749 Z"
         id="path4771"
         style="stroke-width:1.08243" />
      <path
         class="cls-1"
         d="m 59.334415,72.297635 h 0.08659 V 65.012888 A 13.876739,13.876739 0 0 1 48.044681,72.589891 V 83.132749 C 57.981379,82.05032 59.291118,72.698134 59.334415,72.308459"
         id="path4773"
         style="stroke-width:1.08243" />
      <path
         class="cls-1"
         d="m 42.892319,29.985487 a 12.989148,12.989148 0 0 1 4.805985,8.129041 20.501205,20.501205 0 0 1 0.335553,5.801819 v 15.955004 0 10.889235 C 57.970555,69.678157 59.280294,60.174431 59.323591,59.752283 h 0.08659 V 36.761492 A 39.194753,39.194753 0 0 0 56.162898,21.932215 C 54.431012,18.089592 51.335265,13.54339 46.334443,13.272783 v 0 a 38.729309,38.729309 0 0 1 -3.452948,16.723528"
         id="path4775"
         style="stroke-width:1.08243" />
      <path
         class="cls-1"
         d="M 72.410157,29.866419 C 72.410157,14.366036 64.21617,7.2003566 60.25448,4.6458242 A 66.298775,66.298775 0 0 0 52.742423,8.4343256 47.691821,47.691821 0 0 0 48.29364,11.681613 c 3.907568,0.930888 7.187328,4.156527 9.579496,9.492902 a 41.218895,41.218895 0 0 1 3.377179,15.586977 v 23.564479 a 12.664419,12.664419 0 0 0 12.069083,10.510385 l 7.144031,-7.92338 C 73.276101,60.271849 72.410157,51.709836 72.410157,45.355978 Z"
         id="path4777"
         style="stroke-width:1.08243" />
      <path
         class="cls-1"
         d="M 21.709184,70.749762 A 13.844267,13.844267 0 0 1 32.9015,77.991212 V 70.479154 A 12.567,12.567 0 0 0 21.709184,60.206903 Z"
         id="path4779"
         style="stroke-width:1.08243" />
      <path
         class="cls-1"
         d="m 34.79575,71.042018 h -0.07577 v 7.284747 A 13.833442,13.833442 0 0 1 46.096309,70.749762 V 60.206903 C 36.170435,61.289332 34.860696,70.630695 34.79575,71.031193"
         id="path4781"
         style="stroke-width:1.08243" />
      <path
         class="cls-1"
         d="m 51.248671,113.35417 a 13.043269,13.043269 0 0 1 -4.79516,-8.13987 20.631096,20.631096 0 0 1 -0.346378,-5.790995 v -15.955003 0 -10.90006 C 36.18126,73.650671 34.87152,83.165222 34.806575,83.576545 h -0.07577 v 23.034085 a 39.227226,39.227226 0 0 0 3.247287,14.82928 c 1.731886,3.84262 4.827633,8.378 9.828455,8.65943 v 0 a 38.848376,38.848376 0 0 1 3.452948,-16.72353"
         id="path4783"
         style="stroke-width:1.08243" />
      <path
         class="cls-1"
         d="m 21.730833,113.47323 c 0,15.48956 8.193987,22.66607 12.155677,25.2206 a 66.298775,66.298775 0 0 0 7.512057,-3.7885 50.343772,50.343772 0 0 0 4.448783,-3.24729 c -3.896744,-0.94171 -7.187328,-4.16735 -9.579496,-9.4929 A 41.132301,41.132301 0 0 1 32.9015,106.58899 V 83.002858 A 12.686068,12.686068 0 0 0 20.810768,72.481648 l -7.079085,7.945029 c 7.187328,2.630302 8.053271,11.20314 8.053271,17.556998 v 15.489555 z"
         id="path4785"
         style="stroke-width:1.08243" />
      <path
         class="cls-1"
         d="m 478.62161,458.56241 c -2.04579,0.14072 -9.24395,0.87677 -13.24893,4.75187 v -8.7352 c 0,-9.48208 2.40299,-14.60197 7.577,-16.06325 l 10.23978,11.35468 -4.55703,8.74603 z"
         id="path5150"
         style="stroke-width:1.08243" />
      <path
         class="cls-1"
         d="m 328.65107,458.56241 c 2.04579,0.14072 9.24395,0.87677 13.24893,4.75187 v -8.7352 c 0,-9.48208 -2.40299,-14.60197 -7.577,-16.06325 l -10.22895,11.35468 4.5462,8.74603 z"
         id="path5152"
         style="stroke-width:1.08243" />
      <path
         class="cls-1"
         d="m 412.64756,429.25024 a 13.811794,13.811794 0 0 0 11.19232,-7.24145 v 7.51206 a 12.577825,12.577825 0 0 1 -11.19232,10.27225 z"
         id="path5154"
         style="stroke-width:1.08243" />
      <path
         class="cls-1"
         d="m 425.73413,428.95798 h -0.0866 v -7.28474 a 13.876739,13.876739 0 0 0 11.37633,7.577 v 10.54286 c -9.92587,-1.08243 -11.23561,-10.42379 -11.28973,-10.82429"
         id="path5156"
         style="stroke-width:1.08243" />
      <path
         class="cls-1"
         d="m 442.19787,386.64583 a 13.054093,13.054093 0 0 0 -4.80598,8.13987 20.360489,20.360489 0 0 0 -0.33556,5.78017 v 15.96583 0 10.90006 c -9.92587,-1.08243 -11.23561,-10.59698 -11.28973,-11.01913 H 425.68 v -23.01244 a 39.270523,39.270523 0 0 1 3.24728,-14.82928 c 1.72106,-3.84262 4.81681,-8.38882 9.81763,-8.65943 h 0.0541 a 38.534472,38.534472 0 0 0 3.45294,16.72353"
         id="path5158"
         style="stroke-width:1.08243" />
      <path
         class="cls-1"
         d="m 412.66921,386.52677 c 0,-15.50039 8.20481,-22.66607 12.1665,-25.2206 a 66.298775,66.298775 0 0 1 7.51206,3.7885 48.113968,48.113968 0 0 1 4.43796,3.24729 c -3.89675,0.93089 -7.17651,4.15653 -9.5795,9.4929 a 41.132301,41.132301 0 0 0 -3.36635,15.57615 v 23.58613 a 12.664419,12.664419 0 0 1 -12.07991,10.52121 l -7.14403,-7.92338 c 7.18733,-2.64112 8.05327,-11.20314 8.05327,-17.557 z"
         id="path5160"
         style="stroke-width:1.08243" />
      <path
         class="cls-1"
         d="m 463.38101,427.41011 a 13.811794,13.811794 0 0 0 -11.19232,7.24145 v -7.51206 a 12.577825,12.577825 0 0 1 11.19232,-10.27225 z"
         id="path5162"
         style="stroke-width:1.08243" />
      <path
         class="cls-1"
         d="m 450.28362,427.70236 h 0.0866 v 7.29558 a 13.876739,13.876739 0 0 0 -11.38715,-7.57701 v -10.54285 c 9.9367,1.08242 11.24644,10.42379 11.30056,10.82428"
         id="path5164"
         style="stroke-width:1.08243" />
      <path
         class="cls-1"
         d="m 433.8307,470.01451 a 13.054093,13.054093 0 0 0 4.80598,-8.13986 20.425435,20.425435 0 0 0 0.33555,-5.791 v -15.955 0 -10.88924 c 9.9367,1.08243 11.24644,10.58616 11.30056,10.99748 h 0.0866 v 23.00162 a 39.227226,39.227226 0 0 1 -3.24729,14.82928 c -1.72106,3.84262 -4.81681,8.378 -9.81763,8.65943 v 0 a 38.686012,38.686012 0 0 0 -3.46377,-16.72353"
         id="path5166"
         style="stroke-width:1.08243" />
      <path
         class="cls-1"
         d="m 463.35936,470.13358 c 0,15.50038 -8.20481,22.66606 -12.1665,25.2206 a 67.218839,67.218839 0 0 1 -7.51206,-3.78851 49.791733,49.791733 0 0 1 -4.44878,-3.24728 c 3.90757,-0.93089 7.18733,-4.16735 9.59032,-9.4929 a 41.38126,41.38126 0 0 0 3.36635,-15.58698 v -23.56448 a 12.675243,12.675243 0 0 1 12.07991,-10.51039 l 7.14403,7.92338 c -7.18733,2.64113 -8.05327,11.20314 -8.05327,17.557 z"
         id="path5168"
         style="stroke-width:1.08243" />
      <path
         class="cls-1"
         d="m 394.60347,429.39095 a 13.811794,13.811794 0 0 1 -11.19232,-7.28474 v 7.577 a 12.567,12.567 0 0 0 11.19232,10.27225 V 429.4126 Z"
         id="path5170"
         style="stroke-width:1.08243" />
      <path
         class="cls-1"
         d="m 381.49525,429.0987 h 0.0866 v -7.29557 a 13.876739,13.876739 0 0 1 -11.37632,7.577 v 10.54286 c 9.93669,-1.08243 11.24643,-10.43462 11.28973,-10.82429"
         id="path5172"
         style="stroke-width:1.08243" />
      <path
         class="cls-1"
         d="m 365.05316,386.78655 a 13.054093,13.054093 0 0 1 4.80598,8.13987 20.425435,20.425435 0 0 1 0.33556,5.79099 v 15.97665 0 10.82429 c 9.93669,-1.08243 11.24643,-10.58615 11.28973,-11.0083 h 0.0866 v -22.96914 a 39.194753,39.194753 0 0 0 -3.24729,-14.82928 c -1.73188,-3.84262 -4.82763,-8.38883 -9.82845,-8.65943 v 0 a 38.696836,38.696836 0 0 1 -3.45295,16.72353"
         id="path5174"
         style="stroke-width:1.08243" />
      <path
         class="cls-1"
         d="m 394.571,386.66748 c 0,-15.50038 -8.19399,-22.66606 -12.15568,-25.22059 a 66.298775,66.298775 0 0 0 -7.51206,3.7885 49.791733,49.791733 0 0 0 -4.44878,3.24729 c 3.90757,0.93088 7.18733,4.16735 9.5795,9.4929 a 41.218895,41.218895 0 0 1 3.37717,15.57615 v 23.5753 a 12.664419,12.664419 0 0 0 12.06909,10.51039 l 7.14403,-7.92338 c -7.18733,-2.64113 -8.05327,-11.20314 -8.05327,-17.557 z"
         id="path5176"
         style="stroke-width:1.08243" />
      <path
         class="cls-1"
         d="m 343.87002,427.51835 a 13.844267,13.844267 0 0 1 11.19232,7.24145 v -7.51206 a 12.577825,12.577825 0 0 0 -11.19232,-10.27225 z"
         id="path5178"
         style="stroke-width:1.08243" />
      <path
         class="cls-1"
         d="m 356.95659,427.84308 h -0.0758 v 7.25227 a 13.833442,13.833442 0 0 1 11.37633,-7.577 v -10.54286 c -9.92588,1.08243 -11.23561,10.43462 -11.30056,10.82429"
         id="path5180"
         style="stroke-width:1.08243" />
      <path
         class="cls-1"
         d="m 373.40951,470.15523 a 12.989148,12.989148 0 0 1 -4.79516,-8.12904 20.696042,20.696042 0 0 1 -0.34638,-5.80182 v -15.955 0 -10.88924 c -9.92587,1.08243 -11.23561,10.58616 -11.30056,10.99748 h -0.0758 v 23.02326 a 39.194753,39.194753 0 0 0 3.24729,14.82928 c 1.73189,3.84262 4.82763,8.378 9.82846,8.65943 v 0 a 38.848376,38.848376 0 0 1 3.45294,-16.72353"
         id="path5182"
         style="stroke-width:1.08243" />
      <path
         class="cls-1"
         d="m 343.89167,470.2743 c 0,15.50038 8.19399,22.66606 12.15568,25.22059 a 66.298775,66.298775 0 0 0 7.51206,-3.7885 50.343772,50.343772 0 0 0 4.44878,-3.24729 c -3.89674,-0.93089 -7.18733,-4.16735 -9.5795,-9.4929 a 41.132301,41.132301 0 0 1 -3.36635,-15.57615 V 439.7931 a 12.696892,12.696892 0 0 0 -12.09073,-10.49956 l -7.07909,7.96667 c 7.18733,2.64113 8.05327,11.20314 8.05327,17.56782 v 15.47874 z"
         id="path5184"
         style="stroke-width:1.08243" />
      <path
         class="cls-1"
         d="m 478.62161,339.60347 c -2.04579,0.12989 -9.24395,0.87677 -13.24893,4.75186 v -8.78932 c 0,-9.4929 2.40299,-14.60197 7.577,-16.07407 l 10.23978,11.3655 -4.55703,8.74603 z"
         id="path5186"
         style="stroke-width:1.08243" />
      <path
         class="cls-1"
         d="m 328.65107,339.60347 c 2.04579,0.12989 9.24395,0.87677 13.24893,4.75186 v -8.78932 c 0,-9.4929 -2.40299,-14.60197 -7.577,-16.07407 l -10.22895,11.3655 4.5462,8.74603 z"
         id="path5188"
         style="stroke-width:1.08243" />
      <path
         class="cls-1"
         d="m 412.64756,310.29129 a 13.855091,13.855091 0 0 0 11.19232,-7.25227 v 7.577 a 12.567,12.567 0 0 1 -11.19232,10.26143 z"
         id="path5190"
         style="stroke-width:1.08243" />
      <path
         class="cls-1"
         d="m 425.73413,309.99904 h -0.0866 v -7.28475 a 13.898388,13.898388 0 0 0 11.37633,7.577 v 10.53204 c -9.92587,-1.08243 -11.23561,-10.42379 -11.28973,-10.82429"
         id="path5192"
         style="stroke-width:1.08243" />
      <path
         class="cls-1"
         d="m 442.19787,267.67607 a 13.086566,13.086566 0 0 0 -4.80598,8.13986 20.425435,20.425435 0 0 0 -0.33556,5.791 v 15.955 0 10.88923 c -9.92587,-1.08242 -11.23561,-10.59698 -11.28973,-11.0083 H 425.68 v -23.00161 a 39.227226,39.227226 0 0 1 3.24728,-14.82928 c 1.72106,-3.84262 4.81681,-8.38883 9.81763,-8.65943 h 0.0541 a 38.491174,38.491174 0 0 0 3.45294,16.7127"
         id="path5194"
         style="stroke-width:1.08243" />
      <path
         class="cls-1"
         d="m 412.66921,267.557 c 0,-15.48956 8.20481,-22.65524 12.1665,-25.2206 a 68.701767,68.701767 0 0 1 7.51206,3.79933 47.962428,47.962428 0 0 1 4.43796,3.24729 c -3.89675,0.94171 -7.17651,4.16735 -9.5795,9.50372 a 41.132301,41.132301 0 0 0 -3.36635,15.57615 v 23.58613 a 12.675243,12.675243 0 0 1 -12.07991,10.51039 l -7.14403,-7.92338 c 7.18733,-2.64113 8.05327,-11.21397 8.05327,-17.56782 z"
         id="path5196"
         style="stroke-width:1.08243" />
      <path
         class="cls-1"
         d="m 463.38101,308.45116 a 13.855091,13.855091 0 0 0 -11.19232,7.24145 v -7.50123 a 12.556176,12.556176 0 0 1 11.19232,-10.27225 z"
         id="path5198"
         style="stroke-width:1.08243" />
      <path
         class="cls-1"
         d="m 450.28362,308.74342 h 0.0866 v 7.28475 a 13.898388,13.898388 0 0 0 -11.38715,-7.57701 v -10.53203 c 9.9367,1.08243 11.24644,10.42379 11.30056,10.82429"
         id="path5200"
         style="stroke-width:1.08243" />
      <path
         class="cls-1"
         d="m 433.8307,351.05557 a 13.086566,13.086566 0 0 0 4.80598,-8.13987 20.425435,20.425435 0 0 0 0.33555,-5.79099 v -15.955 0 -10.90006 c 9.9367,1.08242 11.24644,10.59698 11.30056,11.0083 h 0.0866 v 23.02326 a 39.281348,39.281348 0 0 1 -3.24729,14.8401 c -1.72106,3.84263 -4.81681,8.378 -9.81763,8.65944 v 0 a 38.675187,38.675187 0 0 0 -3.46377,-16.71271"
         id="path5202"
         style="stroke-width:1.08243" />
      <path
         class="cls-1"
         d="m 463.35936,351.17464 c 0,15.48955 -8.20481,22.66606 -12.1665,25.22059 a 67.218839,67.218839 0 0 1 -7.51206,-3.7885 51.956591,51.956591 0 0 1 -4.44878,-3.24729 c 3.90757,-0.94171 7.18733,-4.16735 9.59032,-9.4929 a 41.435381,41.435381 0 0 0 3.36635,-15.58698 v -23.5753 a 12.686068,12.686068 0 0 1 12.07991,-10.51038 l 7.14403,7.9342 c -7.18733,2.6303 -8.05327,11.20314 -8.05327,17.557 z"
         id="path5204"
         style="stroke-width:1.08243" />
      <path
         class="cls-1"
         d="m 394.60347,310.43201 a 13.833442,13.833442 0 0 1 -11.19232,-7.24145 v 7.50123 a 12.567,12.567 0 0 0 11.19232,10.28308 z"
         id="path5206"
         style="stroke-width:1.08243" />
      <path
         class="cls-1"
         d="m 381.49525,310.13975 h 0.0866 v -7.29557 a 13.876739,13.876739 0 0 1 -11.37632,7.57701 v 10.54285 c 9.93669,-1.08243 11.24643,-10.43461 11.28973,-10.82429"
         id="path5208"
         style="stroke-width:1.08243" />
      <path
         class="cls-1"
         d="m 365.05316,267.81678 a 13.086566,13.086566 0 0 1 4.80598,8.13987 20.425435,20.425435 0 0 1 0.33556,5.79099 v 15.96583 0 10.88923 c 9.93669,-1.08242 11.24643,-10.59697 11.28973,-11.0083 h 0.0866 v -23.01244 a 39.23805,39.23805 0 0 0 -3.24729,-14.8401 c -1.73188,-3.8318 -4.82763,-8.378 -9.82845,-8.65943 v 0 a 38.675187,38.675187 0 0 1 -3.45295,16.7127"
         id="path5210"
         style="stroke-width:1.08243" />
      <path
         class="cls-1"
         d="m 394.571,267.70854 c 0,-15.50038 -8.19399,-22.73101 -12.15568,-25.23142 a 66.775043,66.775043 0 0 0 -7.51206,3.79932 49.586071,49.586071 0 0 0 -4.44878,3.24729 c 3.90757,0.94171 7.18733,4.16735 9.5795,9.4929 a 41.262193,41.262193 0 0 1 3.37717,15.58698 v 23.56448 a 12.664419,12.664419 0 0 0 12.06909,10.51038 l 7.14403,-7.9342 c -7.18733,-2.6303 -8.05327,-11.19232 -8.05327,-17.557 z"
         id="path5212"
         style="stroke-width:1.08243" />
      <path
         class="cls-1"
         d="m 343.87002,308.58106 a 13.887564,13.887564 0 0 1 11.19232,7.24145 v -7.50124 A 12.577825,12.577825 0 0 0 343.87002,298.0382 Z"
         id="path5214"
         style="stroke-width:1.08243" />
      <path
         class="cls-1"
         d="m 356.95659,308.88414 h -0.0758 v 7.29557 a 13.876739,13.876739 0 0 1 11.37633,-7.57701 v -10.54285 c -9.92588,1.08243 -11.23561,10.43461 -11.30056,10.82429"
         id="path5216"
         style="stroke-width:1.08243" />
      <path
         class="cls-1"
         d="m 373.40951,351.18546 a 12.989148,12.989148 0 0 1 -4.79516,-8.12904 20.631096,20.631096 0 0 1 -0.34638,-5.791 v -15.955 0 -10.90006 c -9.92587,1.08243 -11.23561,10.59698 -11.30056,11.0083 h -0.0758 v 23.02327 a 39.23805,39.23805 0 0 0 3.24729,14.8401 c 1.73189,3.84262 4.82763,8.378 9.82846,8.65943 v 0 a 38.891673,38.891673 0 0 1 3.45294,-16.72353"
         id="path5218"
         style="stroke-width:1.08243" />
      <path
         class="cls-1"
         d="m 343.89167,351.31535 c 0,15.48956 8.19399,22.66606 12.15568,25.2206 a 66.775043,66.775043 0 0 0 7.51206,-3.79933 48.092319,48.092319 0 0 0 4.44878,-3.24729 c -3.89674,-0.94171 -7.18733,-4.16735 -9.5795,-9.4929 a 41.132301,41.132301 0 0 1 -3.36635,-15.58697 v -23.56448 a 12.696892,12.696892 0 0 0 -12.09073,-10.51039 l -7.07909,7.93421 c 7.18733,2.6303 8.05327,11.19231 8.05327,17.55699 v 15.48956 z"
         id="path5220"
         style="stroke-width:1.08243" />
      <path
         class="cls-1"
         d="m 478.62161,220.77442 c -2.04579,0.14071 -9.24395,0.87677 -13.24893,4.75186 v -8.78932 c 0,-9.48208 2.40299,-14.60197 7.577,-16.06325 l 10.23978,11.35468 z"
         id="path5294"
         style="stroke-width:1.08243" />
      <path
         class="cls-1"
         d="m 328.65107,220.77442 c 2.04579,0.14071 9.24395,0.87677 13.24893,4.75186 v -8.78932 c 0,-9.48208 -2.40299,-14.60197 -7.577,-16.06325 l -10.22895,11.35468 4.5462,8.74603 z"
         id="path5296"
         style="stroke-width:1.08243" />
      <path
         class="cls-1"
         d="m 412.64756,191.40812 a 13.822618,13.822618 0 0 0 11.19232,-7.23063 v 7.50124 a 12.556176,12.556176 0 0 1 -11.19232,10.27225 z"
         id="path5298"
         style="stroke-width:1.08243" />
      <path
         class="cls-1"
         d="m 425.73413,191.11586 h -0.0866 v -7.28474 a 13.887564,13.887564 0 0 0 11.37633,7.577 v 10.54286 c -9.92587,-1.08243 -11.23561,-10.42379 -11.28973,-10.82429"
         id="path5300"
         style="stroke-width:1.08243" />
      <path
         class="cls-1"
         d="m 442.19787,148.80372 a 13.054093,13.054093 0 0 0 -4.80598,8.13986 20.425435,20.425435 0 0 0 -0.33556,5.791 v 15.955 0 10.90006 c -9.92587,-1.08243 -11.23561,-10.59698 -11.28973,-11.0083 H 425.68 v -23.02327 a 39.227226,39.227226 0 0 1 3.24728,-14.82928 c 1.72106,-3.84262 4.81681,-8.378 9.81763,-8.65943 h 0.0541 a 38.523647,38.523647 0 0 0 3.45294,16.71271"
         id="path5302"
         style="stroke-width:1.08243" />
      <path
         class="cls-1"
         d="m 412.66921,148.68465 c 0,-15.50038 8.20481,-22.66606 12.1665,-25.2206 a 66.298775,66.298775 0 0 1 7.51206,3.7885 50.203056,50.203056 0 0 1 4.43796,3.24729 c -3.89675,0.93089 -7.17651,4.16735 -9.5795,9.4929 a 41.132301,41.132301 0 0 0 -3.36635,15.57616 v 23.58612 a 12.686068,12.686068 0 0 1 -12.07991,10.52121 l -7.14403,-7.9342 c 7.18733,-2.6303 8.05327,-11.20314 8.05327,-17.557 z"
         id="path5304"
         style="stroke-width:1.08243" />
      <path
         class="cls-1"
         d="m 463.38101,189.56799 a 13.833442,13.833442 0 0 0 -11.19232,7.24145 v -7.51206 a 12.577825,12.577825 0 0 1 11.19232,-10.27225 z"
         id="path5306"
         style="stroke-width:1.08243" />
      <path
         class="cls-1"
         d="m 450.28362,189.86025 h 0.0866 v 7.29557 a 13.876739,13.876739 0 0 0 -11.38715,-7.57701 v -10.54285 c 9.9367,1.08243 11.24644,10.43461 11.30056,10.82429"
         id="path5308"
         style="stroke-width:1.08243" />
      <path
         class="cls-1"
         d="m 433.8307,232.17239 a 13.064918,13.064918 0 0 0 4.80598,-8.12904 20.436259,20.436259 0 0 0 0.33555,-5.79099 v -15.96583 0 -10.88923 c 9.9367,1.08242 11.24644,10.58615 11.30056,11.0083 h 0.0866 v 23.02326 a 39.227226,39.227226 0 0 1 -3.24729,14.82928 c -1.72106,3.84262 -4.81681,8.38882 -9.81763,8.65943 v 0 a 38.718484,38.718484 0 0 0 -3.46377,-16.72353"
         id="path5310"
         style="stroke-width:1.08243" />
      <path
         class="cls-1"
         d="m 463.35936,232.29146 c 0,15.50038 -8.20481,22.66606 -12.1665,25.2206 a 67.218839,67.218839 0 0 1 -7.51206,-3.7885 49.791733,49.791733 0 0 1 -4.44878,-3.24729 c 3.90757,-0.93089 7.18733,-4.15653 9.59032,-9.4929 a 41.38126,41.38126 0 0 0 3.36635,-15.57616 v -23.5753 a 12.675243,12.675243 0 0 1 12.07991,-10.51038 l 7.14403,7.92338 c -7.18733,2.64112 -8.05327,11.20314 -8.05327,17.55699 z"
         id="path5312"
         style="stroke-width:1.08243" />
      <path
         class="cls-1"
         d="m 394.60347,191.54884 a 13.811794,13.811794 0 0 1 -11.19232,-7.24145 v 7.51205 a 12.567,12.567 0 0 0 11.19232,10.27225 z"
         id="path5314"
         style="stroke-width:1.08243" />
      <path
         class="cls-1"
         d="m 381.49525,191.25658 h 0.0866 v -7.28475 a 13.855091,13.855091 0 0 1 -11.37632,7.57701 v 10.54285 c 9.9367,-1.08243 11.24644,-10.42379 11.28973,-10.82429"
         id="path5316"
         style="stroke-width:1.08243" />
      <path
         class="cls-1"
         d="m 365.05316,148.94443 a 13.054093,13.054093 0 0 1 4.80598,8.13987 20.425435,20.425435 0 0 1 0.33556,5.79099 v 15.955 0 10.90006 c 9.93669,-1.08242 11.24643,-10.59698 11.28973,-11.0083 h 0.0866 v -23.02326 a 39.227226,39.227226 0 0 0 -3.24729,-14.82928 c -1.73188,-3.84262 -4.82763,-8.38882 -9.82845,-8.65943 v 0 a 38.729309,38.729309 0 0 1 -3.45295,16.72353"
         id="path5318"
         style="stroke-width:1.08243" />
      <path
         class="cls-1"
         d="m 394.571,148.82536 c 0,-15.50038 -8.19399,-22.66606 -12.15568,-25.22059 a 66.298775,66.298775 0 0 0 -7.51206,3.7885 51.956591,51.956591 0 0 0 -4.44878,3.24729 c 3.90757,0.93089 7.18733,4.15652 9.5795,9.4929 a 41.218895,41.218895 0 0 1 3.37717,15.57615 v 23.58613 a 12.675243,12.675243 0 0 0 12.06909,10.52121 l 7.14403,-7.93421 C 395.43694,179.24162 394.571,170.6796 394.571,164.32575 Z"
         id="path5320"
         style="stroke-width:1.08243" />
      <path
         class="cls-1"
         d="m 343.87002,189.70871 a 13.844267,13.844267 0 0 1 11.19232,7.25227 v -7.51206 a 12.577825,12.577825 0 0 0 -11.19232,-10.27225 v 10.54286 z"
         id="path5322"
         style="stroke-width:1.08243" />
      <path
         class="cls-1"
         d="m 356.95659,190.00096 h -0.0758 v 7.29557 a 13.855091,13.855091 0 0 1 11.37633,-7.577 v -10.54286 c -9.92588,1.08243 -11.23561,10.43462 -11.30056,10.82429"
         id="path5324"
         style="stroke-width:1.08243" />
      <path
         class="cls-1"
         d="m 373.40951,232.31311 a 13.054093,13.054093 0 0 1 -4.79516,-8.12904 20.696042,20.696042 0 0 1 -0.34638,-5.80182 v -15.955 0 -10.87841 c -9.92587,1.08242 -11.23561,10.59698 -11.30056,10.99747 h -0.0758 v 23.02327 a 39.194753,39.194753 0 0 0 3.24729,14.82927 c 1.73189,3.84263 4.82763,8.38883 9.82846,8.65944 v 0 a 38.848376,38.848376 0 0 1 3.45294,-16.72353"
         id="path5326"
         style="stroke-width:1.08243" />
      <path
         class="cls-1"
         d="m 343.89167,232.43218 c 0,15.50038 8.19399,22.66606 12.15568,25.22059 a 66.298775,66.298775 0 0 0 7.51206,-3.7885 48.233035,48.233035 0 0 0 4.44878,-3.24729 c -3.89674,-0.93088 -7.18733,-4.16735 -9.5795,-9.4929 a 41.132301,41.132301 0 0 1 -3.36635,-15.57615 v -23.5753 a 12.696892,12.696892 0 0 0 -12.09073,-10.51039 l -7.07909,7.92338 c 7.18733,2.64113 8.05327,11.20314 8.05327,17.557 v 15.48956 z"
         id="path5328"
         style="stroke-width:1.08243" />
      <path
         class="cls-1"
         d="m 478.62161,101.76135 c -2.04579,0.14072 -9.24395,0.87677 -13.24893,4.75187 v -8.789328 c 0,-9.492902 2.40299,-14.601967 7.577,-16.063246 l 10.22895,11.387153 -4.55702,8.746021 z"
         id="path5330"
         style="stroke-width:1.08243" />
      <path
         class="cls-1"
         d="m 328.65107,101.76135 c 2.04579,0.14072 9.24395,0.87677 13.24893,4.75187 v -8.789328 c 0,-9.492902 -2.40299,-14.601967 -7.577,-16.063246 l -10.21813,11.387153 4.5462,8.746021 z"
         id="path5332"
         style="stroke-width:1.08243" />
      <path
         class="cls-1"
         d="m 412.64756,72.481648 a 13.833442,13.833442 0 0 0 11.19232,-7.24145 v 7.512057 a 12.577825,12.577825 0 0 1 -11.19232,10.272251 z"
         id="path5334"
         style="stroke-width:1.08243" />
      <path
         class="cls-1"
         d="m 425.73413,72.156919 h -0.0866 v -7.252274 a 13.876739,13.876739 0 0 0 11.37633,7.577003 V 83.024506 C 427.09799,81.942077 425.78825,72.589891 425.73413,72.200217"
         id="path5336"
         style="stroke-width:1.08243" />
      <path
         class="cls-1"
         d="m 442.19787,29.844771 a 12.989148,12.989148 0 0 0 -4.80598,8.129041 20.436259,20.436259 0 0 0 -0.33556,5.790995 v 15.965828 0 10.889235 C 427.13046,69.537441 425.82072,60.033715 425.7666,59.611568 H 425.68 v -23.01244 a 39.227226,39.227226 0 0 1 3.24728,-14.829277 c 1.72106,-3.842623 4.81681,-8.388825 9.81763,-8.659432 h 0.0541 a 38.566944,38.566944 0 0 0 3.45294,16.723527"
         id="path5338"
         style="stroke-width:1.08243" />
      <path
         class="cls-1"
         d="m 412.66921,29.725704 c 0,-15.500383 8.20481,-22.6660632 12.1665,-25.2205956 a 66.298775,66.298775 0 0 1 7.51206,3.7885014 50.203056,50.203056 0 0 1 4.43796,3.2472872 c -3.89675,0.930889 -7.17651,4.156527 -9.5795,9.492902 a 41.132301,41.132301 0 0 0 -3.36635,15.576153 V 60.185255 A 12.664419,12.664419 0 0 1 411.75997,70.69564 l -7.14403,-7.955853 c 7.18733,-2.641126 8.05327,-11.20314 8.05327,-17.556998 z"
         id="path5340"
         style="stroke-width:1.08243" />
      <path
         class="cls-1"
         d="m 463.38101,70.609046 a 13.822618,13.822618 0 0 0 -11.19232,7.284747 V 70.31679 a 12.567,12.567 0 0 1 11.19232,-10.272251 v 10.542858 z"
         id="path5342"
         style="stroke-width:1.08243" />
      <path
         class="cls-1"
         d="m 450.28362,70.901302 h 0.0866 v 7.295571 A 13.855091,13.855091 0 0 0 438.98306,70.61987 V 60.066188 c 9.9367,1.082429 11.24644,10.423791 11.30056,10.824289"
         id="path5344"
         style="stroke-width:1.08243" />
      <path
         class="cls-1"
         d="m 433.8307,113.21345 a 13.054093,13.054093 0 0 0 4.80598,-8.13987 20.425435,20.425435 0 0 0 0.33555,-5.790991 v -15.976651 0 -10.82429 c 9.9367,1.082429 11.24644,10.586155 11.30056,10.997478 h 0.0866 v 23.034094 a 39.227226,39.227226 0 0 1 -3.24729,14.82927 c -1.72106,3.84262 -4.81681,8.378 -9.81763,8.65943 v 0 a 38.675187,38.675187 0 0 0 -3.46377,-16.7127"
         id="path5346"
         style="stroke-width:1.08243" />
      <path
         class="cls-1"
         d="m 463.35936,113.33252 c 0,15.50038 -8.20481,22.66606 -12.1665,25.22059 a 67.218839,67.218839 0 0 1 -7.51206,-3.7885 49.791733,49.791733 0 0 1 -4.44878,-3.24729 c 3.90757,-0.93088 7.18733,-4.16735 9.59032,-9.4929 a 41.38126,41.38126 0 0 0 3.36635,-15.57615 V 82.862142 A 12.664419,12.664419 0 0 1 464.2686,72.362581 l 7.14403,7.92338 c -7.18733,2.641127 -8.05327,11.20314 -8.05327,17.556998 z"
         id="path5348"
         style="stroke-width:1.08243" />
      <path
         class="cls-1"
         d="m 394.60347,72.589891 a 13.811794,13.811794 0 0 1 -11.19232,-7.24145 v 7.512057 a 12.567,12.567 0 0 0 11.19232,10.272251 z"
         id="path5350"
         style="stroke-width:1.08243" />
      <path
         class="cls-1"
         d="m 381.49525,72.297635 h 0.0866 v -7.284747 a 13.876739,13.876739 0 0 1 -11.37632,7.577003 v 10.542858 c 9.9367,-1.082429 11.24644,-10.434615 11.28973,-10.82429"
         id="path5352"
         style="stroke-width:1.08243" />
      <path
         class="cls-1"
         d="m 365.05316,29.985487 a 12.989148,12.989148 0 0 1 4.80598,8.129041 20.501205,20.501205 0 0 1 0.33556,5.801819 v 15.955004 0 10.889235 c 9.93669,-1.082429 11.24643,-10.586155 11.28973,-11.008303 h 0.0866 V 36.761492 a 39.194753,39.194753 0 0 0 -3.24728,-14.829277 c -1.73189,-3.842623 -4.82764,-8.388825 -9.82846,-8.659432 v 0 a 38.729309,38.729309 0 0 1 -3.45295,16.723528"
         id="path5354"
         style="stroke-width:1.08243" />
      <path
         class="cls-1"
         d="m 394.571,29.866419 c 0,-15.500383 -8.19399,-22.6660624 -12.15568,-25.2205948 a 66.298775,66.298775 0 0 0 -7.51206,3.7885014 47.691821,47.691821 0 0 0 -4.44878,3.2472874 c 3.90757,0.930888 7.18733,4.156527 9.5795,9.492902 a 41.218895,41.218895 0 0 1 3.37717,15.586977 v 23.564479 a 12.664419,12.664419 0 0 0 12.06909,10.510385 l 7.14403,-7.92338 C 395.43694,60.271849 394.571,51.709836 394.571,45.355978 Z"
         id="path5356"
         style="stroke-width:1.08243" />
      <path
         class="cls-1"
         d="m 343.87002,70.749762 a 13.844267,13.844267 0 0 1 11.19232,7.24145 V 70.479154 A 12.567,12.567 0 0 0 343.87002,60.206903 Z"
         id="path5358"
         style="stroke-width:1.08243" />
      <path
         class="cls-1"
         d="m 356.95659,71.042018 h -0.0758 v 7.284747 a 13.833442,13.833442 0 0 1 11.37633,-7.577003 V 60.206903 c -9.92588,1.082429 -11.23561,10.423792 -11.30056,10.82429"
         id="path5360"
         style="stroke-width:1.08243" />
      <path
         class="cls-1"
         d="m 373.40951,113.35417 a 13.043269,13.043269 0 0 1 -4.79516,-8.13987 20.631096,20.631096 0 0 1 -0.34638,-5.790995 v -15.955003 0 -10.90006 c -9.92587,1.082429 -11.23561,10.59698 -11.30056,11.008303 h -0.0758 v 23.034085 a 39.227226,39.227226 0 0 0 3.24729,14.82928 c 1.73189,3.84262 4.82763,8.378 9.82846,8.65943 v 0 a 38.848376,38.848376 0 0 1 3.45294,-16.72353"
         id="path5362"
         style="stroke-width:1.08243" />
      <path
         class="cls-1"
         d="m 343.89167,113.47323 c 0,15.48956 8.19399,22.66607 12.15568,25.2206 a 66.298775,66.298775 0 0 0 7.51206,-3.7885 50.343772,50.343772 0 0 0 4.44878,-3.24729 c -3.89674,-0.94171 -7.18733,-4.16735 -9.5795,-9.4929 a 41.132301,41.132301 0 0 1 -3.36635,-15.57615 V 83.002858 a 12.686068,12.686068 0 0 0 -12.09073,-10.52121 l -7.07909,7.945029 c 7.18733,2.630302 8.05327,11.20314 8.05327,17.556998 v 15.489555 z"
         id="path5364"
         style="stroke-width:1.08243" />
    </g>
  </g>
</svg>
