<?xml version="1.0" encoding="UTF-8" standalone="no"?>
<svg
   id="Layer_1"
   data-name="Layer 1"
   viewBox="0 0 557.19428 709.53179"
   version="1.1"
   sodipodi:docname="4.svg"
   inkscape:version="1.1.2 (b8e25be833, 2022-02-05)"
   width="557.19427"
   height="709.5318"
   xmlns:inkscape="http://www.inkscape.org/namespaces/inkscape"
   xmlns:sodipodi="http://sodipodi.sourceforge.net/DTD/sodipodi-0.dtd"
   xmlns="http://www.w3.org/2000/svg"
   xmlns:svg="http://www.w3.org/2000/svg">
  <sodipodi:namedview
     id="namedview6345"
     pagecolor="#ffffff"
     bordercolor="#666666"
     borderopacity="1.0"
     inkscape:pageshadow="2"
     inkscape:pageopacity="0.0"
     inkscape:pagecheckerboard="0"
     showgrid="false"
     inkscape:zoom="1.286"
     inkscape:cx="-19.440124"
     inkscape:cy="307.93157"
     inkscape:window-width="1600"
     inkscape:window-height="829"
     inkscape:window-x="-8"
     inkscape:window-y="-8"
     inkscape:window-maximized="1"
     inkscape:current-layer="layer3" />
  <defs
     id="defs6338">
    <style
       id="style6336">.cls-1{fill:#231f20;}</style>
  </defs>
  <g
     inkscape:groupmode="layer"
     id="layer3"
     inkscape:label="Layer 1"
     style="opacity:0.05"
     transform="translate(350.32538,-19.814099)">
    <g
       id="g6349"
       transform="matrix(1.4698593,0,0,1.5194376,-554.87308,-5.3325935)">
      <polygon
         class="cls-1"
         points="369.11,211.95 388.3,224.41 388.3,211.95 "
         id="polygon6340" />
      <path
         class="cls-1"
         d="m 256.68,16.55 -32.07,37.82 c -10,-6 -22.68,-10.38 -38.74,-11.26 l -5.19,-0.29 V 110 C 96.84,114.1 60.46,223.92 60.46,280.46 v 4.86 h 4.91 c 65.48,0 106.15,55 106.15,143.41 V 431 l 1.71,1.46 c 0.9,0.76 22.19,18.83 37.41,28.13 18.2,11.1 43.15,21.49 44.21,21.93 l 2.32,1 2.15,-1.3 c 21.75,-13.24 72.36,-53.79 72.36,-144.35 v -20.38 c 17.27,-29.15 74.08,-31.27 74.65,-31.29 l 2.88,-0.09 L 439.54,228.4 331.82,109.93 V 42.82 l -5.18,0.29 C 310.6,44 298,48.3 288,54.33 Z m -0.43,76.31 c -4,-10 -11.11,-22.71 -23.46,-32.77 L 256.6,32 279.79,60 c -12.4,10.07 -19.52,22.77 -23.54,32.83 m 5.4,55.37 V 108.12 C 264,96.88 275.35,58.43 322,53.25 v 56.3 c -33,3.34 -50.89,21.88 -60.36,38.68 m -9.8,1.77 c -9.21,-17.25 -27.13,-37 -61.35,-40.47 V 53.25 C 244,59.19 251.1,109 251.38,111.13 l 0.46,-0.06 v 39 z m 4.47,322.51 c -6.64,-2.86 -26.11,-11.45 -40.52,-20.26 a 269.7,269.7 0 0 1 -24,-17.27 c 21,-5 38.73,-22.25 51.66,-50.71 13.41,-29.56 18.16,-63.31 18.16,-83.23 v -126 c 2.43,-11.83 14.49,-53.13 65.13,-56.14 l 38.51,42.36 c -38.75,14.07 -43.43,59.84 -43.43,93.8 v 82.74 c 0,82.78 -44.21,121.07 -65.55,134.73 m -74.75,-45.86 -0.24,-0.2 c -0.26,-35.25 -6.8,-65.41 -18.64,-89.31 13.09,-9.64 22,-24.47 25.9,-43.46 a 107.87,107.87 0 0 0 1.83,-30.94 v -85.24 h 0.08 V 119.3 c 53.54,6 60.61,56.6 60.89,58.81 l 0.46,-0.06 v 123 c 0,19 -4.54,51.08 -17.31,79.23 -9.31,20.53 -26,44.79 -53,46.38 M 158,328.46 C 138.87,296 108.72,277.19 70.38,275.7 c 1,-25.31 9.49,-63.09 27.19,-95.15 14.79,-26.76 41,-58.47 83,-60.79 v 78.8 c -31.91,7.9 -40.13,56.22 -40.47,58.31 l 9.69,1.55 c 0.07,-0.44 7,-41.32 30.78,-49.7 v 54.28 0.56 c 0.06,0.47 4.71,43.45 -22.63,64.88 M 331.68,302 v -46.93 c 0,-50.71 13,-78 40.82,-85.87 l 55.18,60.69 -24.56,46.73 c -11,0.72 -49.79,4.69 -71.44,25.38"
         id="path6342" />
    </g>
  </g>
</svg>
