<?xml version="1.0" encoding="utf-8"?>
<!-- Generator: Adobe Illustrator 26.2.1, SVG Export Plug-In . SVG Version: 6.00 Build 0)  -->
<svg version="1.1" id="Layer_1" xmlns="http://www.w3.org/2000/svg" xmlns:xlink="http://www.w3.org/1999/xlink" x="0px" y="0px"
	 viewBox="0 0 2560 1688" style="enable-background:new 0 0 2560 1688;" xml:space="preserve">
<style type="text/css">
	.st0{fill:#224CA1;}
	.st1{opacity:0.1;fill:#A2A3A3;enable-background:new    ;}
	.st2{fill:#FFFFFF;}
	.st3{clip-path:url(#SVGID_00000152968704981238218490000010701090194366434489_);}
	
		.st4{clip-path:url(#SVGID_00000183933429228562683160000015985628966443366786_);fill:url(#SVGID_00000109726131322484469850000010097497237628045727_);}
	.st5{fill:url(#SVGID_00000114789893960281811370000001507355115177953716_);}
	.st6{fill:#133359;}
	.st7{fill:#6582BE;}
	.st8{fill:#F9B914;}
	.st9{opacity:0.1;fill:#0E5168;enable-background:new    ;}
	.st10{fill:#0A3E4C;}
	.st11{fill:#464548;}
	.st12{font-family:'ArialMT';}
	.st13{font-size:58.2532px;}
	.st14{clip-path:url(#SVGID_00000082347211024508539970000003481954455593274773_);}
	
		.st15{clip-path:url(#SVGID_00000075841374278006499100000008726666128346367925_);fill:url(#SVGID_00000052824070392906914640000014400412928084758461_);}
	.st16{clip-path:url(#SVGID_00000086651297676130269680000006542473045248526268_);}
	
		.st17{clip-path:url(#SVGID_00000162332646654493783170000001098344543238932100_);fill:url(#SVGID_00000011741386187395945380000018355434105445875087_);}
	.st18{fill:url(#SVGID_00000174569039805462994130000014659521853593641626_);}
	.st19{clip-path:url(#SVGID_00000150101215839873967250000006214484628390195340_);}
	
		.st20{clip-path:url(#SVGID_00000160187857079311007570000014269342056384286597_);fill:url(#SVGID_00000177455877575037536330000002863410571899732122_);}
	.st21{clip-path:url(#SVGID_00000141453546705026641160000016330427983728266132_);}
	
		.st22{clip-path:url(#SVGID_00000042710597556972449740000006876450125126087346_);fill:url(#SVGID_00000140006391083950256830000000047764622279426745_);}
	.st23{fill:url(#SVGID_00000017475989334058447370000000493697454975142278_);}
	.st24{fill:#AC1426;}
	.st25{fill:#FFF0E7;}
	.st26{fill:#072743;}
	.st27{fill:#275279;}
	.st28{fill:#0F3358;}
	.st29{fill:#FDBD8E;}
	.st30{fill:#FB9988;}
	.st31{fill:#FFDABA;}
	.st32{fill:#E94E21;}
	.st33{fill:#FD7D6F;}
	.st34{fill:#161818;}
	.st35{fill:#FF8035;}
	.st36{fill:#FFA049;}
	.st37{fill:#2C2C2C;}
	.st38{fill:#3F0D0D;}
	.st39{fill:#75312F;}
	.st40{fill:#EDB838;}
	.st41{fill:#CE9307;}
	.st42{fill:#FFD455;}
	.st43{fill:#940B20;}
	.st44{fill:#474747;}
	.st45{fill:#FFA07F;}
	.st46{fill:#FFBF90;}
	.st47{fill:#F37C71;}
	.st48{fill:#274F74;}
	.st49{fill:#171228;}
	.st50{fill:#909AA3;}
	.st51{fill:#FF9300;}
	.st52{fill:#313044;}
	.st53{fill:#414156;}
	.st54{fill:#5E5E73;}
	.st55{fill:#55062C;}
	.st56{fill:#3F0727;}
	.st57{fill:#6F0A32;}
	.st58{fill:#CF691F;}
	.st59{fill:#FFE598;}
</style>
<rect x="-14" y="-38" class="st0" width="2583.3" height="1765"/>
<rect x="0.4" y="618" class="st1" width="2559.6" height="89.1"/>
<rect x="0.4" y="1088.8" class="st1" width="2559.6" height="89.1"/>
<polygon class="st2" points="1844.8,1539.5 1401.2,1539.5 1401.2,660.9 1844.8,563.6 "/>
<g>
	<g>
		<g>
			<defs>
				<polygon id="SVGID_1_" points="1,1 2,1 1,2 				"/>
			</defs>
			<clipPath id="SVGID_00000080191295713571287650000004138563872989711021_">
				<use xlink:href="#SVGID_1_"  style="overflow:visible;"/>
			</clipPath>
		</g>
		<g>
			<defs>
				<polygon id="SVGID_00000005250761007400839000000018154721035596025021_" points="1,1 2,1 1,2 				"/>
			</defs>
			<defs>
				<polygon id="SVGID_00000156589833341000401530000012615737725834855817_" points="-1,-1 -2,-1 -1,-2 				"/>
			</defs>
			<clipPath id="SVGID_00000142857185461619813440000008478760122134269569_">
				<use xlink:href="#SVGID_00000005250761007400839000000018154721035596025021_"  style="overflow:visible;"/>
			</clipPath>
			
				<clipPath id="SVGID_00000026885505984969085750000012848443331435369133_" style="clip-path:url(#SVGID_00000142857185461619813440000008478760122134269569_);">
				<use xlink:href="#SVGID_00000156589833341000401530000012615737725834855817_"  style="overflow:visible;"/>
			</clipPath>
			
				<linearGradient id="SVGID_00000106868385202398503820000012592577629440326288_" gradientUnits="userSpaceOnUse" x1="0.1" y1="930.2" x2="1520.7" y2="930.2" gradientTransform="matrix(1 0 0 1 0 608)">
				<stop  offset="0" style="stop-color:#000000"/>
				<stop  offset="9.580000e-02" style="stop-color:#232323"/>
				<stop  offset="0.4244" style="stop-color:#989898"/>
				<stop  offset="0.6505" style="stop-color:#E2E2E2"/>
				<stop  offset="0.7545" style="stop-color:#FFFFFF"/>
			</linearGradient>
			
				<polygon style="clip-path:url(#SVGID_00000026885505984969085750000012848443331435369133_);fill:url(#SVGID_00000106868385202398503820000012592577629440326288_);" points="
				1290.6,1486 0.1,1443.1 0.1,1710.5 1044.6,1710.5 1387.2,1604.8 1520.7,1365.9 			"/>
		</g>
	</g>
</g>
<linearGradient id="SVGID_00000149344048789458295110000009158852177568665775_" gradientUnits="userSpaceOnUse" x1="-68.9" y1="950.2" x2="1688.1" y2="950.2" gradientTransform="matrix(1 0 0 1 0 608)">
	<stop  offset="0" style="stop-color:#FFFFFF"/>
	<stop  offset="0.7545" style="stop-color:#FFFFFF"/>
</linearGradient>
<polygon style="fill:url(#SVGID_00000149344048789458295110000009158852177568665775_);" points="1484.8,1512.1 -68.9,1474.2 
	-68.9,1710.5 1267.4,1710.5 1570.1,1617.1 1688.1,1405.9 "/>
<polygon class="st6" points="1590.7,493.9 1973.3,586.3 1973.3,1534.5 1590.7,1617.1 1584.3,1603.1 1582.7,498.2 "/>
<rect x="1570.1" y="493.9" class="st7" width="20.5" height="1123.2"/>
<polygon class="st8" points="1954.2,1032.5 1954.2,614.2 1609.8,527.2 1609.8,1023.2 "/>
<polygon class="st8" points="1609.8,1089.3 1609.8,1584.3 1954.2,1506.6 1954.2,1098.6 "/>
<polygon class="st9" points="1954.2,1032.5 1764.6,864.7 1609.8,527.2 1609.8,1023.2 "/>
<polygon class="st9" points="1609.8,1089.3 1609.8,1584.3 1954.2,1506.6 1750,1389.6 "/>
<path class="st10" d="M1642.3,1057.3c0,16-5.4,29-11.3,29c-9.3,0-22.3-5.1-22.3-29c0-20.3,12.2-29,21.5-29
	S1642.3,1041.3,1642.3,1057.3z"/>
<path class="st8" d="M1645.3,1057.3c0,16-6.4,29-14.2,29s-14.2-13-14.2-29s6.4-29,14.2-29S1645.3,1041.3,1645.3,1057.3z"/>
<polygon class="st2" points="1884.4,728.1 1884.4,660.5 1679.5,616.3 1679.5,696.5 "/>
<g>
	<text transform="matrix(0.8586 0.1503 0 1 1680.9526 680.2669)" class="st11 st12 st13">FUTURE</text>
</g>
<g>
	<g>
		<g>
			<defs>
				<polygon id="SVGID_00000105390183630388671600000006306224584202487970_" points="1,1 2,1 1,2 				"/>
			</defs>
			<clipPath id="SVGID_00000008136976091948715750000002769217241801708449_">
				<use xlink:href="#SVGID_00000105390183630388671600000006306224584202487970_"  style="overflow:visible;"/>
			</clipPath>
		</g>
		<g>
			<defs>
				<polygon id="SVGID_00000003827411920772760510000015046119401729541520_" points="1,1 2,1 1,2 				"/>
			</defs>
			<defs>
				<polygon id="SVGID_00000137092402260157684450000007152148183813958786_" points="-1,-1 -2,-1 -1,-2 				"/>
			</defs>
			<clipPath id="SVGID_00000178927222182014009090000013560342710575263360_">
				<use xlink:href="#SVGID_00000003827411920772760510000015046119401729541520_"  style="overflow:visible;"/>
			</clipPath>
			
				<clipPath id="SVGID_00000016781549045559919480000014199805876552328580_" style="clip-path:url(#SVGID_00000178927222182014009090000013560342710575263360_);">
				<use xlink:href="#SVGID_00000137092402260157684450000007152148183813958786_"  style="overflow:visible;"/>
			</clipPath>
			
				<linearGradient id="SVGID_00000005946420127442374340000010419410744922724539_" gradientUnits="userSpaceOnUse" x1="-14" y1="1033.1001" x2="825.4" y2="1033.1001" gradientTransform="matrix(1 0 0 1 0 608)">
				<stop  offset="0" style="stop-color:#000000"/>
				<stop  offset="9.580000e-02" style="stop-color:#232323"/>
				<stop  offset="0.4244" style="stop-color:#989898"/>
				<stop  offset="0.6505" style="stop-color:#E2E2E2"/>
				<stop  offset="0.7545" style="stop-color:#FFFFFF"/>
			</linearGradient>
			
				<polygon style="clip-path:url(#SVGID_00000016781549045559919480000014199805876552328580_);fill:url(#SVGID_00000005946420127442374340000010419410744922724539_);" points="
				825.4,1607.2 -7,1687.3 -14,1605.6 825.4,1594.9 			"/>
		</g>
	</g>
</g>
<g>
	<g>
		<g>
			<g>
				<defs>
					<polygon id="SVGID_00000123440130424191988570000007232163806871896976_" points="345,199.6 345.9,199.6 345,200.5 					"/>
				</defs>
				<clipPath id="SVGID_00000067942074065722098460000002510776361038313881_">
					<use xlink:href="#SVGID_00000123440130424191988570000007232163806871896976_"  style="overflow:visible;"/>
				</clipPath>
			</g>
			<g>
				<defs>
					<polygon id="SVGID_00000160872109345185881310000011450787417244775342_" points="345,199.6 345.9,199.6 345,200.5 					"/>
				</defs>
				<defs>
					<polygon id="SVGID_00000174589309012002651400000013440445872379369646_" points="343.2,197.9 342.3,197.9 343.2,197 					"/>
				</defs>
				<clipPath id="SVGID_00000074436821645969271750000008006561312444692658_">
					<use xlink:href="#SVGID_00000160872109345185881310000011450787417244775342_"  style="overflow:visible;"/>
				</clipPath>
				
					<clipPath id="SVGID_00000124142303568204477620000016097950884549801106_" style="clip-path:url(#SVGID_00000074436821645969271750000008006561312444692658_);">
					<use xlink:href="#SVGID_00000174589309012002651400000013440445872379369646_"  style="overflow:visible;"/>
				</clipPath>
				
					<linearGradient id="SVGID_00000057120615639928261400000007310375184666306235_" gradientUnits="userSpaceOnUse" x1="331.7" y1="1042.35" x2="1079.8" y2="1042.35" gradientTransform="matrix(1 0 0 1 0 608)">
					<stop  offset="0" style="stop-color:#000000"/>
					<stop  offset="9.580000e-02" style="stop-color:#232323"/>
					<stop  offset="0.4244" style="stop-color:#989898"/>
					<stop  offset="0.6505" style="stop-color:#E2E2E2"/>
					<stop  offset="0.7545" style="stop-color:#FFFFFF"/>
				</linearGradient>
				
					<polygon style="clip-path:url(#SVGID_00000124142303568204477620000016097950884549801106_);fill:url(#SVGID_00000057120615639928261400000007310375184666306235_);" points="
					1060.7,1621 337.9,1690 331.7,1617.8 1079.8,1610.7 				"/>
			</g>
		</g>
	</g>
	
		<linearGradient id="SVGID_00000085943041783113582870000003663054965802383028_" gradientUnits="userSpaceOnUse" x1="-81.3" y1="1042.35" x2="1079.8" y2="1042.35" gradientTransform="matrix(1 0 0 1 0 608)">
		<stop  offset="0" style="stop-color:#FFFFFF"/>
		<stop  offset="4.501209e-03" style="stop-color:#FEFEFE"/>
		<stop  offset="0.3789" style="stop-color:#899FCD"/>
		<stop  offset="0.6361" style="stop-color:#3F63AD"/>
		<stop  offset="0.7545" style="stop-color:#224CA1"/>
	</linearGradient>
	<polygon style="fill:url(#SVGID_00000085943041783113582870000003663054965802383028_);" points="1060.7,1621 -75.1,1690 
		-81.3,1617.8 1079.8,1610.7 	"/>
</g>
<g>
	<g>
		<g>
			<defs>
				<polygon id="SVGID_00000143616773435876143380000002870402111559882640_" points="1,1 2,1 1,2 				"/>
			</defs>
			<clipPath id="SVGID_00000161594249514751490420000004188927956624423321_">
				<use xlink:href="#SVGID_00000143616773435876143380000002870402111559882640_"  style="overflow:visible;"/>
			</clipPath>
		</g>
		<g>
			<defs>
				<polygon id="SVGID_00000099656912691844492750000000016045341200759228_" points="1,1 2,1 1,2 				"/>
			</defs>
			<defs>
				<polygon id="SVGID_00000127006559894572718260000005650276948229371053_" points="-1,-1 -2,-1 -1,-2 				"/>
			</defs>
			<clipPath id="SVGID_00000160175708477410288010000006166708746072024755_">
				<use xlink:href="#SVGID_00000099656912691844492750000000016045341200759228_"  style="overflow:visible;"/>
			</clipPath>
			
				<clipPath id="SVGID_00000093863454673411459950000010114087170448703145_" style="clip-path:url(#SVGID_00000160175708477410288010000006166708746072024755_);">
				<use xlink:href="#SVGID_00000127006559894572718260000005650276948229371053_"  style="overflow:visible;"/>
			</clipPath>
			
				<linearGradient id="SVGID_00000003792738740395477350000009453715396296941715_" gradientUnits="userSpaceOnUse" x1="254.8948" y1="1019.5913" x2="1094.3484" y2="1019.5913" gradientTransform="matrix(0.9922 0.1248 -0.1248 0.9922 208.807 469.1812)">
				<stop  offset="0" style="stop-color:#000000"/>
				<stop  offset="9.580000e-02" style="stop-color:#232323"/>
				<stop  offset="0.4244" style="stop-color:#989898"/>
				<stop  offset="0.6505" style="stop-color:#E2E2E2"/>
				<stop  offset="0.7545" style="stop-color:#FFFFFF"/>
			</linearGradient>
			
				<polygon style="clip-path:url(#SVGID_00000093863454673411459950000010114087170448703145_);fill:url(#SVGID_00000003792738740395477350000009453715396296941715_);" points="
				1171.6,1583.8 335.7,1559.3 338.9,1477.4 1173.1,1571.6 			"/>
		</g>
	</g>
</g>
<g>
	<g>
		<g>
			<g>
				<defs>
					<polygon id="SVGID_00000116202872811736539430000013267026257492436867_" points="345,199.6 345.9,199.6 345,200.5 					"/>
				</defs>
				<clipPath id="SVGID_00000110473025622191145550000006407277666743835570_">
					<use xlink:href="#SVGID_00000116202872811736539430000013267026257492436867_"  style="overflow:visible;"/>
				</clipPath>
			</g>
			<g>
				<defs>
					<polygon id="SVGID_00000093879396359966745250000003661164726958041233_" points="345,199.6 345.9,199.6 345,200.5 					"/>
				</defs>
				<defs>
					<polygon id="SVGID_00000026879511916182879090000002384192335609845438_" points="343.2,197.9 342.3,197.9 343.2,197 					"/>
				</defs>
				<clipPath id="SVGID_00000147914808275425871950000005544817612205791133_">
					<use xlink:href="#SVGID_00000093879396359966745250000003661164726958041233_"  style="overflow:visible;"/>
				</clipPath>
				
					<clipPath id="SVGID_00000071532861777702580800000001323023566803056826_" style="clip-path:url(#SVGID_00000147914808275425871950000005544817612205791133_);">
					<use xlink:href="#SVGID_00000026879511916182879090000002384192335609845438_"  style="overflow:visible;"/>
				</clipPath>
				
					<linearGradient id="SVGID_00000033334580691938068000000002380512964745222017_" gradientUnits="userSpaceOnUse" x1="560.6885" y1="1005.5311" x2="1308.6489" y2="1005.5311" gradientTransform="matrix(0.9922 0.1248 -0.1248 0.9922 208.807 469.1812)">
					<stop  offset="0" style="stop-color:#000000"/>
					<stop  offset="9.580000e-02" style="stop-color:#232323"/>
					<stop  offset="0.4244" style="stop-color:#989898"/>
					<stop  offset="0.6505" style="stop-color:#E2E2E2"/>
					<stop  offset="0.7545" style="stop-color:#FFFFFF"/>
				</linearGradient>
				
					<polygon style="clip-path:url(#SVGID_00000071532861777702580800000001323023566803056826_);fill:url(#SVGID_00000033334580691938068000000002380512964745222017_);" points="
					1366.6,1598.6 640.8,1576.9 643.7,1504.5 1386.7,1590.9 				"/>
			</g>
		</g>
	</g>
	
		<linearGradient id="SVGID_00000082340478763510075020000014687807901987792002_" gradientUnits="userSpaceOnUse" x1="560.6885" y1="1005.5311" x2="1308.6489" y2="1005.5311" gradientTransform="matrix(0.9922 0.1248 -0.1248 0.9922 208.807 469.1812)">
		<stop  offset="0" style="stop-color:#FFFFFF"/>
		<stop  offset="4.501209e-03" style="stop-color:#FEFEFE"/>
		<stop  offset="0.3789" style="stop-color:#899FCD"/>
		<stop  offset="0.6361" style="stop-color:#3F63AD"/>
		<stop  offset="0.7545" style="stop-color:#224CA1"/>
	</linearGradient>
	<polygon style="fill:url(#SVGID_00000082340478763510075020000014687807901987792002_);" points="1366.6,1598.6 640.8,1576.9 
		643.7,1504.5 1386.7,1590.9 	"/>
</g>
<g>
	<g>
		<g>
			<g>
				<g>
					<g>
						<path class="st24" d="M793.3,1541.7c1.7-0.9,3.5-2.5,3.7-5.1c0.6-7.7,1.3-35.5,4.2-44c2.3-6.6,9.6-14.3,12.8-17.4l-18.4-44.9
							c-12.8,1.5-36.3,7.8-41.2,9.1L793.3,1541.7z"/>
						
							<rect x="763.2" y="1437.7" transform="matrix(0.9351 -0.3543 0.3543 0.9351 -478.9114 369.1578)" class="st25" width="11" height="109.5"/>
						<g>
							<path class="st25" d="M795.1,1485c-0.1,0-0.3-0.1-0.4-0.1c-1.1-0.2-2.6,0-2.7,1.4c0,0.7,0.3,1.4,0.7,2c1.3,2.1,3,3.8,4.9,5.3
								c2,1.7,4.2,3.4,6.8,4c2.7,0.6,4-2.1,2.6-4.4C804.5,1489.5,799.7,1485.8,795.1,1485z"/>
							<path class="st25" d="M792.5,1494.8c-0.2,0-0.3-0.1-0.4-0.1c-1.1-0.2-2.6,0-2.7,1.4c0,0.7,0.3,1.4,0.7,2
								c1.3,2.1,3,3.8,4.9,5.3c2,1.7,4.2,3.4,6.8,4c2.7,0.6,4-2.1,2.6-4.4C801.9,1499.3,797.1,1495.6,792.5,1494.8z"/>
							<path class="st25" d="M792.5,1505.6c-0.2,0-0.3-0.1-0.4-0.1c-1.1-0.2-2.6,0-2.7,1.4c0,0.7,0.3,1.4,0.7,2
								c1.3,2.1,3,3.8,4.9,5.3c2,1.7,4.2,3.4,6.8,4c2.7,0.6,4-2.1,2.6-4.4C801.8,1510.1,797.1,1506.5,792.5,1505.6z"/>
						</g>
					</g>
					<path class="st26" d="M980.9,1380.9c-2.3,15.5-162.9,107-162.9,107l-28.9-67.2l130.2-86.6c0,0,10.8-92.7,9.7-133.7l74.2,5
						c-0.3,6.9-0.6,14.6-1,22.9c-0.1,1.7-0.2,3.5-0.2,5.2c-0.1,2.7-0.2,5.5-0.4,8.3c-0.1,1.3-0.1,2.6-0.2,3.9
						C999.6,1286.4,982.1,1372.7,980.9,1380.9z"/>
					<g>
						<path class="st27" d="M1002,1233.5c-2.8-2.7-5.2-5.8-6.1-7c-4.9-6.5-8.2-14.1-9.5-22.2l3.5,0.2c1,5.4,2.9,10.5,5.7,15.2
							c0.4,0.7,3.6,4.8,6.8,8.5C1002.1,1230,1002,1231.7,1002,1233.5z"/>
						<path class="st27" d="M1001.4,1245.6c-15.4-8.7-26.3-24.6-29.1-42.3l3.4,0.2c2.7,15.8,12.4,30,25.8,38.2
							C1001.5,1243,1001.5,1244.3,1001.4,1245.6z"/>
					</g>
				</g>
				<g>
					<g>
						<path class="st24" d="M1078.9,1610.7c-0.4-1.9-1.3-4.1-3.8-5.1c-7.2-2.9-33.5-11.9-40.7-17.3c-5.6-4.2-10.7-13.5-12.7-17.4
							l-48.3,4c-2.4,12.7-3.6,37-3.8,42L1078.9,1610.7z"/>
						
							<rect x="969.8" y="1613.8" transform="matrix(0.9984 -5.640094e-02 5.640094e-02 0.9984 -89.6987 60.3599)" class="st25" width="109.4" height="11"/>
						<g>
							<path class="st25" d="M1025.4,1591.9c-0.1,0.1-0.1,0.3-0.2,0.4c-0.5,1-0.7,2.5,0.6,3c0.7,0.3,1.4,0.1,2.1,0
								c2.4-0.6,4.5-1.8,6.6-3.1c2.2-1.4,4.6-3,5.9-5.3c1.4-2.4-0.8-4.4-3.4-3.7C1032.5,1584.3,1027.6,1587.8,1025.4,1591.9z"/>
							<path class="st25" d="M1033.9,1597.3c-0.1,0.1-0.1,0.3-0.2,0.4c-0.5,1-0.7,2.5,0.6,3c0.7,0.3,1.4,0.1,2.1,0
								c2.4-0.6,4.5-1.8,6.6-3.1c2.2-1.4,4.6-3,5.9-5.3c1.4-2.4-0.8-4.4-3.4-3.7C1041,1589.8,1036.1,1593.2,1033.9,1597.3z"/>
							<path class="st25" d="M1044.2,1600.6c-0.1,0.1-0.1,0.3-0.2,0.4c-0.5,1-0.7,2.5,0.6,3c0.7,0.3,1.4,0.1,2.1,0
								c2.4-0.6,4.5-1.8,6.6-3.1c2.2-1.4,4.6-3,5.9-5.3c1.4-2.4-0.8-4.4-3.4-3.7C1051.4,1593.1,1046.4,1596.5,1044.2,1600.6z"/>
						</g>
					</g>
					<path class="st28" d="M1033.4,1575l-65.9,2.6l-9,0.4c0,0-37.3-168.5-38.1-176c-0.5-5-27.9-93.7-45.9-151.9
						c-0.4-1.2-0.7-2.3-1.1-3.4c-1.4-4.6-2.8-8.9-4-13c-0.4-1.1-0.7-2.2-1-3.3c-5.7-18.3-9.5-30.4-9.5-30.4l16.2,1l15.4,1l3.5,0.2
						l9.5,0.6l3.5,0.2l44.2,2.8L1033.4,1575z"/>
					<path class="st26" d="M967.5,1577.6l-9,0.4c0,0-37.3-168.5-38.1-176c-0.5-5-27.9-93.7-45.9-151.9c-0.4-1.2-0.7-2.3-1.1-3.4
						c-1.4-4.6-2.8-8.9-4-13c-0.4-1.1-0.7-2.2-1-3.3c-5.7-18.3-9.5-30.4-9.5-30.4l16.2,1c11.1,38.6,55.2,192.7,54.2,200
						C928.6,1406.5,965.7,1535.9,967.5,1577.6z"/>
					<g>
						<path class="st27" d="M907,1202.9c-3.6,19.5-15.6,37-32.5,47.2c-0.4-1.2-0.7-2.3-1.1-3.4c15.5-9.7,26.7-25.8,30.1-44
							L907,1202.9z"/>
						<path class="st27" d="M894,1202.1c-2.8,13.7-12.2,25.5-24.6,31.6c-0.4-1.1-0.7-2.2-1-3.3c11.1-5.6,19.4-16.2,22.1-28.4
							L894,1202.1z"/>
					</g>
					<path class="st27" d="M958.2,1408c1.3,3.3,2.8,6.6,5.4,9.1c2.5,2.5,6.1,4.1,9.6,3.5c6.6-1.2,9.5-9.1,10.2-15.8
						c0.6-5.6,0.5-11.3-0.1-16.9c-0.3-2.5-0.8-5.1-2.4-7.1c-4.9-6.2-19.9-5.7-24.8,0.5C950.9,1388,955.6,1401.2,958.2,1408z"/>
				</g>
			</g>
			<g>
				<g>
					<g>
						<path class="st29" d="M921.1,932.8c0.8,0.9,36,30.8,36,30.8s0.3-17,0.5-25.8c0.1-2.7,0.1-4.7,0.1-5.1
							c0.2-3.5,4.3-18.6,4.3-18.6l-36.3-19.6c0,0-1.1,7.7-2.3,16.2C922.1,920.9,920.7,932.3,921.1,932.8z"/>
						<path class="st30" d="M923.5,910.7c9.9,8.2,31.7,26.3,33.9,27.1c0.1,0,0.1,0,0.2,0.1c0.1-2.7,0.1-4.7,0.1-5.1
							c0.2-3.5,4.3-18.6,4.3-18.6l-36.3-19.6C925.7,894.5,924.6,902.2,923.5,910.7z"/>
					</g>
				</g>
				<g>
					<g>
						<path class="st29" d="M920.5,895.5c0,0,0.8,2.8,4.7,6.7l0,0c0.8,0.8,1.7,1.7,2.8,2.6c4.2,3.4,44.1,23.8,50.5,23.4
							c6.4-0.4,13.8-21.8,14.3-24c3-13.9,11.5-56.9,11.5-56.9c-12.5-48.3-69.8-27.6-76.4-23.3C921.2,828.1,920.5,895.5,920.5,895.5z
							"/>
						<path class="st31" d="M925.2,902.2c0.8,0.8,1.7,1.7,2.8,2.6c4.2,3.4,44.1,23.8,50.5,23.4c6.4-0.4,13.8-21.8,14.3-24
							c-4.6,9.3-9.9,22.2-14.4,21.5C971.7,924.6,930,905.2,925.2,902.2z"/>
					</g>
					<g>
						<path class="st32" d="M998.5,854.2c0,0-4.7-11.8-9.8-9s-3.4,3.7-3.4,3.7L998.5,854.2z"/>
						<path class="st32" d="M943.3,851.9c0,0,14.2-15.9,19.9-10.1c3.3,3.4,0.9,5.6,0.9,5.6L943.3,851.9z"/>
						<g>
							<path class="st30" d="M972.5,888c-1.2-0.5-2.3-1.3-3.6-1.2c1.1,3,3.4,5.6,6.3,6.9c0.2,0.1,0.5,0.2,0.7,0.2
								c0.3,0,0.6-0.1,0.9-0.3c1.7-0.9,3.2-2.1,4.5-3.5c0.3-0.3,0.5-0.6,0.6-1c0.4-1.2-0.5-1-1.3-0.8c-0.9,0.3-1.8,0.4-2.7,0.5
								C976,889.1,974.1,888.8,972.5,888z"/>
							<path class="st33" d="M975.4,893c0.8-0.6,1.7-1.1,2.5-1.7c1-0.8,2-1.6,2.8-2.5c-3.9-3.1-3.5-7.3-3-12.1
								c0.2-2.2,1-4.2,2.2-6.1c0.6-1,1.4-1.8,2.2-2.6c0.4-0.4,0.9-0.8,1.3-1.1c0.5-0.3,0.9-0.5,1.4-0.7c-0.3,0.3-0.5,0.6-0.7,0.9
								c-0.6,0.7-1.3,1.4-1.9,2.2c-0.6,0.8-1.1,1.6-1.5,2.5c-0.8,1.7-1.4,3.7-1.6,5.6c-0.2,1.9,0,3.8,0.5,5.7
								c0.7,2.1,1.9,4.2,3.7,5.5c0,0-3,3-3.3,3.3c-0.8,0.6-1.6,1.2-2.4,1.7c-0.8,0.5-1.8,1-2.8,0.9c-0.3,0-0.6-0.1-0.9-0.3
								c0.2-0.1,0.3-0.2,0.5-0.4c0.1-0.1,0.1-0.1,0.2-0.2C975,893.4,975.2,893.2,975.4,893z"/>
							<path class="st34" d="M944.4,864.6c0,4.4,2.2,7.9,4.9,7.9s4.9-3.5,4.9-7.9s-2.2-7.9-4.9-7.9
								C946.6,856.7,944.4,860.2,944.4,864.6z"/>
							<path class="st25" d="M942.9,861.1c0,0,1.1,1.7,2.9,2.4c1.8,0.7,3.7,0.3,3.7,0.3s-1.1-1.7-2.9-2.4
								C944.8,860.6,942.9,861.1,942.9,861.1z"/>
							<path class="st34" d="M992.1,868.6c0,3.3-1.7,6-3.7,6c-2.1,0-3.7-2.7-3.7-6s1.7-6,3.7-6C990.4,862.6,992.1,865.3,992.1,868.6
								z"/>
							<path class="st25" d="M996.3,867.7c0,0-1.3,1.8-3.4,2.6c-2.1,0.9-4.3,0.5-4.3,0.5s1.3-1.8,3.4-2.6
								C994.2,867.4,996.3,867.7,996.3,867.7z"/>
							<path class="st33" d="M978.3,914.8c-3.6-2.1-8.2-2.6-12.1-1.2c1.5-1.8,3.4-2.9,5.7-2.6C974.2,911.2,976.8,912.9,978.3,914.8z
								"/>
							<path class="st33" d="M953.8,898.5c11.1,15.2,25.3,12.2,33.4,4c-6,1.4-11.1,1.7-17.2,1C965.2,903,957.8,901,953.8,898.5z"/>
						</g>
						<path class="st30" d="M987.6,890.7c0.5,1.8,4.3,2.2,8.3,1c4.1-1.2,6.9-3.6,6.4-5.4c-0.5-1.8-4.3-2.2-8.3-1
							S987.1,889,987.6,890.7z"/>
						<path class="st30" d="M938.3,879.3c-0.8,2.6,3.2,6.2,9.1,8.2c5.9,1.9,11.3,1.4,12.2-1.1c0.8-2.6-3.2-6.2-9.1-8.2
							C944.6,876.3,939.1,876.8,938.3,879.3z"/>
					</g>
				</g>
				<path class="st35" d="M932.1,863.1c-2.4,4.5-5.4,9.2-4.7,14.3c0.5,3.3,2.5,6.2,3.1,9.4c0.8,4.4-1.4,8.8-3.7,12.6
					c-2.3,3.9-5.4,7.8-9.8,8.8c0.8-2.9,0.7-6-0.5-8.8c-0.3,3.4-3,6.5-6.3,7.4c0.5-2.3,0.3-4.7-0.5-7c-0.7,3.3-4.6,5.4-7.8,4.2
					c2.9-1.7,4.2-5.5,3.1-8.6c-0.1-0.1-0.1-0.3-0.2-0.4c-2.4-5.7-11.5-7.6-12-13.8c-0.4-4.3,3.8-7.9,3.7-12.2
					c-0.1-3.9-3.5-6.8-5.3-10.3c-0.8-1.6-1.2-3.3-1.2-5c0-1.2,0.1-2.4,0.4-3.6c0-0.1,0.1-0.3,0.1-0.4c0.7-2.4,2.1-4.7,4-6.2
					c0.6-0.5,1.3-1,1.8-1.6c0.1-0.2,0.2-0.3,0.3-0.5c0.5-1.1,0.3-2.4,0.1-3.7c-0.1-0.5-0.1-1-0.1-1.6c0-3.8,1.5-7.7,4.2-10.4
					c0.3-0.3,0.5-0.5,0.8-0.8c2.6-2.3,6-3.6,9.5-3.7c0.5,0,1.1,0,1.6,0.1l3.1-3.7c2,1.6,4.8,1.1,7.4,1.3c4.4,0.3,8.2,2.9,10.9,6.4
					c1.1,1.4,1.9,3,2.6,4.6c0.6,1.6,1.1,3.3,1.3,5c0,0.3,0.1,0.5,0.1,0.8c0.1,0.6,0.1,1.2,0.2,1.7c0.2,3.5-0.2,7-1,10.5
					C936.4,853.2,934.6,858.4,932.1,863.1z"/>
				<path class="st32" d="M996.4,882.4l6.9-34.3c-1.8-1.8-2.1-3.3-2.7-5.8c-0.3-1.1-0.4-2.3-0.9-3.3c-2.5-5.1-11.8-4.3-13.7-9.6
					c-0.4-1.2-0.8-2.3-1.2-3.4c-0.5,0.4-1,0.7-1.5,1c-5,2.8-11.4,2.3-16.5,5.1c-2.9,1.6-5.2,4.2-8,5.9c-3,1.8-6.7,2.5-10.2,1.9
					c-3.3-0.6-6.5-2.3-9.8-2.4c-0.1,0-0.1,0-0.2,0c0.2,3.5-0.2,7-1,10.5c-1.1,5.3-3,10.4-5.5,15.2c-2.4,4.5-5.4,9.2-4.7,14.3
					c0.5,3.3,2.5,6.2,3.1,9.4c0.8,4.4-1.4,8.8-3.7,12.6c-2.3,3.9-5.4,7.8-9.8,8.8c0.8-2.9,0.7-6-0.5-8.8c-0.3,3.4-3,6.5-6.3,7.4
					c0.5-2.3,0.3-4.7-0.5-7c-0.7,3.3-4.6,5.4-7.8,4.2c2.9-1.7,4.2-5.5,3.1-8.6c-0.1-0.1-0.1-0.3-0.2-0.4c1.7-2,2.1-4.4-0.9-7.2
					c0.8,0.1,1.6,0.3,2.4,0.4c0.4-3.8-3-6.7-5-9.9c-2.8-4.6-2.9-10.7-0.2-15.4c0.1,1.5,2.5,1.9,3.6,0.8c1.1-1.1,1-2.9,0.6-4.4
					s-1.1-2.9-1.1-4.5c2,1.2,4.7-0.4,5.5-2.5s0.3-4.6-0.2-6.8c0.9,2.1,4,2.3,5.8,0.9c1.7-1.4,2.3-3.8,2.3-6.1s-0.5-4.5-0.5-6.7
					c0.1-5.5,3.7-10.7,8.8-12.7c-1.5,2.1-1.7,5-0.3,7.2c2.3-2.2,5.4-2.8,8.7-3c4.7-0.3,9.8,0.2,13.6-2.2c3.2-2.1,4.9-5.9,7.7-8.4
					c4-3.5,10.4-4.1,14.9-1.2c2.2,1.4,4,3.4,6.4,4.5s5.8,0.5,6.6-2c-0.7,4.9,5.3,9.3,9.8,7.2c0.6,5.4,7,9.4,12.1,7.4
					c-1.1,5.7-1.8,12.8,2.9,16.2c-0.2,3.7,1.1,7.4,3.4,10.2C1005.4,868.2,996.4,882.4,996.4,882.4z"/>
				<g>
					<path class="st35" d="M1018.5,843.1c-0.1-2.5-1.8-4.8-3.7-6.7c0.8-3,0.5-6.5-1.4-9c-2-2.7-5.8-4.6-5.7-7.9
						c0.1-1.8,1.3-3.3,1.5-5c0.4-3-2.4-5.4-5.1-7c-2.7-1.6-5.7-3.2-6.7-6.1c-0.5-1.7-0.2-3.5-0.5-5.2c-0.8-4-5.2-6.5-9.4-6.9
						c-4.3-0.5-8.8,0.6-12.3,3.1c-3.4-3.8-8.4-6.4-13.5-5.7c-4.6,0.7-8.6,3.9-13.2,4.2c-4.7,0.3-9.5-2.4-14-1.2
						c-4.4,1.2-7,5.5-10.9,7.7c-4.6,2.6-10.9,2.1-14.6,5.8c-3.9,3.9-2.8,9.9-2.7,15.6c-2.7-2.5-4.5-6-4.6-9.7
						c-2.5,3.4-2.5,8.5,0,11.8c-2.3-0.5-4.8,0.1-6.7,1.5s-3.4,3.3-4.5,5.4c2.5-2,6.1-3.4,9.4-3.2c0.8,0,1.5,0.2,2.1,0.5
						c1,0.4,1.9,1.1,2.9,1.6c-0.3,0.6-0.7,1.2-1.2,1.7c-1.8,2-4.5,3.2-5.9,5.5c-0.5,0.7-0.7,1.5-0.9,2.4c-0.3,1.3-0.3,2.7-0.3,4
						c0,0.6,0,1.2,0,1.8c-0.1,1.6-0.3,3.2-1.1,4.6c-1,1.8-2.6,3.2-4.7,3.2c-0.1,0-0.2,0-0.3,0c0,0,0.1,0.2,0.2,0.4
						c0.2,0.4,0.5,1,0.9,1.8c1.8,3.1,5.9,8.7,13.3,11.8c3.7,1.6,8.3,2.5,13.9,2.1c0.1-0.1,5.7,6.7,4.3,13.2c4-3.5,1.7-15.5,4-20.2
						c1.3-2.7,3.9-4.7,5.4-7.3c1-1.8,1.5-3.9,1.9-5.9c0.6-2.8,1.3-5.6,2.5-8.2c0.6-0.1,1.1-0.1,1.7-0.1c0.1,0,0.1,0,0.2,0
						c3.4,0.2,6.5,1.9,9.8,2.4c3.5,0.6,7.2-0.1,10.2-1.9c2.9-1.7,5.1-4.3,8-5.9c5-2.8,11.4-2.3,16.5-5.1c0.5-0.3,1-0.6,1.5-1
						c0.4,1.1,0.8,2.2,1.2,3.4c1.9,5.3,11.2,4.5,13.7,9.6c0.5,1,0.6,2.2,0.9,3.3c0.6,2.4,0.9,4,2.7,5.8l-6.9,34.3
						c0,0,9-14.2,15.5-25.4c3-5.1,5.4-9.6,6.2-11.7C1018.4,844.6,1018.5,843.8,1018.5,843.1z M971.2,824.6c-1.7,1.3-3.9,1.7-5.9,2.6
						c-3,1.3-5.4,3.7-7.9,5.8s-5.6,3.9-8.8,3.9c-1.7,0-3.4-0.6-5.2-0.9c-1.7-0.3-3.4-0.3-5-0.1c-0.2,0-0.5,0.1-0.7,0.1
						c0.2-0.3,0.4-0.6,0.6-0.9c1.6-2.5,4-4.6,6.8-5.5c4.9-1.5,10.5,0.8,15.3-0.9c3.3-1.2,5.9-4.3,9.4-4.7c0.8-0.1,1.5-0.1,2.3,0
						C971.8,824.1,971.5,824.4,971.2,824.6z"/>
					<g>
						<path class="st31" d="M926.5,897.6c-8.4-1.2-14.2-6.7-17.3-11.1c-0.7-1-1.2-1.9-1.6-2.8c-2.1-4.5-1.8-19.8,4.7-22.9
							c4.5-2.2,7.5,1.6,8.8,4.1l0,0c0.6,1.1,0.9,1.9,0.9,1.9L926.5,897.6z"/>
						<path class="st29" d="M926.5,897.6c-8.4-1.2-14.2-6.7-17.3-11.1c-0.3-0.5-0.5-0.9-0.7-1.3c-2.1-4.5-1.8-19.8,4.7-22.9
							c3.7-1.8,6.3,0.4,7.9,2.6l0,0c0.6,1.1,0.9,1.9,0.9,1.9L926.5,897.6z"/>
						<path class="st30" d="M909.5,872.7c-0.4,1.2-0.3,2.5,0,3.7c1.4,5.2,6.2,9.4,10.8,13.4c-1.3-2.6-1.7-5.4-1.2-8.1
							c0.2-0.9,0.4-1.9,0.5-2.8C920,875.1,911.8,865.7,909.5,872.7z"/>
						<g>
							<path class="st33" d="M922.7,891.4c0,0-0.1-0.1-0.3-0.2c-0.2-0.1-0.4-0.3-0.8-0.5c-0.6-0.5-1.5-1.2-2.3-2.3s-1.5-2.5-1.7-4.2
								s0-3.5,1-5.3c0.1-0.2,0.3-0.4,0.4-0.6l0.1-0.2l0,0l0,0l0,0l0,0l0,0l-0.1-0.2l-0.1-0.3c-0.1-0.2-0.2-0.4-0.3-0.6
								c-0.4-0.8-0.9-1.5-1.3-2.2c-0.5-0.7-1-1.3-1.4-1.9c-0.5-0.6-1-1.1-1.4-1.5c-0.5-0.4-1-0.7-1.5-0.8s-1,0-1.4,0.1
								c-0.3,0.2-0.5,0.4-0.6,0.5c-0.1,0.2-0.1,0.3-0.1,0.3s0-0.1,0-0.3s0.2-0.4,0.5-0.7c0.3-0.2,0.9-0.4,1.6-0.4
								c0.7,0,1.4,0.3,2.1,0.7c0.6,0.4,1.2,0.9,1.8,1.5s1.2,1.2,1.8,1.9s1.1,1.4,1.6,2.3c0.1,0.2,0.2,0.4,0.4,0.6l0.2,0.3l0.2,0.5
								l0.2,0.3c-0.1,0.1-0.1,0.2-0.2,0.3l-0.3,0.4c-0.1,0.2-0.2,0.4-0.3,0.6c-0.9,1.5-1.1,3.2-1.1,4.7c0.1,1.5,0.5,2.9,1,4
								s1.2,1.9,1.7,2.5c0.2,0.3,0.5,0.5,0.6,0.6C922.6,891.4,922.7,891.4,922.7,891.4z"/>
						</g>
					</g>
				</g>
				<path class="st32" d="M1011.9,857c-2.3-2.9-3.7-6.5-3.4-10.2c-4.7-3.4-4.1-10.5-2.9-16.2c-5.1,1.9-11.5-2-12.1-7.4
					c-4.5,2.1-10.5-2.3-9.8-7.2c-0.8,2.5-4.2,3-6.6,2c-2.4-1-4.2-3.1-6.4-4.5c-4.6-2.8-10.9-2.3-14.9,1.2c-2.9,2.5-4.5,6.3-7.7,8.4
					c-3.8,2.5-8.9,2-13.6,2.2c-3.3,0.2-6.4,0.7-8.7,3c-1.3-2.2-1.2-5.2,0.3-7.2c-5.1,2-8.7,7.2-8.8,12.7c0,2.2,0.5,4.5,0.5,6.7
					c0,2.3-0.6,4.7-2.3,6.1c-1.7,1.4-4.9,1.2-5.8-0.9c0.5,2.2,1,4.6,0.2,6.8s-3.5,3.7-5.5,2.5c0,1.5,0.7,3,1.1,4.5
					c0.4,1.5,0.4,3.3-0.6,4.4c3.7,1.6,8.3,2.5,13.9,2.1c0.1-0.1,5.7,6.7,4.3,13.2c4-3.5,1.7-15.5,4-20.2c1.3-2.7,3.9-4.7,5.4-7.3
					c1-1.8,1.5-3.9,1.9-5.9c0.6-2.8,1.3-5.6,2.5-8.2c0.6-0.1,1.1-0.1,1.7-0.1c0.1,0,0.1,0,0.2,0c3.4,0.2,6.5,1.9,9.8,2.4
					c3.5,0.6,7.2-0.1,10.2-1.9c2.9-1.7,5.1-4.3,8-5.9c5-2.8,11.4-2.3,16.5-5.1c0.5-0.3,1-0.6,1.5-1c0.4,1.1,0.8,2.2,1.2,3.4
					c1.9,5.3,11.2,4.5,13.7,9.6c0.5,1,0.6,2.2,0.9,3.3c0.6,2.4,0.9,4,2.7,5.8l-6.9,34.3C996.4,882.4,1005.4,868.2,1011.9,857z
					 M971.2,824.6c-1.7,1.3-3.9,1.7-5.9,2.6c-3,1.3-5.4,3.7-7.9,5.8s-5.6,3.9-8.8,3.9c-1.7,0-3.4-0.6-5.2-0.9
					c-1.7-0.3-3.4-0.3-5-0.1c-0.2,0-0.5,0.1-0.7,0.1c0.2-0.3,0.4-0.6,0.6-0.9c1.6-2.5,4-4.6,6.8-5.5c4.9-1.5,10.5,0.8,15.3-0.9
					c3.3-1.2,5.9-4.3,9.4-4.7c0.8-0.1,1.5-0.1,2.3,0C971.8,824.1,971.5,824.4,971.2,824.6z"/>
				<path class="st36" d="M1018.5,843.1c-0.9,0.1-1.7,0-2.5-0.4c-1.5-0.9-1.9-2.8-2.5-4.5s-1.9-3.5-3.7-3.2c0.5-1.6,0.9-3.3,0.5-4.9
					c-0.5-1.6-2.2-3-3.8-2.4c1.1-2.8-1-6.4-4.1-6.7c-0.7-0.1-1.5,0-2.1-0.4c-1.7-1.2,0.6-3.5,1.6-5.3c0.9-1.7,0.4-3.9-1.1-5.1
					c-1.5-1.1-3.8-1-5.2,0.3c-0.3-3-4.2-4.9-6.8-3.4c2.4-2.3,0.9-6.9-2.3-7.9c-3.1-1-6.7,1.1-8.2,4c-1.1-3.9-7.3-5-9.6-1.7
					c0.9-4.5-3.8-9.1-8.3-8.2c-2.3,0.5-4.3,2.1-6.6,2.7c-4.7,1.1-9.8-2.8-14.3-1c-3.9,1.6-5.3,6.8-9.2,8.5
					c-4.3,1.9-10.3-1.2-13.7,2.1c-1,0.9-1.5,2.2-2,3.4c-0.8,1.8-1.5,3.6-2.3,5.4c-0.9,2.2-1.8,4.8-1.2,7c0.2,0.6,0.5,1.2,1,1.8
					c-4,0.7-7.6,3.4-9.3,7c-1.7,3.7-1.5,8.1,0.5,11.6c-1.4-0.6-2.9,0.7-3.5,2.1c-0.6,1.4-0.8,3.1-1.9,4.1c-0.9,0.9-2.1,1.2-3.3,1.7
					s-2.3,1.3-3.3,2.3c-0.5,0.5-0.9,1.1-1.3,1.7c0-1.2,0.1-2.4,0.4-3.6c-0.1-0.3-0.2-0.4-0.2-0.4c0.1,0,0.2,0,0.3,0
					c0.7-2.4,2.1-4.7,4-6.2c0.6-0.5,1.3-1,1.8-1.6c0-0.6,0-1.2,0-1.8c0-1.3,0.1-2.7,0.3-4c0-3.8,1.5-7.7,4.2-10.4
					c0.3-0.3,0.5-0.5,0.8-0.8c-0.6-0.2-1.3-0.4-2.1-0.5c-3.3-0.2-6.8,1.2-9.4,3.2c1.1-2.1,2.5-4,4.5-5.4c1.9-1.3,4.4-2,6.7-1.5
					c-2.5-3.4-2.5-8.4,0-11.8c0.2,3.7,1.9,7.3,4.6,9.7c-0.1-5.7-1.2-11.7,2.7-15.6c3.7-3.7,10-3.2,14.6-5.8c4-2.2,6.5-6.6,10.9-7.7
					c4.6-1.2,9.3,1.5,14,1.2s8.6-3.5,13.2-4.2c5.1-0.7,10.1,1.8,13.5,5.7c3.5-2.4,8-3.6,12.3-3.1c4.2,0.5,8.5,2.9,9.4,6.9
					c0.4,1.7,0,3.5,0.5,5.2c0.9,2.9,4,4.5,6.7,6.1s5.5,4,5.1,7c-0.2,1.7-1.5,3.3-1.5,5c-0.1,3.3,3.7,5.2,5.7,7.9
					c1.9,2.5,2.2,5.9,1.4,9C1016.7,838.3,1018.4,840.6,1018.5,843.1z"/>
				<path class="st37" d="M992,854.1c-5.8-0.4-11,3.7-13.2,9.7c-3.7-2.2-7-1.9-9.4-1c-0.9-7.3-6.9-13.2-14.5-13.7
					c-8-0.5-15,5.1-16.4,12.7l-19.9,0.5l0.1,3.5l19.5-0.7c0.2,8,6.5,14.6,14.6,15.1c8.4,0.6,15.6-5.6,16.6-13.8
					c1.2-0.8,4.4-2.4,8.5,0.6c-0.1,0.5-0.1,1.1-0.2,1.6c-0.6,8.6,4.9,16,12.1,16.5c7.3,0.5,13.6-6.1,14.2-14.8
					C1004.7,862,999.3,854.6,992,854.1z M953.1,877.1c-6.8-0.5-11.9-6.3-11.4-13.1s6.3-11.9,13.1-11.4s11.9,6.3,11.4,13.1
					C965.7,872.4,959.8,877.5,953.1,877.1z M990.1,882c-5.4-0.4-9.4-6.2-9-12.9c0.5-6.8,5.2-12,10.6-11.6c5.4,0.4,9.4,6.2,9,12.9
					C1000.3,877.2,995.6,882.4,990.1,882z"/>
			</g>
			<g>
				<g>
					<path class="st38" d="M845.1,1056.5c0,0-38.3,99.4-26.7,114.9s55.7,8.2,55.7,8.2l14.1-15.6l3.2-111l-25.5-32.4L845.1,1056.5z"
						/>
					<path class="st39" d="M860.6,979c0,0-24.2-0.4-30,9.8c-5.8,10.3-9.7,104,0.2,99.1c9.8-4.9,36-31.7,36-31.7L860.6,979z"/>
				</g>
				<g>
					<g>
						<g>
							<path class="st29" d="M1141.8,808.3c2.5,1.5-8.1,43.5-11.1,47l-4.8,4.2l-4.8,20.8c0,0-3.7,0.3-8.3-0.8
								c-2.5-0.5-5.3-1.5-7.9-3.1c-1.5-0.9-2.9-2-4.2-3.3c-0.7-0.7,1.2-12,1.2-12s-13.5-6.6-14.5-14.8c-0.6-4.9-1.2-9.8-3.6-14.1
								c-1.2-2.2-2.8-4.3-3.8-6.7s-1.3-5.2-0.1-7.5c0.1-0.3,0.3-0.5,0.6-0.7c0.5-0.3,1.2-0.1,1.8,0.2c0.1,0,0.1,0.1,0.2,0.1
								c6.2,3.6,11.2,9.4,13.8,16.1c0,0,9.8-22,10.3-28.7c0,0,4.9-13.8,7.7-13.4c1,0.2,1.9,0.5,2.5,0.9c1.1,0.7,1.6,1.5,1.6,1.5
								s-6.4,30.6-5.7,31.8c0.7,1.3,12.8-24.2,15.2-25.2c0.7-0.3,1.6,0,2.6,0.6c0.9,0.5,1.8,1.3,2.7,2c1.4,1.2,2.5,2.5,2.5,2.5
								s0.4,0.1,0.9,0.3c0.8,0.3,1.9,0.6,3.1,1.1C1140.4,807.6,1141.1,807.9,1141.8,808.3z"/>
							<path class="st30" d="M1141.8,808.3c2.5,1.5-8.1,43.5-11.1,47l-4.8,4.2l-4.8,20.8c0,0-3.7,0.3-8.3-0.8
								c3-8.3,3.8-17.5,2.2-26.2c-1.5-8.4-5-16.3-5.7-24.8c-0.4-5.3,0.3-10.7,1.4-15.9c1.2-5.5,2.6-11,4.5-16.3
								c0.5-1.5,1-2.7,1.5-3.8c1.1,0.7,1.6,1.5,1.6,1.5s-6.4,30.6-5.7,31.8c0.7,1.3,12.8-24.2,15.2-25.2c0.7-0.3,1.6,0,2.6,0.6
								c0.9,0.5,1.8,1.3,2.7,2c1.4,1.2,2.5,2.5,2.5,2.5s0.4,0.1,0.9,0.3c0.8,0.3,1.9,0.6,3.1,1.1
								C1140.4,807.6,1141.1,807.9,1141.8,808.3z"/>
							<g>
								<g>
									<path class="st33" d="M1133.1,803.4c-0.3,0.8-0.5,1.5-0.9,2.3c-1.8,4.6-4,8.4-5.7,11.2c-1.6,2.6-2.8,4.1-3,4.3
										c0.1-0.2,0.6-2.1,1.4-5c1-3.1,2.3-7.2,4.1-11.7c0.4-1.1,0.9-2.1,1.3-3.1C1131.4,801.9,1132.3,802.6,1133.1,803.4z"/>
								</g>
								<g>
									<path class="st33" d="M1139.6,807.3c-2.7,7.3-6.2,12.7-6.4,13c0-0.4,0.8-6.8,3.3-14.1
										C1137.3,806.4,1138.4,806.7,1139.6,807.3z"/>
								</g>
							</g>
							<path class="st31" d="M1082.2,817.6c0,0.5,0,1.1,0,1.6c0.3,4.3,3,8,4.6,12c2.2,5.5,2.5,11.8,5.7,16.7
								c2.7,4.2,7.2,6.9,11.2,9.8c1.3,0.9,2.6,1.9,3.1,3.4c0.4,1.2,0.2,2.5,0,3.8c-0.6,3.8-1.5,7.7-2,11.6c-1.5-0.9-2.9-2-4.2-3.3
								c-0.7-0.7,1.2-12,1.2-12s-13.5-6.6-14.5-14.8c-0.6-4.9-1.2-9.8-3.6-14.1c-1.2-2.2-2.8-4.3-3.8-6.7s-1.3-5.2-0.1-7.5
								c0.1-0.3,0.3-0.5,0.6-0.7C1080.9,817.1,1081.6,817.3,1082.2,817.6z"/>
							<path class="st33" d="M1103.4,834.8c4.6,0.1,8.8,2.7,11.6,6.3c2.7,3.4,4.8,8.1,5.4,12.5c-2.6-2.6-3.7-6.8-6-9.8
								C1112.4,841.2,1107,834.9,1103.4,834.8z"/>
						</g>
					</g>
					<g>
						<path class="st40" d="M1117.8,872.2l-16.1-1.4l-7-1c0,0-33.4,99.6-32.7,116c0,0-26-4.1-49.2-5.6c0,0-15.6-0.6-29.8-0.7
							l12.4,58.3l3.6,2.9c38-1.1,78.5-4,92.3-11.3c28.4-15.1,37-155.7,37-155.7L1117.8,872.2z"/>
						<path class="st41" d="M1117.8,872.2c-6.7,35.5-18.5,141-27.7,151c-5.9,6.3-52.2,10.9-94.9,13.8l0.2,0.9l3.6,2.9
							c38-1.1,78.5-4,92.3-11.3c28.4-15.1,37-155.7,37-155.7L1117.8,872.2z"/>
						<path class="st42" d="M1069.9,984.6c4-24.9,26.9-89,31.9-113.7l-7-1c0,0-33.4,99.6-32.7,116c0,0-45.4-12.6-80.1-11.7l1.4,6.6
							c11.5-0.1,23,0.8,34.3,2.7l47.1,7.7c0.2,1.4,0.4,2.8,0.6,3.7c0.7,4.7,2,9.2,3.7,13.6c0.3,0.8,0.8,1.7,1.7,1.6
							c0.9-0.1,1.2-1.4,1.2-2.3c-0.1-5.4-0.1-10.9-0.2-16.3c3.9,1.6,8.3,3.1,12.3,1.6C1080.2,989,1075.2,986,1069.9,984.6z"/>
					</g>
				</g>
				<path class="st40" d="M1005.8,1218L1005.8,1218l-40.5-0.1l-8.3-13.6l-18.7,13.5l-72.1-0.3H866c0,0-24.3-241.4,27.8-273.4
					c4.2-2.5,8.7-3.8,13.8-3.4l13.5-10.8l21.7,20.4l14.3,13.4l0.3-19.7c0,0,10.1,7,11.3,12.2c0,0,0.1,0,0.3,0.1
					c2.2,0.5,15.6,4,26.7,15.1c0.4,0.4,0.8,0.8,1.2,1.2c3.3,3.5,6.4,7.8,8.8,12.8c12.3,25.5,0.7,222.7,0.1,232.3
					C1005.8,1217.8,1005.8,1217.9,1005.8,1218z"/>
				<path class="st41" d="M957.1,963.6c0,0,5,208.1-0.1,240.6C957,1204.2,973.3,1067.7,957.1,963.6z"/>
				<g>
					<path class="st41" d="M945.8,1028c-0.2,3-2.8,5.2-5.7,5s-5.2-2.8-5-5.7c0.2-3,2.8-5.2,5.7-5
						C943.7,1022.5,946,1025.1,945.8,1028z"/>
					<path class="st41" d="M946.8,1066.3c-0.2,3-2.8,5.2-5.7,5c-3-0.2-5.2-2.8-5-5.7c0.2-3,2.8-5.2,5.7-5
						C944.8,1060.8,947,1063.3,946.8,1066.3z"/>
					<path class="st41" d="M947.9,1104.5c-0.2,3-2.8,5.2-5.7,5c-3-0.2-5.2-2.8-5-5.7c0.2-3,2.8-5.2,5.7-5
						C945.8,1099,948.1,1101.6,947.9,1104.5z"/>
					<path class="st41" d="M948.9,1142.8c-0.2,3-2.8,5.2-5.7,5c-3-0.2-5.2-2.8-5-5.7c0.2-3,2.8-5.2,5.7-5S949.1,1139.8,948.9,1142.8
						z"/>
				</g>
				<g>
					<g>
						<g>
							<g>
								<g>
									<path class="st42" d="M957.5,943.9l-0.3,19.7l11,19.2c0.8-13.7,1.1-24.7,0.6-26.7C967.6,950.9,957.5,943.9,957.5,943.9z"/>
									<polygon class="st42" points="957.1,963.6 938.3,984.2 907.7,940.6 921.2,929.8 									"/>
								</g>
							</g>
						</g>
					</g>
				</g>
				<g>
					<path class="st39" d="M992.7,968.5c0,0,13.4,6.3,15.7,14.1c6.5,21.9,1.5,144.3,1.5,144.3L992.7,968.5z"/>
				</g>
				<g>
					<g>
						<g>
							<g>
								<polygon class="st43" points="769.8,1164 769,1168.8 763,1173 749.4,1255.8 766.9,1257.7 869.7,1269 877.4,1260.1 
									886.6,1176.8 								"/>
								<polygon class="st25" points="769,1168.8 765.4,1171.3 758.2,1176.4 749.9,1251.2 766.7,1253.1 867.4,1264.2 875,1256.2 
									883.2,1181.4 								"/>
								
									<rect x="772.3" y="1160.2" transform="matrix(0.1096 -0.994 0.994 0.1096 -488.3934 1896.262)" class="st24" width="83.8" height="121"/>
							</g>
							
								<rect x="820.6" y="1217.5" transform="matrix(0.1096 -0.994 0.994 0.1096 -461.8299 1933.5084)" class="st25" width="55.4" height="14"/>
						</g>
						<g>
							<g>
								<polygon class="st37" points="768.2,1166.1 766.6,1170.7 759.8,1173.7 730.4,1252.2 747.1,1257.5 845.7,1288.6 
									855.1,1281.4 880.4,1201.5 								"/>
								<polygon class="st25" points="766.6,1170.7 762.5,1172.5 754.4,1176 731.8,1247.8 747.8,1252.9 844.5,1283.4 853.4,1277.1 
									876.1,1205.3 								"/>
								
									<rect x="758.9" y="1169.9" transform="matrix(0.3011 -0.9536 0.9536 0.3011 -613.6536 1623.5616)" class="st44" width="83.8" height="121"/>
							</g>
							
								<rect x="805.8" y="1233.7" transform="matrix(0.3009 -0.9537 0.9537 0.3009 -600.4641 1662.2151)" class="st25" width="55.4" height="14"/>
						</g>
						<g>
							<path class="st45" d="M847.9,1099.4c0,4-6,23.9-13.7,47.5c-4.1,12.7-8.7,26.4-13.1,39.3c-4.4,12.9-8.5,24.9-11.7,34.2
								l-3.9,25.2c0,0,11,5.8,10.6,7.7c-0.4,1.9,4.5,18.3,6.2,20.3c1.8,2-5.2,6.3-5.2,6.3s-6.7-3.6-8.9-3.4
								c-1.7,0.1-5.4,7.4-8.9,10.8c-1.1,1-2.1,1.7-3,1.7c-4.1,0-9.2,0-9.9-2.6c-0.8-2.6-2-7.4-4.5-8.5c-2.4-1.1-9.6-7.3-9.4-10.7
								c0.2-3.5,3.1-14,3.7-16.8c0.5-2.8,1.8-12.2,1.8-12.2l4.4-16.9l16.8-105.3c1.6-9.7,14.5-37.3,14.5-37.3l1.9-8.4l4.6-29.5
								c2-13,6.9-25.2,14.4-35.6c6.1-9.1,16.4-11.8,27-12.5c3-0.2,6-0.2,8.9-0.2c1.5,0,3,0,4.5,0l0,0
								C875.1,992.3,847.8,1088.6,847.9,1099.4z"/>
							<path class="st46" d="M861.6,992.5c-9.9,7.4-20.2,14.5-27.3,24.6c-14.1,20.3-11.7,47.7-20.1,71c-2.3,6.3-5.3,12.3-7.4,18.7
								c-2.1,6.3-3.1,12.9-4.2,19.5c-2.4,14.7-5.2,29.3-7.9,43.9c-0.8,4-1.5,8-2.3,12.1c-2.9,15.3-5.8,30.7-8.6,46
								c-2.1,11.5-4.1,23.4-1.8,34.8c2,10.1,8.2,19.9,17.4,24.1c-1.1,1-2.1,1.7-3,1.7c-4.1,0-9.2,0-9.9-2.6s-2-7.4-4.5-8.5
								c-2.4-1.1-9.6-7.3-9.4-10.7c0.2-3.5,3.1-14,3.7-16.8c0.5-2.8,1.8-12.2,1.8-12.2l4.4-16.9l16.8-105.3
								c1.6-9.7,14.5-37.3,14.5-37.3l1.9-8.4l4.6-29.5c2-13,6.9-25.2,14.4-35.6C840.7,995.8,850.9,993.1,861.6,992.5z"/>
							<g>
								<path class="st47" d="M820.3,1084.2c0,0,0.1,0.4,0.3,1.1c0.1,0.4,0.2,0.8,0.4,1.2c0.2,0.5,0.4,1,0.8,1.6
									c0.3,0.6,0.7,1.2,1.2,1.7c0.4,0.6,1,1.2,1.6,1.8c1.2,1.1,2.8,2.2,4.5,2.9c1.8,0.7,3.6,1,5.2,1c0.8,0,1.6-0.1,2.3-0.2
									s1.4-0.3,2-0.5s1.1-0.4,1.5-0.6s0.8-0.4,1.1-0.6c0.6-0.4,0.9-0.6,0.9-0.6s-0.4,0-1,0.1c-0.3,0-0.7,0.1-1.2,0.1s-1,0.1-1.5,0
									c-0.6,0-1.1,0-1.8-0.1c-0.6,0-1.3-0.2-2-0.3c-1.4-0.3-2.9-0.8-4.4-1.4s-2.9-1.3-4.1-2.1c-0.6-0.4-1.2-0.8-1.7-1.2
									c-0.5-0.4-1-0.8-1.4-1.2c-0.5-0.4-0.8-0.8-1.1-1.1c-0.3-0.3-0.6-0.6-0.8-0.9C820.6,1084.5,820.3,1084.2,820.3,1084.2z"/>
							</g>
						</g>
					</g>
					<path class="st40" d="M907.2,990l-46.7,93.3l0,0l-10,20.1l-39.3,131.5l-6.7-0.6l-21.4-2l-10.2-0.9l20.9-100.9
						c3.1-14.8,7.4-29.3,13-43.3l0.7-1.9c0,0,17.8-105.9,60.2-125.3l0,0c1.8-0.8,3.7-1.5,5.6-2L907.2,990z"/>
				</g>
				<path class="st39" d="M867.8,960c0,0,14.9-14.5,26.1-16c0,0,34.2,167.4-35.6,190.8C858.3,1134.8,910.3,1073.7,867.8,960z"/>
				<polygon class="st41" points="862.6,1060.6 860.6,1083.3 860.6,1083.3 850.5,1103.4 811.2,1234.9 804.5,1234.3 841.6,1109.5 
									"/>
				<path class="st42" d="M814.6,1083.2c0,0-32.1,134.4-31.5,149.2l-10.2-0.9l20.9-100.9c3.1-14.8,7.4-29.3,13-43.3l0.7-1.9
					c0,0,17.8-105.9,60.2-125.3C867.8,960,821.5,1016.5,814.6,1083.2z"/>
			</g>
		</g>
	</g>
</g>
<g>
	<g>
		<path class="st28" d="M1257.3,1127.5l-30.8,69.3l-9.2,20.6c0,0-47.8-3.5-66.9-31.9S1172,1069,1172,1069l2.7-0.9l63.2-20.4
			L1257.3,1127.5z"/>
		<path class="st48" d="M1226.5,1196.8l-9.2,20.6c0,0-47.8-3.5-66.9-31.9S1172,1069,1172,1069l2.7-0.9
			c-6.9,26.5-23.9,112.7,42.6,126.3C1220.8,1195.2,1223.8,1196,1226.5,1196.8z"/>
	</g>
	<g>
		<g>
			<path class="st29" d="M1417.5,1043.8c0,0-10,34.8-24,67.4l-0.7,1.6c-7.4,17.1-15.9,33.3-24.7,43.4c-5.5,6.3-10.8,11-16.7,10.1
				c-33.9-4.9-51.4-75.5-51.4-75.5l2.3-1.2l36-18.2l3.1-1.6c0,0,2.2,6.8,5,15.6c3.7,11.9,8.3,27.4,9.6,34.6c0,0,9.7-22.7,19.6-45.3
				c5-11.3,10-22.7,13.8-31.1c0.4-0.8,0.7-1.6,1.1-2.3c0.7-1.5,1.3-2.8,1.9-4.1c0.2-0.5,0.4-0.9,0.6-1.3c0.1-0.2,0.1-0.3,0.2-0.4
				c0.9-1.9,1.6-3.3,2.2-4.3c0.1-0.1,0.1-0.2,0.2-0.3c0-0.1,0.1-0.2,0.1-0.2L1417.5,1043.8z"/>
			<path class="st30" d="M1417.5,1043.8c0,0-10,34.8-24,67.4l-0.7,1.6c7.4-26.7,11.2-51.1,8.2-52.5c-4.8-2.3-9.3-11.5-11.5-16.7
				c0.4-0.8,0.7-1.6,1.1-2.3c0.7-1.5,1.3-2.8,1.9-4.1c0.2-0.5,0.4-0.9,0.6-1.3c0.1-0.2,0.1-0.3,0.2-0.4c0.9-1.9,1.6-3.3,2.2-4.3
				c0.1-0.1,0.1-0.2,0.2-0.3c0-0.1,0.1-0.2,0.1-0.2L1417.5,1043.8z"/>
			<path class="st30" d="M1398.4,1045c0,0-9.9-36.6-9.4-50c0.1-2.2,2.4-3.7,4.4-2.7c9.6,4.9,25.2,39,25.2,39L1398.4,1045z"/>
			<g>
				<path class="st49" d="M1413,1040.8l-28-11.3c-1.8-0.7-2.7-2.8-2-4.6l20.5-50.7c0.7-1.8,2.8-2.7,4.6-2l28,11.3
					c1.8,0.7,2.7,2.8,2,4.6l-20.5,50.7C1416.8,1040.7,1414.8,1041.6,1413,1040.8z"/>
				<path class="st50" d="M1411.1,982c-0.6,1.4-2.2,2.1-3.6,1.5s-2.1-2.2-1.5-3.6c0.6-1.4,2.2-2.1,3.6-1.5S1411.6,980.6,1411.1,982z
					"/>
			</g>
			<g>
				<g>
					<g>
						<g>
							<g>
								<g>
									<g>
										<path class="st29" d="M1418.7,1057c-10.8-0.8-21.1-9.2-21.1-9.2c0-2.4,0.6-4.9,1.5-7.6c0.3-1.1,0.8-2.3,1.2-3.4
											c1.1-2.5,2.3-5.1,3.8-7.6c0.6-1.1,1.3-2.2,1.9-3.3c1.8-2.9,3.7-5.7,5.5-8.3c0.8-1.1,1.6-2.2,2.3-3.2
											c2.1-2.7,3.9-5,5.3-6.8c1.6-2,2.7-3.2,2.7-3.2c9.2,3.6,19.1,15.8,19.1,15.8c-0.4,3.8-1.6,7.5-3.2,11.1
											C1431.4,1045.5,1418.7,1057,1418.7,1057z"/>
										<g>
											<g>
												<path class="st33" d="M1426,1024.4c0,0-1.3-0.4-3.2-1.1c-1.9-0.7-4.4-1.7-7-3.1c-1.6-0.8-3-1.7-4.3-2.6
													c0.8-1.1,1.6-2.2,2.3-3.2c1.3,0.3,2.8,0.9,4.2,1.6c2.9,1.5,4.9,3.7,6.2,5.4C1425.5,1023.2,1426,1024.4,1426,1024.4z"/>
											</g>
											<g>
												<path class="st33" d="M1418.1,1035.1c0,0-1.3-0.3-3.2-0.8c-1.9-0.6-4.3-1.4-6.8-2.7c-1.5-0.8-2.8-1.6-4-2.4
													c0.6-1.1,1.3-2.2,1.9-3.3c1.3,0.3,2.8,0.8,4.2,1.5c2.7,1.4,4.7,3.4,6,4.9C1417.5,1033.9,1418.1,1035.1,1418.1,1035.1z"
													/>
											</g>
											<g>
												<path class="st33" d="M1414,1046.7c0,0-1.4-0.3-3.4-0.9s-4.6-1.5-7.2-2.9c-1.6-0.8-3.1-1.8-4.4-2.7
													c0.3-1.1,0.8-2.3,1.2-3.4c1.6,0.4,3.5,1,5.3,1.9c2.8,1.5,5,3.5,6.4,5.1C1413.3,1045.5,1414,1046.7,1414,1046.7z"/>
											</g>
										</g>
										<path class="st31" d="M1437.7,1031.4c-0.6-3.3-1.4-6.5-3.2-9.3c-1.6-2.6-3.7-4.8-5.9-6.8c-2.5-2.4-5.1-5-8-6.9
											c-0.4-0.2-0.9-0.5-1.4-0.7c1.6-2,2.7-3.2,2.7-3.2c9.2,3.6,19.1,15.8,19.1,15.8C1440.5,1024.1,1439.3,1027.9,1437.7,1031.4
											z"/>
									</g>
								</g>
							</g>
						</g>
					</g>
				</g>
			</g>
		</g>
		<g>
			<path class="st40" d="M1291.3,979.3v72.6l15.4,56.9l45-20.5l0,0c0,0-21.1-57.2-40.5-87.5l0,0c-3-4.6-5.9-8.6-8.7-11.7
				C1296.2,982.3,1291.3,979.3,1291.3,979.3z"/>
		</g>
		<polygon class="st25" points="1300,1104.5 1355.1,1080.1 1361.6,1092.3 1301.3,1121.3 		"/>
	</g>
	<g>
		<g>
			<g>
				<g>
					<g>
						<path class="st25" d="M1160.7,1535.3c0,0-4.6,10.8-4.3,12.7c0.3,2,53.1,37.1,53.1,37.1l5.2-8.5l-24.1-32.8L1160.7,1535.3z"/>
						<path class="st51" d="M1214.7,1576.6c0,0-55-32.5-55.3-38.3c-0.2-3.9,17-29.9,17-29.9l14.6,9.3
							C1191,1517.7,1216.9,1578.1,1214.7,1576.6z"/>
					</g>
					<g>
						<path class="st25" d="M1191.6,1542.2c0.6,0.9,1.9,0.9,3,0.8c4-0.4,8.3-2,10.5-5.5c0.2-0.3,0.3-0.5,0.3-0.8
							c0.1-0.6-0.4-1.1-0.9-1.3c-0.5-0.2-1.1-0.2-1.6-0.2C1200.9,1535.5,1188.8,1538.2,1191.6,1542.2z"/>
						<path class="st25" d="M1194,1551.1c0.6,0.9,1.9,0.9,3,0.8c4-0.4,8.3-2,10.5-5.5c0.2-0.3,0.3-0.5,0.3-0.8
							c0.1-0.6-0.4-1.1-0.9-1.3c-0.5-0.2-1.1-0.2-1.6-0.2C1203.3,1544.3,1191.2,1547,1194,1551.1z"/>
					</g>
				</g>
				<g>
					<g>
						<path class="st25" d="M1353.2,1585.8c0,0,4,11,5.5,12.2s62.5-13.3,62.5-13.3l-2-9.9l-39.1-5.3L1353.2,1585.8z"/>
						<path class="st51" d="M1419.2,1574.7c0,0-60.7,17.9-64.8,14.1c-2.8-2.6-8.1-33.8-8.1-33.8l16.6-4.3
							C1362.9,1550.7,1421.7,1574.2,1419.2,1574.7z"/>
					</g>
					<g>
						<path class="st25" d="M1379.8,1567.7c1,0.2,2-0.7,2.7-1.6c2.6-3.3,4.6-7.6,3.7-11.7c-0.1-0.3-0.1-0.6-0.3-0.8
							c-0.3-0.4-1-0.5-1.5-0.3s-0.9,0.7-1.3,1.1C1381.8,1556,1375.1,1566.9,1379.8,1567.7z"/>
						<path class="st25" d="M1387.5,1572.1c1,0.2,2-0.7,2.7-1.6c2.6-3.2,4.6-7.6,3.7-11.7c-0.1-0.3-0.1-0.6-0.3-0.8
							c-0.3-0.4-1-0.5-1.5-0.3s-0.9,0.7-1.3,1.1C1389.5,1560.4,1382.8,1571.4,1387.5,1572.1z"/>
					</g>
				</g>
				<path class="st52" d="M1308.6,1132.9c0,0,18.6,45.1,18.4,71.5c-3,63.9-8.7,150.9-10.7,157.8c-3.3,10.7-117.5,170.1-117.5,170.1
					l-29-18.9c0,0,60.2-128,68.7-139c12.6-16.4,35.7-36.3,35.7-36.3l-26.8-191.4L1308.6,1132.9z"/>
				<path class="st53" d="M1375.3,1554l-26.1,5.7l-7.9,1.7c0,0-61.4-148.4-64.8-153.8s-6.4-55.4-6.4-55.4s-46.2-100.1-56.1-117.1
					c-10-17,5.2-97.9,5.2-97.9l9.7,0.5l50.5,2.8l38.8,192.1L1375.3,1554z"/>
				<path class="st52" d="M1349.2,1559.7l-7.9,1.7c0,0-61.4-148.4-64.8-153.8s-6.4-55.4-6.4-55.4s-46.2-100.1-56.1-117.1
					c-10-17,5.2-97.9,5.2-97.9l9.7,0.5c-3.3,26.8-9.5,81.7-6.5,89.4c4.1,10.3,59,115.3,59,115.3s1.9,53.6,6.1,62.6
					C1291.2,1412.8,1338,1536,1349.2,1559.7z"/>
				<path class="st54" d="M1302.6,1365.5c1.5,2.2,3.6,4.4,6.2,4.6c2.2,0.1,4.2-1.3,5.5-3.1c1.3-1.8,2-4.1,2.5-6.3
					c1-4.1,1.6-8.3,1.1-12.4c-1.1-8.4-10-17.2-17.6-10.4C1292.5,1344.6,1297.9,1358.6,1302.6,1365.5z"/>
			</g>
			<g>
				<g>
					<path class="st42" d="M1309.1,1137.8c-34.9,29.3-90.4,4.3-90.4,4.3c0.2-8.7-8.7-47.2-16.2-82.1c-2-9.4-3.9-18.6-5.5-26.9
						c-2.6-13.2-1.8-25.1-0.5-33.3c1-5.9,2.2-9.8,2.9-11.1c0.7-1.5,3.4-3.7,6.9-6.1c0,0,0,0,0.1,0c0.6-0.4,1.1-0.8,1.5-1
						c0.1-0.1,0.2-0.1,0.2-0.2c0.2-0.2,0.4-0.3,0.5-0.3c0,0,0.1,0,0.1-0.1c0,0,0.1,0,0.1-0.1c6.1-4,13.6-7.9,17.4-9.3
						c0,0,0.1,0,0.1-0.1c1.2-0.4,2.5-0.8,3.6-1.2c4.7-1.5,8.3-2.3,8.3-2.3h28.3c0,0,0,0,0.1,0h0.1c0.1,0,0.2,0,0.4,0l0,0
						c0.9,0,2.6,0.1,5.2,0.7l0,0c1,0.2,2.1,0.6,3.4,1.1c3.3,1.2,7.6,3.2,12.7,6.6c3.1,2.1,6.6,4.6,10.4,7.8
						c21.2,17.8,20.1,52,7.5,76.5C1302.6,1068.1,1309.1,1137.8,1309.1,1137.8z"/>
					<g>
						<path class="st40" d="M1301.3,1057.3c0,0-1-0.1-2.9-0.2s-4.5-0.3-7.8-0.5c-6.6-0.3-15.6-0.8-24.7,1.6c-2.3,0.6-4.6,1.3-7,2
							c-2.3,0.6-4.7,1.1-7,1.5c-4.5,0.7-8.6,0.7-12,0.4c-1.7-0.1-3.3-0.4-4.7-0.9c-1.3-0.4-2.4-1-3.2-1.6c-0.8-0.6-1.2-1.2-1.5-1.6
							s-0.4-0.7-0.4-0.7s0.2,0.2,0.6,0.5s1,0.7,1.8,1c1.6,0.7,4.2,0.9,7.3,0.4c3.2-0.4,7-1.2,11.1-2.3c2-0.6,4.1-1.2,6.3-2
							c2.2-0.8,4.6-1.6,7.1-2.3c5.2-1.4,10.4-1.6,14.9-1.1c4.5,0.4,8.5,1.4,11.7,2.3s5.8,1.8,7.5,2.5
							C1300.3,1056.9,1301.3,1057.3,1301.3,1057.3z"/>
					</g>
				</g>
			</g>
		</g>
		<g>
			<path class="st55" d="M1312.6,955.9c-3.9,1.3-8,2.4-12.2,3.2c-28.4,5.6-64,1.4-84.6-2.1c-10.3-1.7-16.9-3.3-16.9-3.3
				s-3.3-27.9-3.3-38.5c0-6.5,0.5-12.5,1.4-18.1c5.9-38.4,29.3-55.9,30.9-57.1c0,0,0.1,0,0.1-0.1l0,0h43.8l16.1,8.3l3.2,1.7l1.2,0.6
				l17.6,9.1l0.4,15.1l0.3,12L1312.6,955.9z"/>
			<path class="st56" d="M1303.7,950.5c-0.8,3-1.9,5.9-3.4,8.6c-28.4,5.6-64,1.4-84.6-2.1c0-0.1-0.1-0.1-0.1-0.2
				c-7-10.7-10.2-23.6-10.5-36.3c-0.3-12.8,2-25.5,5.4-37.8c2.6-9.7,5.9-19.3,11.5-27.6c4.2-6.3,9.9-11.8,16.7-15.2
				c0.3-0.2,0.7-0.3,1-0.5c7.5-3.5,15.8-3.7,24-3.6c10.6,0.1,21.5,5,27.2,14c5.2,8.1,5.7,18.3,6.9,27.9c1.6,12.1,4.6,24.1,6.5,36.2
				C1306.3,926.1,1307,938.7,1303.7,950.5z"/>
			<g>
				<path class="st56" d="M1315.5,922.7c-0.1-0.7-0.3-1.6-0.7-2.8c-0.3-1.2-0.8-2.6-1.5-4c-0.7-1.5-1.7-3.1-3-4.5s-2.9-2.5-4.4-3.3
					s-2.9-1.3-4-1.6c-0.5-0.2-1-0.3-1.4-0.4c-0.5-0.5-0.8-0.8-0.8-0.8s0.1,0.2,0.3,0.6c-0.3-0.1-0.6-0.1-0.9-0.2
					c-0.7-0.1-1-0.2-1-0.2s0.9,0.6,2.5,1.6c0.3,0.8,0.7,1.7,1.2,2.8c1.2,2.9,2.8,6.8,3.5,11.1s0.6,8.6,0.5,11.7c0,1.6,0,2.9,0,3.7
					c0,0.9,0,1.4,0,1.4s0.2-0.5,0.6-1.3c0.3-0.8,0.8-2,1.3-3.5s1-3.4,1.3-5.5s0.4-4.6,0-7.1c-0.4-2.6-1.4-4.9-2.4-6.8
					c-1-1.8-2.1-3.3-3.1-4.5c1.5,1.1,3.2,2.4,4.7,4c2.3,2.4,4,5.2,5.3,7.2c0.7,1,1.2,1.8,1.6,2.4c0.4,0.6,0.6,0.9,0.6,0.9
					S1315.7,923.3,1315.5,922.7z"/>
				<g>
					<g>
						<g>
							<path class="st29" d="M1288.4,976.5c-2.2,7.7-8.1,18.8-23.7,24c-20.7,6.9-34.2-19.1-38.5-28.8c6.3-2.2,12-3.5,12-3.5h28.3
								c0,0,0,0,0.1,0h0.1c0.1,0,0.2,0,0.4,0l0,0c0.9,0,2.6,0.1,5.2,0.7l0,0c1,0.2,2.1,0.6,3.4,1.1
								C1279.1,971.1,1283.3,973.1,1288.4,976.5z"/>
							<path class="st29" d="M1263.7,996.5l-25.5-28.4c0-4.2,0.4-5.8,0.8-16.2c0.4-11.6,0.8-22.5,0.8-22.5l32.8,12.9
								c-3.7,8.2-5.3,17.5-5.9,26.4C1265.6,987.5,1263.7,996.5,1263.7,996.5z"/>
							<path class="st30" d="M1272.6,942.3c-3.7,8.2-5.3,17.5-5.9,26.4c-1,0.4-2,0.8-3,1.2c-3.8,1.3-16-9.5-24.7-18
								c0.4-11.6,0.8-22.5,0.8-22.5L1272.6,942.3z"/>
						</g>
						<g>
							<g>
								<path class="st29" d="M1306.9,903.4c-0.7,3-1.5,6.2-2.6,9.5c0,0,1.5,16.4-0.3,20.1c-1.7,3.7-12.8,26.6-24.4,25.2
									c-9.7-1.2-33.3-15.4-41.6-23.8c-1.6-1.7-2.7-3.1-2.9-4.2c-1.1-6.5-5-35.2-5.4-37.6c-1-6.5-3.7-55.8,55.9-42.1
									c10.7,2.5,19.2,10.8,21.6,21.5C1309.3,879.8,1309.8,890.2,1306.9,903.4z"/>
								<path class="st31" d="M1304.4,912.9c0,0,1.5,16.4-0.3,20.1c-1.7,3.7-12.8,26.6-24.4,25.2c-9.7-1.2-33.3-15.4-41.6-23.8
									c10.1,7,36.9,24.8,44.8,22.1c9.8-3.4,20.8-25,20.6-27.1c-0.2-2.1-0.8-16.1-0.8-16.1s2-4.4,4.2-9.8
									C1306.3,906.4,1305.4,909.6,1304.4,912.9z"/>
							</g>
							<g>
								<path class="st31" d="M1238,929.4c-7.5-0.6-12.9-5-15.8-8.7c-0.7-0.8-1.2-1.6-1.6-2.4c-2.1-3.9-2.7-17.3,2.7-20.4
									c3.9-2.2,6.7,1,8,3.1l0,0c0.6,0.9,0.9,1.6,0.9,1.6L1238,929.4z"/>
								<path class="st29" d="M1238,929.4c-7.5-0.6-12.9-5-15.8-8.7c-0.2-0.4-0.5-0.7-0.7-1.1c-2.1-3.9-2.7-17.3,2.7-20.4
									c3.1-1.8,5.6,0,7.1,1.8l0,0c0.6,0.9,0.9,1.6,0.9,1.6L1238,929.4z"/>
								<path class="st30" d="M1221.6,908.5c-0.3,1.1-0.1,2.2,0.2,3.3c1.5,4.5,6,8,10.3,11.1c-1.3-2.2-1.8-4.7-1.5-7.1
									c0.1-0.8,0.3-1.7,0.3-2.5C1231,910,1223.2,902.2,1221.6,908.5z"/>
								<g>
									<path class="st33" d="M1234.3,924.2c0,0-0.1-0.1-0.2-0.1c-0.2-0.1-0.4-0.2-0.7-0.4c-0.6-0.4-1.4-1-2.1-1.9
										c-0.8-0.9-1.4-2.1-1.8-3.6c-0.3-1.4-0.2-3.1,0.5-4.7c0.1-0.2,0.2-0.4,0.3-0.6l0.1-0.2l0,0l0,0l0,0l0,0l0,0l-0.1-0.1
										l-0.2-0.3c-0.1-0.2-0.2-0.3-0.3-0.5c-0.4-0.7-0.8-1.3-1.3-1.9c-0.5-0.6-0.9-1.1-1.4-1.6s-0.9-0.9-1.4-1.3
										c-0.5-0.3-0.9-0.6-1.4-0.6s-0.9,0.1-1.2,0.2c-0.3,0.2-0.5,0.3-0.5,0.5c-0.1,0.1-0.1,0.2-0.1,0.2s0-0.1,0-0.2
										c0-0.2,0.2-0.4,0.4-0.6s0.8-0.4,1.4-0.4s1.3,0.2,1.8,0.5c0.6,0.3,1.1,0.8,1.7,1.2c0.6,0.5,1.1,1,1.7,1.6
										c0.5,0.6,1.1,1.2,1.5,1.9c0.1,0.2,0.2,0.4,0.3,0.5l0.2,0.3l0.2,0.4l0.2,0.3c0,0.1-0.1,0.2-0.2,0.3l-0.2,0.4
										c-0.1,0.2-0.2,0.3-0.3,0.5c-0.7,1.4-0.8,2.9-0.7,4.2c0.2,1.3,0.6,2.5,1.1,3.4s1.2,1.6,1.6,2.1c0.2,0.2,0.4,0.4,0.6,0.5
										C1234.3,924.1,1234.3,924.2,1234.3,924.2z"/>
								</g>
							</g>
						</g>
					</g>
				</g>
				<g>
					<path class="st55" d="M1312.3,891.6c0,0-7.6-10.2-11.9-6.2c-4.2,4-2.3,4.5-2.3,4.5L1312.3,891.6z"/>
					<path class="st55" d="M1252.1,893.2c0,0,14-16.2,19.8-10.4c3.4,3.3,1,5.6,1,5.6L1252.1,893.2z"/>
					<path class="st34" d="M1304.4,899.1c-0.5,1.2-2,2.1-3.1,2.7c-0.6-0.6-1.2-0.9-1.9-0.9c-2.1,0-3.7,2.7-3.7,6s1.7,6,3.7,6
						c2.1,0,3.7-2.7,3.7-6c0-1.2-0.2-2.4-0.6-3.4C1303.8,902.1,1304.4,899.1,1304.4,899.1z"/>
					<g>
						<g>
							<path class="st34" d="M1274.4,907.3c0,0-0.3-0.1-0.9-0.4c-0.6-0.2-1.4-0.6-2.3-0.9c-1.9-0.7-4.5-1.2-7.3-1.4
								c-2.7-0.2-5.4-0.1-7.5,0.3c-1,0.2-1.9,0.4-2.5,0.5c-0.6,0.2-1,0.3-1,0.3s0.1-0.3,0.5-0.7c0.3-0.5,0.9-1.1,1.8-1.7
								c1.7-1.3,5.1-2.7,9.1-2.4s7,2.2,8.4,3.7c0.7,0.8,1.1,1.5,1.4,2C1274.3,907,1274.4,907.3,1274.4,907.3z"/>
						</g>
					</g>
					<path class="st25" d="M1306.3,903.9c0,0-1.3,1.8-3.5,2.6c-2.1,0.9-4.3,0.5-4.3,0.5s1.3-1.8,3.5-2.6
						C1304.1,903.6,1306.3,903.9,1306.3,903.9z"/>
					<g>
						<path class="st30" d="M1282.5,923.5c-1.2-0.4-2.4-1.1-3.7-1c1.3,2.9,3.8,5.3,6.8,6.5c0.2,0.1,0.5,0.2,0.7,0.2
							c0.3,0,0.6-0.2,0.8-0.3c1.7-1,3.1-2.3,4.3-3.8c0.2-0.3,0.5-0.6,0.5-1c0.3-1.2-0.6-1-1.3-0.7c-0.9,0.3-1.8,0.6-2.7,0.7
							C1286.1,924.3,1284.2,924.1,1282.5,923.5z"/>
						<path class="st33" d="M1285.8,928.3c0.8-0.7,1.6-1.3,2.4-1.9c1-0.8,1.9-1.7,2.7-2.7c-4.1-2.8-4-7.1-3.8-11.9
							c0.1-2.2,0.7-4.3,1.8-6.2c0.6-1,1.2-1.9,2-2.8c0.4-0.4,0.8-0.8,1.3-1.2c0.4-0.4,0.9-0.6,1.4-0.8c-0.2,0.3-0.4,0.6-0.6,0.9
							c-0.6,0.8-1.2,1.5-1.7,2.3s-0.9,1.7-1.3,2.6c-0.7,1.8-1.1,3.8-1.2,5.7s0.2,3.8,0.9,5.6c0.8,2,2.2,4.1,4.1,5.2
							c0,0-2.8,3.2-3,3.5c-0.7,0.7-1.5,1.3-2.3,1.8s-1.8,1.1-2.7,1.1c-0.3,0-0.6-0.1-0.9-0.3c0.2-0.1,0.3-0.2,0.5-0.4
							c0.1-0.1,0.1-0.1,0.2-0.2C1285.4,928.7,1285.6,928.5,1285.8,928.3z"/>
					</g>
					<g>
						<path class="st33" d="M1278.8,940.8c3,1.5,6.8,1.6,9.9,0.3c-1.1,1.6-2.6,2.5-4.5,2.4C1282.2,943.5,1280.1,942.2,1278.8,940.8z
							"/>
						<path class="st33" d="M1267.3,932.2c7.8,5.7,18.4,7.1,27.4,3.8c-4.9,1-10,0.7-14.9,0C1275.9,935.4,1270.6,934.3,1267.3,932.2z
							"/>
					</g>
					<path class="st30" d="M1297.8,925.2c0.7,1.7,4.4,1.9,8.4,0.5c4-1.5,6.7-4.1,6-5.9c-0.6-1.7-4.4-1.9-8.4-0.5
						C1299.9,920.8,1297.2,923.5,1297.8,925.2z"/>
					<path class="st30" d="M1247.7,917.1c-0.7,2.6,3.6,6,9.7,7.6c6,1.6,11.4,0.7,12.1-1.9c0.7-2.6-3.6-6-9.7-7.6
						C1253.8,913.6,1248.4,914.4,1247.7,917.1z"/>
				</g>
				<path class="st34" d="M1310.8,892.9c-0.7-0.4-1.3-0.8-2.1-1.1c-0.7-0.3-1.4-0.6-2.1-0.8c-1.3-0.4-2.7-0.6-4.1-0.6
					c-0.2,0-0.4,0-0.6,0c-0.6,0-1.2,0.1-1.8,0.2c-6.5,1-11.6,6.2-12.6,12.8c-2.6-1.2-5.5-0.5-7.3,0.2c-0.8-6.7-5.5-12.2-11.8-14
					c-1.5-0.4-3-0.7-4.7-0.7c-4.3,0-8.2,1.6-11.1,4.3c-1.9,1.7-3.4,3.9-4.4,6.4l-15.3-2.5l-2.4-0.4l0,0l-4.2-0.7l-0.1,0.4l-0.1,0.8
					l-0.2,1.2v0.1l0.3,0.1l2.4,0.4h0.2l0,0l1,0.2l0,0l1.1,0.2l0.6,0.1l0.8,0.1l6.3,1l8.8,1.4c-0.2,1.1-0.4,2.3-0.4,3.5
					c0,3.6,1.1,6.9,3,9.6c3,4.3,8,7,13.6,7c2,0,3.8-0.3,5.6-1c6.2-2.2,10.6-8,11-14.8c1.3-0.6,4.7-1.8,7.1,0c0,0.8,0.1,1.6,0.3,2.4
					c0.2,1.1,0.6,2.2,1,3.2c2.2,4.9,7,8.5,12.6,8.9c0.4,0,0.8,0.1,1.2,0.1c0.2,0,0.5,0,0.7,0c0.6,0,1.2-0.1,1.8-0.2
					c0.1,0,0.2,0,0.3-0.1c0.1,0,0.1,0,0.2,0c1.2-0.2,2.4-0.6,3.5-1.1c0.5-0.2,1-0.5,1.5-0.8c0.4-0.3,0.8-0.5,1.2-0.8
					c0.1,0,0.1-0.1,0.1-0.1c0.7-0.5,1.3-1,1.8-1.6c2.6-2.7,4.2-6.4,4.2-10.4C1317.6,900.2,1314.9,895.6,1310.8,892.9z M1267.6,918.9
					c-1.2,0.4-2.5,0.6-3.9,0.6c-4.3,0-8.2-2-10.8-5c-2.1-2.4-3.3-5.6-3.3-9c0-7.8,6.3-14.1,14.1-14.1c7.8,0,14.1,6.3,14.1,14.1
					C1277.7,911.8,1273.4,917.2,1267.6,918.9z M1312.1,913.6c-0.2,0.3-0.5,0.6-0.7,0.8c-0.4,0.4-0.8,0.8-1.3,1.1
					c-0.6,0.5-1.3,0.9-2.1,1.3c-1,0.5-2,0.8-3,1.1c-0.1,0-0.2,0-0.3,0.1h-0.1c-0.5,0.1-1.1,0.2-1.6,0.2c-0.2,0-0.4,0-0.5,0
					c-6.6,0-12.1-5.1-12.6-11.6c0-0.3-0.1-0.7-0.1-1c0-0.6,0-1.1,0.1-1.6c0.7-5.6,5.1-10,10.6-10.9c0.6-0.1,1.2-0.1,1.9-0.1
					c2.2,0,4.2,0.6,6,1.5c0.9,0.5,1.7,1.1,2.4,1.7c2.6,2.3,4.2,5.6,4.2,9.4C1315,908.6,1314,911.4,1312.1,913.6z"/>
			</g>
			<path class="st56" d="M1311.5,875.2c-0.1,5.3-0.6,9.5-0.9,11.5c-0.1,0.8-0.2,1.3-0.2,1.3c-19.2-13.5-19.2-29-18.7-33.9
				c-5.2,27.2-62.8,42.8-62.8,42.8l-8.1,3.5c0,0-2.3-2.4-4.3-7.1c-3.3-7.6-5.9-21.2,2.5-41c2.2-5.2,5.2-9.2,8.8-12.3
				c0,0,0.1,0,0.1-0.1c18.5-16,50.9-6.8,50.9-6.8C1307.9,830.6,1311.8,858.2,1311.5,875.2z"/>
			<path class="st56" d="M1244.3,910.2c-0.2-0.6-0.5-1.6-1-2.7c-0.5-1.1-1.1-2.4-2-3.8c-0.9-1.4-2.1-2.8-3.6-4.1
				c-1.5-1.2-3.2-2.1-4.7-2.7c-1.6-0.6-3-0.9-4.2-1.1c-0.5-0.1-1-0.1-1.4-0.2c-0.6-0.4-0.9-0.6-0.9-0.6s0.1,0.2,0.3,0.6
				c-0.3,0-0.6,0-0.9-0.1c-0.7,0-1.1,0-1.1,0s1,0.5,2.6,1.3c0.4,0.7,0.9,1.6,1.6,2.6c1.6,2.7,3.7,6.3,4.9,10.5
				c1.3,4.2,1.7,8.4,2.1,11.5c0.2,1.6,0.4,2.8,0.5,3.7s0.2,1.4,0.2,1.4s0.1-0.5,0.4-1.3c0.2-0.9,0.6-2.1,0.8-3.7
				c0.3-1.6,0.6-3.5,0.6-5.6c0-2.2-0.2-4.6-0.9-7.1c-0.8-2.5-2-4.6-3.3-6.4c-1.2-1.7-2.5-3-3.6-4c1.7,0.9,3.5,2,5.2,3.4
				c2.6,2.1,4.6,4.6,6.2,6.4c0.8,0.9,1.4,1.6,1.9,2.2c0.5,0.5,0.7,0.8,0.7,0.8S1244.5,910.8,1244.3,910.2z"/>
			<path class="st55" d="M1311.5,875.2c-0.4-0.1-0.8-0.3-1.2-0.5c-9.1-4.1-15-16.2-18-24.2c-1.7-4.4-2.5-7.5-2.5-7.5
				c-0.1,1.5-0.8,3.3-2,5.2c-5.9,9.9-23,23.8-23,23.8l2.5-7.9c0,0-4.7,7.6-22.4,18.8c-7.2,4.6-18,7.9-28.4,10.3
				c-7.3,1.7-14.3,2.9-19.6,3.7c1.1-7.2,2.8-13.6,4.9-19.3c9-25,24.7-36.8,26-37.7c0,0,0.1,0,0.1-0.1c18.5-16,50.9-6.8,50.9-6.8
				c2.1-0.2,4-0.2,5.8-0.1C1308.4,834.5,1311.8,859.4,1311.5,875.2z"/>
			<path class="st57" d="M1284.6,833.2c-3.4,6.9-10,12-16.4,16.4c1.1-2.1,1.6-4.5,1.4-6.8c-8.3,12.1-20.2,21.8-33.7,27.5
				c1.6-3.2,2.4-6.8,2.2-10.3c-8.3,7.6-18.5,13.1-29.4,16.1c-1.8,0.5-4.4,1.4-7,1.8c9-25,24.7-36.8,26-37.7c0,0,0.1,0,0.1-0.1
				c18.5-16,50.9-6.8,50.9-6.8C1280.8,833.1,1282.8,833,1284.6,833.2z"/>
		</g>
	</g>
	<g>
		<g>
			<g>
				<g>
					<polygon class="st43" points="1144.7,1168.4 1144.9,1172.4 1140.7,1176.6 1141.9,1244.7 1156.1,1243.7 1239.9,1237.8 
						1244.8,1229.5 1240,1161.6 					"/>
					<polygon class="st25" points="1144.9,1172.4 1142.3,1174.9 1137.3,1180 1141.6,1241 1155.3,1240.1 1237.4,1234.2 
						1242.3,1226.8 1238,1165.7 					"/>
					
						<rect x="1139.3" y="1173.3" transform="matrix(0.9975 -7.079867e-02 7.079867e-02 0.9975 -82.4939 87.1708)" class="st24" width="98.3" height="68"/>
				</g>
				
					<rect x="1210.6" y="1182.9" transform="matrix(0.9975 -7.099666e-02 7.099666e-02 0.9975 -82.5123 89.3936)" class="st25" width="11.3" height="45"/>
			</g>
			<g>
				<g>
					<polygon class="st58" points="1143.8,1170.3 1143.2,1174.2 1138.2,1177.6 1126.2,1244.7 1140.3,1246.4 1223.7,1256.9 
						1230.1,1249.8 1238.6,1182.3 					"/>
					<polygon class="st25" points="1143.2,1174.2 1140.2,1176.3 1134.3,1180.3 1126.6,1241 1140.2,1242.7 1221.9,1253 
						1228.2,1246.6 1235.8,1185.9 					"/>
					
						<rect x="1145.3" y="1167.9" transform="matrix(0.1248 -0.9922 0.9922 0.1248 -175.4438 2235.2058)" class="st51" width="68" height="98.3"/>
				</g>
				
					<rect x="1184.1" y="1214.9" transform="matrix(0.1251 -0.9921 0.9921 0.1251 -155.293 2265.0098)" class="st25" width="45" height="11.3"/>
			</g>
			<g>
				<path class="st29" d="M1197.8,1105.4c0.6,3.2-1.3,20-4,40c-1.5,10.7-3.1,22.4-4.7,33.3s-3.1,21.1-4.3,29l0.6,20.7
					c0,0,9.7,3,9.6,4.6s6.2,14,7.9,15.3c1.7,1.4-3.2,5.8-3.2,5.8s-5.9-1.9-7.6-1.4c-1.4,0.3-3.2,6.7-5.5,9.9c-0.7,1-1.4,1.6-2.2,1.8
					c-3.3,0.6-7.3,1.4-8.3-0.6s-2.7-5.6-4.8-6.2c-2.1-0.5-8.7-4.4-9.1-7.2c-0.3-2.8,0.5-11.6,0.5-14c0-2.3-0.4-10-0.4-10l1.1-14.2
					l-2-86.6c-0.2-8,6.1-31.9,6.1-31.9l0.3-7l-0.6-24.3c-0.3-10.7,1.9-21.2,6.3-30.6c3.6-8.2,11.4-11.8,19.8-13.9
					c2.4-0.6,4.7-1.1,7.1-1.5c1.2-0.2,2.4-0.4,3.6-0.6l0,0C1203.8,1015.9,1196.1,1096.8,1197.8,1105.4z"/>
				<path class="st31" d="M1193.1,1018c-6.8,7.4-14.1,14.5-18.2,23.6c-8.3,18.3-2.4,39.8-5.7,59.7c-0.9,5.4-2.5,10.6-3.2,16
					s-0.6,10.8-0.5,16.2c0.2,12.1,0.1,24.2,0.1,36.3c0,3.3,0,6.7-0.1,10c-0.1,12.7-0.1,25.3-0.1,38c0,9.5,0.1,19.3,3.7,28.1
					c3.1,7.7,9.5,14.7,17.4,16.7c-0.7,1-1.4,1.6-2.2,1.8c-3.3,0.6-7.3,1.4-8.3-0.6s-2.7-5.6-4.8-6.2c-2.1-0.5-8.7-4.4-9.1-7.2
					c-0.3-2.8,0.5-11.6,0.5-14c0-2.3-0.4-10-0.4-10l1.1-14.2l-2-86.6c-0.2-8,6.1-32,6.1-32l0.3-7l-0.6-24.3
					c-0.3-10.7,1.9-21.2,6.3-30.6C1176.9,1023.7,1184.7,1020,1193.1,1018z"/>
				<g>
					<path class="st47" d="M1173.5,1097.3c0,0,0.1,0.3,0.4,0.8c0.1,0.3,0.3,0.6,0.5,0.9s0.5,0.8,0.8,1.1c0.3,0.4,0.7,0.8,1.2,1.2
						c0.4,0.4,1,0.8,1.5,1.2c1.1,0.7,2.5,1.4,4.1,1.7c1.5,0.3,3,0.3,4.3,0.1c0.7-0.2,1.3-0.3,1.8-0.5c0.6-0.2,1.1-0.4,1.5-0.7
						c0.4-0.2,0.8-0.5,1.1-0.7c0.3-0.2,0.6-0.5,0.8-0.6c0.4-0.4,0.6-0.6,0.6-0.6s-0.3,0.1-0.8,0.2c-0.2,0.1-0.6,0.2-0.9,0.2
						c-0.4,0.1-0.8,0.2-1.2,0.2c-0.5,0.1-0.9,0.1-1.4,0.2s-1.1,0-1.6,0c-1.1,0-2.4-0.2-3.7-0.4c-1.3-0.3-2.5-0.7-3.6-1.1
						c-0.5-0.2-1.1-0.4-1.5-0.7c-0.5-0.2-0.9-0.5-1.3-0.7s-0.7-0.5-1.1-0.7c-0.3-0.2-0.6-0.4-0.8-0.6
						C1173.8,1097.5,1173.5,1097.3,1173.5,1097.3z"/>
				</g>
			</g>
		</g>
		<path class="st42" d="M1229.2,1009.3l-23.7,81.4l0,0l-5.1,17.5l-0.7,6.1l-29.3-4.9l-8.4-1.4c0.4-2.1,0.7-4.3,1.2-6.4l0.3-1.6
			c0,0-0.4-25.1,4.1-51.7c3.9-23,11.3-47.1,25.7-57.2c1.3-0.9,2.7-1.7,4.2-2.4l3.7,2.4L1229.2,1009.3z"/>
		<path class="st59" d="M1201.2,991.1c-3.4,3.4-8.3,8.6-15.3,16.3c-14.4,16-15.5,83.1-15.5,102l-8.4-1.4c0.4-2.1,0.7-4.3,1.2-6.4
			l0.3-1.6c0,0-0.4-25.1,4.1-51.7c3.9-23,11.3-47.1,25.7-57.2c1.3-0.9,2.7-1.7,4.2-2.4L1201.2,991.1z"/>
		<polygon class="st25" points="1159.5,1094.8 1158.6,1113.1 1201.3,1117.7 1203.8,1106.3 		"/>
	</g>
	<path class="st28" d="M1197.1,988.8c0,0,9.1-12,20-12.8c0,0,17.8,129-15.3,147.4C1201.8,1123.5,1222.6,1052.6,1197.1,988.8z"/>
</g>
<image style="overflow:visible;enable-background:new    ;" width="2481" height="3508" xlink:href="../logo/logo_colorfull.png"  transform="matrix(8.276393e-02 0 0 8.276393e-02 315.2753 777.732)">
</image>
<image style="overflow:visible;enable-background:new    ;" width="2188" height="2000" xlink:href="../logo/harapan_bangsa_putih.png"  transform="matrix(0.122 0 0 0.122 543.2532 820.1537)">
</image>
</svg>
