<?xml version="1.0" encoding="utf-8"?>
<!-- Generator: Adobe Illustrator 25.0.0, SVG Export Plug-In . SVG Version: 6.00 Build 0)  -->
<svg version="1.1" id="Layer_1" xmlns="http://www.w3.org/2000/svg" xmlns:xlink="http://www.w3.org/1999/xlink" x="0px" y="0px"
	 viewBox="0 0 2560 1688" style="enable-background:new 0 0 2560 1688;" xml:space="preserve">
<style type="text/css">
	.st0{fill:#224CA1;}
	.st1{opacity:0.1;fill:#A2A3A3;}
	.st2{fill:#FFFFFF;}
	.st3{filter:url(#Adobe_OpacityMaskFilter);}
	.st4{filter:url(#Adobe_OpacityMaskFilter_1_);}
	.st5{mask:url(#SVGID_1_);fill:url(#SVGID_2_);}
	.st6{fill:url(#SVGID_3_);}
	.st7{fill:#133359;}
	.st8{fill:#6582BE;}
	.st9{fill:#F9B914;}
	.st10{opacity:0.1;fill:#0E5168;}
	.st11{fill:#0A3E4C;}
	.st12{fill:#0E5168;}
	.st13{fill:#464548;}
	.st14{font-family:'Axiforma-Bold';}
	.st15{font-size:65.911px;}
	.st16{filter:url(#Adobe_OpacityMaskFilter_2_);}
	.st17{filter:url(#Adobe_OpacityMaskFilter_3_);}
	.st18{mask:url(#SVGID_4_);fill:url(#SVGID_5_);}
	.st19{filter:url(#Adobe_OpacityMaskFilter_4_);}
	.st20{filter:url(#Adobe_OpacityMaskFilter_5_);}
	.st21{mask:url(#SVGID_6_);fill:url(#SVGID_7_);}
	.st22{fill:url(#SVGID_8_);}
	.st23{filter:url(#Adobe_OpacityMaskFilter_6_);}
	.st24{filter:url(#Adobe_OpacityMaskFilter_7_);}
	.st25{mask:url(#SVGID_9_);fill:url(#SVGID_10_);}
	.st26{filter:url(#Adobe_OpacityMaskFilter_8_);}
	.st27{filter:url(#Adobe_OpacityMaskFilter_9_);}
	.st28{mask:url(#SVGID_11_);fill:url(#SVGID_12_);}
	.st29{fill:url(#SVGID_13_);}
	.st30{fill:#AC1426;}
	.st31{fill:#FFF0E7;}
	.st32{fill:#072743;}
	.st33{fill:#275279;}
	.st34{fill:#0F3358;}
	.st35{fill:#FDBD8E;}
	.st36{fill:#FB9988;}
	.st37{fill:#FFDABA;}
	.st38{fill:#E94E21;}
	.st39{fill:#FD7D6F;}
	.st40{fill:#161818;}
	.st41{fill:#FF8035;}
	.st42{fill:#FFA049;}
	.st43{fill:#2C2C2C;}
	.st44{fill:#3F0D0D;}
	.st45{fill:#75312F;}
	.st46{fill:#EDB838;}
	.st47{fill:#CE9307;}
	.st48{fill:#FFD455;}
	.st49{fill:#940B20;}
	.st50{fill:#474747;}
	.st51{fill:#FFA07F;}
	.st52{fill:#FFBF90;}
	.st53{fill:#F37C71;}
	.st54{fill:#274F74;}
	.st55{fill:#171228;}
	.st56{fill:#909AA3;}
	.st57{fill:#FF9300;}
	.st58{fill:#313044;}
	.st59{fill:#414156;}
	.st60{fill:#5E5E73;}
	.st61{fill:#55062C;}
	.st62{fill:#3F0727;}
	.st63{fill:#6F0A32;}
	.st64{fill:#CF691F;}
	.st65{fill:#FFE598;}
	.st66{fill:#143359;}
	.st67{font-family:'LaoMN';}
	.st68{font-size:43.9906px;}
	.st69{letter-spacing:4;}
	.st70{fill:#F2DDCE;}
	.st71{fill:#F2DECC;}
	.st72{fill:#484548;}
	.st73{fill:#F5B918;}
	.st74{fill:#C6E2EF;}
	.st75{fill:#274E9F;}
</style>
<rect x="-14" y="-38" class="st0" width="2583.34" height="1765"/>
<rect x="0.39" y="617.98" class="st1" width="2559.61" height="89.1"/>
<rect x="0.39" y="1088.76" class="st1" width="2559.61" height="89.1"/>
<polygon class="st2" points="1697.95,1517.04 1196.05,1517.04 1196.05,522.96 1697.95,412.79 "/>
<defs>
	<filter id="Adobe_OpacityMaskFilter" filterUnits="userSpaceOnUse" x="0.08" y="1365.88" width="1520.57" height="344.64">
		<feFlood  style="flood-color:white;flood-opacity:1" result="back"/>
		<feBlend  in="SourceGraphic" in2="back" mode="normal"/>
	</filter>
</defs>
<mask maskUnits="userSpaceOnUse" x="0.08" y="1365.88" width="1520.57" height="344.64" id="SVGID_1_">
	<g class="st3">
		<defs>
			<filter id="Adobe_OpacityMaskFilter_1_" filterUnits="userSpaceOnUse" x="0.08" y="1365.88" width="1520.57" height="344.64">
				<feFlood  style="flood-color:white;flood-opacity:1" result="back"/>
				<feBlend  in="SourceGraphic" in2="back" mode="normal"/>
			</filter>
		</defs>
		<mask maskUnits="userSpaceOnUse" x="0.08" y="1365.88" width="1520.57" height="344.64" id="SVGID_1_">
		</mask>
		<linearGradient id="SVGID_2_" gradientUnits="userSpaceOnUse" x1="0.085" y1="1538.1962" x2="1520.6522" y2="1538.1962">
			<stop  offset="0" style="stop-color:#000000"/>
			<stop  offset="0.0958" style="stop-color:#232323"/>
			<stop  offset="0.4244" style="stop-color:#989898"/>
			<stop  offset="0.6505" style="stop-color:#E2E2E2"/>
			<stop  offset="0.7545" style="stop-color:#FFFFFF"/>
		</linearGradient>
		<polygon class="st5" points="1290.64,1486.03 0.08,1443.14 0.08,1710.52 1044.61,1710.52 1387.2,1604.81 1520.65,1365.88 		"/>
	</g>
</mask>
<linearGradient id="SVGID_3_" gradientUnits="userSpaceOnUse" x1="0.085" y1="1538.1962" x2="1520.6522" y2="1538.1962">
	<stop  offset="0" style="stop-color:#FFFFFF"/>
	<stop  offset="0.7545" style="stop-color:#FFFFFF"/>
</linearGradient>
<polygon class="st6" points="1290.64,1486.03 0.08,1443.14 0.08,1710.52 1044.61,1710.52 1387.2,1604.81 1520.65,1365.88 "/>
<polygon class="st7" points="1410.44,334 1843.3,438.57 1843.3,1511.35 1410.44,1604.81 1403.25,1588.97 1401.46,338.81 "/>
<rect x="1387.2" y="334" class="st8" width="23.24" height="1270.81"/>
<polygon class="st9" points="1821.71,943.35 1821.71,470.08 1432.03,371.66 1432.03,932.88 "/>
<polygon class="st9" points="1432.03,1007.66 1432.03,1567.73 1821.71,1479.76 1821.71,1018.13 "/>
<polygon class="st10" points="1821.71,943.35 1607.26,753.56 1432.03,371.66 1432.03,932.88 "/>
<polygon class="st10" points="1432.03,1007.66 1432.03,1567.73 1821.71,1479.76 1590.69,1347.4 "/>
<path class="st11" d="M1468.88,971.45c0,18.12-6.1,32.81-12.79,32.81c-10.49,0-25.21-5.79-25.21-32.81
	c0-22.93,13.78-32.81,24.27-32.81S1468.88,953.32,1468.88,971.45z"/>
<path class="st12" d="M1472.21,971.45c0,18.12-7.22,32.81-16.12,32.81c-8.9,0-16.12-14.69-16.12-32.81
	c0-18.12,7.22-32.81,16.12-32.81C1464.99,938.63,1472.21,953.32,1472.21,971.45z"/>
<polygon class="st2" points="1742.78,598.99 1742.78,522.48 1510.97,472.49 1510.97,563.23 "/>
<g>
	<text transform="matrix(0.8586 0.1503 0 1 1512.5742 544.8328)" class="st13 st14 st15">FUTURE</text>
</g>
<g>
	<defs>
		<filter id="Adobe_OpacityMaskFilter_2_" filterUnits="userSpaceOnUse" x="-14" y="1597.61" width="846.37" height="89.66">
			<feFlood  style="flood-color:white;flood-opacity:1" result="back"/>
			<feBlend  in="SourceGraphic" in2="back" mode="normal"/>
		</filter>
	</defs>
	<mask maskUnits="userSpaceOnUse" x="-14" y="1597.61" width="846.37" height="89.66" id="SVGID_4_">
		<g class="st16">
			<defs>
				<filter id="Adobe_OpacityMaskFilter_3_" filterUnits="userSpaceOnUse" x="-14" y="1594.95" width="839.4" height="92.32">
					<feFlood  style="flood-color:white;flood-opacity:1" result="back"/>
					<feBlend  in="SourceGraphic" in2="back" mode="normal"/>
				</filter>
			</defs>
			<mask maskUnits="userSpaceOnUse" x="-14" y="1594.95" width="839.4" height="92.32" id="SVGID_4_">
			</mask>
			<linearGradient id="SVGID_5_" gradientUnits="userSpaceOnUse" x1="-14" y1="1641.1121" x2="825.4007" y2="1641.1121">
				<stop  offset="0" style="stop-color:#000000"/>
				<stop  offset="0.0958" style="stop-color:#232323"/>
				<stop  offset="0.4244" style="stop-color:#989898"/>
				<stop  offset="0.6505" style="stop-color:#E2E2E2"/>
				<stop  offset="0.7545" style="stop-color:#FFFFFF"/>
			</linearGradient>
			<polygon class="st18" points="825.4,1607.24 -7.02,1687.27 -14,1605.58 825.4,1594.95 			"/>
		</g>
	</mask>
	<g>
		<defs>
			<filter id="Adobe_OpacityMaskFilter_4_" filterUnits="userSpaceOnUse" x="-14" y="1597.61" width="846.37" height="89.66">
				<feFlood  style="flood-color:white;flood-opacity:1" result="back"/>
				<feBlend  in="SourceGraphic" in2="back" mode="normal"/>
			</filter>
		</defs>
		<mask maskUnits="userSpaceOnUse" x="-14" y="1597.61" width="846.37" height="89.66" id="SVGID_6_">
			<g class="st19">
				<defs>
					<filter id="Adobe_OpacityMaskFilter_5_" filterUnits="userSpaceOnUse" x="-14" y="1597.61" width="846.37" height="89.66">
						<feFlood  style="flood-color:white;flood-opacity:1" result="back"/>
						<feBlend  in="SourceGraphic" in2="back" mode="normal"/>
					</filter>
				</defs>
				<mask maskUnits="userSpaceOnUse" x="-14" y="1597.61" width="846.37" height="89.66" id="SVGID_6_">
				</mask>
				<linearGradient id="SVGID_7_" gradientUnits="userSpaceOnUse" x1="-14" y1="1642.4434" x2="832.3687" y2="1642.4434">
					<stop  offset="0" style="stop-color:#000000"/>
					<stop  offset="0.0958" style="stop-color:#232323"/>
					<stop  offset="0.4244" style="stop-color:#989898"/>
					<stop  offset="0.6505" style="stop-color:#E2E2E2"/>
					<stop  offset="0.7545" style="stop-color:#FFFFFF"/>
				</linearGradient>
				<polygon class="st21" points="810.82,1609.19 -7.02,1687.27 -14,1605.58 832.37,1597.61 				"/>
			</g>
		</mask>
		<linearGradient id="SVGID_8_" gradientUnits="userSpaceOnUse" x1="-14" y1="1642.4434" x2="832.3687" y2="1642.4434">
			<stop  offset="0" style="stop-color:#FFFFFF"/>
			<stop  offset="0.3156" style="stop-color:#ACABAD"/>
			<stop  offset="0.6162" style="stop-color:#636264"/>
			<stop  offset="0.7545" style="stop-color:#464548"/>
		</linearGradient>
		<polygon class="st22" points="810.82,1609.19 -7.02,1687.27 -14,1605.58 832.37,1597.61 		"/>
	</g>
	<defs>
		<filter id="Adobe_OpacityMaskFilter_6_" filterUnits="userSpaceOnUse" x="335.66" y="1477.39" width="844.01" height="106.54">
			<feFlood  style="flood-color:white;flood-opacity:1" result="back"/>
			<feBlend  in="SourceGraphic" in2="back" mode="normal"/>
		</filter>
	</defs>
	<mask maskUnits="userSpaceOnUse" x="335.66" y="1477.39" width="844.01" height="106.54" id="SVGID_9_">
		<g class="st23">
			<defs>
				<filter id="Adobe_OpacityMaskFilter_7_" filterUnits="userSpaceOnUse" x="335.66" y="1477.39" width="837.43" height="106.43">
					<feFlood  style="flood-color:white;flood-opacity:1" result="back"/>
					<feBlend  in="SourceGraphic" in2="back" mode="normal"/>
				</filter>
			</defs>
			<mask maskUnits="userSpaceOnUse" x="335.66" y="1477.39" width="837.43" height="106.43" id="SVGID_9_">
			</mask>
			
				<linearGradient id="SVGID_10_" gradientUnits="userSpaceOnUse" x1="325.8394" y1="1542.986" x2="1165.2401" y2="1542.986" gradientTransform="matrix(0.9922 0.1248 -0.1248 0.9922 203.815 -58.9468)">
				<stop  offset="0" style="stop-color:#000000"/>
				<stop  offset="0.0958" style="stop-color:#232323"/>
				<stop  offset="0.4244" style="stop-color:#989898"/>
				<stop  offset="0.6505" style="stop-color:#E2E2E2"/>
				<stop  offset="0.7545" style="stop-color:#FFFFFF"/>
			</linearGradient>
			<polygon class="st25" points="1171.56,1583.82 335.66,1559.32 338.93,1477.39 1173.09,1571.63 			"/>
		</g>
	</mask>
	<g>
		<defs>
			<filter id="Adobe_OpacityMaskFilter_8_" filterUnits="userSpaceOnUse" x="335.66" y="1477.39" width="844.01" height="106.54">
				<feFlood  style="flood-color:white;flood-opacity:1" result="back"/>
				<feBlend  in="SourceGraphic" in2="back" mode="normal"/>
			</filter>
		</defs>
		<mask maskUnits="userSpaceOnUse" x="335.66" y="1477.39" width="844.01" height="106.54" id="SVGID_11_">
			<g class="st26">
				<defs>
					<filter id="Adobe_OpacityMaskFilter_9_" filterUnits="userSpaceOnUse" x="335.66" y="1477.39" width="844.01" height="106.54">
						<feFlood  style="flood-color:white;flood-opacity:1" result="back"/>
						<feBlend  in="SourceGraphic" in2="back" mode="normal"/>
					</filter>
				</defs>
				<mask maskUnits="userSpaceOnUse" x="335.66" y="1477.39" width="844.01" height="106.54" id="SVGID_11_">
				</mask>
				
					<linearGradient id="SVGID_12_" gradientUnits="userSpaceOnUse" x1="325.8394" y1="1544.3171" x2="1172.208" y2="1544.3171" gradientTransform="matrix(0.9922 0.1248 -0.1248 0.9922 203.815 -58.9468)">
					<stop  offset="0" style="stop-color:#000000"/>
					<stop  offset="0.0958" style="stop-color:#232323"/>
					<stop  offset="0.4244" style="stop-color:#989898"/>
					<stop  offset="0.6505" style="stop-color:#E2E2E2"/>
					<stop  offset="0.7545" style="stop-color:#FFFFFF"/>
				</linearGradient>
				<polygon class="st28" points="1156.85,1583.93 335.66,1559.32 338.93,1477.39 1179.67,1575.14 				"/>
			</g>
		</mask>
		
			<linearGradient id="SVGID_13_" gradientUnits="userSpaceOnUse" x1="325.8394" y1="1544.3171" x2="1172.208" y2="1544.3171" gradientTransform="matrix(0.9922 0.1248 -0.1248 0.9922 203.815 -58.9468)">
			<stop  offset="0" style="stop-color:#FFFFFF"/>
			<stop  offset="0.3156" style="stop-color:#ACABAD"/>
			<stop  offset="0.6162" style="stop-color:#636264"/>
			<stop  offset="0.7545" style="stop-color:#464548"/>
		</linearGradient>
		<polygon class="st29" points="1156.85,1583.93 335.66,1559.32 338.93,1477.39 1179.67,1575.14 		"/>
	</g>
	<g>
		<g>
			<g>
				<g>
					<g>
						<g>
							<path class="st30" d="M508.2,1519.52c1.92-1.03,3.96-2.83,4.21-5.82c0.73-8.75,1.46-40.22,4.8-49.83
								c2.6-7.47,10.9-16.15,14.49-19.65l-20.78-50.8c-14.48,1.7-41.06,8.78-46.61,10.29L508.2,1519.52z"/>
							
								<rect x="474.22" y="1401.88" transform="matrix(0.9351 -0.3543 0.3543 0.9351 -487.516 265.216)" class="st31" width="12.43" height="123.86"/>
							<g>
								<path class="st31" d="M510.25,1455.34c-0.16-0.03-0.33-0.06-0.49-0.08c-1.23-0.18-2.94,0.05-3.04,1.62
									c-0.05,0.81,0.34,1.57,0.77,2.25c1.46,2.36,3.44,4.29,5.57,6.05c2.28,1.89,4.74,3.9,7.7,4.58c3.06,0.7,4.5-2.4,2.89-4.94
									C520.85,1460.44,515.48,1456.3,510.25,1455.34z"/>
								<path class="st31" d="M507.32,1466.4c-0.17-0.03-0.33-0.06-0.49-0.08c-1.23-0.18-2.94,0.05-3.04,1.62
									c-0.05,0.81,0.34,1.57,0.77,2.25c1.46,2.36,3.45,4.29,5.57,6.05c2.28,1.9,4.74,3.9,7.7,4.58c3.06,0.71,4.5-2.4,2.89-4.94
									C517.92,1471.51,512.55,1467.37,507.32,1466.4z"/>
								<path class="st31" d="M507.28,1478.69c-0.17-0.03-0.33-0.06-0.49-0.08c-1.23-0.18-2.94,0.05-3.04,1.62
									c-0.05,0.81,0.34,1.57,0.77,2.25c1.46,2.36,3.45,4.29,5.57,6.05c2.28,1.89,4.74,3.9,7.7,4.58c3.06,0.7,4.5-2.4,2.89-4.94
									C517.88,1483.79,512.51,1479.65,507.28,1478.69z"/>
							</g>
						</g>
						<path class="st32" d="M720.51,1337.56c-2.63,17.53-184.3,121.11-184.3,121.11l-32.75-76.01l147.33-97.99
							c0,0,12.19-104.88,10.97-151.3l83.93,5.62c-0.33,7.8-0.7,16.56-1.11,25.86c-0.08,1.95-0.17,3.92-0.26,5.92
							c-0.13,3.07-0.27,6.2-0.42,9.34c-0.06,1.47-0.13,2.94-0.19,4.41C741.65,1230.7,721.9,1328.31,720.51,1337.56z"/>
						<g>
							<path class="st33" d="M744.32,1170.77c-3.13-3-5.88-6.54-6.95-7.97c-5.56-7.37-9.23-15.96-10.8-25.08l3.94,0.26
								c1.16,6.07,3.27,11.88,6.41,17.23c0.49,0.83,4.06,5.46,7.67,9.64C744.51,1166.81,744.42,1168.78,744.32,1170.77z"/>
							<path class="st33" d="M743.72,1184.53c-17.39-9.84-29.73-27.79-32.9-47.87l3.89,0.26c3.03,17.89,13.98,33.9,29.2,43.19
								C743.85,1181.59,743.78,1183.06,743.72,1184.53z"/>
						</g>
					</g>
					<g>
						<g>
							<path class="st30" d="M831.35,1597.61c-0.41-2.14-1.5-4.63-4.28-5.77c-8.12-3.33-37.89-13.51-46.04-19.59
								c-6.34-4.73-12.1-15.27-14.36-19.74l-54.68,4.52c-2.76,14.33-4.03,41.81-4.27,47.56L831.35,1597.61z"/>
							
								<rect x="707.97" y="1601.09" transform="matrix(0.9984 -0.0564 0.0564 0.9984 -89.4163 45.9739)" class="st31" width="123.83" height="12.44"/>
							<g>
								<path class="st31" d="M770.81,1576.32c-0.08,0.15-0.15,0.3-0.23,0.45c-0.54,1.12-0.84,2.81,0.63,3.39
									c0.75,0.29,1.6,0.14,2.38-0.05c2.69-0.68,5.13-1.99,7.45-3.49c2.49-1.61,5.15-3.35,6.69-5.97c1.59-2.71-0.93-5.02-3.84-4.24
									C778.87,1567.75,773.3,1571.62,770.81,1576.32z"/>
								<path class="st31" d="M780.47,1582.45c-0.08,0.15-0.15,0.3-0.23,0.45c-0.54,1.12-0.84,2.81,0.63,3.39
									c0.75,0.29,1.6,0.14,2.38-0.05c2.69-0.68,5.13-2,7.45-3.49c2.49-1.61,5.15-3.34,6.69-5.97c1.59-2.71-0.93-5.02-3.84-4.24
									C788.53,1573.88,782.96,1577.75,780.47,1582.45z"/>
								<path class="st31" d="M792.16,1586.19c-0.08,0.15-0.15,0.3-0.23,0.45c-0.54,1.12-0.84,2.82,0.63,3.39
									c0.75,0.29,1.6,0.15,2.38-0.05c2.69-0.68,5.13-1.99,7.45-3.49c2.49-1.61,5.15-3.34,6.69-5.96c1.59-2.71-0.93-5.02-3.84-4.24
									C800.22,1577.62,794.65,1581.49,792.16,1586.19z"/>
							</g>
						</g>
						<path class="st34" d="M779.89,1557.24l-74.52,2.92l-10.21,0.4c0,0-42.18-190.68-43.1-199.08
							c-0.61-5.61-31.54-106.01-51.96-171.89c-0.4-1.31-0.8-2.6-1.2-3.89c-1.6-5.16-3.13-10.08-4.57-14.71
							c-0.4-1.28-0.79-2.53-1.16-3.77c-6.44-20.71-10.72-34.42-10.72-34.42l18.37,1.15l17.38,1.09l3.96,0.25l10.76,0.67l3.91,0.24
							l49.99,3.13L779.89,1557.24z"/>
						<path class="st32" d="M705.37,1560.16l-10.21,0.4c0,0-42.18-190.68-43.1-199.08c-0.61-5.61-31.54-106.01-51.96-171.89
							c-0.4-1.31-0.8-2.6-1.2-3.89c-1.6-5.16-3.13-10.08-4.57-14.71c-0.4-1.28-0.79-2.53-1.16-3.77
							c-6.44-20.71-10.72-34.42-10.72-34.42l18.37,1.15c12.54,43.68,62.41,218.04,61.28,226.34
							C661.29,1366.53,703.33,1512.91,705.37,1560.16z"/>
						<g>
							<path class="st33" d="M636.84,1136.2c-4.04,22.11-17.68,41.89-36.74,53.39c-0.4-1.31-0.8-2.6-1.2-3.89
								c17.55-10.93,30.16-29.18,34.03-49.74L636.84,1136.2z"/>
							<path class="st33" d="M622.18,1135.29c-3.17,15.45-13.77,28.81-27.83,35.71c-0.4-1.28-0.79-2.53-1.16-3.77
								c12.57-6.34,21.99-18.33,25.04-32.19L622.18,1135.29z"/>
						</g>
						<path class="st33" d="M694.8,1368.26c1.42,3.76,3.22,7.48,6.07,10.31c2.86,2.83,6.95,4.65,10.9,3.95
							c7.51-1.32,10.77-10.27,11.56-17.86c0.66-6.34,0.61-12.74-0.15-19.07c-0.34-2.83-0.89-5.79-2.66-8.02
							c-5.56-7.02-22.55-6.5-28.04,0.53C686.56,1345.65,691.89,1360.59,694.8,1368.26z"/>
					</g>
				</g>
				<g>
					<g>
						<g>
							<path class="st35" d="M652.85,830.55c0.89,1.01,40.76,34.86,40.76,34.86s0.32-19.18,0.52-29.18c0.07-3.1,0.13-5.31,0.16-5.8
								c0.27-3.98,4.82-21,4.82-21l-41.03-22.19c0,0-1.25,8.69-2.55,18.28C653.97,817.1,652.36,829.99,652.85,830.55z"/>
							<path class="st36" d="M655.53,805.53c11.19,9.33,35.84,29.74,38.38,30.65c0.07,0.02,0.15,0.05,0.22,0.06
								c0.07-3.1,0.13-5.31,0.16-5.8c0.27-3.98,4.82-21,4.82-21l-41.03-22.19C658.08,787.25,656.82,795.93,655.53,805.53z"/>
						</g>
					</g>
					<g>
						<g>
							<path class="st35" d="M652.18,788.34c0,0,0.85,3.13,5.3,7.62l0.01,0.01c0.91,0.92,1.98,1.9,3.21,2.93
								c4.73,3.89,49.89,26.92,57.11,26.45c7.23-0.48,15.63-24.64,16.17-27.2c3.37-15.73,12.98-64.38,12.98-64.38
								c-14.09-54.67-78.98-31.19-86.49-26.41C652.96,712.13,652.18,788.34,652.18,788.34z"/>
							<path class="st37" d="M657.49,795.97c0.91,0.92,1.98,1.9,3.21,2.93c4.73,3.89,49.89,26.92,57.11,26.45
								c7.23-0.48,15.63-24.64,16.17-27.2c-5.18,10.51-11.23,25.12-16.26,24.31C710.13,821.23,662.94,799.32,657.49,795.97z"/>
						</g>
						<g>
							<path class="st38" d="M740.4,741.64c0,0-5.33-13.31-11.12-10.15c-5.8,3.16-3.84,4.18-3.84,4.18L740.4,741.64z"/>
							<path class="st38" d="M677.91,739.05c0,0,16.06-18.04,22.46-11.48c3.74,3.82,1.07,6.37,1.07,6.37L677.91,739.05z"/>
							<g>
								<path class="st36" d="M710.96,779.91c-1.34-0.6-2.65-1.43-4.12-1.38c1.22,3.41,3.84,6.29,7.11,7.84
									c0.25,0.12,0.52,0.23,0.79,0.24c0.34,0.01,0.66-0.14,0.97-0.29c1.93-0.97,3.67-2.32,5.09-3.96c0.29-0.33,0.57-0.68,0.7-1.1
									c0.42-1.39-0.56-1.14-1.42-0.87c-1,0.32-2.04,0.5-3.08,0.57C714.95,781.1,712.85,780.74,710.96,779.91z"/>
								<path class="st39" d="M714.31,785.57c0.91-0.71,1.92-1.3,2.85-1.98c1.15-0.85,2.23-1.79,3.19-2.85
									c-4.37-3.46-4-8.24-3.42-13.64c0.26-2.44,1.11-4.8,2.44-6.86c0.7-1.08,1.53-2.08,2.47-2.96c0.48-0.45,0.98-0.86,1.51-1.25
									c0.52-0.37,1.04-0.57,1.64-0.77c-0.3,0.31-0.52,0.66-0.8,0.98c-0.73,0.83-1.48,1.58-2.11,2.48
									c-0.63,0.89-1.19,1.85-1.67,2.84c-0.95,1.98-1.57,4.13-1.8,6.32c-0.22,2.15-0.05,4.35,0.61,6.41
									c0.75,2.35,2.19,4.74,4.19,6.21c0.02,0.01-3.37,3.43-3.7,3.71c-0.85,0.71-1.76,1.35-2.73,1.87
									c-0.95,0.52-2.05,1.14-3.17,1.01c-0.35-0.03-0.7-0.14-0.97-0.36c0.2-0.11,0.39-0.25,0.56-0.4c0.08-0.07,0.15-0.14,0.22-0.21
									C713.85,785.95,714.08,785.76,714.31,785.57z"/>
								<path class="st40" d="M679.24,753.42c0,4.95,2.5,8.97,5.58,8.97c3.08,0,5.58-4.01,5.58-8.97c0-4.95-2.5-8.97-5.58-8.97
									C681.73,744.45,679.24,748.46,679.24,753.42z"/>
								<path class="st31" d="M677.46,749.39c0,0,1.2,1.87,3.26,2.71c2.07,0.84,4.23,0.32,4.23,0.32s-1.19-1.87-3.26-2.71
									C679.62,748.88,677.46,749.39,677.46,749.39z"/>
								<path class="st40" d="M733.18,757.93c0,3.73-1.88,6.76-4.21,6.76c-2.33,0-4.21-3.03-4.21-6.76c0-3.73,1.88-6.76,4.21-6.76
									C731.29,751.17,733.18,754.2,733.18,757.93z"/>
								<path class="st31" d="M737.93,756.94c0,0-1.48,1.99-3.9,2.97c-2.42,0.98-4.87,0.58-4.87,0.58s1.48-2,3.9-2.98
									C735.49,756.53,737.93,756.94,737.93,756.94z"/>
								<path class="st39" d="M717.5,810.15c-4.08-2.4-9.23-2.9-13.69-1.32c1.65-2.09,3.85-3.24,6.5-2.97
									C712.96,806.14,715.84,808.07,717.5,810.15z"/>
								<path class="st39" d="M689.79,791.74c12.61,17.19,28.66,13.75,37.83,4.58c-6.82,1.6-12.53,1.95-19.49,1.15
									C702.77,796.86,694.39,794.57,689.79,791.74z"/>
							</g>
							<path class="st36" d="M728.07,782.98c0.6,2.01,4.82,2.52,9.41,1.14c4.59-1.38,7.83-4.12,7.23-6.13
								c-0.6-2.01-4.82-2.52-9.41-1.14C730.71,778.23,727.47,780.98,728.07,782.98z"/>
							<path class="st36" d="M672.27,770.07c-0.96,2.9,3.65,7.04,10.29,9.25c6.65,2.2,12.81,1.64,13.78-1.26
								c0.96-2.91-3.65-7.05-10.29-9.25C679.41,766.6,673.24,767.17,672.27,770.07z"/>
						</g>
					</g>
					<path class="st41" d="M665.26,751.74c-2.69,5.13-6.16,10.46-5.31,16.18c0.55,3.72,2.87,6.98,3.5,10.67
						c0.85,5-1.53,9.95-4.15,14.3c-2.64,4.37-6.07,8.86-11.06,9.95c0.95-3.24,0.75-6.8-0.53-9.93c-0.37,3.9-3.37,7.41-7.16,8.37
						c0.53-2.61,0.34-5.37-0.55-7.89c-0.79,3.7-5.25,6.11-8.79,4.76c3.24-1.9,4.79-6.23,3.52-9.76c-0.06-0.15-0.11-0.31-0.19-0.46
						c-2.75-6.46-12.97-8.58-13.56-15.65c-0.42-4.84,4.29-8.92,4.2-13.79c-0.08-4.44-4.01-7.73-6-11.71
						c-0.88-1.77-1.32-3.71-1.36-5.68c-0.05-1.35,0.11-2.71,0.43-4.02c0.03-0.16,0.07-0.32,0.13-0.46c0.77-2.75,2.34-5.27,4.57-7.07
						c0.7-0.57,1.48-1.09,2.03-1.81c0.14-0.17,0.26-0.36,0.36-0.58c0.61-1.25,0.3-2.74,0.15-4.14c-0.07-0.59-0.09-1.18-0.09-1.77
						c-0.01-4.34,1.73-8.66,4.78-11.77c0.3-0.3,0.6-0.58,0.92-0.86c2.94-2.56,6.79-4.04,10.7-4.14c0.61-0.02,1.22,0.01,1.83,0.06
						l3.56-4.23c2.25,1.78,5.47,1.24,8.34,1.44c4.93,0.34,9.32,3.23,12.33,7.2c1.22,1.58,2.2,3.34,2.92,5.17
						c0.72,1.85,1.2,3.76,1.49,5.69c0.05,0.31,0.09,0.61,0.12,0.92c0.08,0.65,0.13,1.31,0.17,1.97c0.21,3.94-0.26,7.96-1.08,11.83
						C670.19,740.51,668.1,746.33,665.26,751.74z"/>
					<path class="st38" d="M738.02,773.56l7.77-38.82c-2.04-2.04-2.38-3.79-3.06-6.51c-0.32-1.26-0.48-2.56-1.06-3.73
						c-2.84-5.76-13.34-4.83-15.52-10.85c-0.5-1.39-0.93-2.63-1.35-3.85c-0.52,0.43-1.08,0.8-1.66,1.12
						c-5.71,3.16-12.92,2.56-18.63,5.73c-3.29,1.83-5.83,4.78-9.07,6.7c-3.43,2.04-7.59,2.8-11.53,2.13
						c-3.77-0.65-7.3-2.56-11.12-2.75c-0.07-0.01-0.16-0.01-0.24-0.01c0.21,3.94-0.26,7.96-1.08,11.83
						c-1.28,5.97-3.38,11.79-6.21,17.21c-2.69,5.13-6.16,10.46-5.31,16.18c0.55,3.72,2.87,6.98,3.5,10.67
						c0.85,5-1.53,9.95-4.15,14.3c-2.64,4.37-6.07,8.86-11.06,9.95c0.95-3.24,0.75-6.8-0.53-9.93c-0.37,3.9-3.37,7.41-7.16,8.37
						c0.53-2.61,0.34-5.37-0.55-7.89c-0.79,3.7-5.25,6.11-8.79,4.76c3.24-1.9,4.79-6.23,3.52-9.76c-0.06-0.15-0.11-0.31-0.19-0.46
						c1.94-2.21,2.35-4.96-1.07-8.12c0.93,0.16,1.85,0.32,2.77,0.48c0.44-4.28-3.41-7.61-5.68-11.25
						c-3.21-5.17-3.32-12.13-0.26-17.39c0.14,1.74,2.84,2.18,4.04,0.91c1.2-1.25,1.15-3.25,0.7-4.94c-0.44-1.68-1.22-3.32-1.22-5.06
						c2.23,1.36,5.3-0.43,6.23-2.87c0.93-2.43,0.38-5.15-0.17-7.69c1.06,2.32,4.57,2.59,6.54,0.99c1.98-1.59,2.64-4.35,2.61-6.9
						c-0.02-2.55-0.6-5.07-0.56-7.61c0.1-6.17,4.2-12.09,9.93-14.35c-1.71,2.33-1.87,5.69-0.38,8.17c2.62-2.52,6.11-3.14,9.83-3.34
						c5.29-0.3,11.05,0.28,15.4-2.53c3.62-2.35,5.52-6.62,8.76-9.47c4.56-3.99,11.76-4.59,16.91-1.4c2.5,1.56,4.52,3.88,7.22,5.06
						c2.7,1.18,6.61,0.56,7.5-2.25c-0.8,5.54,6,10.54,11.05,8.11c0.64,6.15,7.91,10.61,13.68,8.41c-1.28,6.47-2,14.48,3.32,18.37
						c-0.25,4.17,1.26,8.33,3.9,11.58C748.24,757.44,738.02,773.56,738.02,773.56z"/>
					<g>
						<path class="st41" d="M763.02,729.06c-0.12-2.8-2-5.44-4.14-7.54c0.85-3.45,0.57-7.31-1.59-10.18
							c-2.27-3.01-6.57-5.18-6.43-8.89c0.07-1.99,1.51-3.72,1.74-5.7c0.4-3.4-2.75-6.16-5.77-7.95c-3.02-1.78-6.5-3.6-7.53-6.88
							c-0.59-1.89-0.23-3.95-0.62-5.89c-0.94-4.52-5.89-7.32-10.6-7.85c-4.88-0.57-9.94,0.73-13.93,3.5
							c-3.88-4.32-9.55-7.23-15.3-6.4c-5.22,0.76-9.71,4.41-14.99,4.75c-5.34,0.36-10.7-2.75-15.87-1.39
							c-4.97,1.31-7.9,6.27-12.37,8.75c-5.21,2.91-12.34,2.34-16.52,6.52c-4.39,4.37-3.15,11.24-3.07,17.66
							c-3.11-2.78-5.07-6.82-5.24-10.98c-2.87,3.84-2.87,9.57,0.01,13.39c-2.59-0.62-5.38,0.14-7.56,1.66
							c-2.18,1.53-3.81,3.73-5.06,6.07c2.87-2.31,6.9-3.81,10.62-3.62c0.91,0.05,1.65,0.25,2.33,0.52c1.17,0.47,2.12,1.19,3.31,1.78
							c-0.36,0.68-0.79,1.34-1.32,1.95c-1.99,2.28-5.06,3.63-6.65,6.2c-0.52,0.83-0.83,1.74-1.04,2.7c-0.32,1.46-0.35,3-0.38,4.49
							c-0.01,0.66-0.01,1.34-0.05,2c-0.08,1.83-0.35,3.65-1.25,5.22c-1.18,2.06-2.97,3.66-5.35,3.65c-0.11,0.01-0.22-0.01-0.33-0.01
							c0,0,0.07,0.17,0.21,0.48c0.19,0.44,0.54,1.17,1.07,2.09c2.02,3.53,6.62,9.87,15.02,13.37c4.23,1.77,9.43,2.82,15.75,2.43
							c0.15-0.14,6.46,7.6,4.89,14.98c4.48-4.01,1.9-17.5,4.53-22.91c1.5-3.08,4.41-5.28,6.08-8.28c1.16-2.06,1.66-4.41,2.19-6.7
							c0.72-3.16,1.51-6.35,2.85-9.28c0.64-0.07,1.28-0.1,1.92-0.08c0.08-0.01,0.16,0,0.24,0.01c3.82,0.19,7.34,2.1,11.12,2.75
							c3.94,0.67,8.1-0.09,11.53-2.13c3.24-1.91,5.78-4.86,9.07-6.7c5.71-3.16,12.92-2.57,18.63-5.73c0.58-0.32,1.14-0.69,1.66-1.12
							c0.42,1.23,0.85,2.47,1.35,3.85c2.18,6.02,12.68,5.09,15.52,10.85c0.57,1.17,0.73,2.48,1.06,3.73
							c0.69,2.72,1.02,4.47,3.06,6.51l-7.77,38.82c0,0,10.22-16.12,17.57-28.73c3.38-5.79,6.15-10.83,7.03-13.23
							C762.94,730.76,763.06,729.9,763.02,729.06z M709.5,708.12c-1.95,1.45-4.45,1.92-6.67,2.9c-3.39,1.51-6.07,4.22-8.96,6.56
							c-2.88,2.35-6.29,4.45-9.99,4.37c-1.98-0.04-3.89-0.7-5.83-1.07c-1.92-0.36-3.83-0.39-5.68-0.14
							c-0.25,0.02-0.51,0.06-0.76,0.1c0.19-0.34,0.41-0.69,0.63-1.03c1.86-2.84,4.49-5.22,7.71-6.2c5.56-1.71,11.84,0.93,17.31-1.07
							c3.77-1.39,6.7-4.85,10.68-5.35c0.85-0.11,1.7-0.07,2.55,0.05C710.2,707.56,709.87,707.86,709.5,708.12z"/>
						<g>
							<path class="st37" d="M658.89,790.69c-9.53-1.39-16.12-7.54-19.53-12.54c-0.77-1.13-1.37-2.2-1.81-3.15
								c-2.4-5.14-2.04-22.39,5.27-25.92c5.12-2.47,8.44,1.83,9.97,4.63v0.01c0.65,1.19,0.98,2.1,0.98,2.1L658.89,790.69z"/>
							<path class="st35" d="M658.89,790.69c-9.53-1.39-16.12-7.54-19.53-12.54c-0.29-0.51-0.54-0.99-0.75-1.44
								c-2.4-5.14-2.04-22.39,5.27-25.91c4.15-2.01,7.11,0.44,8.9,2.92v0.01c0.65,1.19,0.98,2.1,0.98,2.1L658.89,790.69z"/>
							<path class="st36" d="M639.69,762.59c-0.45,1.35-0.32,2.8,0.04,4.19c1.54,5.9,7.01,10.69,12.25,15.15
								c-1.48-2.91-1.88-6.11-1.33-9.17c0.19-1.07,0.49-2.12,0.57-3.19C651.56,765.25,642.31,754.6,639.69,762.59z"/>
							<g>
								<path class="st39" d="M654.64,783.76c0,0-0.1-0.07-0.3-0.2c-0.19-0.14-0.5-0.32-0.85-0.59c-0.7-0.54-1.67-1.4-2.56-2.64
									c-0.88-1.23-1.65-2.86-1.93-4.73c-0.25-1.87-0.03-4.01,1.1-6.02c0.12-0.25,0.29-0.49,0.45-0.73l0.12-0.18
									c0.03-0.05,0.01-0.02,0.02-0.02l0,0.01h0.01l0,0c0,0,0.01,0.01-0.01-0.03l-0.08-0.17l-0.16-0.34
									c-0.11-0.22-0.22-0.45-0.34-0.67c-0.46-0.88-0.97-1.71-1.5-2.49c-0.53-0.77-1.09-1.5-1.64-2.16
									c-0.56-0.65-1.09-1.27-1.64-1.74c-0.54-0.48-1.15-0.8-1.73-0.91c-0.58-0.1-1.15-0.01-1.54,0.15
									c-0.39,0.17-0.62,0.4-0.72,0.57c-0.11,0.18-0.11,0.29-0.12,0.29c0,0-0.02-0.11,0.04-0.31c0.05-0.19,0.22-0.49,0.62-0.75
									c0.39-0.25,1-0.46,1.78-0.43c0.78,0.05,1.6,0.36,2.32,0.83c0.73,0.48,1.37,1.06,2.05,1.69c0.67,0.64,1.34,1.35,1.99,2.13
									c0.64,0.78,1.25,1.64,1.8,2.56c0.14,0.23,0.27,0.46,0.4,0.7l0.19,0.36l0.25,0.51l0.17,0.36c-0.06,0.11-0.14,0.22-0.21,0.33
									l-0.31,0.47c-0.14,0.21-0.28,0.41-0.39,0.64c-0.98,1.74-1.3,3.61-1.25,5.3c0.09,1.7,0.55,3.24,1.17,4.48
									c0.61,1.23,1.35,2.17,1.9,2.8c0.28,0.32,0.53,0.53,0.69,0.7C654.56,783.67,654.64,783.76,654.64,783.76z"/>
							</g>
						</g>
					</g>
					<path class="st38" d="M755.59,744.83c-2.63-3.25-4.15-7.4-3.9-11.58c-5.32-3.9-4.59-11.91-3.32-18.37
						c-5.77,2.2-13.04-2.27-13.68-8.41c-5.05,2.42-11.85-2.57-11.05-8.11c-0.89,2.81-4.8,3.43-7.5,2.25
						c-2.7-1.17-4.72-3.5-7.22-5.06c-5.15-3.19-12.35-2.59-16.91,1.4c-3.24,2.86-5.14,7.12-8.76,9.47
						c-4.35,2.82-10.11,2.24-15.4,2.53c-3.72,0.19-7.2,0.81-9.83,3.34c-1.48-2.48-1.33-5.84,0.38-8.17
						c-5.73,2.26-9.83,8.18-9.93,14.35c-0.04,2.54,0.54,5.06,0.56,7.61c0.03,2.55-0.63,5.3-2.61,6.9c-1.98,1.6-5.49,1.33-6.54-0.99
						c0.56,2.54,1.11,5.26,0.17,7.69c-0.93,2.44-3.99,4.22-6.23,2.87c0,1.74,0.77,3.38,1.22,5.06c0.44,1.69,0.49,3.69-0.7,4.94
						c4.23,1.77,9.43,2.82,15.75,2.43c0.15-0.14,6.46,7.6,4.89,14.98c4.48-4.01,1.9-17.5,4.53-22.91c1.5-3.08,4.41-5.28,6.08-8.28
						c1.16-2.06,1.66-4.41,2.19-6.7c0.72-3.16,1.51-6.35,2.85-9.28c0.64-0.07,1.28-0.1,1.92-0.08c0.08-0.01,0.16,0,0.24,0.01
						c3.82,0.19,7.34,2.1,11.12,2.75c3.94,0.67,8.1-0.09,11.53-2.13c3.24-1.91,5.78-4.86,9.07-6.7c5.71-3.16,12.92-2.57,18.63-5.73
						c0.58-0.32,1.14-0.69,1.66-1.12c0.42,1.23,0.85,2.47,1.35,3.85c2.18,6.02,12.68,5.09,15.52,10.85
						c0.57,1.17,0.73,2.48,1.06,3.73c0.69,2.72,1.02,4.47,3.06,6.51l-7.77,38.82C738.02,773.56,748.24,757.44,755.59,744.83z
						 M709.5,708.12c-1.95,1.45-4.45,1.92-6.67,2.9c-3.39,1.51-6.07,4.22-8.96,6.56c-2.88,2.35-6.29,4.45-9.99,4.37
						c-1.98-0.04-3.89-0.7-5.83-1.07c-1.92-0.36-3.83-0.39-5.68-0.14c-0.25,0.02-0.51,0.06-0.76,0.1c0.19-0.34,0.41-0.69,0.63-1.03
						c1.86-2.84,4.49-5.22,7.71-6.2c5.56-1.71,11.84,0.93,17.31-1.07c3.77-1.39,6.7-4.85,10.68-5.35c0.85-0.11,1.7-0.07,2.55,0.05
						C710.2,707.56,709.87,707.86,709.5,708.12z"/>
					<path class="st42" d="M763.02,729.06c-0.97,0.07-1.95-0.01-2.78-0.49c-1.74-0.99-2.2-3.22-2.84-5.11
						c-0.65-1.91-2.2-3.98-4.16-3.58c0.52-1.82,1.06-3.77,0.55-5.59c-0.51-1.83-2.51-3.38-4.28-2.71c1.3-3.18-1.18-7.25-4.59-7.57
						c-0.8-0.07-1.67,0.01-2.32-0.46c-1.9-1.38,0.69-3.96,1.79-6.03c1-1.87,0.44-4.43-1.25-5.72c-1.69-1.3-4.31-1.15-5.86,0.3
						c-0.36-3.38-4.76-5.57-7.67-3.81c2.71-2.57,0.97-7.79-2.59-8.94c-3.56-1.14-7.57,1.19-9.23,4.54
						c-1.21-4.44-8.25-5.65-10.87-1.87c0.98-5.11-4.35-10.32-9.42-9.23c-2.62,0.57-4.82,2.42-7.45,3
						c-5.37,1.19-11.12-3.19-16.21-1.08c-4.43,1.83-6.02,7.73-10.4,9.66c-4.89,2.16-11.61-1.37-15.49,2.32
						c-1.08,1.02-1.69,2.45-2.27,3.82c-0.85,2.04-1.7,4.07-2.55,6.11c-1.04,2.47-2,5.46-1.32,7.88c0.2,0.72,0.55,1.4,1.08,1.99
						c-4.5,0.77-8.56,3.84-10.51,7.97c-1.95,4.13-1.75,9.21,0.53,13.18c-1.58-0.72-3.32,0.81-4.01,2.4
						c-0.69,1.59-0.94,3.46-2.18,4.68c-0.99,0.97-2.41,1.32-3.69,1.87c-1.4,0.6-2.64,1.5-3.7,2.6c-0.56,0.58-1.07,1.23-1.5,1.93
						c-0.05-1.35,0.11-2.71,0.43-4.02c-0.14-0.31-0.21-0.48-0.21-0.48c0.11,0.01,0.23,0.02,0.33,0.01c0.77-2.75,2.34-5.27,4.57-7.07
						c0.7-0.57,1.48-1.09,2.03-1.81c0.03-0.67,0.04-1.34,0.05-2c0.02-1.49,0.06-3.03,0.38-4.49c-0.01-4.34,1.73-8.66,4.78-11.77
						c0.3-0.3,0.6-0.58,0.92-0.86c-0.67-0.28-1.42-0.47-2.33-0.52c-3.72-0.19-7.75,1.31-10.62,3.62c1.25-2.34,2.88-4.55,5.06-6.07
						c2.18-1.52,4.98-2.28,7.56-1.66c-2.88-3.82-2.88-9.55-0.01-13.39c0.17,4.17,2.13,8.21,5.24,10.98
						c-0.08-6.42-1.32-13.28,3.07-17.66c4.18-4.19,11.31-3.62,16.52-6.52c4.47-2.48,7.41-7.45,12.37-8.75
						c5.17-1.36,10.53,1.74,15.87,1.39c5.28-0.34,9.77-4,14.99-4.75c5.74-0.83,11.41,2.09,15.3,6.4c3.99-2.76,9.05-4.06,13.93-3.5
						c4.72,0.53,9.66,3.33,10.6,7.85c0.4,1.94,0.03,4,0.62,5.89c1.03,3.28,4.51,5.1,7.53,6.88c3.02,1.79,6.17,4.55,5.77,7.95
						c-0.23,1.98-1.67,3.71-1.74,5.7c-0.14,3.71,4.15,5.89,6.43,8.89c2.16,2.87,2.44,6.72,1.59,10.18
						C761.02,723.63,762.9,726.26,763.02,729.06z"/>
					<path class="st43" d="M733.08,741.53c-6.52-0.44-12.39,4.18-14.88,10.98c-4.13-2.47-7.95-2.17-10.69-1.08
						c-1.04-8.24-7.81-14.89-16.4-15.46c-9.05-0.61-16.98,5.72-18.6,14.42l-22.54,0.58l0.13,4.01l22.11-0.76
						c0.28,9,7.37,16.51,16.53,17.12c9.45,0.64,17.68-6.31,18.77-15.62c1.31-0.89,4.98-2.72,9.67,0.69c-0.09,0.59-0.16,1.19-0.2,1.8
						c-0.65,9.76,5.5,18.14,13.73,18.69c8.22,0.55,15.44-6.94,16.1-16.69C747.46,750.46,741.3,742.08,733.08,741.53z M689,767.53
						c-7.65-0.51-13.46-7.15-12.95-14.8c0.51-7.65,7.15-13.46,14.8-12.95c7.65,0.51,13.46,7.15,12.94,14.8
						C703.28,762.23,696.64,768.04,689,767.53z M730.96,773.09c-6.11-0.41-10.67-6.97-10.16-14.61c0.51-7.65,5.91-13.54,12.02-13.13
						c6.11,0.41,10.67,6.97,10.16,14.61C742.47,767.61,737.08,773.5,730.96,773.09z"/>
				</g>
				<g>
					<g>
						<path class="st44" d="M566.89,970.49c0,0-43.3,112.42-30.25,130.05c13.05,17.63,63,9.23,63,9.23l15.94-17.7l3.67-125.58
							l-28.88-36.7L566.89,970.49z"/>
						<path class="st45" d="M584.41,882.89c0,0-27.36-0.49-33.95,11.14c-6.59,11.63-10.93,117.67,0.21,112.18
							c11.14-5.49,40.75-35.86,40.75-35.86L584.41,882.89z"/>
					</g>
					<g>
						<g>
							<g>
								<path class="st35" d="M902.57,689.74c2.82,1.66-9.11,49.21-12.54,53.13l-5.45,4.77l-5.45,23.57c0,0-4.19,0.3-9.44-0.89
									c-2.84-0.62-5.99-1.71-8.97-3.51c-1.67-0.99-3.28-2.22-4.74-3.72c-0.75-0.77,1.38-13.58,1.38-13.58s-15.24-7.45-16.4-16.77
									c-0.68-5.5-1.39-11.08-4.08-15.92c-1.4-2.53-3.15-4.9-4.25-7.57c-1.11-2.68-1.5-5.86-0.16-8.43c0.15-0.3,0.34-0.6,0.63-0.78
									c0.6-0.37,1.37-0.13,2.02,0.22c0.07,0.03,0.14,0.07,0.2,0.11c7.05,4.05,12.66,10.58,15.58,18.16c0,0,11.06-24.87,11.71-32.5
									c0,0,5.59-15.65,8.74-15.2c1.16,0.17,2.12,0.59,2.84,1.06c1.24,0.79,1.86,1.7,1.86,1.7s-7.27,34.57-6.46,36.02
									c0.81,1.46,14.44-27.43,17.2-28.47c0.79-0.3,1.84,0.03,2.94,0.69c1.01,0.59,2.08,1.44,3,2.29c1.58,1.41,2.78,2.78,2.78,2.78
									s0.4,0.11,1.05,0.31c0.87,0.29,2.17,0.73,3.51,1.3C900.93,688.87,901.8,689.29,902.57,689.74z"/>
								<path class="st36" d="M902.57,689.74c2.82,1.66-9.11,49.21-12.54,53.13l-5.45,4.77l-5.45,23.57c0,0-4.19,0.3-9.44-0.89
									c3.39-9.44,4.3-19.78,2.54-29.66c-1.67-9.47-5.71-18.48-6.46-28.06c-0.48-6.02,0.35-12.06,1.57-17.98
									c1.31-6.24,2.99-12.4,5.1-18.43c0.61-1.71,1.16-3.11,1.75-4.29c1.24,0.79,1.86,1.7,1.86,1.7s-7.27,34.57-6.46,36.02
									c0.81,1.46,14.44-27.43,17.2-28.47c0.79-0.3,1.84,0.03,2.94,0.69c1.01,0.59,2.08,1.44,3,2.29c1.58,1.41,2.78,2.78,2.78,2.78
									s0.4,0.11,1.05,0.31c0.87,0.29,2.17,0.73,3.51,1.3C900.93,688.87,901.8,689.29,902.57,689.74z"/>
								<g>
									<g>
										<path class="st39" d="M892.72,684.12c-0.3,0.87-0.62,1.75-0.98,2.63c-2.05,5.15-4.5,9.56-6.44,12.64
											c-1.83,2.89-3.18,4.64-3.35,4.85c0.06-0.25,0.63-2.39,1.64-5.63c1.08-3.46,2.65-8.17,4.67-13.24
											c0.49-1.22,0.98-2.4,1.46-3.54C890.74,682.42,891.8,683.27,892.72,684.12z"/>
									</g>
									<g>
										<path class="st39" d="M900.06,688.51c-3.1,8.26-7.01,14.33-7.25,14.71c0.05-0.46,0.9-7.64,3.75-16.01
											C897.42,687.5,898.72,687.94,900.06,688.51z"/>
									</g>
								</g>
								<path class="st37" d="M835.11,700.27c-0.01,0.6,0,1.21,0.03,1.79c0.32,4.86,3.38,9.04,5.22,13.54
									c2.53,6.2,2.83,13.32,6.47,18.94c3.08,4.75,8.11,7.77,12.71,11.06c1.42,1.01,2.89,2.17,3.46,3.82
									c0.46,1.36,0.23,2.86-0.01,4.28c-0.72,4.32-1.69,8.73-2.29,13.11c-1.67-0.99-3.28-2.22-4.74-3.72
									c-0.75-0.77,1.38-13.58,1.38-13.58s-15.24-7.45-16.4-16.77c-0.68-5.5-1.39-11.08-4.08-15.92c-1.4-2.53-3.15-4.9-4.25-7.57
									c-1.11-2.68-1.5-5.86-0.16-8.43c0.15-0.3,0.34-0.6,0.63-0.78C833.69,699.67,834.47,699.92,835.11,700.27z"/>
								<path class="st39" d="M859.05,719.65c5.15,0.11,9.94,3.11,13.15,7.14c3.1,3.9,5.41,9.17,6.12,14.09
									c-2.92-2.94-4.14-7.71-6.77-11.05C869.24,726.91,863.15,719.74,859.05,719.65z"/>
							</g>
						</g>
						<g>
							<path class="st46" d="M875.43,762.03l-18.23-1.59l-7.91-1.12c0,0-37.84,112.72-37.04,131.25c0,0-29.39-4.63-55.63-6.36
								c0,0-17.65-0.64-33.71-0.8l14.04,66.02l4.09,3.23c43.04-1.19,88.86-4.47,104.45-12.76c32.13-17.08,41.91-176.18,41.91-176.18
								L875.43,762.03z"/>
							<path class="st47" d="M875.43,762.03c-7.54,40.13-20.88,159.49-31.36,170.8c-6.65,7.17-59.05,12.31-107.33,15.59l0.21,1
								l4.08,3.23c43.05-1.19,88.86-4.47,104.45-12.76c32.13-17.08,41.91-176.18,41.91-176.18L875.43,762.03z"/>
							<path class="st48" d="M821.16,889.13c4.47-28.18,30.47-100.71,36.04-128.69l-7.91-1.12c0,0-37.84,112.72-37.04,131.25
								c0,0-51.39-14.25-90.64-13.29l1.6,7.5c12.98-0.07,25.97,0.93,38.82,3.02l53.33,8.66c0.18,1.63,0.5,3.17,0.67,4.21
								c0.81,5.27,2.22,10.45,4.2,15.4c0.35,0.87,0.96,1.89,1.89,1.79c1.07-0.11,1.34-1.54,1.33-2.61
								c-0.07-6.16-0.13-12.31-0.2-18.47c4.46,1.76,9.42,3.54,13.91,1.86C832.8,894.11,827.21,890.8,821.16,889.13z"/>
						</g>
					</g>
					<path class="st46" d="M748.67,1153.2c0,0.03,0,0.04,0,0.04l-45.83-0.2l-9.34-15.4l-21.16,15.27l-81.55-0.34l-0.2-0.01
						c0,0-27.48-273.14,31.48-309.3c4.7-2.88,9.88-4.26,15.58-3.88l15.27-12.18l24.56,23.07l16.15,15.15l0.39-22.27
						c0,0,11.44,7.95,12.73,13.79c0,0,0.11,0.03,0.34,0.07c2.45,0.57,17.62,4.52,30.21,17.05c0.44,0.44,0.88,0.89,1.31,1.35
						c3.76,3.98,7.25,8.78,10.01,14.53c13.87,28.85,0.74,252.01,0.08,262.88C748.68,1153.01,748.67,1153.13,748.67,1153.2z"/>
					<path class="st47" d="M693.61,865.41c0,0,5.68,235.42-0.12,272.22C693.49,1137.63,711.89,983.17,693.61,865.41z"/>
					<g>
						<path class="st47" d="M680.74,938.31c-0.22,3.35-3.12,5.88-6.47,5.66c-3.35-0.22-5.88-3.12-5.66-6.47
							c0.22-3.35,3.12-5.88,6.47-5.66C678.43,932.06,680.96,934.96,680.74,938.31z"/>
						<path class="st47" d="M681.92,981.59c-0.22,3.35-3.12,5.88-6.47,5.65c-3.35-0.22-5.88-3.12-5.66-6.47
							c0.23-3.35,3.12-5.88,6.47-5.65C679.61,975.34,682.15,978.24,681.92,981.59z"/>
						<path class="st47" d="M683.11,1024.86c-0.22,3.35-3.12,5.88-6.47,5.66c-3.35-0.22-5.88-3.12-5.66-6.47
							c0.22-3.35,3.12-5.88,6.46-5.66C680.8,1018.62,683.33,1021.51,683.11,1024.86z"/>
						<path class="st47" d="M684.29,1068.14c-0.22,3.35-3.12,5.88-6.47,5.65c-3.35-0.22-5.88-3.12-5.66-6.47
							c0.22-3.35,3.12-5.88,6.47-5.65C681.98,1061.9,684.51,1064.79,684.29,1068.14z"/>
					</g>
					<g>
						<g>
							<g>
								<g>
									<g>
										<path class="st48" d="M693.99,843.15l-0.39,22.27l12.42,21.68c0.93-15.52,1.2-27.9,0.69-30.16
											C705.43,851.09,693.99,843.15,693.99,843.15z"/>
										<polygon class="st48" points="693.61,865.41 672.3,888.77 637.62,839.37 652.9,827.2 										"/>
									</g>
								</g>
							</g>
						</g>
					</g>
					<g>
						<path class="st45" d="M733.88,870.94c0,0,15.16,7.11,17.79,16.01c7.36,24.82,1.74,163.3,1.74,163.3L733.88,870.94z"/>
					</g>
					<g>
						<g>
							<g>
								<g>
									<polygon class="st49" points="481.6,1092.1 480.77,1097.54 473.94,1102.33 458.58,1195.97 478.31,1198.15 594.63,1210.98 
										603.44,1200.87 613.83,1106.68 									"/>
									<polygon class="st31" points="480.77,1097.54 476.67,1100.41 468.49,1106.14 459.15,1190.83 478.11,1192.92 
										592.09,1205.49 600.64,1196.48 609.98,1111.79 									"/>
									
										<rect x="463.37" y="1109" transform="matrix(0.994 0.1096 -0.1096 0.994 129.9695 -51.3278)" class="st30" width="136.87" height="94.76"/>
								</g>
								
									<rect x="562.43" y="1129.28" transform="matrix(0.994 0.1096 -0.1096 0.994 130.6545 -55.521)" class="st31" width="15.79" height="62.7"/>
							</g>
							<g>
								<g>
									<polygon class="st43" points="479.87,1094.55 477.99,1099.72 470.36,1103.08 437.06,1191.95 455.99,1197.92 
										567.57,1233.16 578.19,1224.97 606.73,1134.61 									"/>
									<polygon class="st31" points="477.99,1099.72 473.42,1101.74 464.27,1105.77 438.62,1187.02 456.8,1192.76 566.16,1227.29 
										576.29,1220.11 601.95,1138.87 									"/>
									
										<rect x="448.15" y="1119.99" transform="matrix(0.9536 0.3011 -0.3011 0.9536 375.5244 -101.3748)" class="st50" width="136.87" height="94.77"/>
								</g>
								
									<rect x="545.65" y="1147.7" transform="matrix(0.9536 0.3009 -0.3009 0.9536 380.4745 -111.9259)" class="st31" width="15.79" height="62.7"/>
							</g>
							<g>
								<path class="st51" d="M570,1019.06c0.05,4.5-6.8,27.08-15.48,53.8c-4.68,14.34-9.88,29.88-14.81,44.44
									c-4.94,14.57-9.6,28.18-13.21,38.66l-4.39,28.49c0,0,12.46,6.57,11.97,8.69c-0.5,2.1,5.04,20.7,7.04,22.98
									c1.99,2.28-5.84,7.11-5.84,7.11s-7.58-4.09-10.1-3.89c-1.94,0.14-6.11,8.39-10.04,12.21c-1.19,1.15-2.34,1.9-3.42,1.9
									c-4.65,0.05-10.36,0.03-11.24-2.89c-0.88-2.92-2.3-8.38-5.07-9.64c-2.77-1.26-10.88-8.23-10.62-12.14
									c0.26-3.92,3.56-15.84,4.13-19.02c0.57-3.19,2-13.81,2-13.81l5.01-19.16l18.98-119.11c1.77-11.03,16.38-42.24,16.38-42.24
									l2.1-9.5l5.19-33.41c2.24-14.68,7.85-28.51,16.3-40.3c6.95-10.35,18.53-13.39,30.59-14.14c3.36-0.21,6.76-0.25,10.12-0.21
									c1.75,0.01,3.45,0.01,5.11,0.05l0.04,0.01C600.74,897.93,569.86,1006.82,570,1019.06z"/>
								<path class="st52" d="M585.48,898.09c-11.24,8.41-22.91,16.4-30.86,27.82c-16,22.99-13.23,53.96-22.73,80.32
									c-2.57,7.13-6.05,13.93-8.38,21.14c-2.32,7.17-3.49,14.65-4.71,22.1c-2.74,16.6-5.86,33.14-8.98,49.68
									c-0.86,4.56-1.72,9.1-2.58,13.66c-3.27,17.34-6.54,34.69-9.7,52.06c-2.37,13.03-4.67,26.42-2.03,39.4
									c2.31,11.39,9.3,22.51,19.64,27.3c-1.19,1.15-2.34,1.9-3.42,1.9c-4.65,0.05-10.36,0.03-11.24-2.89
									c-0.88-2.92-2.3-8.38-5.07-9.64c-2.77-1.26-10.88-8.23-10.62-12.14c0.26-3.92,3.56-15.84,4.13-19.02
									c0.57-3.19,2-13.81,2-13.81l5.01-19.16l18.98-119.11c1.77-11.03,16.38-42.24,16.38-42.24l2.1-9.5l5.19-33.41
									c2.24-14.68,7.85-28.51,16.3-40.3C561.83,901.87,573.42,898.84,585.48,898.09z"/>
								<g>
									<path class="st53" d="M538.81,1001.92c0,0,0.1,0.42,0.33,1.2c0.11,0.4,0.26,0.87,0.5,1.39c0.23,0.53,0.47,1.16,0.86,1.77
										c0.36,0.63,0.78,1.32,1.31,1.97c0.5,0.7,1.14,1.34,1.82,2.02c1.4,1.29,3.14,2.48,5.14,3.31c2.01,0.8,4.06,1.13,5.9,1.16
										c0.93-0.03,1.8-0.06,2.61-0.23c0.81-0.11,1.55-0.33,2.21-0.55c0.67-0.18,1.24-0.49,1.73-0.71c0.5-0.22,0.91-0.47,1.24-0.69
										c0.65-0.42,0.99-0.67,0.99-0.67s-0.42,0.04-1.16,0.11c-0.36,0.05-0.81,0.1-1.32,0.09c-0.51,0-1.08,0.06-1.71,0
										c-0.63-0.02-1.3-0.05-2.03-0.16c-0.72-0.05-1.48-0.23-2.26-0.36c-1.57-0.36-3.24-0.85-4.95-1.53
										c-1.7-0.7-3.25-1.52-4.65-2.36c-0.67-0.46-1.35-0.86-1.92-1.33c-0.61-0.42-1.14-0.88-1.62-1.31
										c-0.51-0.4-0.9-0.85-1.28-1.22c-0.39-0.36-0.69-0.71-0.93-1C539.1,1002.24,538.81,1001.92,538.81,1001.92z"/>
								</g>
							</g>
						</g>
						<path class="st46" d="M637.16,895.26l-52.83,105.58v0.02l-11.37,22.72l-44.46,148.8l-7.62-0.71l-24.16-2.22l-11.49-1.05
							l23.62-114.15c3.46-16.75,8.4-33.16,14.73-49.04l0.84-2.12c0,0,20.17-119.86,68.16-141.76v-0.01c2.04-0.93,4.14-1.7,6.29-2.25
							L637.16,895.26z"/>
					</g>
					<path class="st45" d="M592.57,861.33c0,0,16.86-16.35,29.48-18.08c0,0,38.67,189.45-40.32,215.84
						C581.73,1059.09,640.57,990,592.57,861.33z"/>
					<polygon class="st47" points="586.6,975.2 584.33,1000.84 584.33,1000.86 572.95,1023.58 528.49,1172.39 520.87,1171.68 
						562.88,1030.54 					"/>
					<path class="st48" d="M532.31,1000.7c0,0-36.37,152.08-35.6,168.76l-11.49-1.05l23.62-114.15c3.46-16.75,8.4-33.16,14.73-49.04
						l0.84-2.12c0,0,20.17-119.86,68.16-141.76C592.58,861.34,540.13,925.22,532.31,1000.7z"/>
				</g>
			</g>
		</g>
	</g>
	<g>
		<g>
			<path class="st34" d="M1033.28,1050.86l-34.87,78.44l-10.38,23.35c0,0-54.09-3.96-75.7-36.14
				c-21.61-32.19,24.49-131.82,24.49-131.82l3.04-0.98l71.54-23.09L1033.28,1050.86z"/>
			<path class="st54" d="M998.4,1129.3l-10.38,23.35c0,0-54.09-3.96-75.7-36.14c-21.61-32.19,24.49-131.82,24.49-131.82l3.04-0.98
				c-7.8,29.99-26.99,127.57,48.16,142.94C991.88,1127.43,995.33,1128.31,998.4,1129.3z"/>
		</g>
		<g>
			<g>
				<path class="st35" d="M1214.53,956.11c0,0-11.32,39.41-27.18,76.25l-0.79,1.83c-8.41,19.31-18.04,37.72-27.93,49.13
					c-6.21,7.18-12.17,12.45-18.94,11.46c-38.36-5.52-58.12-85.45-58.12-85.45l2.64-1.33l40.78-20.6l3.52-1.77
					c0,0,2.53,7.7,5.63,17.65c4.18,13.43,9.41,30.97,10.87,39.16c0,0,10.93-25.63,22.12-51.23c5.61-12.84,11.28-25.67,15.67-35.24
					c0.42-0.9,0.81-1.77,1.2-2.6c0.77-1.67,1.49-3.22,2.17-4.62c0.25-0.52,0.49-1.02,0.72-1.5c0.08-0.17,0.16-0.34,0.24-0.5
					c1.02-2.12,1.86-3.79,2.49-4.91c0.06-0.1,0.11-0.2,0.17-0.3c0.05-0.1,0.1-0.19,0.15-0.27L1214.53,956.11z"/>
				<path class="st36" d="M1214.53,956.11c0,0-11.32,39.41-27.18,76.25l-0.79,1.83c8.39-30.21,12.63-57.77,9.3-59.36
					c-5.42-2.6-10.54-13.01-13.06-18.85c0.42-0.9,0.81-1.77,1.2-2.6c0.78-1.67,1.5-3.22,2.17-4.62c0.25-0.52,0.49-1.02,0.72-1.5
					c0.08-0.17,0.16-0.34,0.24-0.5c1.02-2.12,1.86-3.79,2.49-4.91c0.06-0.1,0.11-0.2,0.17-0.3c0.05-0.1,0.1-0.19,0.15-0.27
					L1214.53,956.11z"/>
				<path class="st36" d="M1192.91,957.56c0,0-11.16-41.4-10.69-56.62c0.08-2.48,2.72-4.17,4.94-3.03
					c10.84,5.53,28.55,44.16,28.55,44.16L1192.91,957.56z"/>
				<g>
					<path class="st55" d="M1209.38,952.78l-31.72-12.81c-2.04-0.83-3.03-3.15-2.21-5.2l23.18-57.38c0.83-2.05,3.15-3.03,5.2-2.21
						l31.72,12.81c2.05,0.83,3.03,3.15,2.21,5.2l-23.18,57.38C1213.75,952.62,1211.43,953.61,1209.38,952.78z"/>
					<path class="st56" d="M1207.2,886.22c-0.65,1.6-2.47,2.38-4.08,1.73c-1.6-0.65-2.38-2.48-1.73-4.08
						c0.65-1.61,2.48-2.38,4.08-1.73C1207.08,882.79,1207.85,884.61,1207.2,886.22z"/>
				</g>
				<g>
					<g>
						<g>
							<g>
								<g>
									<g>
										<g>
											<path class="st35" d="M1215.85,971.07c-12.21-0.9-23.89-10.36-23.89-10.36c0.05-2.66,0.65-5.58,1.65-8.58
												c0.39-1.27,0.87-2.55,1.41-3.85c1.19-2.86,2.64-5.78,4.27-8.65c0.7-1.26,1.43-2.52,2.18-3.76
												c2.02-3.29,4.16-6.47,6.25-9.37c0.87-1.26,1.76-2.45,2.6-3.59c2.32-3.08,4.43-5.7,6.04-7.64
												c1.86-2.25,3.04-3.57,3.04-3.57c10.46,4.05,21.6,17.89,21.6,17.89c-0.5,4.26-1.84,8.52-3.65,12.56
												C1230.25,958.06,1215.85,971.07,1215.85,971.07z"/>
											<g>
												<g>
													<path class="st39" d="M1224.16,934.25c0,0-1.5-0.46-3.67-1.28c-2.18-0.83-5.03-1.97-7.95-3.54
														c-1.78-0.95-3.4-1.97-4.82-2.92c0.87-1.26,1.76-2.45,2.6-3.59c1.52,0.39,3.13,0.98,4.73,1.83
														c3.23,1.74,5.6,4.18,7.05,6.13C1223.56,932.82,1224.16,934.25,1224.16,934.25z"/>
												</g>
												<g>
													<path class="st39" d="M1215.15,946.34c0,0-1.48-0.32-3.59-0.96c-2.12-0.66-4.9-1.62-7.72-3.04
														c-1.68-0.85-3.21-1.81-4.56-2.7c0.7-1.26,1.43-2.52,2.18-3.76c1.51,0.35,3.16,0.88,4.79,1.71
														c3.06,1.56,5.37,3.81,6.81,5.6C1214.5,944.99,1215.15,946.34,1215.15,946.34z"/>
												</g>
												<g>
													<path class="st39" d="M1210.53,959.48c0,0-1.55-0.31-3.8-0.99c-2.25-0.7-5.2-1.74-8.2-3.31
														c-1.83-0.96-3.5-2.02-4.93-3.04c0.39-1.27,0.87-2.55,1.41-3.85c1.85,0.41,3.93,1.1,5.99,2.19
														c3.2,1.68,5.64,3.96,7.2,5.79C1209.78,958.11,1210.53,959.48,1210.53,959.48z"/>
												</g>
											</g>
											<path class="st37" d="M1237.35,942.15c-0.64-3.72-1.64-7.34-3.57-10.55c-1.76-2.95-4.22-5.4-6.71-7.73
												c-2.86-2.68-5.81-5.66-9.1-7.81c-0.42-0.28-0.99-0.53-1.6-0.79c1.86-2.25,3.04-3.57,3.04-3.57
												c10.46,4.05,21.6,17.89,21.6,17.89C1240.5,933.85,1239.16,938.11,1237.35,942.15z"/>
										</g>
									</g>
								</g>
							</g>
						</g>
					</g>
				</g>
			</g>
			<g>
				<path class="st46" d="M1071.71,883.17v82.19l17.44,64.34l50.96-23.2h0.01c0,0-23.82-64.73-45.85-98.95l-0.01-0.02
					c-3.38-5.23-6.7-9.77-9.89-13.23C1077.26,886.59,1071.71,883.17,1071.71,883.17z"/>
			</g>
			<polygon class="st31" points="1081.57,1024.82 1143.9,997.24 1151.27,1011.03 1083.01,1043.86 			"/>
		</g>
		<g>
			<g>
				<g>
					<g>
						<g>
							<path class="st31" d="M923.9,1512.22c0,0-5.2,12.17-4.87,14.39c0.33,2.22,60.12,41.98,60.12,41.98l5.94-9.61l-27.32-37.14
								L923.9,1512.22z"/>
							<path class="st57" d="M985.08,1558.97c0,0-62.21-36.8-62.61-43.3c-0.27-4.43,19.23-33.88,19.23-33.88l16.53,10.55
								C958.24,1492.35,987.47,1560.65,985.08,1558.97z"/>
						</g>
						<g>
							<path class="st31" d="M958.86,1520.11c0.69,0.99,2.13,1.06,3.36,0.94c4.54-0.42,9.42-2.23,11.86-6.21
								c0.18-0.29,0.34-0.61,0.38-0.94c0.06-0.64-0.41-1.2-0.98-1.45c-0.57-0.24-1.22-0.23-1.85-0.18
								C969.37,1512.44,955.68,1515.52,958.86,1520.11z"/>
							<path class="st31" d="M961.65,1530.14c0.69,0.99,2.13,1.06,3.35,0.94c4.54-0.42,9.42-2.23,11.86-6.21
								c0.18-0.29,0.34-0.61,0.38-0.94c0.06-0.64-0.41-1.2-0.98-1.44c-0.57-0.24-1.22-0.23-1.85-0.18
								C972.15,1522.47,958.46,1525.54,961.65,1530.14z"/>
						</g>
					</g>
					<g>
						<g>
							<path class="st31" d="M1141.79,1569.35c0,0,4.49,12.49,6.21,13.81c1.72,1.32,70.71-15.03,70.71-15.03l-2.25-11.23
								l-44.25-5.95L1141.79,1569.35z"/>
							<path class="st57" d="M1216.45,1556.9c0,0-68.71,20.25-73.35,15.95c-3.17-2.94-9.12-38.28-9.12-38.28l18.78-4.84
								C1152.76,1529.74,1219.27,1556.31,1216.45,1556.9z"/>
						</g>
						<g>
							<path class="st31" d="M1171.83,1548.92c1.16,0.19,2.21-0.84,3.01-1.83c2.93-3.68,5.17-8.58,4.22-13.22
								c-0.07-0.34-0.16-0.69-0.37-0.95c-0.39-0.49-1.09-0.54-1.66-0.29c-0.57,0.25-1.02,0.75-1.43,1.25
								C1174.12,1535.66,1166.49,1548.04,1171.83,1548.92z"/>
							<path class="st31" d="M1180.52,1553.94c1.16,0.19,2.21-0.83,3.01-1.83c2.94-3.67,5.17-8.58,4.22-13.22
								c-0.07-0.34-0.16-0.68-0.36-0.94c-0.39-0.49-1.09-0.54-1.66-0.29c-0.57,0.25-1.02,0.75-1.43,1.25
								C1182.81,1540.69,1175.19,1553.06,1180.52,1553.94z"/>
						</g>
					</g>
					<path class="st58" d="M1091.3,1056.95c0,0,20.99,51.07,20.81,80.91c-3.36,72.32-9.79,170.74-12.16,178.51
						c-3.69,12.14-132.9,192.46-132.9,192.46l-32.78-21.44c0,0,68.16-144.82,77.74-157.23c14.3-18.52,40.36-41.1,40.36-41.1
						l-30.31-216.54L1091.3,1056.95z"/>
					<path class="st59" d="M1166.7,1533.43l-29.48,6.5l-8.93,1.97c0,0-69.47-167.95-73.36-174.02c-3.9-6.07-7.24-62.71-7.24-62.71
						s-52.26-113.28-63.51-132.5c-11.26-19.22,5.91-110.82,5.91-110.82l10.96,0.6l57.11,3.14l43.92,217.33L1166.7,1533.43z"/>
					<path class="st58" d="M1137.21,1539.93l-8.93,1.97c0,0-69.47-167.95-73.36-174.02c-3.9-6.07-7.24-62.71-7.24-62.71
						s-52.26-113.28-63.51-132.5c-11.26-19.22,5.91-110.82,5.91-110.82l10.96,0.6c-3.72,30.36-10.79,92.45-7.33,101.19
						c4.6,11.63,66.8,130.47,66.8,130.47s2.14,60.69,6.94,70.8C1071.61,1373.69,1124.53,1513.02,1137.21,1539.93z"/>
					<path class="st60" d="M1084.51,1320.09c1.74,2.53,4.1,5.02,7.06,5.18c2.45,0.13,4.77-1.42,6.24-3.5
						c1.47-2.08,2.21-4.61,2.81-7.11c1.1-4.6,1.82-9.38,1.19-14.08c-1.29-9.53-11.28-19.44-19.95-11.82
						C1073.06,1296.49,1079.15,1312.3,1084.51,1320.09z"/>
				</g>
				<g>
					<g>
						<path class="st48" d="M1091.8,1062.54c-39.47,33.12-102.34,4.91-102.34,4.91c0.26-9.82-9.86-53.36-18.32-92.93
							c-2.28-10.67-4.44-21.04-6.24-30.4c-2.89-14.97-2.05-28.42-0.52-37.69c1.08-6.63,2.54-11.12,3.24-12.51
							c0.83-1.65,3.88-4.2,7.83-6.93c0.02-0.01,0.05-0.03,0.07-0.04c0.71-0.48,1.3-0.87,1.75-1.17c0.1-0.06,0.18-0.11,0.26-0.17
							c0.25-0.17,0.43-0.29,0.57-0.38c0.04-0.03,0.08-0.05,0.11-0.07c0.03-0.03,0.06-0.04,0.09-0.06
							c6.9-4.47,15.34-8.99,19.66-10.53c0.05-0.02,0.11-0.04,0.15-0.06c1.41-0.5,2.81-0.96,4.11-1.37c5.31-1.67,9.42-2.61,9.42-2.61
							h32.03c0,0,0.05-0.01,0.13-0.01c0.03,0,0.07,0,0.1-0.01c0.12-0.01,0.27-0.02,0.46-0.02c0.02-0.01,0.03-0.01,0.05-0.01
							c0.98-0.02,2.93,0.09,5.83,0.82v0.01c1.14,0.28,2.42,0.67,3.85,1.19c3.78,1.38,8.59,3.67,14.39,7.48
							c3.54,2.32,7.45,5.21,11.72,8.81c24.01,20.17,22.76,58.84,8.5,86.59C1084.43,983.65,1091.8,1062.54,1091.8,1062.54z"/>
						<g>
							<path class="st46" d="M1083.01,971.4c0,0-1.17-0.06-3.29-0.17c-2.1-0.13-5.13-0.32-8.88-0.55
								c-7.43-0.37-17.62-0.94-27.92,1.82c-2.63,0.69-5.26,1.51-7.91,2.23c-2.65,0.73-5.34,1.29-7.87,1.65
								c-5.1,0.74-9.72,0.75-13.57,0.44c-1.96-0.16-3.75-0.49-5.27-0.99c-1.52-0.49-2.75-1.16-3.63-1.85
								c-0.89-0.69-1.41-1.37-1.73-1.84c-0.29-0.49-0.43-0.75-0.43-0.75s0.22,0.19,0.64,0.55c0.44,0.33,1.1,0.79,2.03,1.14
								c1.86,0.76,4.75,0.97,8.31,0.46c3.63-0.5,7.92-1.32,12.53-2.57c2.31-0.63,4.66-1.38,7.16-2.24c2.5-0.85,5.17-1.79,8.07-2.56
								c5.88-1.55,11.78-1.78,16.88-1.27c5.13,0.47,9.58,1.54,13.25,2.55c3.66,1.04,6.55,2.06,8.54,2.78
								C1081.92,970.96,1083.01,971.4,1083.01,971.4z"/>
						</g>
					</g>
				</g>
			</g>
			<g>
				<path class="st61" d="M1095.79,856.73c-4.38,1.48-9.02,2.67-13.84,3.61c-32.17,6.31-72.39,1.56-95.69-2.32
					c-11.71-1.96-19.15-3.69-19.15-3.69s-3.75-31.55-3.75-43.59c0-7.36,0.56-14.19,1.54-20.51c6.69-43.43,33.12-63.21,34.99-64.57
					c0.03-0.02,0.06-0.04,0.08-0.06c0.02-0.01,0.03-0.02,0.03-0.02h49.59l18.19,9.36l3.64,1.87l1.38,0.71l19.91,10.24l0.49,17.12
					l0.38,13.61L1095.79,856.73z"/>
				<path class="st62" d="M1085.76,850.56c-0.92,3.34-2.17,6.68-3.81,9.78c-32.17,6.31-72.39,1.56-95.69-2.32
					c-0.05-0.06-0.09-0.12-0.12-0.18c-7.93-12.07-11.51-26.65-11.88-41.08c-0.38-14.44,2.31-28.8,6.12-42.73
					c2.98-10.93,6.71-21.8,13.02-31.2c4.79-7.13,11.2-13.35,18.91-17.24c0.38-0.2,0.77-0.38,1.15-0.56
					c8.51-3.97,17.85-4.14,27.19-4.06c12.02,0.1,24.3,5.71,30.76,15.86c5.88,9.22,6.42,20.72,7.84,31.56
					c1.8,13.74,5.26,27.23,7.37,40.93C1088.71,822.99,1089.42,837.19,1085.76,850.56z"/>
				<g>
					<path class="st62" d="M1099.13,819.12c-0.14-0.76-0.37-1.84-0.74-3.16c-0.37-1.33-0.88-2.89-1.68-4.58
						c-0.79-1.68-1.88-3.48-3.4-5.1c-1.52-1.63-3.28-2.82-4.93-3.69c-1.66-0.86-3.23-1.42-4.56-1.8c-0.57-0.17-1.1-0.3-1.58-0.41
						c-0.58-0.55-0.93-0.85-0.93-0.85s0.11,0.26,0.3,0.71c-0.36-0.08-0.7-0.14-0.98-0.19c-0.76-0.13-1.18-0.18-1.18-0.18
						s1.05,0.68,2.78,1.81c0.36,0.85,0.82,1.93,1.35,3.18c1.36,3.25,3.16,7.66,3.96,12.55c0.81,4.9,0.66,9.69,0.62,13.24
						c-0.02,1.79-0.03,3.24-0.04,4.24c0.02,1.02,0.03,1.57,0.03,1.57s0.23-0.51,0.63-1.44c0.39-0.94,0.94-2.29,1.5-4.01
						c0.56-1.72,1.15-3.82,1.51-6.24c0.36-2.42,0.49-5.19,0-8.08c-0.47-2.89-1.53-5.49-2.7-7.65c-1.13-2.04-2.35-3.71-3.47-5.06
						c1.72,1.23,3.6,2.72,5.3,4.54c2.58,2.75,4.5,5.85,5.97,8.1c0.74,1.13,1.34,2.05,1.76,2.69c0.44,0.63,0.68,0.98,0.68,0.98
						S1099.27,819.87,1099.13,819.12z"/>
					<g>
						<g>
							<g>
								<path class="st35" d="M1068.47,879.97c-2.52,8.76-9.18,21.27-26.79,27.18c-23.37,7.84-38.74-21.57-43.59-32.63
									c7.15-2.53,13.53-3.99,13.53-3.99h32.03c0,0,0.05-0.01,0.13-0.01c0.03,0,0.07,0,0.1-0.01c0.12-0.01,0.27-0.02,0.46-0.02
									c0.02-0.01,0.03-0.01,0.05-0.01c0.98-0.02,2.93,0.09,5.83,0.82v0.01c1.14,0.28,2.42,0.67,3.85,1.19
									C1057.86,873.87,1062.66,876.16,1068.47,879.97z"/>
								<path class="st35" d="M1040.43,902.66l-28.81-32.13c0.05-4.77,0.45-6.57,0.89-18.38c0.46-13.14,0.94-25.45,0.94-25.45
									l37.07,14.65c-4.14,9.27-6,19.84-6.63,29.9C1042.58,892.46,1040.43,902.66,1040.43,902.66z"/>
								<path class="st36" d="M1050.51,841.35c-4.14,9.27-6,19.84-6.63,29.9c-1.17,0.49-2.31,0.94-3.39,1.32
									c-4.3,1.5-18.13-10.78-28-20.42c0.46-13.14,0.94-25.45,0.94-25.45L1050.51,841.35z"/>
							</g>
							<g>
								<g>
									<path class="st35" d="M1089.4,797.31c-0.75,3.43-1.71,7.03-2.9,10.8c0,0,1.66,18.56-0.29,22.72
										c-1.96,4.17-14.44,30.1-27.56,28.5c-10.95-1.34-37.72-17.38-47.03-26.93c-1.86-1.91-3.03-3.55-3.24-4.76
										c-1.28-7.37-5.67-39.86-6.08-42.58c-1.12-7.37-4.21-63.16,63.24-47.63c12.15,2.8,21.73,12.21,24.48,24.37
										C1092.01,770.57,1092.67,782.35,1089.4,797.31z"/>
									<path class="st37" d="M1086.5,808.1c0,0,1.66,18.56-0.29,22.72c-1.96,4.17-14.44,30.1-27.56,28.5
										c-10.95-1.34-37.72-17.38-47.03-26.93c11.4,7.91,41.8,28.11,50.71,25.01c11.04-3.84,23.53-28.28,23.29-30.7
										c-0.24-2.43-0.96-18.27-0.96-18.27s2.23-5.01,4.75-11.12C1088.65,800.73,1087.69,804.34,1086.5,808.1z"/>
								</g>
								<g>
									<path class="st37" d="M1011.4,826.69c-8.47-0.66-14.63-5.69-17.93-9.89c-0.74-0.95-1.34-1.85-1.78-2.66
										c-2.42-4.39-3.11-19.59,3.11-23.13c4.36-2.48,7.54,1.11,9.05,3.49c0,0,0,0,0,0c0.64,1.01,0.99,1.8,0.99,1.8L1011.4,826.69z
										"/>
									<path class="st35" d="M1011.4,826.69c-8.47-0.66-14.63-5.69-17.93-9.89c-0.28-0.43-0.53-0.84-0.75-1.23
										c-2.42-4.39-3.11-19.59,3.11-23.12c3.53-2.01,6.29-0.04,8.01,2.05c0,0,0,0,0,0c0.64,1.01,0.99,1.8,0.99,1.8L1011.4,826.69z
										"/>
									<path class="st36" d="M992.83,803.09c-0.31,1.22-0.11,2.49,0.28,3.69c1.7,5.1,6.8,9,11.68,12.61
										c-1.47-2.47-2.01-5.27-1.71-7.99c0.11-0.95,0.31-1.89,0.32-2.84C1003.44,804.73,994.67,795.89,992.83,803.09z"/>
									<g>
										<path class="st39" d="M1007.24,820.84c0,0-0.1-0.06-0.28-0.16c-0.18-0.1-0.46-0.25-0.79-0.47
											c-0.65-0.44-1.56-1.14-2.41-2.17c-0.85-1.04-1.62-2.42-1.98-4.05c-0.33-1.63-0.26-3.53,0.62-5.36
											c0.09-0.23,0.22-0.45,0.35-0.67l0.1-0.17c0.02-0.04,0.01-0.02,0.01-0.02l0,0.01l0.01-0.01l0,0c0,0,0.01,0.01-0.01-0.03
											l-0.08-0.15l-0.17-0.29c-0.11-0.19-0.22-0.38-0.34-0.57c-0.46-0.75-0.96-1.45-1.47-2.1c-0.51-0.65-1.04-1.25-1.57-1.8
											c-0.53-0.55-1.04-1.06-1.54-1.44c-0.51-0.38-1.06-0.63-1.58-0.69c-0.52-0.06-1.01,0.06-1.35,0.22
											c-0.34,0.17-0.52,0.38-0.6,0.54c-0.08,0.16-0.08,0.26-0.09,0.26c0,0-0.03-0.09,0.02-0.27c0.03-0.18,0.17-0.45,0.5-0.69
											c0.33-0.24,0.85-0.47,1.54-0.49c0.69,0,1.43,0.23,2.09,0.6c0.67,0.38,1.27,0.85,1.9,1.36c0.63,0.52,1.26,1.11,1.87,1.76
											c0.61,0.65,1.2,1.37,1.73,2.15c0.14,0.2,0.26,0.4,0.39,0.6l0.19,0.31l0.25,0.43l0.17,0.3c-0.05,0.1-0.11,0.2-0.17,0.31
											l-0.25,0.43c-0.11,0.19-0.23,0.38-0.31,0.59c-0.76,1.59-0.93,3.25-0.79,4.74c0.18,1.49,0.68,2.82,1.29,3.87
											c0.61,1.06,1.32,1.84,1.84,2.36c0.26,0.26,0.5,0.44,0.64,0.58C1007.17,820.77,1007.24,820.84,1007.24,820.84z"/>
									</g>
								</g>
							</g>
						</g>
					</g>
					<g>
						<path class="st61" d="M1095.51,783.95c0,0-8.61-11.53-13.41-6.96c-4.8,4.56-2.64,5.04-2.64,5.04L1095.51,783.95z"/>
						<path class="st61" d="M1027.37,785.72c0,0,15.89-18.3,22.39-11.8c3.8,3.79,1.16,6.38,1.16,6.38L1027.37,785.72z"/>
						<path class="st40" d="M1086.53,792.38c-0.52,1.35-2.26,2.41-3.5,3.02c-0.64-0.63-1.39-0.99-2.19-0.99
							c-2.33,0-4.22,3.03-4.22,6.78c0,3.75,1.89,6.78,4.22,6.78c2.33,0,4.22-3.03,4.22-6.78c0-1.41-0.27-2.72-0.73-3.81
							C1085.84,795.83,1086.53,792.38,1086.53,792.38z"/>
						<g>
							<g>
								<path class="st40" d="M1052.55,801.7c0,0-0.36-0.16-1-0.45c-0.63-0.28-1.54-0.64-2.64-1c-2.2-0.74-5.14-1.35-8.23-1.57
									c-3.09-0.23-6.12-0.06-8.47,0.34c-1.17,0.2-2.15,0.41-2.83,0.6c-0.69,0.19-1.09,0.29-1.09,0.29s0.16-0.3,0.55-0.8
									c0.39-0.51,1.04-1.21,2.05-1.94c1.97-1.47,5.77-3.03,10.31-2.71c4.54,0.34,7.89,2.44,9.46,4.17
									c0.82,0.87,1.29,1.66,1.54,2.21C1052.47,801.39,1052.55,801.7,1052.55,801.7z"/>
							</g>
						</g>
						<path class="st31" d="M1088.69,797.9c0,0-1.48,2-3.91,2.98c-2.43,0.98-4.89,0.58-4.89,0.58s1.48-2,3.91-2.99
							C1086.23,797.5,1088.69,797.9,1088.69,797.9z"/>
						<g>
							<path class="st36" d="M1061.75,820.03c-1.38-0.5-2.75-1.25-4.21-1.11c1.45,3.33,4.26,6.04,7.64,7.37
								c0.26,0.1,0.53,0.2,0.81,0.19c0.34-0.01,0.66-0.18,0.95-0.35c1.87-1.1,3.52-2.57,4.83-4.3c0.26-0.35,0.52-0.73,0.62-1.15
								c0.33-1.41-0.64-1.1-1.48-0.77c-0.98,0.38-2,0.64-3.04,0.78C1065.81,820.95,1063.69,820.74,1061.75,820.03z"/>
							<path class="st39" d="M1065.48,825.48c0.86-0.77,1.83-1.43,2.72-2.18c1.09-0.93,2.11-1.94,3-3.07
								c-4.6-3.17-4.55-7.98-4.33-13.43c0.1-2.46,0.79-4.88,1.98-7.04c0.63-1.13,1.39-2.18,2.27-3.12c0.45-0.48,0.93-0.93,1.43-1.36
								c0.49-0.41,1-0.64,1.59-0.88c-0.28,0.32-0.48,0.7-0.73,1.03c-0.67,0.87-1.37,1.68-1.95,2.62c-0.58,0.94-1.07,1.93-1.48,2.96
								c-0.82,2.06-1.3,4.25-1.37,6.45c-0.08,2.17,0.24,4.35,1.03,6.38c0.91,2.3,2.51,4.6,4.61,5.94c0.02,0.01-3.15,3.66-3.45,3.96
								c-0.8,0.77-1.67,1.47-2.61,2.06c-0.92,0.58-1.98,1.27-3.1,1.23c-0.35-0.02-0.71-0.09-1-0.3c0.19-0.12,0.38-0.27,0.54-0.43
								c0.07-0.07,0.14-0.14,0.21-0.22C1065.04,825.88,1065.26,825.68,1065.48,825.48z"/>
						</g>
						<g>
							<path class="st39" d="M1057.54,839.62c3.44,1.73,7.64,1.85,11.18,0.33c-1.23,1.79-2.95,2.84-5.11,2.76
								C1061.44,842.63,1059,841.23,1057.54,839.62z"/>
							<path class="st39" d="M1044.56,829.85c8.77,6.4,20.8,8.05,30.97,4.25c-5.57,1.15-11.27,0.76-16.91-0.04
								C1054.28,833.45,1048.24,832.24,1044.56,829.85z"/>
						</g>
						<path class="st36" d="M1079.08,821.96c0.74,1.97,4.99,2.19,9.5,0.51c4.51-1.69,7.57-4.66,6.83-6.62
							c-0.73-1.97-4.99-2.2-9.5-0.51C1081.4,817.02,1078.34,819.99,1079.08,821.96z"/>
						<path class="st36" d="M1022.35,812.77c-0.77,2.97,4.12,6.8,10.92,8.56c6.8,1.77,12.94,0.79,13.71-2.19
							c0.77-2.97-4.12-6.81-10.92-8.57C1029.26,808.82,1023.13,809.8,1022.35,812.77z"/>
					</g>
					<path class="st40" d="M1093.76,785.38c-0.74-0.5-1.52-0.93-2.35-1.3c-0.78-0.37-1.59-0.66-2.43-0.9
						c-1.49-0.43-3.07-0.66-4.69-0.66c-0.23,0-0.45,0-0.68,0.02c-0.67,0.02-1.34,0.08-2,0.19c-7.38,1.16-13.18,7.05-14.28,14.45
						c-2.98-1.33-6.22-0.59-8.25,0.18c-0.88-7.56-6.25-13.76-13.38-15.86c-1.67-0.49-3.45-0.75-5.27-0.75
						c-4.84,0-9.25,1.84-12.57,4.86c-2.17,1.97-3.88,4.43-4.95,7.2l-17.31-2.83l-2.67-0.44h-0.04l-4.73-0.78l-0.08,0.5l-0.15,0.92
						l-0.22,1.36l-0.01,0.07l0.35,0.06l2.66,0.43l0.26,0.05h0.01l1.15,0.18l0.01,0.01l1.2,0.19l0.68,0.11l0.92,0.14l7.12,1.16
						l10.01,1.64c-0.28,1.27-0.43,2.59-0.43,3.96c0,4.02,1.28,7.76,3.45,10.82c3.4,4.82,9.01,7.95,15.34,7.95
						c2.22,0,4.35-0.38,6.33-1.09c6.96-2.51,12.03-9.04,12.41-16.78c1.51-0.69,5.27-2.06,7.99-0.03c0.04,0.9,0.15,1.8,0.32,2.66
						c0.26,1.26,0.65,2.48,1.18,3.63c2.5,5.56,7.87,9.57,14.22,10.08c0.46,0.05,0.93,0.07,1.41,0.07c0.26,0,0.51-0.01,0.77-0.02
						c0.67-0.03,1.34-0.1,1.99-0.21c0.12-0.01,0.23-0.03,0.35-0.06c0.06,0,0.11-0.02,0.17-0.03c1.38-0.27,2.71-0.7,3.95-1.28
						c0.58-0.27,1.13-0.56,1.67-0.89c0.47-0.29,0.93-0.6,1.37-0.93c0.06-0.04,0.11-0.08,0.16-0.11c0.74-0.57,1.42-1.18,2.04-1.85
						c2.91-3.08,4.7-7.21,4.7-11.77C1101.45,793.72,1098.39,788.45,1093.76,785.38z M1044.83,814.8c-1.39,0.41-2.87,0.63-4.4,0.63
						c-4.88,0-9.26-2.21-12.17-5.68c-2.33-2.76-3.74-6.33-3.74-10.22c0-8.78,7.14-15.91,15.9-15.91c8.77,0,15.9,7.12,15.9,15.91
						C1056.33,806.78,1051.46,812.9,1044.83,814.8z M1095.28,808.79c-0.26,0.32-0.53,0.63-0.83,0.91c-0.44,0.46-0.93,0.9-1.44,1.28
						c-0.73,0.56-1.51,1.07-2.34,1.48c-1.08,0.53-2.23,0.95-3.45,1.21c-0.11,0.02-0.21,0.04-0.32,0.06
						c-0.05,0.01-0.1,0.02-0.14,0.02c-0.6,0.11-1.21,0.18-1.85,0.2c-0.2,0.02-0.41,0.02-0.62,0.02c-7.48,0-13.65-5.78-14.23-13.11
						c-0.04-0.38-0.06-0.78-0.06-1.17c0-0.63,0.04-1.25,0.13-1.85c0.82-6.31,5.76-11.33,12.03-12.28c0.69-0.1,1.41-0.16,2.13-0.16
						c2.47,0,4.79,0.63,6.82,1.73c1,0.55,1.92,1.2,2.76,1.97c2.89,2.6,4.71,6.38,4.71,10.58
						C1098.57,803.14,1097.33,806.32,1095.28,808.79z"/>
				</g>
				<path class="st62" d="M1094.56,765.42c-0.11,5.95-0.67,10.76-0.99,13.05c-0.13,0.95-0.22,1.47-0.22,1.47
					c-21.7-15.25-21.77-32.79-21.17-38.32c-5.89,30.73-71.01,48.41-71.01,48.41l-9.14,3.98c0,0-2.6-2.66-4.92-8.01
					c-3.72-8.55-6.7-23.99,2.82-46.44c2.49-5.88,5.94-10.42,9.95-13.91c0.03-0.02,0.06-0.04,0.08-0.06
					c20.97-18.1,57.58-7.64,57.58-7.64C1090.43,714.94,1094.88,746.16,1094.56,765.42z"/>
				<path class="st62" d="M1018.47,804.96c-0.24-0.73-0.61-1.78-1.15-3.04c-0.54-1.26-1.25-2.75-2.26-4.32
					c-1.01-1.55-2.32-3.2-4.04-4.6c-1.72-1.41-3.62-2.36-5.37-3.01c-1.76-0.63-3.39-0.98-4.76-1.19c-0.59-0.09-1.13-0.15-1.62-0.2
					c-0.65-0.47-1.04-0.72-1.04-0.72s0.15,0.24,0.39,0.67c-0.37-0.03-0.71-0.05-0.99-0.06c-0.77-0.03-1.2-0.03-1.2-0.03
					s1.13,0.54,2.99,1.43c0.47,0.8,1.07,1.8,1.76,2.98c1.77,3.04,4.14,7.18,5.58,11.91c1.45,4.75,1.92,9.53,2.36,13.04
					c0.22,1.77,0.4,3.21,0.52,4.21c0.15,1,0.23,1.56,0.23,1.56s0.16-0.54,0.44-1.51c0.26-0.98,0.63-2.4,0.96-4.18
					c0.33-1.78,0.64-3.93,0.68-6.38c0.04-2.44-0.2-5.2-1.06-8c-0.85-2.81-2.24-5.24-3.69-7.23c-1.38-1.87-2.82-3.37-4.11-4.56
					c1.87,1,3.93,2.23,5.85,3.81c2.92,2.39,5.23,5.2,6.99,7.24c0.88,1.02,1.6,1.86,2.1,2.44c0.52,0.56,0.81,0.88,0.81,0.88
					S1018.71,805.7,1018.47,804.96z"/>
				<path class="st61" d="M1094.56,765.42c-0.47-0.15-0.92-0.34-1.37-0.55c-10.3-4.68-16.97-18.31-20.4-27.35
					c-1.87-4.94-2.79-8.52-2.79-8.52c-0.09,1.69-0.91,3.72-2.24,5.93c-6.68,11.18-26.08,26.97-26.08,26.97l2.88-8.9
					c0,0-5.3,8.64-25.37,21.3c-8.17,5.15-20.42,8.97-32.08,11.7c-8.26,1.93-16.22,3.31-22.21,4.22c1.25-8.1,3.18-15.38,5.51-21.87
					c10.18-28.3,27.95-41.59,29.47-42.7c0.03-0.02,0.06-0.04,0.08-0.06c20.97-18.1,57.58-7.64,57.58-7.64
					c2.33-0.21,4.52-0.25,6.58-0.13C1091.04,719.31,1094.87,747.53,1094.56,765.42z"/>
				<path class="st63" d="M1064.11,717.82c-3.8,7.79-11.28,13.54-18.55,18.56c1.29-2.35,1.86-5.08,1.64-7.75
					c-9.41,13.71-22.8,24.65-38.1,31.15c1.82-3.6,2.68-7.68,2.47-11.71c-9.44,8.6-20.96,14.85-33.26,18.2
					c-2.08,0.57-5.02,1.58-7.9,2.08c10.18-28.3,27.95-41.59,29.47-42.7c0.03-0.02,0.06-0.04,0.08-0.06
					c20.97-18.1,57.58-7.64,57.58-7.64C1059.87,717.74,1062.06,717.7,1064.11,717.82z"/>
			</g>
		</g>
		<g>
			<g>
				<g>
					<g>
						<polygon class="st49" points="905.87,1097.13 906.01,1101.61 901.25,1106.43 902.65,1183.51 918.74,1182.36 1013.57,1175.63 
							1019.14,1166.27 1013.69,1089.48 						"/>
						<polygon class="st31" points="906.01,1101.61 903.16,1104.49 897.45,1110.28 902.36,1179.32 917.81,1178.22 1010.74,1171.62 
							1016.25,1163.17 1011.35,1094.13 						"/>
						
							<rect x="899.79" y="1102.68" transform="matrix(0.9975 -0.0708 0.0708 0.9975 -78.4246 70.5311)" class="st30" width="111.19" height="76.99"/>
					</g>
					
						<rect x="980.38" y="1113.47" transform="matrix(0.9975 -0.071 0.071 0.9975 -78.3929 72.9551)" class="st31" width="12.83" height="50.94"/>
				</g>
				<g>
					<g>
						<polygon class="st64" points="904.85,1099.34 904.11,1103.75 898.5,1107.55 884.86,1183.43 900.86,1185.44 995.19,1197.31 
							1002.47,1189.22 1012.09,1112.83 						"/>
						<polygon class="st31" points="904.11,1103.75 900.75,1106.03 894.03,1110.59 885.39,1179.26 900.76,1181.2 993.2,1192.83 
							1000.25,1185.62 1008.89,1116.94 						"/>
						
							<rect x="889.23" y="1113.69" transform="matrix(0.9922 0.1248 -0.1248 0.9922 151.2316 -108.94)" class="st57" width="111.19" height="76.98"/>
					</g>
					
						<rect x="969.66" y="1130.64" transform="matrix(0.9921 0.1251 -0.1251 0.9921 152.2769 -113.0111)" class="st31" width="12.83" height="50.93"/>
				</g>
				<g>
					<path class="st35" d="M965.87,1025.85c0.7,3.59-1.48,22.63-4.51,45.26c-1.65,12.15-3.53,25.32-5.35,37.68
						c-1.82,12.36-3.56,23.92-4.92,32.83l0.65,23.41c0,0,10.92,3.43,10.83,5.19c-0.09,1.76,7.05,15.81,8.98,17.35
						c1.92,1.53-3.63,6.53-3.63,6.53s-6.66-2.16-8.64-1.63c-1.53,0.39-3.66,7.6-6.24,11.21c-0.78,1.09-1.59,1.86-2.45,2.02
						c-3.7,0.71-8.28,1.53-9.41-0.67c-1.13-2.21-3.06-6.36-5.46-6.96c-2.4-0.61-9.9-4.99-10.26-8.15
						c-0.36-3.17,0.53-13.18,0.52-15.8c-0.01-2.63-0.42-11.32-0.42-11.32l1.21-16.05l-2.22-97.97c-0.19-9.07,6.92-36.15,6.92-36.15
						l0.29-7.9l-0.73-27.46c-0.35-12.06,2.11-23.94,7.14-34.59c4.04-9.29,12.85-13.4,22.38-15.77c2.66-0.66,5.37-1.19,8.05-1.65
						c1.4-0.25,2.76-0.5,4.09-0.7l0.03-0.01C972.74,924.56,963.96,1016.09,965.87,1025.85z"/>
					<path class="st37" d="M960.56,926.91c-7.75,8.36-15.92,16.45-20.6,26.74c-9.43,20.71-2.69,45.06-6.44,67.51
						c-1.01,6.07-2.8,12.01-3.61,18.12c-0.81,6.07-0.64,12.22-0.54,18.34c0.23,13.67,0.16,27.35,0.07,41.02
						c-0.02,3.77-0.05,7.53-0.07,11.29c-0.08,14.34-0.16,28.68-0.15,43.03c0.01,10.75,0.13,21.8,4.13,31.79
						c3.51,8.76,10.72,16.63,19.69,18.94c-0.78,1.09-1.59,1.86-2.45,2.02c-3.7,0.71-8.28,1.53-9.41-0.67
						c-1.13-2.21-3.06-6.36-5.46-6.96c-2.4-0.61-9.9-4.99-10.26-8.15c-0.36-3.17,0.53-13.18,0.52-15.8
						c-0.01-2.63-0.42-11.32-0.42-11.32l1.21-16.05l-2.22-97.97c-0.19-9.07,6.92-36.15,6.92-36.15l0.29-7.9l-0.73-27.46
						c-0.35-12.06,2.11-23.94,7.14-34.59C942.22,933.39,951.03,929.28,960.56,926.91z"/>
					<g>
						<path class="st53" d="M938.44,1016.71c0,0,0.14,0.33,0.44,0.92c0.14,0.3,0.33,0.66,0.6,1.04c0.26,0.38,0.55,0.85,0.95,1.28
							c0.38,0.45,0.81,0.94,1.34,1.39c0.5,0.49,1.11,0.9,1.75,1.35c1.3,0.82,2.87,1.53,4.59,1.89c1.72,0.34,3.41,0.31,4.89,0.06
							c0.74-0.17,1.43-0.31,2.06-0.56c0.63-0.21,1.19-0.49,1.68-0.77c0.5-0.24,0.92-0.57,1.28-0.82c0.37-0.25,0.66-0.51,0.88-0.73
							c0.46-0.44,0.7-0.68,0.7-0.68s-0.33,0.09-0.91,0.26c-0.28,0.09-0.63,0.19-1.04,0.26c-0.41,0.08-0.85,0.21-1.37,0.25
							c-0.51,0.07-1.05,0.15-1.64,0.17c-0.58,0.06-1.21,0.03-1.86,0.04c-1.3-0.05-2.71-0.2-4.18-0.49
							c-1.46-0.32-2.82-0.74-4.06-1.21c-0.6-0.27-1.21-0.49-1.73-0.78c-0.55-0.25-1.04-0.54-1.49-0.81
							c-0.47-0.25-0.84-0.55-1.2-0.79c-0.36-0.23-0.66-0.47-0.89-0.66C938.71,1016.92,938.44,1016.71,938.44,1016.71z"/>
					</g>
				</g>
			</g>
			<path class="st48" d="M1001.46,917.1l-26.8,92.09v0.02l-5.77,19.83l-0.77,6.95l-33.19-5.6l-9.51-1.61
				c0.41-2.41,0.84-4.81,1.32-7.21l0.37-1.81c0,0-0.4-28.42,4.66-58.54c4.37-26.04,12.82-53.34,29.11-64.72
				c1.5-1.05,3.07-1.97,4.7-2.73l4.21,2.74L1001.46,917.1z"/>
			<path class="st65" d="M969.77,896.51c-3.82,3.84-9.4,9.7-17.29,18.45c-16.32,18.11-17.55,94.07-17.57,115.43l-9.51-1.61
				c0.41-2.41,0.84-4.81,1.32-7.21l0.37-1.81c0,0-0.4-28.42,4.66-58.54c4.37-26.04,12.82-53.34,29.11-64.72
				c1.5-1.05,3.07-1.97,4.7-2.73L969.77,896.51z"/>
			<polygon class="st31" points="922.53,1013.81 921.57,1034.53 969.92,1039.81 972.74,1026.85 			"/>
		</g>
		<path class="st34" d="M965.09,893.98c0,0,10.3-13.62,22.6-14.5c0,0,20.1,146-17.28,166.8
			C970.41,1046.28,994.01,966.15,965.09,893.98z"/>
	</g>
</g>
<g>
	<rect x="37.87" y="975.38" class="st2" width="465.13" height="51.66"/>
	<text transform="matrix(1 0 0 1 59.2046 1014.7617)" class="st66 st67 st68 st69">Sekolah K.A.R.Y.A</text>
	<path class="st70" d="M52.63,813.25v84.09c3.87,40.13,62.56,66.88,62.56,66.88s56.11-26.75,59.99-66.88l1.14-84.09l-61.3-12.45
		L52.63,813.25L52.63,813.25z"/>
	<path class="st71" d="M110.78,822.24c-4.12-4.69-10.21-8.92-19.13-10.36v-17.45c16.6,3.53,18.88,19.91,18.97,20.65l0.16,1.25
		V822.24L110.78,822.24z"/>
	<path class="st72" d="M94.17,797.8c12.1,4.37,13.86,16.99,13.94,17.6l0.12,0.9c-3.64-2.89-8.25-5.29-14.06-6.55V797.8L94.17,797.8z
		 M89.12,791.44v22.68c13.49,1.39,20.55,9.35,24.18,16.3v-15.69l-0.18,0.02C113.01,813.88,110.22,793.83,89.12,791.44"/>
	<path class="st71" d="M115.04,801.51c-1.56-2.75-3.42-5.24-5.54-7.36l5.65-5.46l5.47,5.41
		C118.24,796.49,116.41,799.08,115.04,801.51"/>
	<path class="st72" d="M115.14,792.24l1.96,1.94c-0.72,0.83-1.41,1.7-2.06,2.61c-0.63-0.88-1.29-1.73-1.99-2.54L115.14,792.24
		L115.14,792.24z M115.18,782.86l-9.39,11.34c4.87,4.05,7.67,9.15,9.25,13.2c1.58-4.06,4.39-9.17,9.28-13.23L115.18,782.86
		L115.18,782.86z"/>
	<path class="st71" d="M119.7,813.81c0.91-4.24,4.72-16.4,18.74-19.38v17.45c-8.67,1.41-14.65,5.46-18.74,9.94V813.81L119.7,813.81z
		"/>
	<path class="st72" d="M135.91,797.78v11.97c-5.63,1.23-10.12,3.52-13.69,6.27v-1.94c0.43-1.91,1.59-5.8,4.31-9.42
		C128.95,801.45,132.1,799.15,135.91,797.78 M140.96,791.44c-18.39,2.09-22.87,17.58-23.79,22.1v16.16
		c3.73-6.76,10.77-14.24,23.79-15.58V791.44L140.96,791.44z"/>
	<path class="st72" d="M80.18,824.18v22.25c-12.34,6.1-15.54,24.01-15.89,26.22l-0.8,5.04l4.98,0.81l3.82,0.63l4.95,0.8l0.83-5.01
		c0.31-1.84,1.02-4.59,2.11-7.3v8.32v0.15l0.01,0.14l0.01,0.23l0,0.11l0.02,0.15c0.01,0.12,0.97,9.97-3.35,17.26
		c-3.52-4.63-7.65-8.43-12.34-11.34c-5.21-3.24-11.02-5.32-17.32-6.23c1.01-8.66,3.95-20.56,9.72-31.24
		C64.31,831.51,72.97,826.07,80.18,824.18 M85.23,818.23c-16.55,0.93-26.9,13.71-32.73,24.48c-6.97,12.91-10.33,28.14-10.72,38.33
		c15.11,0.6,26.99,8.19,34.54,21.25c10.77-8.63,8.94-25.94,8.92-26.13l-0.01-0.22v-21.87c-9.38,3.37-12.11,19.84-12.14,20.02
		l-3.83-0.62c0.14-0.85,3.38-20.31,15.96-23.49V818.23L85.23,818.23z"/>
	<path class="st71" d="M87.98,938.93c-0.37-12.37-2.62-23.26-6.7-32.41c4.78-4.24,8.07-10.32,9.56-17.72
		c1.29-6.36,0.9-11.77,0.78-13.1v-31.65l0.03-2.55v-20.45c16.6,3.58,18.88,20.26,18.97,21.01l0.16,1.29v47.92
		c0,7.38-1.73,19.9-6.6,30.87C101.15,928.95,95.96,937.06,87.98,938.93"/>
	<path class="st72" d="M94.17,824.43c12.1,4.45,13.86,17.33,13.94,17.94l0.15,1.12v47.76c0,7.13-1.67,19.21-6.38,29.81
		c-2.37,5.35-6.14,11.55-11.53,14.28c-0.63-10.55-2.66-20-6.04-28.2c4.46-4.52,7.55-10.61,9.01-17.84
		c1.31-6.51,0.96-12.11,0.82-13.73v-28.98h0.03v-5.11V824.43L94.17,824.43z M89.12,818.05v23.45h-0.03v34.33
		c0.09,0.89,0.55,6.19-0.72,12.46c-1.54,7.65-5.05,13.63-10.21,17.51c4.66,9.63,7.24,21.78,7.34,35.98l0.1,0.08
		c10.63-0.64,17.21-10.41,20.88-18.68c5.03-11.34,6.82-24.28,6.82-31.91v-49.55l-0.18,0.03
		C113.01,840.84,110.22,820.46,89.12,818.05"/>
	<path class="st71" d="M147.3,872.73c0-23.15,6.91-29.42,12.79-31.64l19.48,21.9l-8.22,15.99c-4.99,0.46-15.78,2.04-24.04,7.43
		V872.73L147.3,872.73z"/>
	<path class="st72" d="M159.44,844.18l17.08,19.19l-6.79,13.2c-4.75,0.53-12.71,1.92-19.91,5.48v-9.32
		C149.82,853.28,154.72,846.73,159.44,844.18 M160.86,838.14c-10.97,3.16-16.09,14.16-16.09,34.59v18.91
		c8.53-8.34,23.81-9.94,28.16-10.23l9.68-18.82L160.86,838.14L160.86,838.14z"/>
	<path class="st71" d="M114.82,957.42c-3.14-1.41-9.58-4.41-14.4-7.43c-1.52-0.94-3.4-2.28-5.57-3.93
		c7.05-3.34,13.03-10.24,17.46-20.23c5.45-12.28,7.38-26.3,7.38-34.57v-50.49c0.99-4.71,5.34-18.59,22.1-20.23l12.03,13.52
		c-13.77,7.47-15.45,25.42-15.45,38.67v33.32c0,14.01-3.16,26.19-9.38,36.22C124.35,949.77,118.9,954.57,114.82,957.42"/>
	<path class="st72" d="M140.79,823.22l9.14,10.28c-4.98,3.54-8.65,8.79-10.98,15.68c-2.78,8.25-3.1,17.39-3.1,23.55v33.32
		c0,13.52-3.03,25.25-8.99,34.86c-4.01,6.46-8.62,10.8-12.34,13.58c-3.34-1.53-8.67-4.11-12.78-6.67c-0.67-0.42-1.41-0.92-2.23-1.49
		c6.03-4.01,11.16-10.6,15.1-19.46c5.61-12.64,7.6-27.09,7.6-35.62v-50.22c0.46-2.03,1.68-6.22,4.63-10.03
		C130.22,826.68,134.9,824.06,140.79,823.22 M142.84,817.89c-19.96,1.22-24.72,17.85-25.67,22.61v50.76
		c0,8.02-1.87,21.61-7.16,33.52c-5.09,11.47-12.07,18.42-20.36,20.44c2.87,2.32,6.5,5.12,9.44,6.96c5.68,3.55,13.35,7.01,15.97,8.15
		c8.42-5.5,25.84-20.92,25.84-54.27v-33.32c0-13.68,1.84-32.11,17.12-37.78L142.84,817.89L142.84,817.89z"/>
	<path class="st71" d="M144.83,814.27v-27.03l-2.04,0.11c-6.32,0.36-11.31,2.1-15.25,4.52l-12.33-15.22l-12.64,15.23
		c-3.94-2.43-8.94-4.18-15.27-4.54l-2.04-0.11v26.6v0.46c-33.05,1.65-47.38,45.88-47.38,68.66v1.96h1.94
		c25.8,0,41.83,22.13,41.83,57.76v0.91l0.67,0.59c0.36,0.31,8.75,7.59,14.75,11.33c7.18,4.48,17.01,8.66,17.43,8.84l0.91,0.39
		l0.85-0.52c8.57-5.33,28.52-21.66,28.52-58.15v-8.18c6.8-11.74,29.19-12.6,29.42-12.6l1.13-0.04l11.95-23.24L144.83,814.27
		L144.83,814.27z M140.96,814.11c-13.02,1.35-20.06,8.82-23.79,15.58v-16.16c0.92-4.53,5.4-20.01,23.79-22.1V814.11L140.96,814.11z
		 M115.18,782.86l9.14,11.31c-4.89,4.05-7.69,9.17-9.28,13.22c-1.58-4.05-4.38-9.15-9.24-13.2L115.18,782.86L115.18,782.86z
		 M113.12,814.75l0.18-0.03v15.69c-3.63-6.95-10.69-14.91-24.18-16.3v-22.67C110.22,793.83,113.01,813.88,113.12,814.75
		 M41.78,881.04c0.39-10.19,3.74-25.41,10.72-38.33c5.83-10.78,16.18-23.55,32.73-24.48v31.74c-12.58,3.18-15.82,22.64-15.96,23.49
		l3.82,0.62c0.03-0.17,2.76-16.64,12.13-20.02v21.87l0.01,0.22c0.02,0.19,1.86,17.51-8.92,26.13
		C68.78,889.23,56.89,881.64,41.78,881.04 M78.17,905.8c5.16-3.88,8.67-9.86,10.21-17.51c1.27-6.27,0.81-11.58,0.72-12.46v-34.33
		h0.03v-23.45c21.1,2.42,23.88,22.79,24,23.68l0.18-0.02v49.55c0,7.63-1.79,20.57-6.82,31.91c-3.67,8.27-10.25,18.04-20.88,18.68
		l-0.1-0.08C85.41,927.57,82.83,915.42,78.17,905.8 M140.9,906.05c0,33.35-17.42,48.77-25.84,54.27
		c-2.62-1.15-10.29-4.61-15.97-8.15c-2.94-1.83-6.58-4.64-9.44-6.96c8.29-2.02,15.26-8.96,20.36-20.44
		c5.29-11.9,7.16-25.5,7.16-33.52V840.5c0.95-4.76,5.71-21.39,25.67-22.61l15.18,17.06c-15.27,5.67-17.12,24.1-17.12,37.78V906.05
		L140.9,906.05z M172.93,881.41c-4.35,0.29-19.63,1.89-28.16,10.23v-18.91c0-20.43,5.12-31.43,16.09-34.59l21.75,24.45
		L172.93,881.41L172.93,881.41z"/>
	<path class="st72" d="M115.21,776.66l-12.63,15.23c-3.94-2.43-8.94-4.18-15.28-4.53l-2.04-0.11v26.6v0.46
		c-33.05,1.64-47.39,45.88-47.39,68.65v1.96h1.94c25.8,0,41.83,22.14,41.83,57.77v0.9l0.67,0.59c0.35,0.31,8.75,7.58,14.75,11.33
		c7.18,4.48,17.01,8.66,17.43,8.84l0.91,0.39l0.85-0.52c8.57-5.33,28.52-21.67,28.52-58.15v-8.18c6.8-11.74,29.2-12.6,29.42-12.6
		l1.13-0.03l11.95-23.24l-42.46-47.72v-27.02l-2.04,0.11c-6.32,0.35-11.3,2.09-15.24,4.52L115.21,776.66L115.21,776.66z
		 M115.04,807.4c-1.58-4.05-4.37-9.15-9.24-13.2l9.39-11.34l9.14,11.31C119.43,798.23,116.63,803.34,115.04,807.4 M117.17,829.7
		v-16.16c0.92-4.53,5.4-20.01,23.79-22.1v22.68C127.94,815.46,120.91,822.93,117.17,829.7 M113.3,830.42
		c-3.63-6.95-10.69-14.91-24.18-16.3v-22.68c21.1,2.4,23.88,22.44,24,23.31l0.18-0.03V830.42L113.3,830.42z M115.07,960.32
		c-2.62-1.15-10.29-4.61-15.97-8.15c-2.94-1.83-6.57-4.64-9.44-6.96c8.29-2.02,15.27-8.96,20.36-20.44
		c5.29-11.9,7.16-25.5,7.16-33.52V840.5c0.95-4.76,5.71-21.39,25.67-22.61l15.18,17.06c-15.27,5.67-17.12,24.1-17.12,37.78v33.32
		C140.9,939.4,123.48,954.83,115.07,960.32 M85.61,941.85l-0.1-0.08c-0.11-14.2-2.68-26.35-7.34-35.98
		c5.16-3.88,8.67-9.86,10.21-17.51c1.26-6.27,0.81-11.57,0.72-12.46v-34.33h0.03v-23.45c21.1,2.42,23.88,22.79,24,23.68l0.18-0.02
		v49.55c0,7.63-1.79,20.57-6.82,31.91C102.81,931.44,96.23,941.21,85.61,941.85 M76.32,902.29c-7.54-13.06-19.42-20.65-34.54-21.25
		c0.38-10.19,3.75-25.41,10.72-38.33c5.83-10.78,16.18-23.55,32.73-24.48v31.74c-12.58,3.18-15.82,22.64-15.96,23.49l3.83,0.62
		c0.03-0.17,2.76-16.65,12.13-20.02v21.88l0.01,0.22C85.26,876.35,87.1,893.66,76.32,902.29 M144.78,891.64v-18.91
		c0-20.43,5.12-31.43,16.08-34.59l21.75,24.44l-9.67,18.83C168.59,881.7,153.31,883.3,144.78,891.64"/>
	<path class="st2" d="M140.96,814.12c-13.02,1.34-20.06,8.81-23.79,15.58v-16.16c0.92-4.53,5.4-20.01,23.79-22.1V814.12
		L140.96,814.12z"/>
	<path class="st73" d="M115.18,782.86l9.14,11.31c-4.89,4.06-7.69,9.17-9.28,13.23c-1.58-4.05-4.38-9.15-9.25-13.2L115.18,782.86
		L115.18,782.86z"/>
	<path class="st2" d="M113.12,814.75l0.18-0.03v15.69c-3.63-6.95-10.69-14.91-24.18-16.3v-22.67
		C110.22,793.83,113.01,813.88,113.12,814.75"/>
	<path class="st2" d="M41.78,881.04c0.39-10.19,3.74-25.41,10.72-38.33c5.83-10.78,16.18-23.55,32.73-24.48v31.74
		c-12.58,3.18-15.82,22.64-15.96,23.49l3.82,0.62c0.03-0.17,2.76-16.64,12.14-20.01v21.87l0.01,0.22
		c0.02,0.19,1.86,17.51-8.92,26.13C68.78,889.23,56.89,881.64,41.78,881.04"/>
	<path class="st74" d="M78.17,905.8c5.16-3.88,8.67-9.85,10.21-17.51c1.27-6.27,0.81-11.58,0.72-12.46v-34.33h0.03v-23.45
		c21.1,2.42,23.89,22.8,24,23.69l0.18-0.03v49.55c0,7.64-1.79,20.57-6.82,31.91c-3.67,8.27-10.25,18.04-20.88,18.68l-0.1-0.08
		C85.41,927.57,82.83,915.42,78.17,905.8"/>
	<path class="st75" d="M140.9,906.05c0,33.35-17.42,48.77-25.84,54.27c-2.62-1.15-10.29-4.61-15.97-8.15
		c-2.94-1.83-6.58-4.64-9.44-6.95c8.29-2.02,15.27-8.96,20.36-20.44c5.29-11.9,7.16-25.5,7.16-33.52V840.5
		c0.95-4.76,5.71-21.39,25.67-22.61l15.18,17.06c-15.27,5.67-17.12,24.1-17.12,37.78V906.05L140.9,906.05z"/>
	<path class="st2" d="M172.93,881.41c-4.35,0.29-19.63,1.89-28.16,10.23v-18.91c0-20.43,5.12-31.43,16.09-34.59l21.75,24.45
		L172.93,881.41L172.93,881.41z"/>
	<polygon class="st72" points="167.09,854.57 159.53,854.57 167.09,859.55 167.09,854.57 	"/>
	<polygon class="st2" points="232.4,836.89 232.4,856.26 225.7,856.26 225.7,815.87 232.4,815.87 232.4,834.28 252.45,834.28 
		252.45,815.87 259.15,815.87 259.15,856.26 252.45,856.26 252.45,836.89 232.4,836.89 	"/>
	<path class="st2" d="M286.59,814.94l18.78,41.32h-6.81l-6.1-13.48h-17.09l-6.3,13.48h-3.35l19.21-41.32H286.59L286.59,814.94z
		 M276.54,840.17h14.69l-7.24-15.98L276.54,840.17L276.54,840.17z"/>
	<path class="st2" d="M311.94,815.87h13.81c2.41,0,4.51,0.26,6.31,0.78c1.81,0.52,3.31,1.25,4.51,2.19c1.2,0.94,2.11,2.05,2.72,3.34
		c0.61,1.29,0.92,2.69,0.92,4.22c0,1.26-0.23,2.43-0.7,3.52c-0.47,1.09-1.13,2.08-1.99,2.96c-0.86,0.88-1.89,1.64-3.09,2.29
		c-1.2,0.65-2.53,1.14-3.98,1.49l14.52,19.6h-7.76l-13.86-18.99h-4.7v18.99h-6.7V815.87L311.94,815.87z M318.64,835.24h3.87
		c1.51,0,2.89-0.2,4.16-0.61c1.27-0.41,2.37-0.98,3.31-1.73c0.94-0.74,1.67-1.65,2.19-2.71c0.52-1.06,0.79-2.26,0.79-3.57
		c0-1.2-0.21-2.31-0.63-3.32c-0.43-1.02-1-1.89-1.75-2.61c-0.74-0.73-1.63-1.29-2.67-1.7c-1.03-0.41-2.16-0.61-3.38-0.61h-5.9
		V835.24L318.64,835.24z"/>
	<path class="st2" d="M367.39,814.94l18.78,41.32h-6.82l-6.1-13.48h-17.1l-6.3,13.48h-3.35l19.21-41.32H367.39L367.39,814.94z
		 M357.34,840.17h14.69l-7.24-15.98L357.34,840.17L357.34,840.17z"/>
	<path class="st2" d="M392.74,815.86h12.63c2.08,0,4.03,0.26,5.85,0.77c1.83,0.52,3.41,1.27,4.76,2.25c1.35,0.98,2.41,2.19,3.2,3.62
		c0.78,1.43,1.17,3.07,1.17,4.9c0,1.84-0.38,3.44-1.13,4.8c-0.76,1.36-1.74,2.49-2.98,3.39c-1.23,0.9-2.64,1.56-4.21,2
		c-1.58,0.44-3.18,0.65-4.8,0.65c-0.69,0-1.41-0.02-2.18-0.06c-0.76-0.04-1.5-0.09-2.21-0.16c-0.71-0.07-1.36-0.14-1.96-0.22
		c-0.6-0.08-1.09-0.16-1.45-0.26v18.7h-6.71V815.86L392.74,815.86z M399.44,835.29c0.74,0.21,1.55,0.42,2.42,0.61
		c0.87,0.19,1.75,0.29,2.65,0.29c1.45,0,2.72-0.22,3.79-0.65c1.08-0.43,1.98-1.03,2.69-1.79c0.72-0.76,1.25-1.66,1.6-2.67
		c0.35-1.02,0.53-2.11,0.53-3.26c0-1.36-0.23-2.59-0.7-3.7c-0.47-1.11-1.1-2.05-1.9-2.82c-0.8-0.78-1.75-1.38-2.83-1.8
		c-1.09-0.43-2.26-0.64-3.5-0.64h-4.75V835.29L399.44,835.29z"/>
	<path class="st2" d="M440.76,814.94l18.78,41.32h-6.82l-6.1-13.48h-17.1l-6.3,13.48h-3.35l19.21-41.32H440.76L440.76,814.94z
		 M430.71,840.17h14.69l-7.24-15.98L430.71,840.17L430.71,840.17z"/>
	<polygon class="st2" points="466.11,815.87 469.87,815.87 496.01,845.38 496.27,845.38 496.27,815.87 499.22,815.87 499.22,857.21 
		497.67,857.21 469.35,824.36 469.12,824.36 469.12,856.26 466.11,856.26 466.11,815.87 	"/>
	<path class="st2" d="M225.7,877.27h16.07c2.12,0,4.07,0.24,5.85,0.72c1.77,0.48,3.3,1.16,4.57,2.03c1.27,0.87,2.26,1.91,2.96,3.13
		c0.71,1.22,1.06,2.56,1.06,4.03c0,1.1-0.12,2.09-0.35,2.96c-0.23,0.87-0.62,1.68-1.17,2.42c-0.55,0.74-1.3,1.45-2.23,2.12
		c-0.94,0.67-2.11,1.34-3.52,2.02v0.12c1.41,0.23,2.69,0.62,3.85,1.18c1.15,0.55,2.14,1.25,2.95,2.1c0.82,0.85,1.44,1.83,1.88,2.94
		c0.44,1.11,0.66,2.34,0.66,3.7c0,1.52-0.33,2.96-0.99,4.29c-0.66,1.33-1.59,2.49-2.81,3.48c-1.21,0.98-2.68,1.76-4.39,2.32
		c-1.72,0.56-3.64,0.84-5.76,0.84H225.7V877.27L225.7,877.27z M232.4,895.45h8.53c1.33,0,2.53-0.19,3.58-0.58
		c1.05-0.39,1.93-0.92,2.65-1.61c0.72-0.69,1.26-1.49,1.64-2.42c0.37-0.93,0.55-1.94,0.55-3.05c0-1.18-0.22-2.25-0.66-3.22
		c-0.44-0.97-1.12-1.8-2.06-2.48c-0.94-0.69-2.12-1.21-3.55-1.58c-1.43-0.37-3.15-0.55-5.16-0.55h-5.52V895.45L232.4,895.45z
		 M232.4,914.71h7.24c1.95,0,3.64-0.19,5.07-0.57c1.43-0.37,2.62-0.9,3.56-1.58c0.93-0.67,1.62-1.49,2.07-2.45
		c0.45-0.96,0.67-2,0.67-3.15c0-1.28-0.2-2.46-0.6-3.56c-0.4-1.1-1.06-2.06-1.98-2.86c-0.92-0.8-2.11-1.43-3.58-1.89
		c-1.47-0.47-3.28-0.7-5.41-0.7h-7.05V914.71L232.4,914.71z"/>
	<path class="st2" d="M282.71,876.35l18.79,41.32h-6.81l-6.1-13.49h-17.1l-6.3,13.49h-3.35l19.21-41.32H282.71L282.71,876.35z
		 M272.66,901.57h14.69l-7.24-15.97L272.66,901.57L272.66,901.57z"/>
	<polygon class="st2" points="308.06,877.27 311.81,877.27 337.96,906.79 338.22,906.79 338.22,877.27 341.17,877.27 341.17,918.62 
		339.62,918.62 311.3,885.77 311.07,885.77 311.07,917.67 308.06,917.67 308.06,877.27 	"/>
	<path class="st2" d="M375.31,879.24c-2.41,0-4.62,0.44-6.64,1.31c-2.02,0.87-3.78,2.11-5.26,3.71c-1.48,1.6-2.63,3.55-3.45,5.83
		c-0.82,2.28-1.23,4.85-1.23,7.69c0,2.84,0.45,5.4,1.34,7.68c0.9,2.28,2.12,4.22,3.66,5.83c1.55,1.61,3.37,2.84,5.47,3.71
		c2.1,0.87,4.35,1.31,6.76,1.31c1.76,0,3.34-0.25,4.76-0.73c1.41-0.48,2.67-1.17,3.78-2.06v-14.18h-7.53v-2.41h14.23v17.78
		c-1.17,0.64-2.34,1.2-3.52,1.68c-1.18,0.48-2.46,0.9-3.82,1.23c-1.37,0.34-2.88,0.59-4.53,0.75c-1.65,0.17-3.52,0.25-5.6,0.25
		c-2.2,0-4.29-0.25-6.29-0.75c-2-0.5-3.84-1.21-5.52-2.12c-1.69-0.91-3.22-2-4.59-3.28c-1.36-1.27-2.52-2.68-3.48-4.23
		c-0.95-1.55-1.69-3.21-2.2-4.97c-0.52-1.77-0.77-3.6-0.77-5.5c0-1.89,0.25-3.74,0.75-5.54c0.49-1.8,1.2-3.49,2.12-5.07
		c0.92-1.59,2.04-3.04,3.37-4.37c1.32-1.33,2.82-2.47,4.48-3.42c1.67-0.95,3.47-1.7,5.43-2.23c1.96-0.53,4.05-0.79,6.26-0.79
		c2.12,0,4.07,0.29,5.86,0.87c1.78,0.58,3.42,1.35,4.9,2.31c1.48,0.95,2.79,2.06,3.94,3.32c1.15,1.26,2.13,2.56,2.95,3.91
		l-2.89,1.97c-1.68-3.26-3.55-5.66-5.61-7.19C380.35,880.01,377.98,879.24,375.31,879.24"/>
	<path class="st2" d="M412.89,916.04c0.99,0,1.97-0.14,2.94-0.41c0.96-0.27,1.82-0.68,2.57-1.22c0.76-0.54,1.36-1.2,1.82-1.99
		c0.46-0.78,0.69-1.68,0.69-2.71c0-1.24-0.31-2.34-0.95-3.29c-0.63-0.95-1.46-1.84-2.47-2.65c-1.03-0.81-2.19-1.57-3.51-2.28
		c-1.32-0.7-2.66-1.42-4.02-2.13c-1.37-0.72-2.71-1.46-4.03-2.25c-1.32-0.78-2.48-1.66-3.5-2.61c-1.02-0.95-1.85-2.03-2.48-3.22
		c-0.63-1.19-0.95-2.55-0.95-4.1c0-1.55,0.29-2.98,0.86-4.31c0.57-1.33,1.41-2.47,2.52-3.44c1.11-0.97,2.47-1.72,4.08-2.28
		c1.61-0.55,3.47-0.82,5.57-0.82c3.78,0,6.77,0.8,8.95,2.41c2.18,1.6,3.76,3.92,4.74,6.96l-3.43,1.59
		c-0.41-1.24-0.91-2.36-1.53-3.39c-0.62-1.03-1.37-1.91-2.23-2.64c-0.88-0.74-1.87-1.3-2.99-1.7c-1.12-0.4-2.4-0.59-3.81-0.59
		c-1.26,0-2.37,0.18-3.31,0.54c-0.94,0.36-1.73,0.82-2.35,1.39c-0.62,0.57-1.09,1.22-1.4,1.94c-0.32,0.73-0.47,1.46-0.47,2.22
		c0,1.06,0.32,2.03,0.97,2.92c0.65,0.88,1.5,1.71,2.55,2.51c1.05,0.79,2.26,1.55,3.61,2.28c1.35,0.72,2.73,1.46,4.14,2.22
		s2.78,1.54,4.14,2.35c1.35,0.81,2.56,1.7,3.61,2.67c1.05,0.97,1.9,2.03,2.55,3.18c0.65,1.15,0.97,2.43,0.97,3.84
		c0,1.6-0.3,3.1-0.9,4.51c-0.6,1.4-1.51,2.63-2.71,3.68c-1.2,1.05-2.69,1.89-4.48,2.49c-1.79,0.61-3.86,0.91-6.23,0.91
		c-1.91,0-3.62-0.21-5.13-0.63c-1.51-0.43-2.84-1.04-4-1.86c-1.15-0.81-2.14-1.81-2.96-2.98c-0.82-1.18-1.5-2.52-2.03-4l3.61-1.51
		c0.42,1.32,0.98,2.49,1.69,3.54c0.71,1.04,1.53,1.93,2.48,2.65c0.95,0.73,2,1.28,3.15,1.66
		C410.36,915.85,411.59,916.04,412.89,916.04"/>
	<path class="st2" d="M451.76,876.35l18.79,41.32h-6.81l-6.1-13.49h-17.1l-6.3,13.49h-3.35l19.22-41.32H451.76L451.76,876.35z
		 M441.7,901.57h14.69l-7.24-15.97L441.7,901.57L441.7,901.57z"/>
	<polygon class="st2" points="226.44,938.39 228.11,938.39 228.11,949.24 226.44,949.24 226.44,938.39 	"/>
	<polygon class="st2" points="239.27,938.39 240.92,938.39 240.92,949.24 239.94,949.24 233.81,941.89 233.81,949.24 232.15,949.24 
		232.15,938.39 233.03,938.39 239.27,945.8 239.27,938.39 	"/>
	<polygon class="st2" points="247,940.04 243.87,940.04 243.87,938.39 251.83,938.39 251.83,940.04 248.7,940.04 248.7,949.24 
		247,949.24 247,940.04 	"/>
	<polygon class="st2" points="254.77,949.24 254.77,938.39 261.61,938.39 261.61,939.99 256.44,939.99 256.44,942.94 261.23,942.94 
		261.23,944.54 256.44,944.54 256.44,947.64 261.62,947.64 261.62,949.24 254.77,949.24 	"/>
	<path class="st2" d="M265.88,947.83c-1.04-1.06-1.56-2.4-1.56-4.01c0-1.63,0.54-2.96,1.62-4.02c1.09-1.07,2.41-1.6,3.97-1.6
		c1.78,0,3.45,0.76,4.42,1.92l-1.15,1.15c-0.86-0.95-1.94-1.42-3.26-1.42c-1.12,0-2.04,0.38-2.78,1.13
		c-0.74,0.75-1.12,1.7-1.12,2.85c0,1.13,0.37,2.08,1.1,2.83c0.74,0.75,1.65,1.12,2.75,1.12c1.23,0,2.45-0.54,3.26-1.41v-1.94h-3.38
		v-1.53h4.92v4.25c-1.33,1.49-2.96,2.25-4.85,2.25C268.24,949.4,266.92,948.87,265.88,947.83"/>
	<path class="st2" d="M283.87,949.24l-2.61-4.26h-1.42v4.26h-1.67v-10.85h3.78c1.12,0,1.97,0.32,2.57,0.97
		c0.6,0.64,0.9,1.42,0.9,2.33c0,1.42-0.84,2.7-2.39,3.13l2.86,4.42H283.87L283.87,949.24z M279.84,939.99v3.42h1.86
		c1.35,0,2-0.75,2-1.73c0-0.95-0.63-1.69-1.74-1.69H279.84L279.84,939.99z"/>
	<path class="st2" d="M295.68,949.24l-1.01-2.67h-3.94l-1.01,2.67h-1.8l4.26-10.85h1.09l4.21,10.85H295.68L295.68,949.24z
		 M292.71,941.08l-1.45,3.93h2.9L292.71,941.08L292.71,941.08z"/>
	<polygon class="st2" points="301.42,940.04 298.29,940.04 298.29,938.39 306.24,938.39 306.24,940.04 303.11,940.04 303.11,949.24 
		301.42,949.24 301.42,940.04 	"/>
	<polygon class="st2" points="309.2,949.24 309.2,938.39 316.04,938.39 316.04,939.99 310.86,939.99 310.86,942.94 315.66,942.94 
		315.66,944.54 310.86,944.54 310.86,947.64 316.05,947.64 316.05,949.24 309.2,949.24 	"/>
	<path class="st2" d="M319.6,949.24v-10.85h4.04c1.55,0,2.77,0.49,3.66,1.47c0.89,0.98,1.34,2.3,1.34,3.98
		c0,1.66-0.46,2.98-1.37,3.94c-0.92,0.97-2.16,1.45-3.76,1.45H319.6L319.6,949.24z M321.26,947.62h2.31c1.05,0,1.86-0.35,2.44-1.07
		c0.6-0.72,0.89-1.65,0.89-2.76c0-1.1-0.29-2-0.89-2.72c-0.58-0.72-1.39-1.07-2.42-1.07h-2.33V947.62L321.26,947.62z"/>
	<path class="st2" d="M338.02,947.84c-1.06-1.05-1.59-2.36-1.59-3.99c0-1.64,0.54-2.99,1.62-4.05c1.08-1.07,2.39-1.6,3.93-1.6
		c0.97,0,1.86,0.22,2.68,0.65c0.83,0.42,1.46,0.98,1.93,1.68l-1.19,1.09c-0.88-1.19-2-1.78-3.38-1.78c-1.09,0-2,0.38-2.75,1.14
		c-0.74,0.76-1.12,1.72-1.12,2.86c0,1.14,0.36,2.08,1.1,2.82c0.74,0.74,1.65,1.1,2.76,1.1c1.41,0,2.56-0.59,3.45-1.76l1.19,1.06
		c-1,1.4-2.74,2.34-4.71,2.34C340.38,949.4,339.08,948.89,338.02,947.84"/>
	<polygon class="st2" points="349.73,949.24 349.73,938.39 351.4,938.39 351.4,942.9 356.5,942.9 356.5,938.39 358.16,938.39 
		358.16,949.24 356.5,949.24 356.5,944.53 351.4,944.53 351.4,949.24 349.73,949.24 	"/>
	<path class="st2" d="M367.91,949.24l-2.6-4.26h-1.42v4.26h-1.67v-10.85H366c1.12,0,1.97,0.32,2.57,0.97
		c0.59,0.64,0.9,1.42,0.9,2.33c0,1.42-0.84,2.7-2.39,3.13l2.86,4.42H367.91L367.91,949.24z M363.89,939.99v3.42h1.85
		c1.35,0,2-0.75,2-1.73c0-0.95-0.63-1.69-1.74-1.69H363.89L363.89,939.99z"/>
	<polygon class="st2" points="373.11,938.39 374.78,938.39 374.78,949.24 373.11,949.24 373.11,938.39 	"/>
	<path class="st2" d="M377.88,947.25l1.13-1.1c0.6,1.1,1.59,1.66,2.66,1.66c1.1,0,1.82-0.66,1.82-1.48c0-0.55-0.35-1.02-1.06-1.4
		c-0.17-0.09-0.54-0.25-1.09-0.48c-0.53-0.25-0.96-0.46-1.23-0.62c-1.08-0.66-1.62-1.54-1.62-2.62c0-0.85,0.3-1.57,0.93-2.14
		c0.62-0.57,1.43-0.86,2.43-0.86c1.35,0,2.44,0.51,3.26,1.55l-1.03,1.16c-0.59-0.75-1.33-1.12-2.22-1.12
		c-0.93,0-1.59,0.51-1.59,1.32c0,0.51,0.3,0.95,0.9,1.29c0.18,0.1,0.58,0.31,1.2,0.6c0.62,0.28,1.06,0.5,1.32,0.64
		c1.09,0.61,1.64,1.47,1.64,2.58c0,0.92-0.35,1.69-1.03,2.29c-0.68,0.58-1.56,0.88-2.63,0.88
		C380.09,949.41,378.65,948.65,377.88,947.25"/>
	<polygon class="st2" points="390.54,940.04 387.41,940.04 387.41,938.39 395.36,938.39 395.36,940.04 392.23,940.04 392.23,949.24 
		390.54,949.24 390.54,940.04 	"/>
	<polygon class="st2" points="398.32,938.39 399.99,938.39 399.99,949.24 398.32,949.24 398.32,938.39 	"/>
	<path class="st2" d="M410.63,949.24l-1.01-2.67h-3.94l-1.02,2.67h-1.8l4.26-10.85h1.09l4.22,10.85H410.63L410.63,949.24z
		 M407.66,941.08l-1.45,3.93h2.9L407.66,941.08L407.66,941.08z"/>
	<polygon class="st2" points="422.46,938.39 424.1,938.39 424.1,949.24 423.12,949.24 416.99,941.89 416.99,949.24 415.34,949.24 
		415.34,938.39 416.21,938.39 422.46,945.8 422.46,938.39 	"/>
	<path class="st2" d="M432.22,947.25l1.13-1.1c0.6,1.1,1.59,1.66,2.65,1.66c1.1,0,1.82-0.66,1.82-1.48c0-0.55-0.35-1.02-1.06-1.4
		c-0.17-0.09-0.53-0.25-1.08-0.48c-0.53-0.25-0.96-0.46-1.23-0.62c-1.09-0.66-1.62-1.54-1.62-2.62c0-0.85,0.3-1.57,0.93-2.14
		c0.62-0.57,1.43-0.86,2.43-0.86c1.35,0,2.44,0.51,3.26,1.55l-1.03,1.16c-0.6-0.75-1.34-1.12-2.22-1.12c-0.93,0-1.59,0.51-1.59,1.32
		c0,0.51,0.3,0.95,0.9,1.29c0.19,0.1,0.58,0.31,1.2,0.6c0.62,0.28,1.06,0.5,1.32,0.64c1.08,0.61,1.64,1.47,1.64,2.58
		c0,0.92-0.35,1.69-1.03,2.29c-0.68,0.58-1.57,0.88-2.64,0.88C434.43,949.41,432.99,948.65,432.22,947.25"/>
	<path class="st2" d="M443.9,947.84c-1.06-1.05-1.6-2.36-1.6-3.99c0-1.64,0.54-2.99,1.63-4.05c1.08-1.07,2.38-1.6,3.92-1.6
		c0.97,0,1.86,0.22,2.68,0.65c0.82,0.42,1.46,0.98,1.93,1.68l-1.19,1.09c-0.88-1.19-2-1.78-3.38-1.78c-1.09,0-2,0.38-2.75,1.14
		c-0.74,0.76-1.12,1.72-1.12,2.86c0,1.14,0.37,2.08,1.1,2.82c0.74,0.74,1.65,1.1,2.75,1.1c1.41,0,2.57-0.59,3.45-1.76l1.19,1.06
		c-1,1.4-2.74,2.34-4.71,2.34C446.26,949.4,444.95,948.89,443.9,947.84"/>
	<polygon class="st2" points="455.6,949.24 455.6,938.39 457.27,938.39 457.27,942.9 462.37,942.9 462.37,938.39 464.04,938.39 
		464.04,949.24 462.37,949.24 462.37,944.53 457.27,944.53 457.27,949.24 455.6,949.24 	"/>
	<path class="st2" d="M468.98,947.82c-1.06-1.07-1.58-2.4-1.58-3.95c0-1.57,0.53-2.91,1.62-4.01c1.08-1.1,2.39-1.66,3.93-1.66
		c1.55,0,2.85,0.54,3.94,1.64c1.08,1.1,1.62,2.42,1.62,3.98c0,1.55-0.54,2.87-1.62,3.96c-1.09,1.09-2.41,1.63-3.99,1.63
		C471.36,949.41,470.04,948.89,468.98,947.82 M475.66,946.64c0.74-0.75,1.12-1.69,1.12-2.8c0-1.13-0.38-2.09-1.12-2.84
		c-0.74-0.75-1.64-1.13-2.7-1.13c-1.06,0-1.98,0.38-2.71,1.15c-0.74,0.75-1.1,1.68-1.1,2.82c0,1.1,0.36,2.04,1.08,2.79
		c0.74,0.75,1.64,1.13,2.73,1.13C474.03,947.75,474.93,947.39,475.66,946.64"/>
	<path class="st2" d="M482.79,947.82c-1.05-1.07-1.58-2.4-1.58-3.95c0-1.57,0.53-2.91,1.62-4.01c1.08-1.1,2.39-1.66,3.93-1.66
		c1.55,0,2.85,0.54,3.94,1.64c1.09,1.1,1.62,2.42,1.62,3.98c0,1.55-0.54,2.87-1.62,3.96s-2.4,1.63-3.99,1.63
		C485.17,949.41,483.85,948.89,482.79,947.82 M489.47,946.64c0.74-0.75,1.12-1.69,1.12-2.8c0-1.13-0.38-2.09-1.12-2.84
		c-0.74-0.75-1.64-1.13-2.71-1.13c-1.06,0-1.97,0.38-2.71,1.15c-0.74,0.75-1.1,1.68-1.1,2.82c0,1.1,0.36,2.04,1.09,2.79
		c0.74,0.75,1.64,1.13,2.72,1.13C487.83,947.75,488.73,947.39,489.47,946.64"/>
	<polygon class="st2" points="495.69,949.24 495.69,938.39 497.35,938.39 497.35,947.61 503,947.61 503,949.24 495.69,949.24 	"/>
</g>
</svg>
