<?xml version="1.0" encoding="utf-8"?>
<!-- Generator: Adobe Illustrator 26.2.1, SVG Export Plug-In . SVG Version: 6.00 Build 0)  -->
<svg version="1.1" id="Layer_1" xmlns="http://www.w3.org/2000/svg" xmlns:xlink="http://www.w3.org/1999/xlink" x="0px" y="0px"
	 viewBox="0 0 2560 1688" style="enable-background:new 0 0 2560 1688;" xml:space="preserve">
<style type="text/css">
	.st0{fill:#224CA1;}
	.st1{opacity:0.1;fill:#A2A3A3;enable-background:new    ;}
	.st2{fill:#FFFFFF;}
	.st3{clip-path:url(#SVGID_00000153697600052948342260000001439816638122873222_);}
	
		.st4{clip-path:url(#SVGID_00000176012482942667740610000015183334411162530469_);fill:url(#SVGID_00000164493197300447496010000016838284262351946920_);}
	.st5{fill:url(#SVGID_00000086675515071758010630000017132794322403250366_);}
	.st6{fill:#133359;}
	.st7{fill:#6582BE;}
	.st8{fill:#F9B914;}
	.st9{opacity:0.1;fill:#0E5168;enable-background:new    ;}
	.st10{fill:#0A3E4C;}
	.st11{fill:#0E5168;}
	.st12{fill:#464548;}
	.st13{font-family:'ArialMT';}
	.st14{font-size:65.911px;}
	.st15{clip-path:url(#SVGID_00000036227610697820524310000009133811447043851952_);}
	
		.st16{clip-path:url(#SVGID_00000070797900827531986350000012930001793520446621_);fill:url(#SVGID_00000009567928722649265090000008283346605320851339_);}
	.st17{clip-path:url(#SVGID_00000026142127097000086980000008049691027371395205_);}
	
		.st18{clip-path:url(#SVGID_00000095303126630836416530000011389069408384767632_);fill:url(#SVGID_00000152953705784500650530000003891351902226172325_);}
	.st19{fill:url(#SVGID_00000116919517132286330460000004948410839032926140_);}
	.st20{clip-path:url(#SVGID_00000023974773065157798710000007596237806050456709_);}
	
		.st21{clip-path:url(#SVGID_00000063620111057092363440000017255382973412870049_);fill:url(#SVGID_00000000213368254116428720000009944016908080315812_);}
	.st22{clip-path:url(#SVGID_00000121994995237278592050000001246106039742751406_);}
	
		.st23{clip-path:url(#SVGID_00000039812190319350267480000012200102652480448939_);fill:url(#SVGID_00000157990746201576503900000012841651518485150106_);}
	.st24{fill:url(#SVGID_00000123424245518230174580000007515784626334123671_);}
	.st25{fill:#AC1426;}
	.st26{fill:#FFF0E7;}
	.st27{fill:#072743;}
	.st28{fill:#275279;}
	.st29{fill:#0F3358;}
	.st30{fill:#FDBD8E;}
	.st31{fill:#FB9988;}
	.st32{fill:#FFDABA;}
	.st33{fill:#E94E21;}
	.st34{fill:#FD7D6F;}
	.st35{fill:#161818;}
	.st36{fill:#FF8035;}
	.st37{fill:#FFA049;}
	.st38{fill:#2C2C2C;}
	.st39{fill:#3F0D0D;}
	.st40{fill:#75312F;}
	.st41{fill:#EDB838;}
	.st42{fill:#CE9307;}
	.st43{fill:#FFD455;}
	.st44{fill:#940B20;}
	.st45{fill:#474747;}
	.st46{fill:#FFA07F;}
	.st47{fill:#FFBF90;}
	.st48{fill:#F37C71;}
	.st49{fill:#274F74;}
	.st50{fill:#171228;}
	.st51{fill:#909AA3;}
	.st52{fill:#FF9300;}
	.st53{fill:#313044;}
	.st54{fill:#414156;}
	.st55{fill:#5E5E73;}
	.st56{fill:#55062C;}
	.st57{fill:#3F0727;}
	.st58{fill:#6F0A32;}
	.st59{fill:#CF691F;}
	.st60{fill:#FFE598;}
	.st61{fill:#143359;}
	.st62{font-family:'LaoMN';}
	.st63{font-size:43.9906px;}
	.st64{letter-spacing:3;}
	.st65{fill:#F2DDCE;}
	.st66{fill:#F2DECC;}
	.st67{fill:#484548;}
	.st68{fill:#F5B918;}
	.st69{fill:#C6E2EF;}
	.st70{fill:#274E9F;}
	.st71{enable-background:new    ;}
	.st72{clip-path:url(#SVGID_00000131350227829183031540000006571442543636061325_);fill:#E65100;}
	.st73{clip-path:url(#SVGID_00000131350227829183031540000006571442543636061325_);fill:#B71C1C;}
</style>
<rect x="-14" y="-38" class="st0" width="2583.3" height="1765"/>
<rect x="0.4" y="618" class="st1" width="2559.6" height="89.1"/>
<rect x="0.4" y="1088.8" class="st1" width="2559.6" height="89.1"/>
<polygon class="st2" points="1697.9,1517 1196.1,1517 1196.1,523 1697.9,412.8 "/>
<g>
	<g>
		<defs>
			<polygon id="SVGID_1_" points="1,1 2,1 1,2 			"/>
		</defs>
		<defs>
			<polygon id="SVGID_00000179641725499056565320000017302005243366167737_" points="-1,-1 -2,-1 -1,-2 			"/>
		</defs>
		<clipPath id="SVGID_00000036940063257289088230000004654001440751206554_">
			<use xlink:href="#SVGID_1_"  style="overflow:visible;"/>
		</clipPath>
		
			<clipPath id="SVGID_00000162325177354360791960000018085331184888175493_" style="clip-path:url(#SVGID_00000036940063257289088230000004654001440751206554_);">
			<use xlink:href="#SVGID_00000179641725499056565320000017302005243366167737_"  style="overflow:visible;"/>
		</clipPath>
		
			<linearGradient id="SVGID_00000107548358842744107260000003496028373906154389_" gradientUnits="userSpaceOnUse" x1="8.000000e-02" y1="149.8" x2="1520.65" y2="149.8" gradientTransform="matrix(1 0 0 -1 0 1688)">
			<stop  offset="0" style="stop-color:#000000"/>
			<stop  offset="9.580000e-02" style="stop-color:#232323"/>
			<stop  offset="0.4244" style="stop-color:#989898"/>
			<stop  offset="0.6505" style="stop-color:#E2E2E2"/>
			<stop  offset="0.7545" style="stop-color:#FFFFFF"/>
		</linearGradient>
		
			<polygon style="clip-path:url(#SVGID_00000162325177354360791960000018085331184888175493_);fill:url(#SVGID_00000107548358842744107260000003496028373906154389_);" points="
			1290.6,1486 0.1,1443.1 0.1,1710.5 1044.6,1710.5 1387.2,1604.8 1520.7,1365.9 		"/>
	</g>
</g>
<linearGradient id="SVGID_00000127737219260628633140000010688724597566676662_" gradientUnits="userSpaceOnUse" x1="8.000000e-02" y1="149.8" x2="1520.65" y2="149.8" gradientTransform="matrix(1 0 0 -1 0 1688)">
	<stop  offset="0" style="stop-color:#FFFFFF"/>
	<stop  offset="0.7545" style="stop-color:#FFFFFF"/>
</linearGradient>
<polygon style="fill:url(#SVGID_00000127737219260628633140000010688724597566676662_);" points="1290.6,1486 0.1,1443.1 
	0.1,1710.5 1044.6,1710.5 1387.2,1604.8 1520.7,1365.9 "/>
<polygon class="st6" points="1410.4,334 1843.3,438.6 1843.3,1511.3 1410.4,1604.8 1403.2,1589 1401.5,338.8 "/>
<rect x="1387.2" y="334" class="st7" width="23.2" height="1270.8"/>
<polygon class="st8" points="1821.7,943.3 1821.7,470.1 1432,371.7 1432,932.9 "/>
<polygon class="st8" points="1432,1007.7 1432,1567.7 1821.7,1479.8 1821.7,1018.1 "/>
<polygon class="st9" points="1821.7,943.3 1607.3,753.6 1432,371.7 1432,932.9 "/>
<polygon class="st9" points="1432,1007.7 1432,1567.7 1821.7,1479.8 1590.7,1347.4 "/>
<path class="st10" d="M1468.9,971.5c0,18.1-6.1,32.8-12.8,32.8c-10.5,0-25.2-5.8-25.2-32.8c0-22.9,13.8-32.8,24.3-32.8
	S1468.9,953.3,1468.9,971.5z"/>
<path class="st11" d="M1472.2,971.5c0,18.1-7.2,32.8-16.1,32.8s-16.1-14.7-16.1-32.8s7.2-32.8,16.1-32.8
	C1465,938.6,1472.2,953.3,1472.2,971.5z"/>
<polygon class="st2" points="1742.8,599 1742.8,522.5 1511,472.5 1511,563.2 "/>
<g>
	<text transform="matrix(0.8586 0.1503 0 1 1512.5745 544.8329)" class="st12 st13 st14">FUTURE</text>
</g>
<g>
	<g>
		<g>
			<defs>
				<polygon id="SVGID_00000108281570083652335380000015907697698817476271_" points="1,1 2,1 1,2 				"/>
			</defs>
			<defs>
				<polygon id="SVGID_00000136408804360331225470000006615558781948210854_" points="-1,-1 -2,-1 -1,-2 				"/>
			</defs>
			<clipPath id="SVGID_00000062909365485714068730000013376625055351666838_">
				<use xlink:href="#SVGID_00000108281570083652335380000015907697698817476271_"  style="overflow:visible;"/>
			</clipPath>
			
				<clipPath id="SVGID_00000038399275016181051890000000225857214647592095_" style="clip-path:url(#SVGID_00000062909365485714068730000013376625055351666838_);">
				<use xlink:href="#SVGID_00000136408804360331225470000006615558781948210854_"  style="overflow:visible;"/>
			</clipPath>
			
				<linearGradient id="SVGID_00000016045666348579247240000013980905030360336306_" gradientUnits="userSpaceOnUse" x1="-14" y1="46.89" x2="825.4" y2="46.89" gradientTransform="matrix(1 0 0 -1 0 1688)">
				<stop  offset="0" style="stop-color:#000000"/>
				<stop  offset="9.580000e-02" style="stop-color:#232323"/>
				<stop  offset="0.4244" style="stop-color:#989898"/>
				<stop  offset="0.6505" style="stop-color:#E2E2E2"/>
				<stop  offset="0.7545" style="stop-color:#FFFFFF"/>
			</linearGradient>
			
				<polygon style="clip-path:url(#SVGID_00000038399275016181051890000000225857214647592095_);fill:url(#SVGID_00000016045666348579247240000013980905030360336306_);" points="
				825.4,1607.2 -7,1687.3 -14,1605.6 825.4,1594.9 			"/>
		</g>
	</g>
	<g>
		<g>
			<g>
				<defs>
					<polygon id="SVGID_00000023965055623177603170000008339147532419897776_" points="1,1 2,1 1,2 					"/>
				</defs>
				<defs>
					<polygon id="SVGID_00000039129050430783037820000003689235608605384582_" points="-1,-1 -2,-1 -1,-2 					"/>
				</defs>
				<clipPath id="SVGID_00000041997080379840106910000005278257411155398056_">
					<use xlink:href="#SVGID_00000023965055623177603170000008339147532419897776_"  style="overflow:visible;"/>
				</clipPath>
				
					<clipPath id="SVGID_00000085950382119149013660000007791896403184941450_" style="clip-path:url(#SVGID_00000041997080379840106910000005278257411155398056_);">
					<use xlink:href="#SVGID_00000039129050430783037820000003689235608605384582_"  style="overflow:visible;"/>
				</clipPath>
				
					<linearGradient id="SVGID_00000106869486179687559650000018082347721233241472_" gradientUnits="userSpaceOnUse" x1="-14" y1="45.56" x2="832.37" y2="45.56" gradientTransform="matrix(1 0 0 -1 0 1688)">
					<stop  offset="0" style="stop-color:#000000"/>
					<stop  offset="9.580000e-02" style="stop-color:#232323"/>
					<stop  offset="0.4244" style="stop-color:#989898"/>
					<stop  offset="0.6505" style="stop-color:#E2E2E2"/>
					<stop  offset="0.7545" style="stop-color:#FFFFFF"/>
				</linearGradient>
				
					<polygon style="clip-path:url(#SVGID_00000085950382119149013660000007791896403184941450_);fill:url(#SVGID_00000106869486179687559650000018082347721233241472_);" points="
					810.8,1609.2 -7,1687.3 -14,1605.6 832.4,1597.6 				"/>
			</g>
		</g>
		
			<linearGradient id="SVGID_00000023260841679201239890000014393330071238774161_" gradientUnits="userSpaceOnUse" x1="-14" y1="45.56" x2="832.37" y2="45.56" gradientTransform="matrix(1 0 0 -1 0 1688)">
			<stop  offset="0" style="stop-color:#FFFFFF"/>
			<stop  offset="0.3156" style="stop-color:#ACABAD"/>
			<stop  offset="0.6162" style="stop-color:#636264"/>
			<stop  offset="0.7545" style="stop-color:#464548"/>
		</linearGradient>
		<polygon style="fill:url(#SVGID_00000023260841679201239890000014393330071238774161_);" points="810.8,1609.2 -7,1687.3 
			-14,1605.6 832.4,1597.6 		"/>
	</g>
	<g>
		<g>
			<defs>
				<polygon id="SVGID_00000037662302363276446200000016134780853348996532_" points="1,1 2,1 1,2 				"/>
			</defs>
			<defs>
				<polygon id="SVGID_00000111885272160386028070000016141811953138365871_" points="-1,-1 -2,-1 -1,-2 				"/>
			</defs>
			<clipPath id="SVGID_00000042718047138679012700000014505303136940937919_">
				<use xlink:href="#SVGID_00000037662302363276446200000016134780853348996532_"  style="overflow:visible;"/>
			</clipPath>
			
				<clipPath id="SVGID_00000139974364445776110120000010647716396852475820_" style="clip-path:url(#SVGID_00000042718047138679012700000014505303136940937919_);">
				<use xlink:href="#SVGID_00000111885272160386028070000016141811953138365871_"  style="overflow:visible;"/>
			</clipPath>
			
				<linearGradient id="SVGID_00000138573632611049941720000003822011944388656270_" gradientUnits="userSpaceOnUse" x1="290.3538" y1="102.6974" x2="1129.7417" y2="102.6974" gradientTransform="matrix(0.9922 0.1248 0.1248 -0.9922 33.5878 1578.322)">
				<stop  offset="0" style="stop-color:#000000"/>
				<stop  offset="9.580000e-02" style="stop-color:#232323"/>
				<stop  offset="0.4244" style="stop-color:#989898"/>
				<stop  offset="0.6505" style="stop-color:#E2E2E2"/>
				<stop  offset="0.7545" style="stop-color:#FFFFFF"/>
			</linearGradient>
			
				<polygon style="clip-path:url(#SVGID_00000139974364445776110120000010647716396852475820_);fill:url(#SVGID_00000138573632611049941720000003822011944388656270_);" points="
				1171.6,1583.8 335.7,1559.3 338.9,1477.4 1173.1,1571.6 			"/>
		</g>
	</g>
	<g>
		<g>
			<g>
				<defs>
					<polygon id="SVGID_00000078759612622814891790000011289977326136651924_" points="1,1 2,1 1,2 					"/>
				</defs>
				<defs>
					<polygon id="SVGID_00000082336804152291710330000014088482804669193372_" points="-1,-1 -2,-1 -1,-2 					"/>
				</defs>
				<clipPath id="SVGID_00000151531308557661083520000015245573373230084773_">
					<use xlink:href="#SVGID_00000078759612622814891790000011289977326136651924_"  style="overflow:visible;"/>
				</clipPath>
				
					<clipPath id="SVGID_00000059286038058809854870000012448456272194517670_" style="clip-path:url(#SVGID_00000151531308557661083520000015245573373230084773_);">
					<use xlink:href="#SVGID_00000082336804152291710330000014088482804669193372_"  style="overflow:visible;"/>
				</clipPath>
				
					<linearGradient id="SVGID_00000031913013206204368270000001183643479821125286_" gradientUnits="userSpaceOnUse" x1="290.3538" y1="101.3667" x2="1136.7048" y2="101.3667" gradientTransform="matrix(0.9922 0.1248 0.1248 -0.9922 33.5878 1578.322)">
					<stop  offset="0" style="stop-color:#000000"/>
					<stop  offset="9.580000e-02" style="stop-color:#232323"/>
					<stop  offset="0.4244" style="stop-color:#989898"/>
					<stop  offset="0.6505" style="stop-color:#E2E2E2"/>
					<stop  offset="0.7545" style="stop-color:#FFFFFF"/>
				</linearGradient>
				
					<polygon style="clip-path:url(#SVGID_00000059286038058809854870000012448456272194517670_);fill:url(#SVGID_00000031913013206204368270000001183643479821125286_);" points="
					1156.8,1583.9 335.7,1559.3 338.9,1477.4 1179.7,1575.1 				"/>
			</g>
		</g>
		
			<linearGradient id="SVGID_00000011016245773451529870000013347691058269066377_" gradientUnits="userSpaceOnUse" x1="290.3538" y1="101.3667" x2="1136.7048" y2="101.3667" gradientTransform="matrix(0.9922 0.1248 0.1248 -0.9922 33.5878 1578.322)">
			<stop  offset="0" style="stop-color:#FFFFFF"/>
			<stop  offset="0.3156" style="stop-color:#ACABAD"/>
			<stop  offset="0.6162" style="stop-color:#636264"/>
			<stop  offset="0.7545" style="stop-color:#464548"/>
		</linearGradient>
		<polygon style="fill:url(#SVGID_00000011016245773451529870000013347691058269066377_);" points="1156.8,1583.9 335.7,1559.3 
			338.9,1477.4 1179.7,1575.1 		"/>
	</g>
	<g>
		<g>
			<g>
				<g>
					<g>
						<g>
							<path class="st25" d="M508.2,1519.5c1.9-1,4-2.8,4.2-5.8c0.7-8.8,1.5-40.2,4.8-49.8c2.6-7.5,10.9-16.2,14.5-19.7l-20.8-50.8
								c-14.5,1.7-41.1,8.8-46.6,10.3L508.2,1519.5z"/>
							
								<rect x="474.2" y="1401.9" transform="matrix(0.9351 -0.3543 0.3543 0.9351 -487.4797 265.1593)" class="st26" width="12.4" height="123.9"/>
							<g>
								<path class="st26" d="M510.2,1455.3c-0.2,0-0.3-0.1-0.5-0.1c-1.2-0.2-2.9,0.1-3,1.6c0,0.8,0.3,1.6,0.8,2.2
									c1.5,2.4,3.4,4.3,5.6,6.1c2.3,1.9,4.7,3.9,7.7,4.6c3.1,0.7,4.5-2.4,2.9-4.9C520.8,1460.4,515.5,1456.3,510.2,1455.3z"/>
								<path class="st26" d="M507.3,1466.4c-0.2,0-0.3-0.1-0.5-0.1c-1.2-0.2-2.9,0.1-3,1.6c0,0.8,0.3,1.6,0.8,2.2
									c1.5,2.4,3.5,4.3,5.6,6.1c2.3,1.9,4.7,3.9,7.7,4.6c3.1,0.7,4.5-2.4,2.9-4.9C517.9,1471.5,512.5,1467.4,507.3,1466.4z"/>
								<path class="st26" d="M507.3,1478.7c-0.2,0-0.3-0.1-0.5-0.1c-1.2-0.2-2.9,0.1-3,1.6c0,0.8,0.3,1.6,0.8,2.2
									c1.5,2.4,3.5,4.3,5.6,6.1c2.3,1.9,4.7,3.9,7.7,4.6c3.1,0.7,4.5-2.4,2.9-4.9C517.9,1483.8,512.5,1479.7,507.3,1478.7z"/>
							</g>
						</g>
						<path class="st27" d="M720.5,1337.6c-2.6,17.5-184.3,121.1-184.3,121.1l-32.8-76l147.3-98c0,0,12.2-104.9,11-151.3l83.9,5.6
							c-0.3,7.8-0.7,16.6-1.1,25.9c-0.1,1.9-0.2,3.9-0.3,5.9c-0.1,3.1-0.3,6.2-0.4,9.3c-0.1,1.5-0.1,2.9-0.2,4.4
							C741.7,1230.7,721.9,1328.3,720.5,1337.6z"/>
						<g>
							<path class="st28" d="M744.3,1170.8c-3.1-3-5.9-6.5-7-8c-5.6-7.4-9.2-16-10.8-25.1l3.9,0.3c1.2,6.1,3.3,11.9,6.4,17.2
								c0.5,0.8,4.1,5.5,7.7,9.6C744.5,1166.8,744.4,1168.8,744.3,1170.8z"/>
							<path class="st28" d="M743.7,1184.5c-17.4-9.8-29.7-27.8-32.9-47.9l3.9,0.3c3,17.9,14,33.9,29.2,43.2
								C743.8,1181.6,743.8,1183.1,743.7,1184.5z"/>
						</g>
					</g>
					<g>
						<g>
							<path class="st25" d="M831.3,1597.6c-0.4-2.1-1.5-4.6-4.3-5.8c-8.1-3.3-37.9-13.5-46-19.6c-6.3-4.7-12.1-15.3-14.4-19.7
								L712,1557c-2.8,14.3-4,41.8-4.3,47.6L831.3,1597.6z"/>
							
								<rect x="708" y="1601.1" transform="matrix(0.9984 -5.640047e-02 5.640047e-02 0.9984 -89.4265 45.9805)" class="st26" width="123.8" height="12.4"/>
							<g>
								<path class="st26" d="M770.8,1576.3c-0.1,0.2-0.2,0.3-0.2,0.4c-0.5,1.1-0.8,2.8,0.6,3.4c0.8,0.3,1.6,0.1,2.4-0.1
									c2.7-0.7,5.1-2,7.5-3.5c2.5-1.6,5.2-3.3,6.7-6c1.6-2.7-0.9-5-3.8-4.2C778.9,1567.8,773.3,1571.6,770.8,1576.3z"/>
								<path class="st26" d="M780.5,1582.4c-0.1,0.2-0.2,0.3-0.2,0.4c-0.5,1.1-0.8,2.8,0.6,3.4c0.8,0.3,1.6,0.1,2.4-0.1
									c2.7-0.7,5.1-2,7.5-3.5c2.5-1.6,5.2-3.3,6.7-6c1.6-2.7-0.9-5-3.8-4.2C788.5,1573.9,783,1577.8,780.5,1582.4z"/>
								<path class="st26" d="M792.2,1586.2c-0.1,0.2-0.2,0.3-0.2,0.4c-0.5,1.1-0.8,2.8,0.6,3.4c0.8,0.3,1.6,0.2,2.4-0.1
									c2.7-0.7,5.1-2,7.5-3.5c2.5-1.6,5.2-3.3,6.7-6c1.6-2.7-0.9-5-3.8-4.2C800.2,1577.6,794.7,1581.5,792.2,1586.2z"/>
							</g>
						</g>
						<path class="st29" d="M779.9,1557.2l-74.5,2.9l-10.2,0.4c0,0-42.2-190.7-43.1-199.1c-0.6-5.6-31.5-106-52-171.9
							c-0.4-1.3-0.8-2.6-1.2-3.9c-1.6-5.2-3.1-10.1-4.6-14.7c-0.4-1.3-0.8-2.5-1.2-3.8c-6.4-20.7-10.7-34.4-10.7-34.4l18.4,1.2
							l17.4,1.1l4,0.2l10.8,0.7l3.9,0.2l50,3.1L779.9,1557.2z"/>
						<path class="st27" d="M705.4,1560.2l-10.2,0.4c0,0-42.2-190.7-43.1-199.1c-0.6-5.6-31.5-106-52-171.9
							c-0.4-1.3-0.8-2.6-1.2-3.9c-1.6-5.2-3.1-10.1-4.6-14.7c-0.4-1.3-0.8-2.5-1.2-3.8c-6.4-20.7-10.7-34.4-10.7-34.4l18.4,1.2
							c12.5,43.7,62.4,218,61.3,226.3C661.3,1366.5,703.3,1512.9,705.4,1560.2z"/>
						<g>
							<path class="st28" d="M636.8,1136.2c-4,22.1-17.7,41.9-36.7,53.4c-0.4-1.3-0.8-2.6-1.2-3.9c17.5-10.9,30.2-29.2,34-49.7
								L636.8,1136.2z"/>
							<path class="st28" d="M622.2,1135.3c-3.2,15.4-13.8,28.8-27.8,35.7c-0.4-1.3-0.8-2.5-1.2-3.8c12.6-6.3,22-18.3,25-32.2
								L622.2,1135.3z"/>
						</g>
						<path class="st28" d="M694.8,1368.3c1.4,3.8,3.2,7.5,6.1,10.3c2.9,2.8,7,4.7,10.9,3.9c7.5-1.3,10.8-10.3,11.6-17.9
							c0.7-6.3,0.6-12.7-0.2-19.1c-0.3-2.8-0.9-5.8-2.7-8c-5.6-7-22.5-6.5-28,0.5C686.6,1345.7,691.9,1360.6,694.8,1368.3z"/>
					</g>
				</g>
				<g>
					<g>
						<g>
							<path class="st30" d="M652.8,830.5c0.9,1,40.8,34.9,40.8,34.9s0.3-19.2,0.5-29.2c0.1-3.1,0.1-5.3,0.2-5.8
								c0.3-4,4.8-21,4.8-21l-41-22.2c0,0-1.2,8.7-2.5,18.3C654,817.1,652.4,830,652.8,830.5z"/>
							<path class="st31" d="M655.5,805.5c11.2,9.3,35.8,29.7,38.4,30.7c0.1,0,0.2,0,0.2,0.1c0.1-3.1,0.1-5.3,0.2-5.8
								c0.3-4,4.8-21,4.8-21l-41-22.2C658.1,787.2,656.8,795.9,655.5,805.5z"/>
						</g>
					</g>
					<g>
						<g>
							<path class="st30" d="M652.2,788.3c0,0,0.8,3.1,5.3,7.6l0,0c0.9,0.9,2,1.9,3.2,2.9c4.7,3.9,49.9,26.9,57.1,26.5
								c7.2-0.5,15.6-24.6,16.2-27.2c3.4-15.7,13-64.4,13-64.4c-14.1-54.7-79-31.2-86.5-26.4C653,712.1,652.2,788.3,652.2,788.3z"/>
							<path class="st32" d="M657.5,796c0.9,0.9,2,1.9,3.2,2.9c4.7,3.9,49.9,26.9,57.1,26.5c7.2-0.5,15.6-24.6,16.2-27.2
								c-5.2,10.5-11.2,25.1-16.3,24.3C710.1,821.2,662.9,799.3,657.5,796z"/>
						</g>
						<g>
							<path class="st33" d="M740.4,741.6c0,0-5.3-13.3-11.1-10.2c-5.8,3.2-3.8,4.2-3.8,4.2L740.4,741.6z"/>
							<path class="st33" d="M677.9,739c0,0,16.1-18,22.5-11.5c3.7,3.8,1.1,6.4,1.1,6.4L677.9,739z"/>
							<g>
								<path class="st31" d="M711,779.9c-1.3-0.6-2.7-1.4-4.1-1.4c1.2,3.4,3.8,6.3,7.1,7.8c0.2,0.1,0.5,0.2,0.8,0.2
									c0.3,0,0.7-0.1,1-0.3c1.9-1,3.7-2.3,5.1-4c0.3-0.3,0.6-0.7,0.7-1.1c0.4-1.4-0.6-1.1-1.4-0.9c-1,0.3-2,0.5-3.1,0.6
									C715,781.1,712.8,780.7,711,779.9z"/>
								<path class="st34" d="M714.3,785.6c0.9-0.7,1.9-1.3,2.8-2c1.2-0.8,2.2-1.8,3.2-2.8c-4.4-3.5-4-8.2-3.4-13.6
									c0.3-2.4,1.1-4.8,2.4-6.9c0.7-1.1,1.5-2.1,2.5-3c0.5-0.5,1-0.9,1.5-1.2c0.5-0.4,1-0.6,1.6-0.8c-0.3,0.3-0.5,0.7-0.8,1
									c-0.7,0.8-1.5,1.6-2.1,2.5c-0.6,0.9-1.2,1.8-1.7,2.8c-1,2-1.6,4.1-1.8,6.3c-0.2,2.2,0,4.3,0.6,6.4c0.8,2.3,2.2,4.7,4.2,6.2
									c0,0-3.4,3.4-3.7,3.7c-0.8,0.7-1.8,1.3-2.7,1.9c-1,0.5-2,1.1-3.2,1c-0.3,0-0.7-0.1-1-0.4c0.2-0.1,0.4-0.2,0.6-0.4
									c0.1-0.1,0.2-0.1,0.2-0.2C713.8,786,714.1,785.8,714.3,785.6z"/>
								<path class="st35" d="M679.2,753.4c0,5,2.5,9,5.6,9s5.6-4,5.6-9c0-5-2.5-9-5.6-9C681.7,744.5,679.2,748.5,679.2,753.4z"/>
								<path class="st26" d="M677.5,749.4c0,0,1.2,1.9,3.3,2.7c2.1,0.8,4.2,0.3,4.2,0.3s-1.2-1.9-3.3-2.7
									C679.6,748.9,677.5,749.4,677.5,749.4z"/>
								<path class="st35" d="M733.2,757.9c0,3.7-1.9,6.8-4.2,6.8s-4.2-3-4.2-6.8s1.9-6.8,4.2-6.8
									C731.3,751.2,733.2,754.2,733.2,757.9z"/>
								<path class="st26" d="M737.9,756.9c0,0-1.5,2-3.9,3c-2.4,1-4.9,0.6-4.9,0.6s1.5-2,3.9-3
									C735.5,756.5,737.9,756.9,737.9,756.9z"/>
								<path class="st34" d="M717.5,810.2c-4.1-2.4-9.2-2.9-13.7-1.3c1.7-2.1,3.8-3.2,6.5-3C713,806.1,715.8,808.1,717.5,810.2z"/>
								<path class="st34" d="M689.8,791.7c12.6,17.2,28.7,13.8,37.8,4.6c-6.8,1.6-12.5,2-19.5,1.2
									C702.8,796.9,694.4,794.6,689.8,791.7z"/>
							</g>
							<path class="st31" d="M728.1,783c0.6,2,4.8,2.5,9.4,1.1c4.6-1.4,7.8-4.1,7.2-6.1c-0.6-2-4.8-2.5-9.4-1.1S727.5,781,728.1,783
								z"/>
							<path class="st31" d="M672.3,770.1c-1,2.9,3.7,7,10.3,9.2c6.7,2.2,12.8,1.6,13.8-1.3c1-2.9-3.7-7-10.3-9.2
								C679.4,766.6,673.2,767.2,672.3,770.1z"/>
						</g>
					</g>
					<path class="st36" d="M665.3,751.7c-2.7,5.1-6.2,10.5-5.3,16.2c0.5,3.7,2.9,7,3.5,10.7c0.8,5-1.5,10-4.2,14.3
						c-2.6,4.4-6.1,8.9-11.1,10c1-3.2,0.8-6.8-0.5-9.9c-0.4,3.9-3.4,7.4-7.2,8.4c0.5-2.6,0.3-5.4-0.5-7.9c-0.8,3.7-5.2,6.1-8.8,4.8
						c3.2-1.9,4.8-6.2,3.5-9.8c-0.1-0.2-0.1-0.3-0.2-0.5c-2.8-6.5-13-8.6-13.6-15.7c-0.4-4.8,4.3-8.9,4.2-13.8
						c-0.1-4.4-4-7.7-6-11.7c-0.9-1.8-1.3-3.7-1.4-5.7c0-1.3,0.1-2.7,0.4-4c0-0.2,0.1-0.3,0.1-0.5c0.8-2.8,2.3-5.3,4.6-7.1
						c0.7-0.6,1.5-1.1,2-1.8c0.1-0.2,0.3-0.4,0.4-0.6c0.6-1.2,0.3-2.7,0.2-4.1c-0.1-0.6-0.1-1.2-0.1-1.8c0-4.3,1.7-8.7,4.8-11.8
						c0.3-0.3,0.6-0.6,0.9-0.9c2.9-2.6,6.8-4,10.7-4.1c0.6,0,1.2,0,1.8,0.1l3.6-4.2c2.2,1.8,5.5,1.2,8.3,1.4
						c4.9,0.3,9.3,3.2,12.3,7.2c1.2,1.6,2.2,3.3,2.9,5.2c0.7,1.8,1.2,3.8,1.5,5.7c0,0.3,0.1,0.6,0.1,0.9c0.1,0.7,0.1,1.3,0.2,2
						c0.2,3.9-0.3,8-1.1,11.8C670.2,740.5,668.1,746.3,665.3,751.7z"/>
					<path class="st33" d="M738,773.6l7.8-38.8c-2-2-2.4-3.8-3.1-6.5c-0.3-1.3-0.5-2.6-1.1-3.7c-2.8-5.8-13.3-4.8-15.5-10.8
						c-0.5-1.4-0.9-2.6-1.3-3.8c-0.5,0.4-1.1,0.8-1.7,1.1c-5.7,3.2-12.9,2.6-18.6,5.7c-3.3,1.8-5.8,4.8-9.1,6.7
						c-3.4,2-7.6,2.8-11.5,2.1c-3.8-0.7-7.3-2.6-11.1-2.8c-0.1,0-0.2,0-0.2,0c0.2,3.9-0.3,8-1.1,11.8c-1.3,6-3.4,11.8-6.2,17.2
						c-2.7,5.1-6.2,10.5-5.3,16.2c0.5,3.7,2.9,7,3.5,10.7c0.8,5-1.5,10-4.2,14.3c-2.6,4.4-6.1,8.9-11.1,10c1-3.2,0.8-6.8-0.5-9.9
						c-0.4,3.9-3.4,7.4-7.2,8.4c0.5-2.6,0.3-5.4-0.5-7.9c-0.8,3.7-5.2,6.1-8.8,4.8c3.2-1.9,4.8-6.2,3.5-9.8
						c-0.1-0.2-0.1-0.3-0.2-0.5c1.9-2.2,2.3-5-1.1-8.1c0.9,0.2,1.8,0.3,2.8,0.5c0.4-4.3-3.4-7.6-5.7-11.2
						c-3.2-5.2-3.3-12.1-0.3-17.4c0.1,1.7,2.8,2.2,4,0.9c1.2-1.2,1.2-3.2,0.7-4.9c-0.4-1.7-1.2-3.3-1.2-5.1c2.2,1.4,5.3-0.4,6.2-2.9
						c0.9-2.4,0.4-5.2-0.2-7.7c1.1,2.3,4.6,2.6,6.5,1c2-1.6,2.6-4.3,2.6-6.9c0-2.5-0.6-5.1-0.6-7.6c0.1-6.2,4.2-12.1,9.9-14.3
						c-1.7,2.3-1.9,5.7-0.4,8.2c2.6-2.5,6.1-3.1,9.8-3.3c5.3-0.3,11,0.3,15.4-2.5c3.6-2.3,5.5-6.6,8.8-9.5c4.6-4,11.8-4.6,16.9-1.4
						c2.5,1.6,4.5,3.9,7.2,5.1c2.7,1.2,6.6,0.6,7.5-2.2c-0.8,5.5,6,10.5,11,8.1c0.6,6.2,7.9,10.6,13.7,8.4c-1.3,6.5-2,14.5,3.3,18.4
						c-0.2,4.2,1.3,8.3,3.9,11.6C748.2,757.4,738,773.6,738,773.6z"/>
					<g>
						<path class="st36" d="M763,729.1c-0.1-2.8-2-5.4-4.1-7.5c0.8-3.5,0.6-7.3-1.6-10.2c-2.3-3-6.6-5.2-6.4-8.9
							c0.1-2,1.5-3.7,1.7-5.7c0.4-3.4-2.8-6.2-5.8-8c-3-1.8-6.5-3.6-7.5-6.9c-0.6-1.9-0.2-4-0.6-5.9c-0.9-4.5-5.9-7.3-10.6-7.8
							c-4.9-0.6-9.9,0.7-13.9,3.5c-3.9-4.3-9.5-7.2-15.3-6.4c-5.2,0.8-9.7,4.4-15,4.8c-5.3,0.4-10.7-2.8-15.9-1.4
							c-5,1.3-7.9,6.3-12.4,8.8c-5.2,2.9-12.3,2.3-16.5,6.5c-4.4,4.4-3.2,11.2-3.1,17.7c-3.1-2.8-5.1-6.8-5.2-11
							c-2.9,3.8-2.9,9.6,0,13.4c-2.6-0.6-5.4,0.1-7.6,1.7c-2.2,1.5-3.8,3.7-5.1,6.1c2.9-2.3,6.9-3.8,10.6-3.6c0.9,0,1.7,0.2,2.3,0.5
							c1.2,0.5,2.1,1.2,3.3,1.8c-0.4,0.7-0.8,1.3-1.3,2c-2,2.3-5.1,3.6-6.7,6.2c-0.5,0.8-0.8,1.7-1,2.7c-0.3,1.5-0.3,3-0.4,4.5
							c0,0.7,0,1.3,0,2c-0.1,1.8-0.3,3.7-1.2,5.2c-1.2,2.1-3,3.7-5.3,3.7c-0.1,0-0.2,0-0.3,0c0,0,0.1,0.2,0.2,0.5
							c0.2,0.4,0.5,1.2,1.1,2.1c2,3.5,6.6,9.9,15,13.4c4.2,1.8,9.4,2.8,15.8,2.4c0.2-0.1,6.5,7.6,4.9,15c4.5-4,1.9-17.5,4.5-22.9
							c1.5-3.1,4.4-5.3,6.1-8.3c1.2-2.1,1.7-4.4,2.2-6.7c0.7-3.2,1.5-6.3,2.8-9.3c0.6-0.1,1.3-0.1,1.9-0.1c0.1,0,0.2,0,0.2,0
							c3.8,0.2,7.3,2.1,11.1,2.8c3.9,0.7,8.1-0.1,11.5-2.1c3.2-1.9,5.8-4.9,9.1-6.7c5.7-3.2,12.9-2.6,18.6-5.7
							c0.6-0.3,1.1-0.7,1.7-1.1c0.4,1.2,0.8,2.5,1.3,3.8c2.2,6,12.7,5.1,15.5,10.8c0.6,1.2,0.7,2.5,1.1,3.7c0.7,2.7,1,4.5,3.1,6.5
							l-7.8,38.8c0,0,10.2-16.1,17.6-28.7c3.4-5.8,6.2-10.8,7-13.2C762.9,730.8,763.1,729.9,763,729.1z M709.5,708.1
							c-2,1.5-4.5,1.9-6.7,2.9c-3.4,1.5-6.1,4.2-9,6.6c-2.9,2.3-6.3,4.5-10,4.4c-2,0-3.9-0.7-5.8-1.1c-1.9-0.4-3.8-0.4-5.7-0.1
							c-0.2,0-0.5,0.1-0.8,0.1c0.2-0.3,0.4-0.7,0.6-1c1.9-2.8,4.5-5.2,7.7-6.2c5.6-1.7,11.8,0.9,17.3-1.1c3.8-1.4,6.7-4.8,10.7-5.3
							c0.8-0.1,1.7-0.1,2.5,0C710.2,707.6,709.9,707.9,709.5,708.1z"/>
						<g>
							<path class="st32" d="M658.9,790.7c-9.5-1.4-16.1-7.5-19.5-12.5c-0.8-1.1-1.4-2.2-1.8-3.2c-2.4-5.1-2-22.4,5.3-25.9
								c5.1-2.5,8.4,1.8,10,4.6v0c0.7,1.2,1,2.1,1,2.1L658.9,790.7z"/>
							<path class="st30" d="M658.9,790.7c-9.5-1.4-16.1-7.5-19.5-12.5c-0.3-0.5-0.5-1-0.8-1.4c-2.4-5.1-2-22.4,5.3-25.9
								c4.2-2,7.1,0.4,8.9,2.9v0c0.7,1.2,1,2.1,1,2.1L658.9,790.7z"/>
							<path class="st31" d="M639.7,762.6c-0.5,1.3-0.3,2.8,0,4.2c1.5,5.9,7,10.7,12.2,15.2c-1.5-2.9-1.9-6.1-1.3-9.2
								c0.2-1.1,0.5-2.1,0.6-3.2C651.6,765.2,642.3,754.6,639.7,762.6z"/>
							<g>
								<path class="st34" d="M654.6,783.8c0,0-0.1-0.1-0.3-0.2c-0.2-0.1-0.5-0.3-0.8-0.6c-0.7-0.5-1.7-1.4-2.6-2.6
									c-0.9-1.2-1.7-2.9-1.9-4.7c-0.2-1.9,0-4,1.1-6c0.1-0.2,0.3-0.5,0.5-0.7l0.1-0.2c0,0,0,0,0,0v0h0l0,0c0,0,0,0,0,0l-0.1-0.2
									l-0.2-0.3c-0.1-0.2-0.2-0.5-0.3-0.7c-0.5-0.9-1-1.7-1.5-2.5c-0.5-0.8-1.1-1.5-1.6-2.2c-0.6-0.7-1.1-1.3-1.6-1.7
									c-0.5-0.5-1.2-0.8-1.7-0.9c-0.6-0.1-1.2,0-1.5,0.2c-0.4,0.2-0.6,0.4-0.7,0.6c-0.1,0.2-0.1,0.3-0.1,0.3c0,0,0-0.1,0-0.3
									c0-0.2,0.2-0.5,0.6-0.8c0.4-0.2,1-0.5,1.8-0.4c0.8,0,1.6,0.4,2.3,0.8c0.7,0.5,1.4,1.1,2,1.7c0.7,0.6,1.3,1.3,2,2.1
									c0.6,0.8,1.2,1.6,1.8,2.6c0.1,0.2,0.3,0.5,0.4,0.7l0.2,0.4l0.2,0.5l0.2,0.4c-0.1,0.1-0.1,0.2-0.2,0.3l-0.3,0.5
									c-0.1,0.2-0.3,0.4-0.4,0.6c-1,1.7-1.3,3.6-1.2,5.3c0.1,1.7,0.5,3.2,1.2,4.5c0.6,1.2,1.3,2.2,1.9,2.8
									c0.3,0.3,0.5,0.5,0.7,0.7C654.6,783.7,654.6,783.8,654.6,783.8z"/>
							</g>
						</g>
					</g>
					<path class="st33" d="M755.6,744.8c-2.6-3.2-4.2-7.4-3.9-11.6c-5.3-3.9-4.6-11.9-3.3-18.4c-5.8,2.2-13-2.3-13.7-8.4
						c-5,2.4-11.8-2.6-11-8.1c-0.9,2.8-4.8,3.4-7.5,2.2c-2.7-1.2-4.7-3.5-7.2-5.1c-5.2-3.2-12.3-2.6-16.9,1.4
						c-3.2,2.9-5.1,7.1-8.8,9.5c-4.3,2.8-10.1,2.2-15.4,2.5c-3.7,0.2-7.2,0.8-9.8,3.3c-1.5-2.5-1.3-5.8,0.4-8.2
						c-5.7,2.3-9.8,8.2-9.9,14.3c0,2.5,0.5,5.1,0.6,7.6c0,2.5-0.6,5.3-2.6,6.9c-2,1.6-5.5,1.3-6.5-1c0.6,2.5,1.1,5.3,0.2,7.7
						c-0.9,2.4-4,4.2-6.2,2.9c0,1.7,0.8,3.4,1.2,5.1c0.4,1.7,0.5,3.7-0.7,4.9c4.2,1.8,9.4,2.8,15.8,2.4c0.2-0.1,6.5,7.6,4.9,15
						c4.5-4,1.9-17.5,4.5-22.9c1.5-3.1,4.4-5.3,6.1-8.3c1.2-2.1,1.7-4.4,2.2-6.7c0.7-3.2,1.5-6.3,2.8-9.3c0.6-0.1,1.3-0.1,1.9-0.1
						c0.1,0,0.2,0,0.2,0c3.8,0.2,7.3,2.1,11.1,2.8c3.9,0.7,8.1-0.1,11.5-2.1c3.2-1.9,5.8-4.9,9.1-6.7c5.7-3.2,12.9-2.6,18.6-5.7
						c0.6-0.3,1.1-0.7,1.7-1.1c0.4,1.2,0.8,2.5,1.3,3.8c2.2,6,12.7,5.1,15.5,10.8c0.6,1.2,0.7,2.5,1.1,3.7c0.7,2.7,1,4.5,3.1,6.5
						l-7.8,38.8C738,773.6,748.2,757.4,755.6,744.8z M709.5,708.1c-2,1.5-4.5,1.9-6.7,2.9c-3.4,1.5-6.1,4.2-9,6.6
						c-2.9,2.3-6.3,4.5-10,4.4c-2,0-3.9-0.7-5.8-1.1c-1.9-0.4-3.8-0.4-5.7-0.1c-0.2,0-0.5,0.1-0.8,0.1c0.2-0.3,0.4-0.7,0.6-1
						c1.9-2.8,4.5-5.2,7.7-6.2c5.6-1.7,11.8,0.9,17.3-1.1c3.8-1.4,6.7-4.8,10.7-5.3c0.8-0.1,1.7-0.1,2.5,0
						C710.2,707.6,709.9,707.9,709.5,708.1z"/>
					<path class="st37" d="M763,729.1c-1,0.1-2,0-2.8-0.5c-1.7-1-2.2-3.2-2.8-5.1c-0.7-1.9-2.2-4-4.2-3.6c0.5-1.8,1.1-3.8,0.5-5.6
						c-0.5-1.8-2.5-3.4-4.3-2.7c1.3-3.2-1.2-7.2-4.6-7.6c-0.8-0.1-1.7,0-2.3-0.5c-1.9-1.4,0.7-4,1.8-6c1-1.9,0.4-4.4-1.2-5.7
						c-1.7-1.3-4.3-1.2-5.9,0.3c-0.4-3.4-4.8-5.6-7.7-3.8c2.7-2.6,1-7.8-2.6-8.9c-3.6-1.1-7.6,1.2-9.2,4.5
						c-1.2-4.4-8.2-5.7-10.9-1.9c1-5.1-4.3-10.3-9.4-9.2c-2.6,0.6-4.8,2.4-7.5,3c-5.4,1.2-11.1-3.2-16.2-1.1
						c-4.4,1.8-6,7.7-10.4,9.7c-4.9,2.2-11.6-1.4-15.5,2.3c-1.1,1-1.7,2.5-2.3,3.8c-0.8,2-1.7,4.1-2.5,6.1c-1,2.5-2,5.5-1.3,7.9
						c0.2,0.7,0.5,1.4,1.1,2c-4.5,0.8-8.6,3.8-10.5,8c-2,4.1-1.8,9.2,0.5,13.2c-1.6-0.7-3.3,0.8-4,2.4s-0.9,3.5-2.2,4.7
						c-1,1-2.4,1.3-3.7,1.9c-1.4,0.6-2.6,1.5-3.7,2.6c-0.6,0.6-1.1,1.2-1.5,1.9c0-1.3,0.1-2.7,0.4-4c-0.1-0.3-0.2-0.5-0.2-0.5
						c0.1,0,0.2,0,0.3,0c0.8-2.8,2.3-5.3,4.6-7.1c0.7-0.6,1.5-1.1,2-1.8c0-0.7,0-1.3,0-2c0-1.5,0.1-3,0.4-4.5
						c0-4.3,1.7-8.7,4.8-11.8c0.3-0.3,0.6-0.6,0.9-0.9c-0.7-0.3-1.4-0.5-2.3-0.5c-3.7-0.2-7.8,1.3-10.6,3.6c1.2-2.3,2.9-4.5,5.1-6.1
						s5-2.3,7.6-1.7c-2.9-3.8-2.9-9.5,0-13.4c0.2,4.2,2.1,8.2,5.2,11c-0.1-6.4-1.3-13.3,3.1-17.7c4.2-4.2,11.3-3.6,16.5-6.5
						c4.5-2.5,7.4-7.5,12.4-8.8c5.2-1.4,10.5,1.7,15.9,1.4c5.3-0.3,9.8-4,15-4.8c5.7-0.8,11.4,2.1,15.3,6.4c4-2.8,9-4.1,13.9-3.5
						c4.7,0.5,9.7,3.3,10.6,7.8c0.4,1.9,0,4,0.6,5.9c1,3.3,4.5,5.1,7.5,6.9c3,1.8,6.2,4.5,5.8,8c-0.2,2-1.7,3.7-1.7,5.7
						c-0.1,3.7,4.2,5.9,6.4,8.9c2.2,2.9,2.4,6.7,1.6,10.2C761,723.6,762.9,726.3,763,729.1z"/>
					<path class="st38" d="M733.1,741.5c-6.5-0.4-12.4,4.2-14.9,11c-4.1-2.5-8-2.2-10.7-1.1c-1-8.2-7.8-14.9-16.4-15.5
						c-9-0.6-17,5.7-18.6,14.4L650,751l0.1,4l22.1-0.8c0.3,9,7.4,16.5,16.5,17.1c9.5,0.6,17.7-6.3,18.8-15.6c1.3-0.9,5-2.7,9.7,0.7
						c-0.1,0.6-0.2,1.2-0.2,1.8c-0.7,9.8,5.5,18.1,13.7,18.7c8.2,0.5,15.4-6.9,16.1-16.7C747.5,750.5,741.3,742.1,733.1,741.5z
						 M689,767.5c-7.7-0.5-13.5-7.2-13-14.8c0.5-7.7,7.2-13.5,14.8-13c7.7,0.5,13.5,7.2,12.9,14.8C703.3,762.2,696.6,768,689,767.5z
						 M731,773.1c-6.1-0.4-10.7-7-10.2-14.6c0.5-7.7,5.9-13.5,12-13.1c6.1,0.4,10.7,7,10.2,14.6C742.5,767.6,737.1,773.5,731,773.1z
						"/>
				</g>
				<g>
					<g>
						<path class="st39" d="M566.9,970.5c0,0-43.3,112.4-30.2,130.1s63,9.2,63,9.2l15.9-17.7l3.7-125.6l-28.9-36.7L566.9,970.5z"/>
						<path class="st40" d="M584.4,882.9c0,0-27.4-0.5-34,11.1s-10.9,117.7,0.2,112.2s40.8-35.9,40.8-35.9L584.4,882.9z"/>
					</g>
					<g>
						<g>
							<g>
								<path class="st30" d="M902.6,689.7c2.8,1.7-9.1,49.2-12.5,53.1l-5.5,4.8l-5.5,23.6c0,0-4.2,0.3-9.4-0.9
									c-2.8-0.6-6-1.7-9-3.5c-1.7-1-3.3-2.2-4.7-3.7c-0.8-0.8,1.4-13.6,1.4-13.6s-15.2-7.5-16.4-16.8c-0.7-5.5-1.4-11.1-4.1-15.9
									c-1.4-2.5-3.2-4.9-4.2-7.6c-1.1-2.7-1.5-5.9-0.2-8.4c0.2-0.3,0.3-0.6,0.6-0.8c0.6-0.4,1.4-0.1,2,0.2c0.1,0,0.1,0.1,0.2,0.1
									c7,4,12.7,10.6,15.6,18.2c0,0,11.1-24.9,11.7-32.5c0,0,5.6-15.7,8.7-15.2c1.2,0.2,2.1,0.6,2.8,1.1c1.2,0.8,1.9,1.7,1.9,1.7
									s-7.3,34.6-6.5,36c0.8,1.5,14.4-27.4,17.2-28.5c0.8-0.3,1.8,0,2.9,0.7c1,0.6,2.1,1.4,3,2.3c1.6,1.4,2.8,2.8,2.8,2.8
									s0.4,0.1,1,0.3c0.9,0.3,2.2,0.7,3.5,1.3C900.9,688.9,901.8,689.3,902.6,689.7z"/>
								<path class="st31" d="M902.6,689.7c2.8,1.7-9.1,49.2-12.5,53.1l-5.5,4.8l-5.5,23.6c0,0-4.2,0.3-9.4-0.9
									c3.4-9.4,4.3-19.8,2.5-29.7c-1.7-9.5-5.7-18.5-6.5-28.1c-0.5-6,0.3-12.1,1.6-18c1.3-6.2,3-12.4,5.1-18.4
									c0.6-1.7,1.2-3.1,1.8-4.3c1.2,0.8,1.9,1.7,1.9,1.7s-7.3,34.6-6.5,36c0.8,1.5,14.4-27.4,17.2-28.5c0.8-0.3,1.8,0,2.9,0.7
									c1,0.6,2.1,1.4,3,2.3c1.6,1.4,2.8,2.8,2.8,2.8s0.4,0.1,1,0.3c0.9,0.3,2.2,0.7,3.5,1.3C900.9,688.9,901.8,689.3,902.6,689.7z
									"/>
								<g>
									<g>
										<path class="st34" d="M892.7,684.1c-0.3,0.9-0.6,1.8-1,2.6c-2,5.2-4.5,9.6-6.4,12.6c-1.8,2.9-3.2,4.6-3.3,4.8
											c0.1-0.2,0.6-2.4,1.6-5.6c1.1-3.5,2.7-8.2,4.7-13.2c0.5-1.2,1-2.4,1.5-3.5C890.7,682.4,891.8,683.3,892.7,684.1z"/>
									</g>
									<g>
										<path class="st34" d="M900.1,688.5c-3.1,8.3-7,14.3-7.2,14.7c0-0.5,0.9-7.6,3.8-16C897.4,687.5,898.7,687.9,900.1,688.5z"
											/>
									</g>
								</g>
								<path class="st32" d="M835.1,700.3c0,0.6,0,1.2,0,1.8c0.3,4.9,3.4,9,5.2,13.5c2.5,6.2,2.8,13.3,6.5,18.9
									c3.1,4.8,8.1,7.8,12.7,11.1c1.4,1,2.9,2.2,3.5,3.8c0.5,1.4,0.2,2.9,0,4.3c-0.7,4.3-1.7,8.7-2.3,13.1c-1.7-1-3.3-2.2-4.7-3.7
									c-0.8-0.8,1.4-13.6,1.4-13.6s-15.2-7.5-16.4-16.8c-0.7-5.5-1.4-11.1-4.1-15.9c-1.4-2.5-3.2-4.9-4.2-7.6
									c-1.1-2.7-1.5-5.9-0.2-8.4c0.2-0.3,0.3-0.6,0.6-0.8C833.7,699.7,834.5,699.9,835.1,700.3z"/>
								<path class="st34" d="M859,719.7c5.2,0.1,9.9,3.1,13.2,7.1c3.1,3.9,5.4,9.2,6.1,14.1c-2.9-2.9-4.1-7.7-6.8-11
									C869.2,726.9,863.2,719.7,859,719.7z"/>
							</g>
						</g>
						<g>
							<path class="st41" d="M875.4,762l-18.2-1.6l-7.9-1.1c0,0-37.8,112.7-37,131.2c0,0-29.4-4.6-55.6-6.4c0,0-17.7-0.6-33.7-0.8
								l14,66l4.1,3.2c43-1.2,88.9-4.5,104.5-12.8c32.1-17.1,41.9-176.2,41.9-176.2L875.4,762z"/>
							<path class="st42" d="M875.4,762c-7.5,40.1-20.9,159.5-31.4,170.8c-6.7,7.2-59,12.3-107.3,15.6l0.2,1l4.1,3.2
								c43-1.2,88.9-4.5,104.5-12.8c32.1-17.1,41.9-176.2,41.9-176.2L875.4,762z"/>
							<path class="st43" d="M821.2,889.1c4.5-28.2,30.5-100.7,36-128.7l-7.9-1.1c0,0-37.8,112.7-37,131.2c0,0-51.4-14.2-90.6-13.3
								l1.6,7.5c13-0.1,26,0.9,38.8,3l53.3,8.7c0.2,1.6,0.5,3.2,0.7,4.2c0.8,5.3,2.2,10.5,4.2,15.4c0.3,0.9,1,1.9,1.9,1.8
								c1.1-0.1,1.3-1.5,1.3-2.6c-0.1-6.2-0.1-12.3-0.2-18.5c4.5,1.8,9.4,3.5,13.9,1.9C832.8,894.1,827.2,890.8,821.2,889.1z"/>
						</g>
					</g>
					<path class="st41" d="M748.7,1153.2C748.7,1153.2,748.7,1153.2,748.7,1153.2l-45.8-0.2l-9.3-15.4l-21.2,15.3l-81.5-0.3l-0.2,0
						c0,0-27.5-273.1,31.5-309.3c4.7-2.9,9.9-4.3,15.6-3.9l15.3-12.2l24.6,23.1l16.2,15.2l0.4-22.3c0,0,11.4,8,12.7,13.8
						c0,0,0.1,0,0.3,0.1c2.5,0.6,17.6,4.5,30.2,17c0.4,0.4,0.9,0.9,1.3,1.3c3.8,4,7.2,8.8,10,14.5c13.9,28.8,0.7,252,0.1,262.9
						C748.7,1153,748.7,1153.1,748.7,1153.2z"/>
					<path class="st42" d="M693.6,865.4c0,0,5.7,235.4-0.1,272.2C693.5,1137.6,711.9,983.2,693.6,865.4z"/>
					<g>
						<path class="st42" d="M680.7,938.3c-0.2,3.3-3.1,5.9-6.5,5.7c-3.3-0.2-5.9-3.1-5.7-6.5c0.2-3.3,3.1-5.9,6.5-5.7
							C678.4,932.1,681,935,680.7,938.3z"/>
						<path class="st42" d="M681.9,981.6c-0.2,3.3-3.1,5.9-6.5,5.7c-3.3-0.2-5.9-3.1-5.7-6.5c0.2-3.3,3.1-5.9,6.5-5.7
							C679.6,975.3,682.2,978.2,681.9,981.6z"/>
						<path class="st42" d="M683.1,1024.9c-0.2,3.3-3.1,5.9-6.5,5.7s-5.9-3.1-5.7-6.5c0.2-3.3,3.1-5.9,6.5-5.7
							C680.8,1018.6,683.3,1021.5,683.1,1024.9z"/>
						<path class="st42" d="M684.3,1068.1c-0.2,3.3-3.1,5.9-6.5,5.7c-3.3-0.2-5.9-3.1-5.7-6.5c0.2-3.3,3.1-5.9,6.5-5.7
							S684.5,1064.8,684.3,1068.1z"/>
					</g>
					<g>
						<g>
							<g>
								<g>
									<g>
										<path class="st43" d="M694,843.2l-0.4,22.3l12.4,21.7c0.9-15.5,1.2-27.9,0.7-30.2C705.4,851.1,694,843.2,694,843.2z"/>
										<polygon class="st43" points="693.6,865.4 672.3,888.8 637.6,839.4 652.9,827.2 										"/>
									</g>
								</g>
							</g>
						</g>
					</g>
					<g>
						<path class="st40" d="M733.9,870.9c0,0,15.2,7.1,17.8,16c7.4,24.8,1.7,163.3,1.7,163.3L733.9,870.9z"/>
					</g>
					<g>
						<g>
							<g>
								<g>
									<polygon class="st44" points="481.6,1092.1 480.8,1097.5 473.9,1102.3 458.6,1196 478.3,1198.2 594.6,1211 603.4,1200.9 
										613.8,1106.7 									"/>
									<polygon class="st26" points="480.8,1097.5 476.7,1100.4 468.5,1106.1 459.1,1190.8 478.1,1192.9 592.1,1205.5 
										600.6,1196.5 610,1111.8 									"/>
									
										<rect x="484.5" y="1088" transform="matrix(0.1096 -0.994 0.994 0.1096 -675.878 1558.302)" class="st25" width="94.8" height="136.9"/>
								</g>
								
									<rect x="539" y="1152.8" transform="matrix(0.1096 -0.994 0.994 0.1096 -645.8178 1600.3651)" class="st26" width="62.7" height="15.8"/>
							</g>
							<g>
								<g>
									<polygon class="st38" points="479.9,1094.6 478,1099.7 470.4,1103.1 437.1,1191.9 456,1197.9 567.6,1233.2 578.2,1225 
										606.7,1134.6 									"/>
									<polygon class="st26" points="478,1099.7 473.4,1101.7 464.3,1105.8 438.6,1187 456.8,1192.8 566.2,1227.3 576.3,1220.1 
										602,1138.9 									"/>
									
										<rect x="469.3" y="1098.9" transform="matrix(0.3011 -0.9536 0.9536 0.3011 -752.1204 1308.5503)" class="st45" width="94.8" height="136.9"/>
								</g>
								
									<rect x="522.2" y="1171.1" transform="matrix(0.3009 -0.9537 0.9537 0.3009 -737.3488 1352.1063)" class="st26" width="62.7" height="15.8"/>
							</g>
							<g>
								<path class="st46" d="M570,1019.1c0,4.5-6.8,27.1-15.5,53.8c-4.7,14.3-9.9,29.9-14.8,44.4c-4.9,14.6-9.6,28.2-13.2,38.7
									l-4.4,28.5c0,0,12.5,6.6,12,8.7c-0.5,2.1,5,20.7,7,23c2,2.3-5.8,7.1-5.8,7.1s-7.6-4.1-10.1-3.9c-1.9,0.1-6.1,8.4-10,12.2
									c-1.2,1.2-2.3,1.9-3.4,1.9c-4.6,0.1-10.4,0-11.2-2.9s-2.3-8.4-5.1-9.6c-2.8-1.3-10.9-8.2-10.6-12.1c0.3-3.9,3.6-15.8,4.1-19
									c0.6-3.2,2-13.8,2-13.8l5-19.2l19-119.1c1.8-11,16.4-42.2,16.4-42.2l2.1-9.5l5.2-33.4c2.2-14.7,7.8-28.5,16.3-40.3
									c7-10.3,18.5-13.4,30.6-14.1c3.4-0.2,6.8-0.2,10.1-0.2c1.8,0,3.5,0,5.1,0l0,0C600.7,897.9,569.9,1006.8,570,1019.1z"/>
								<path class="st47" d="M585.5,898.1c-11.2,8.4-22.9,16.4-30.9,27.8c-16,23-13.2,54-22.7,80.3c-2.6,7.1-6,13.9-8.4,21.1
									c-2.3,7.2-3.5,14.7-4.7,22.1c-2.7,16.6-5.9,33.1-9,49.7c-0.9,4.6-1.7,9.1-2.6,13.7c-3.3,17.3-6.5,34.7-9.7,52.1
									c-2.4,13-4.7,26.4-2,39.4c2.3,11.4,9.3,22.5,19.6,27.3c-1.2,1.2-2.3,1.9-3.4,1.9c-4.6,0.1-10.4,0-11.2-2.9s-2.3-8.4-5.1-9.6
									c-2.8-1.3-10.9-8.2-10.6-12.1c0.3-3.9,3.6-15.8,4.1-19c0.6-3.2,2-13.8,2-13.8l5-19.2l19-119.1c1.8-11,16.4-42.2,16.4-42.2
									l2.1-9.5l5.2-33.4c2.2-14.7,7.8-28.5,16.3-40.3C561.8,901.9,573.4,898.8,585.5,898.1z"/>
								<g>
									<path class="st48" d="M538.8,1001.9c0,0,0.1,0.4,0.3,1.2c0.1,0.4,0.3,0.9,0.5,1.4c0.2,0.5,0.5,1.2,0.9,1.8
										c0.4,0.6,0.8,1.3,1.3,2c0.5,0.7,1.1,1.3,1.8,2c1.4,1.3,3.1,2.5,5.1,3.3c2,0.8,4.1,1.1,5.9,1.2c0.9,0,1.8-0.1,2.6-0.2
										c0.8-0.1,1.5-0.3,2.2-0.5c0.7-0.2,1.2-0.5,1.7-0.7c0.5-0.2,0.9-0.5,1.2-0.7c0.7-0.4,1-0.7,1-0.7s-0.4,0-1.2,0.1
										c-0.4,0-0.8,0.1-1.3,0.1c-0.5,0-1.1,0.1-1.7,0c-0.6,0-1.3,0-2-0.2c-0.7,0-1.5-0.2-2.3-0.4c-1.6-0.4-3.2-0.8-5-1.5
										c-1.7-0.7-3.2-1.5-4.7-2.4c-0.7-0.5-1.3-0.9-1.9-1.3c-0.6-0.4-1.1-0.9-1.6-1.3c-0.5-0.4-0.9-0.8-1.3-1.2
										c-0.4-0.4-0.7-0.7-0.9-1C539.1,1002.2,538.8,1001.9,538.8,1001.9z"/>
								</g>
							</g>
						</g>
						<path class="st41" d="M637.2,895.3l-52.8,105.6v0l-11.4,22.7l-44.5,148.8l-7.6-0.7l-24.2-2.2l-11.5-1.1l23.6-114.2
							c3.5-16.8,8.4-33.2,14.7-49l0.8-2.1c0,0,20.2-119.9,68.2-141.8v0c2-0.9,4.1-1.7,6.3-2.2L637.2,895.3z"/>
					</g>
					<path class="st40" d="M592.6,861.3c0,0,16.9-16.3,29.5-18.1c0,0,38.7,189.4-40.3,215.8C581.7,1059.1,640.6,990,592.6,861.3z"/>
					<polygon class="st42" points="586.6,975.2 584.3,1000.8 584.3,1000.9 573,1023.6 528.5,1172.4 520.9,1171.7 562.9,1030.5 					
						"/>
					<path class="st43" d="M532.3,1000.7c0,0-36.4,152.1-35.6,168.8l-11.5-1.1l23.6-114.2c3.5-16.8,8.4-33.2,14.7-49l0.8-2.1
						c0,0,20.2-119.9,68.2-141.8C592.6,861.3,540.1,925.2,532.3,1000.7z"/>
				</g>
			</g>
		</g>
	</g>
	<g>
		<g>
			<path class="st29" d="M1033.3,1050.9l-34.9,78.4l-10.4,23.3c0,0-54.1-4-75.7-36.1c-21.6-32.2,24.5-131.8,24.5-131.8l3-1
				l71.5-23.1L1033.3,1050.9z"/>
			<path class="st49" d="M998.4,1129.3l-10.4,23.3c0,0-54.1-4-75.7-36.1c-21.6-32.2,24.5-131.8,24.5-131.8l3-1
				c-7.8,30-27,127.6,48.2,142.9C991.9,1127.4,995.3,1128.3,998.4,1129.3z"/>
		</g>
		<g>
			<g>
				<path class="st30" d="M1214.5,956.1c0,0-11.3,39.4-27.2,76.2l-0.8,1.8c-8.4,19.3-18,37.7-27.9,49.1
					c-6.2,7.2-12.2,12.4-18.9,11.5c-38.4-5.5-58.1-85.5-58.1-85.5l2.6-1.3l40.8-20.6l3.5-1.8c0,0,2.5,7.7,5.6,17.7
					c4.2,13.4,9.4,31,10.9,39.2c0,0,10.9-25.6,22.1-51.2c5.6-12.8,11.3-25.7,15.7-35.2c0.4-0.9,0.8-1.8,1.2-2.6
					c0.8-1.7,1.5-3.2,2.2-4.6c0.2-0.5,0.5-1,0.7-1.5c0.1-0.2,0.2-0.3,0.2-0.5c1-2.1,1.9-3.8,2.5-4.9c0.1-0.1,0.1-0.2,0.2-0.3
					c0.1-0.1,0.1-0.2,0.2-0.3L1214.5,956.1z"/>
				<path class="st31" d="M1214.5,956.1c0,0-11.3,39.4-27.2,76.2l-0.8,1.8c8.4-30.2,12.6-57.8,9.3-59.4c-5.4-2.6-10.5-13-13.1-18.8
					c0.4-0.9,0.8-1.8,1.2-2.6c0.8-1.7,1.5-3.2,2.2-4.6c0.2-0.5,0.5-1,0.7-1.5c0.1-0.2,0.2-0.3,0.2-0.5c1-2.1,1.9-3.8,2.5-4.9
					c0.1-0.1,0.1-0.2,0.2-0.3c0.1-0.1,0.1-0.2,0.2-0.3L1214.5,956.1z"/>
				<path class="st31" d="M1192.9,957.6c0,0-11.2-41.4-10.7-56.6c0.1-2.5,2.7-4.2,4.9-3c10.8,5.5,28.6,44.2,28.6,44.2L1192.9,957.6z
					"/>
				<g>
					<path class="st50" d="M1209.4,952.8l-31.7-12.8c-2-0.8-3-3.2-2.2-5.2l23.2-57.4c0.8-2,3.2-3,5.2-2.2l31.7,12.8
						c2.1,0.8,3,3.2,2.2,5.2l-23.2,57.4C1213.8,952.6,1211.4,953.6,1209.4,952.8z"/>
					<path class="st51" d="M1207.2,886.2c-0.7,1.6-2.5,2.4-4.1,1.7c-1.6-0.7-2.4-2.5-1.7-4.1c0.7-1.6,2.5-2.4,4.1-1.7
						C1207.1,882.8,1207.8,884.6,1207.2,886.2z"/>
				</g>
				<g>
					<g>
						<g>
							<g>
								<g>
									<g>
										<g>
											<path class="st30" d="M1215.8,971.1c-12.2-0.9-23.9-10.4-23.9-10.4c0.1-2.7,0.7-5.6,1.7-8.6c0.4-1.3,0.9-2.5,1.4-3.8
												c1.2-2.9,2.6-5.8,4.3-8.7c0.7-1.3,1.4-2.5,2.2-3.8c2-3.3,4.2-6.5,6.2-9.4c0.9-1.3,1.8-2.5,2.6-3.6c2.3-3.1,4.4-5.7,6-7.6
												c1.9-2.2,3-3.6,3-3.6c10.5,4,21.6,17.9,21.6,17.9c-0.5,4.3-1.8,8.5-3.7,12.6C1230.2,958.1,1215.8,971.1,1215.8,971.1z"/>
											<g>
												<g>
													<path class="st34" d="M1224.2,934.2c0,0-1.5-0.5-3.7-1.3c-2.2-0.8-5-2-7.9-3.5c-1.8-1-3.4-2-4.8-2.9
														c0.9-1.3,1.8-2.5,2.6-3.6c1.5,0.4,3.1,1,4.7,1.8c3.2,1.7,5.6,4.2,7.1,6.1C1223.6,932.8,1224.2,934.2,1224.2,934.2z"/>
												</g>
												<g>
													<path class="st34" d="M1215.2,946.3c0,0-1.5-0.3-3.6-1c-2.1-0.7-4.9-1.6-7.7-3c-1.7-0.8-3.2-1.8-4.6-2.7
														c0.7-1.3,1.4-2.5,2.2-3.8c1.5,0.3,3.2,0.9,4.8,1.7c3.1,1.6,5.4,3.8,6.8,5.6C1214.5,945,1215.2,946.3,1215.2,946.3z"/>
												</g>
												<g>
													<path class="st34" d="M1210.5,959.5c0,0-1.6-0.3-3.8-1c-2.2-0.7-5.2-1.7-8.2-3.3c-1.8-1-3.5-2-4.9-3
														c0.4-1.3,0.9-2.5,1.4-3.8c1.8,0.4,3.9,1.1,6,2.2c3.2,1.7,5.6,4,7.2,5.8C1209.8,958.1,1210.5,959.5,1210.5,959.5z"/>
												</g>
											</g>
											<path class="st32" d="M1237.3,942.2c-0.6-3.7-1.6-7.3-3.6-10.5c-1.8-3-4.2-5.4-6.7-7.7c-2.9-2.7-5.8-5.7-9.1-7.8
												c-0.4-0.3-1-0.5-1.6-0.8c1.9-2.2,3-3.6,3-3.6c10.5,4,21.6,17.9,21.6,17.9C1240.5,933.8,1239.2,938.1,1237.3,942.2z"/>
										</g>
									</g>
								</g>
							</g>
						</g>
					</g>
				</g>
			</g>
			<g>
				<path class="st41" d="M1071.7,883.2v82.2l17.4,64.3l51-23.2h0c0,0-23.8-64.7-45.8-99l0,0c-3.4-5.2-6.7-9.8-9.9-13.2
					C1077.3,886.6,1071.7,883.2,1071.7,883.2z"/>
			</g>
			<polygon class="st26" points="1081.6,1024.8 1143.9,997.2 1151.3,1011 1083,1043.9 			"/>
		</g>
		<g>
			<g>
				<g>
					<g>
						<g>
							<path class="st26" d="M923.9,1512.2c0,0-5.2,12.2-4.9,14.4s60.1,42,60.1,42l5.9-9.6l-27.3-37.1L923.9,1512.2z"/>
							<path class="st52" d="M985.1,1559c0,0-62.2-36.8-62.6-43.3c-0.3-4.4,19.2-33.9,19.2-33.9l16.5,10.6
								C958.2,1492.3,987.5,1560.7,985.1,1559z"/>
						</g>
						<g>
							<path class="st26" d="M958.9,1520.1c0.7,1,2.1,1.1,3.4,0.9c4.5-0.4,9.4-2.2,11.9-6.2c0.2-0.3,0.3-0.6,0.4-0.9
								c0.1-0.6-0.4-1.2-1-1.4c-0.6-0.2-1.2-0.2-1.8-0.2C969.4,1512.4,955.7,1515.5,958.9,1520.1z"/>
							<path class="st26" d="M961.7,1530.1c0.7,1,2.1,1.1,3.3,0.9c4.5-0.4,9.4-2.2,11.9-6.2c0.2-0.3,0.3-0.6,0.4-0.9
								c0.1-0.6-0.4-1.2-1-1.4s-1.2-0.2-1.8-0.2C972.2,1522.5,958.5,1525.5,961.7,1530.1z"/>
						</g>
					</g>
					<g>
						<g>
							<path class="st26" d="M1141.8,1569.3c0,0,4.5,12.5,6.2,13.8c1.7,1.3,70.7-15,70.7-15l-2.2-11.2l-44.2-5.9L1141.8,1569.3z"/>
							<path class="st52" d="M1216.4,1556.9c0,0-68.7,20.2-73.3,15.9c-3.2-2.9-9.1-38.3-9.1-38.3l18.8-4.8
								C1152.8,1529.7,1219.3,1556.3,1216.4,1556.9z"/>
						</g>
						<g>
							<path class="st26" d="M1171.8,1548.9c1.2,0.2,2.2-0.8,3-1.8c2.9-3.7,5.2-8.6,4.2-13.2c-0.1-0.3-0.2-0.7-0.4-0.9
								c-0.4-0.5-1.1-0.5-1.7-0.3c-0.6,0.2-1,0.8-1.4,1.2C1174.1,1535.7,1166.5,1548,1171.8,1548.9z"/>
							<path class="st26" d="M1180.5,1553.9c1.2,0.2,2.2-0.8,3-1.8c2.9-3.7,5.2-8.6,4.2-13.2c-0.1-0.3-0.2-0.7-0.4-0.9
								c-0.4-0.5-1.1-0.5-1.7-0.3c-0.6,0.2-1,0.8-1.4,1.2C1182.8,1540.7,1175.2,1553.1,1180.5,1553.9z"/>
						</g>
					</g>
					<path class="st53" d="M1091.3,1056.9c0,0,21,51.1,20.8,80.9c-3.4,72.3-9.8,170.7-12.2,178.5c-3.7,12.1-132.9,192.5-132.9,192.5
						l-32.8-21.4c0,0,68.2-144.8,77.7-157.2c14.3-18.5,40.4-41.1,40.4-41.1l-30.3-216.5L1091.3,1056.9z"/>
					<path class="st54" d="M1166.7,1533.4l-29.5,6.5l-8.9,2c0,0-69.5-167.9-73.4-174c-3.9-6.1-7.2-62.7-7.2-62.7
						s-52.3-113.3-63.5-132.5c-11.3-19.2,5.9-110.8,5.9-110.8l11,0.6l57.1,3.1l43.9,217.3L1166.7,1533.4z"/>
					<path class="st53" d="M1137.2,1539.9l-8.9,2c0,0-69.5-167.9-73.4-174c-3.9-6.1-7.2-62.7-7.2-62.7s-52.3-113.3-63.5-132.5
						c-11.3-19.2,5.9-110.8,5.9-110.8l11,0.6c-3.7,30.4-10.8,92.4-7.3,101.2c4.6,11.6,66.8,130.5,66.8,130.5s2.1,60.7,6.9,70.8
						C1071.6,1373.7,1124.5,1513,1137.2,1539.9z"/>
					<path class="st55" d="M1084.5,1320.1c1.7,2.5,4.1,5,7.1,5.2c2.4,0.1,4.8-1.4,6.2-3.5s2.2-4.6,2.8-7.1c1.1-4.6,1.8-9.4,1.2-14.1
						c-1.3-9.5-11.3-19.4-19.9-11.8C1073.1,1296.5,1079.2,1312.3,1084.5,1320.1z"/>
				</g>
				<g>
					<g>
						<path class="st43" d="M1091.8,1062.5c-39.5,33.1-102.3,4.9-102.3,4.9c0.3-9.8-9.9-53.4-18.3-92.9c-2.3-10.7-4.4-21-6.2-30.4
							c-2.9-15-2-28.4-0.5-37.7c1.1-6.6,2.5-11.1,3.2-12.5c0.8-1.7,3.9-4.2,7.8-6.9c0,0,0,0,0.1,0c0.7-0.5,1.3-0.9,1.8-1.2
							c0.1-0.1,0.2-0.1,0.3-0.2c0.2-0.2,0.4-0.3,0.6-0.4c0,0,0.1,0,0.1-0.1c0,0,0.1,0,0.1-0.1c6.9-4.5,15.3-9,19.7-10.5
							c0,0,0.1,0,0.2-0.1c1.4-0.5,2.8-1,4.1-1.4c5.3-1.7,9.4-2.6,9.4-2.6h32c0,0,0.1,0,0.1,0c0,0,0.1,0,0.1,0c0.1,0,0.3,0,0.5,0
							c0,0,0,0,0.1,0c1,0,2.9,0.1,5.8,0.8v0c1.1,0.3,2.4,0.7,3.8,1.2c3.8,1.4,8.6,3.7,14.4,7.5c3.5,2.3,7.4,5.2,11.7,8.8
							c24,20.2,22.8,58.8,8.5,86.6C1084.4,983.7,1091.8,1062.5,1091.8,1062.5z"/>
						<g>
							<path class="st41" d="M1083,971.4c0,0-1.2-0.1-3.3-0.2c-2.1-0.1-5.1-0.3-8.9-0.5c-7.4-0.4-17.6-0.9-27.9,1.8
								c-2.6,0.7-5.3,1.5-7.9,2.2c-2.7,0.7-5.3,1.3-7.9,1.7c-5.1,0.7-9.7,0.8-13.6,0.4c-2-0.2-3.8-0.5-5.3-1
								c-1.5-0.5-2.8-1.2-3.6-1.8c-0.9-0.7-1.4-1.4-1.7-1.8c-0.3-0.5-0.4-0.8-0.4-0.8s0.2,0.2,0.6,0.5c0.4,0.3,1.1,0.8,2,1.1
								c1.9,0.8,4.8,1,8.3,0.5c3.6-0.5,7.9-1.3,12.5-2.6c2.3-0.6,4.7-1.4,7.2-2.2c2.5-0.8,5.2-1.8,8.1-2.6
								c5.9-1.5,11.8-1.8,16.9-1.3c5.1,0.5,9.6,1.5,13.2,2.5c3.7,1,6.6,2.1,8.5,2.8C1081.9,971,1083,971.4,1083,971.4z"/>
						</g>
					</g>
				</g>
			</g>
			<g>
				<path class="st56" d="M1095.8,856.7c-4.4,1.5-9,2.7-13.8,3.6c-32.2,6.3-72.4,1.6-95.7-2.3c-11.7-2-19.2-3.7-19.2-3.7
					s-3.8-31.5-3.8-43.6c0-7.4,0.6-14.2,1.5-20.5c6.7-43.4,33.1-63.2,35-64.6c0,0,0.1,0,0.1-0.1c0,0,0,0,0,0h49.6l18.2,9.4l3.6,1.9
					l1.4,0.7l19.9,10.2l0.5,17.1l0.4,13.6L1095.8,856.7z"/>
				<path class="st57" d="M1085.8,850.6c-0.9,3.3-2.2,6.7-3.8,9.8c-32.2,6.3-72.4,1.6-95.7-2.3c0-0.1-0.1-0.1-0.1-0.2
					c-7.9-12.1-11.5-26.7-11.9-41.1c-0.4-14.4,2.3-28.8,6.1-42.7c3-10.9,6.7-21.8,13-31.2c4.8-7.1,11.2-13.3,18.9-17.2
					c0.4-0.2,0.8-0.4,1.2-0.6c8.5-4,17.8-4.1,27.2-4.1c12,0.1,24.3,5.7,30.8,15.9c5.9,9.2,6.4,20.7,7.8,31.6
					c1.8,13.7,5.3,27.2,7.4,40.9C1088.7,823,1089.4,837.2,1085.8,850.6z"/>
				<g>
					<path class="st57" d="M1099.1,819.1c-0.1-0.8-0.4-1.8-0.7-3.2c-0.4-1.3-0.9-2.9-1.7-4.6c-0.8-1.7-1.9-3.5-3.4-5.1
						c-1.5-1.6-3.3-2.8-4.9-3.7c-1.7-0.9-3.2-1.4-4.6-1.8c-0.6-0.2-1.1-0.3-1.6-0.4c-0.6-0.5-0.9-0.8-0.9-0.8s0.1,0.3,0.3,0.7
						c-0.4-0.1-0.7-0.1-1-0.2c-0.8-0.1-1.2-0.2-1.2-0.2s1.1,0.7,2.8,1.8c0.4,0.8,0.8,1.9,1.3,3.2c1.4,3.2,3.2,7.7,4,12.5
						c0.8,4.9,0.7,9.7,0.6,13.2c0,1.8,0,3.2,0,4.2c0,1,0,1.6,0,1.6s0.2-0.5,0.6-1.4c0.4-0.9,0.9-2.3,1.5-4c0.6-1.7,1.2-3.8,1.5-6.2
						s0.5-5.2,0-8.1c-0.5-2.9-1.5-5.5-2.7-7.7c-1.1-2-2.3-3.7-3.5-5.1c1.7,1.2,3.6,2.7,5.3,4.5c2.6,2.8,4.5,5.8,6,8.1
						c0.7,1.1,1.3,2,1.8,2.7c0.4,0.6,0.7,1,0.7,1S1099.3,819.9,1099.1,819.1z"/>
					<g>
						<g>
							<g>
								<path class="st30" d="M1068.5,880c-2.5,8.8-9.2,21.3-26.8,27.2c-23.4,7.8-38.7-21.6-43.6-32.6c7.2-2.5,13.5-4,13.5-4h32
									c0,0,0.1,0,0.1,0c0,0,0.1,0,0.1,0c0.1,0,0.3,0,0.5,0c0,0,0,0,0.1,0c1,0,2.9,0.1,5.8,0.8v0c1.1,0.3,2.4,0.7,3.8,1.2
									C1057.9,873.9,1062.7,876.2,1068.5,880z"/>
								<path class="st30" d="M1040.4,902.7l-28.8-32.1c0-4.8,0.5-6.6,0.9-18.4c0.5-13.1,0.9-25.5,0.9-25.5l37.1,14.7
									c-4.1,9.3-6,19.8-6.6,29.9C1042.6,892.5,1040.4,902.7,1040.4,902.7z"/>
								<path class="st31" d="M1050.5,841.3c-4.1,9.3-6,19.8-6.6,29.9c-1.2,0.5-2.3,0.9-3.4,1.3c-4.3,1.5-18.1-10.8-28-20.4
									c0.5-13.1,0.9-25.5,0.9-25.5L1050.5,841.3z"/>
							</g>
							<g>
								<g>
									<path class="st30" d="M1089.4,797.3c-0.8,3.4-1.7,7-2.9,10.8c0,0,1.7,18.6-0.3,22.7c-2,4.2-14.4,30.1-27.6,28.5
										c-10.9-1.3-37.7-17.4-47-26.9c-1.9-1.9-3-3.5-3.2-4.8c-1.3-7.4-5.7-39.9-6.1-42.6c-1.1-7.4-4.2-63.2,63.2-47.6
										c12.2,2.8,21.7,12.2,24.5,24.4C1092,770.6,1092.7,782.3,1089.4,797.3z"/>
									<path class="st32" d="M1086.5,808.1c0,0,1.7,18.6-0.3,22.7c-2,4.2-14.4,30.1-27.6,28.5c-10.9-1.3-37.7-17.4-47-26.9
										c11.4,7.9,41.8,28.1,50.7,25c11-3.8,23.5-28.3,23.3-30.7c-0.2-2.4-1-18.3-1-18.3s2.2-5,4.8-11.1
										C1088.7,800.7,1087.7,804.3,1086.5,808.1z"/>
								</g>
								<g>
									<path class="st32" d="M1011.4,826.7c-8.5-0.7-14.6-5.7-17.9-9.9c-0.7-1-1.3-1.8-1.8-2.7c-2.4-4.4-3.1-19.6,3.1-23.1
										c4.4-2.5,7.5,1.1,9,3.5l0,0c0.6,1,1,1.8,1,1.8L1011.4,826.7z"/>
									<path class="st30" d="M1011.4,826.7c-8.5-0.7-14.6-5.7-17.9-9.9c-0.3-0.4-0.5-0.8-0.8-1.2c-2.4-4.4-3.1-19.6,3.1-23.1
										c3.5-2,6.3,0,8,2l0,0c0.6,1,1,1.8,1,1.8L1011.4,826.7z"/>
									<path class="st31" d="M992.8,803.1c-0.3,1.2-0.1,2.5,0.3,3.7c1.7,5.1,6.8,9,11.7,12.6c-1.5-2.5-2-5.3-1.7-8
										c0.1-1,0.3-1.9,0.3-2.8C1003.4,804.7,994.7,795.9,992.8,803.1z"/>
									<g>
										<path class="st34" d="M1007.2,820.8c0,0-0.1-0.1-0.3-0.2c-0.2-0.1-0.5-0.2-0.8-0.5c-0.7-0.4-1.6-1.1-2.4-2.2
											c-0.8-1-1.6-2.4-2-4c-0.3-1.6-0.3-3.5,0.6-5.4c0.1-0.2,0.2-0.5,0.3-0.7l0.1-0.2c0,0,0,0,0,0v0l0,0l0,0c0,0,0,0,0,0
											l-0.1-0.2l-0.2-0.3c-0.1-0.2-0.2-0.4-0.3-0.6c-0.5-0.8-1-1.5-1.5-2.1c-0.5-0.7-1-1.2-1.6-1.8s-1-1.1-1.5-1.4
											c-0.5-0.4-1.1-0.6-1.6-0.7s-1,0.1-1.3,0.2c-0.3,0.2-0.5,0.4-0.6,0.5c-0.1,0.2-0.1,0.3-0.1,0.3c0,0,0-0.1,0-0.3
											c0-0.2,0.2-0.5,0.5-0.7s0.8-0.5,1.5-0.5c0.7,0,1.4,0.2,2.1,0.6c0.7,0.4,1.3,0.8,1.9,1.4c0.6,0.5,1.3,1.1,1.9,1.8
											s1.2,1.4,1.7,2.2c0.1,0.2,0.3,0.4,0.4,0.6l0.2,0.3l0.2,0.4l0.2,0.3c0,0.1-0.1,0.2-0.2,0.3l-0.2,0.4
											c-0.1,0.2-0.2,0.4-0.3,0.6c-0.8,1.6-0.9,3.2-0.8,4.7c0.2,1.5,0.7,2.8,1.3,3.9c0.6,1.1,1.3,1.8,1.8,2.4
											c0.3,0.3,0.5,0.4,0.6,0.6C1007.2,820.8,1007.2,820.8,1007.2,820.8z"/>
									</g>
								</g>
							</g>
						</g>
					</g>
					<g>
						<path class="st56" d="M1095.5,784c0,0-8.6-11.5-13.4-7c-4.8,4.6-2.6,5-2.6,5L1095.5,784z"/>
						<path class="st56" d="M1027.4,785.7c0,0,15.9-18.3,22.4-11.8c3.8,3.8,1.2,6.4,1.2,6.4L1027.4,785.7z"/>
						<path class="st35" d="M1086.5,792.4c-0.5,1.3-2.3,2.4-3.5,3c-0.6-0.6-1.4-1-2.2-1c-2.3,0-4.2,3-4.2,6.8s1.9,6.8,4.2,6.8
							s4.2-3,4.2-6.8c0-1.4-0.3-2.7-0.7-3.8C1085.8,795.8,1086.5,792.4,1086.5,792.4z"/>
						<g>
							<g>
								<path class="st35" d="M1052.6,801.7c0,0-0.4-0.2-1-0.5c-0.6-0.3-1.5-0.6-2.6-1c-2.2-0.7-5.1-1.3-8.2-1.6
									c-3.1-0.2-6.1-0.1-8.5,0.3c-1.2,0.2-2.2,0.4-2.8,0.6c-0.7,0.2-1.1,0.3-1.1,0.3s0.2-0.3,0.6-0.8c0.4-0.5,1-1.2,2.1-1.9
									c2-1.5,5.8-3,10.3-2.7c4.5,0.3,7.9,2.4,9.5,4.2c0.8,0.9,1.3,1.7,1.5,2.2C1052.5,801.4,1052.6,801.7,1052.6,801.7z"/>
							</g>
						</g>
						<path class="st26" d="M1088.7,797.9c0,0-1.5,2-3.9,3s-4.9,0.6-4.9,0.6s1.5-2,3.9-3C1086.2,797.5,1088.7,797.9,1088.7,797.9z"
							/>
						<g>
							<path class="st31" d="M1061.8,820c-1.4-0.5-2.8-1.2-4.2-1.1c1.4,3.3,4.3,6,7.6,7.4c0.3,0.1,0.5,0.2,0.8,0.2
								c0.3,0,0.7-0.2,0.9-0.3c1.9-1.1,3.5-2.6,4.8-4.3c0.3-0.3,0.5-0.7,0.6-1.2c0.3-1.4-0.6-1.1-1.5-0.8c-1,0.4-2,0.6-3,0.8
								C1065.8,821,1063.7,820.7,1061.8,820z"/>
							<path class="st34" d="M1065.5,825.5c0.9-0.8,1.8-1.4,2.7-2.2c1.1-0.9,2.1-1.9,3-3.1c-4.6-3.2-4.6-8-4.3-13.4
								c0.1-2.5,0.8-4.9,2-7c0.6-1.1,1.4-2.2,2.3-3.1c0.4-0.5,0.9-0.9,1.4-1.4c0.5-0.4,1-0.6,1.6-0.9c-0.3,0.3-0.5,0.7-0.7,1
								c-0.7,0.9-1.4,1.7-1.9,2.6s-1.1,1.9-1.5,3c-0.8,2.1-1.3,4.2-1.4,6.5c-0.1,2.2,0.2,4.3,1,6.4c0.9,2.3,2.5,4.6,4.6,5.9
								c0,0-3.2,3.7-3.4,4c-0.8,0.8-1.7,1.5-2.6,2.1c-0.9,0.6-2,1.3-3.1,1.2c-0.3,0-0.7-0.1-1-0.3c0.2-0.1,0.4-0.3,0.5-0.4
								c0.1-0.1,0.1-0.1,0.2-0.2C1065,825.9,1065.3,825.7,1065.5,825.5z"/>
						</g>
						<g>
							<path class="st34" d="M1057.5,839.6c3.4,1.7,7.6,1.8,11.2,0.3c-1.2,1.8-2.9,2.8-5.1,2.8
								C1061.4,842.6,1059,841.2,1057.5,839.6z"/>
							<path class="st34" d="M1044.6,829.8c8.8,6.4,20.8,8,31,4.2c-5.6,1.2-11.3,0.8-16.9,0C1054.3,833.5,1048.2,832.2,1044.6,829.8
								z"/>
						</g>
						<path class="st31" d="M1079.1,822c0.7,2,5,2.2,9.5,0.5c4.5-1.7,7.6-4.7,6.8-6.6c-0.7-2-5-2.2-9.5-0.5
							C1081.4,817,1078.3,820,1079.1,822z"/>
						<path class="st31" d="M1022.3,812.8c-0.8,3,4.1,6.8,10.9,8.6c6.8,1.8,12.9,0.8,13.7-2.2c0.8-3-4.1-6.8-10.9-8.6
							C1029.3,808.8,1023.1,809.8,1022.3,812.8z"/>
					</g>
					<path class="st35" d="M1093.8,785.4c-0.7-0.5-1.5-0.9-2.3-1.3c-0.8-0.4-1.6-0.7-2.4-0.9c-1.5-0.4-3.1-0.7-4.7-0.7
						c-0.2,0-0.4,0-0.7,0c-0.7,0-1.3,0.1-2,0.2c-7.4,1.2-13.2,7-14.3,14.5c-3-1.3-6.2-0.6-8.2,0.2c-0.9-7.6-6.2-13.8-13.4-15.9
						c-1.7-0.5-3.4-0.8-5.3-0.8c-4.8,0-9.2,1.8-12.6,4.9c-2.2,2-3.9,4.4-5,7.2l-17.3-2.8l-2.7-0.4h0l-4.7-0.8l-0.1,0.5l-0.2,0.9
						l-0.2,1.4l0,0.1l0.3,0.1l2.7,0.4l0.3,0h0l1.2,0.2l0,0l1.2,0.2l0.7,0.1l0.9,0.1l7.1,1.2l10,1.6c-0.3,1.3-0.4,2.6-0.4,4
						c0,4,1.3,7.8,3.4,10.8c3.4,4.8,9,8,15.3,8c2.2,0,4.3-0.4,6.3-1.1c7-2.5,12-9,12.4-16.8c1.5-0.7,5.3-2.1,8,0
						c0,0.9,0.2,1.8,0.3,2.7c0.3,1.3,0.7,2.5,1.2,3.6c2.5,5.6,7.9,9.6,14.2,10.1c0.5,0,0.9,0.1,1.4,0.1c0.3,0,0.5,0,0.8,0
						c0.7,0,1.3-0.1,2-0.2c0.1,0,0.2,0,0.3-0.1c0.1,0,0.1,0,0.2,0c1.4-0.3,2.7-0.7,3.9-1.3c0.6-0.3,1.1-0.6,1.7-0.9
						c0.5-0.3,0.9-0.6,1.4-0.9c0.1,0,0.1-0.1,0.2-0.1c0.7-0.6,1.4-1.2,2-1.8c2.9-3.1,4.7-7.2,4.7-11.8
						C1101.4,793.7,1098.4,788.5,1093.8,785.4z M1044.8,814.8c-1.4,0.4-2.9,0.6-4.4,0.6c-4.9,0-9.3-2.2-12.2-5.7
						c-2.3-2.8-3.7-6.3-3.7-10.2c0-8.8,7.1-15.9,15.9-15.9c8.8,0,15.9,7.1,15.9,15.9C1056.3,806.8,1051.5,812.9,1044.8,814.8z
						 M1095.3,808.8c-0.3,0.3-0.5,0.6-0.8,0.9c-0.4,0.5-0.9,0.9-1.4,1.3c-0.7,0.6-1.5,1.1-2.3,1.5c-1.1,0.5-2.2,1-3.4,1.2
						c-0.1,0-0.2,0-0.3,0.1c-0.1,0-0.1,0-0.1,0c-0.6,0.1-1.2,0.2-1.8,0.2c-0.2,0-0.4,0-0.6,0c-7.5,0-13.7-5.8-14.2-13.1
						c0-0.4-0.1-0.8-0.1-1.2c0-0.6,0-1.2,0.1-1.8c0.8-6.3,5.8-11.3,12-12.3c0.7-0.1,1.4-0.2,2.1-0.2c2.5,0,4.8,0.6,6.8,1.7
						c1,0.5,1.9,1.2,2.8,2c2.9,2.6,4.7,6.4,4.7,10.6C1098.6,803.1,1097.3,806.3,1095.3,808.8z"/>
				</g>
				<path class="st57" d="M1094.6,765.4c-0.1,6-0.7,10.8-1,13c-0.1,1-0.2,1.5-0.2,1.5c-21.7-15.2-21.8-32.8-21.2-38.3
					c-5.9,30.7-71,48.4-71,48.4l-9.1,4c0,0-2.6-2.7-4.9-8c-3.7-8.5-6.7-24,2.8-46.4c2.5-5.9,5.9-10.4,10-13.9c0,0,0.1,0,0.1-0.1
					c21-18.1,57.6-7.6,57.6-7.6C1090.4,714.9,1094.9,746.2,1094.6,765.4z"/>
				<path class="st57" d="M1018.5,805c-0.2-0.7-0.6-1.8-1.2-3c-0.5-1.3-1.2-2.8-2.3-4.3c-1-1.5-2.3-3.2-4-4.6
					c-1.7-1.4-3.6-2.4-5.4-3c-1.8-0.6-3.4-1-4.8-1.2c-0.6-0.1-1.1-0.2-1.6-0.2c-0.7-0.5-1-0.7-1-0.7s0.2,0.2,0.4,0.7
					c-0.4,0-0.7,0-1-0.1c-0.8,0-1.2,0-1.2,0s1.1,0.5,3,1.4c0.5,0.8,1.1,1.8,1.8,3c1.8,3,4.1,7.2,5.6,11.9c1.5,4.8,1.9,9.5,2.4,13
					c0.2,1.8,0.4,3.2,0.5,4.2c0.2,1,0.2,1.6,0.2,1.6s0.2-0.5,0.4-1.5c0.3-1,0.6-2.4,1-4.2c0.3-1.8,0.6-3.9,0.7-6.4
					c0-2.4-0.2-5.2-1.1-8c-0.8-2.8-2.2-5.2-3.7-7.2c-1.4-1.9-2.8-3.4-4.1-4.6c1.9,1,3.9,2.2,5.8,3.8c2.9,2.4,5.2,5.2,7,7.2
					c0.9,1,1.6,1.9,2.1,2.4c0.5,0.6,0.8,0.9,0.8,0.9S1018.7,805.7,1018.5,805z"/>
				<path class="st56" d="M1094.6,765.4c-0.5-0.2-0.9-0.3-1.4-0.5c-10.3-4.7-17-18.3-20.4-27.3c-1.9-4.9-2.8-8.5-2.8-8.5
					c-0.1,1.7-0.9,3.7-2.2,5.9c-6.7,11.2-26.1,27-26.1,27l2.9-8.9c0,0-5.3,8.6-25.4,21.3c-8.2,5.2-20.4,9-32.1,11.7
					c-8.3,1.9-16.2,3.3-22.2,4.2c1.2-8.1,3.2-15.4,5.5-21.9c10.2-28.3,28-41.6,29.5-42.7c0,0,0.1,0,0.1-0.1
					c21-18.1,57.6-7.6,57.6-7.6c2.3-0.2,4.5-0.2,6.6-0.1C1091,719.3,1094.9,747.5,1094.6,765.4z"/>
				<path class="st58" d="M1064.1,717.8c-3.8,7.8-11.3,13.5-18.6,18.6c1.3-2.3,1.9-5.1,1.6-7.8c-9.4,13.7-22.8,24.7-38.1,31.2
					c1.8-3.6,2.7-7.7,2.5-11.7c-9.4,8.6-21,14.8-33.3,18.2c-2.1,0.6-5,1.6-7.9,2.1c10.2-28.3,28-41.6,29.5-42.7c0,0,0.1,0,0.1-0.1
					c21-18.1,57.6-7.6,57.6-7.6C1059.9,717.7,1062.1,717.7,1064.1,717.8z"/>
			</g>
		</g>
		<g>
			<g>
				<g>
					<g>
						<polygon class="st44" points="905.9,1097.1 906,1101.6 901.2,1106.4 902.7,1183.5 918.7,1182.4 1013.6,1175.6 1019.1,1166.3 
							1013.7,1089.5 						"/>
						<polygon class="st26" points="906,1101.6 903.2,1104.5 897.5,1110.3 902.4,1179.3 917.8,1178.2 1010.7,1171.6 1016.2,1163.2 
							1011.3,1094.1 						"/>
						
							<rect x="899.8" y="1102.7" transform="matrix(0.9975 -7.079933e-02 7.079933e-02 0.9975 -78.3996 70.5031)" class="st25" width="111.2" height="77"/>
					</g>
					
						<rect x="980.4" y="1113.5" transform="matrix(0.9975 -7.099833e-02 7.099833e-02 0.9975 -78.3758 72.9354)" class="st26" width="12.8" height="50.9"/>
				</g>
				<g>
					<g>
						<polygon class="st59" points="904.8,1099.3 904.1,1103.8 898.5,1107.6 884.9,1183.4 900.9,1185.4 995.2,1197.3 1002.5,1189.2 
							1012.1,1112.8 						"/>
						<polygon class="st26" points="904.1,1103.8 900.8,1106 894,1110.6 885.4,1179.3 900.8,1181.2 993.2,1192.8 1000.2,1185.6 
							1008.9,1116.9 						"/>
						
							<rect x="906.4" y="1096.6" transform="matrix(0.1248 -0.9922 0.9922 0.1248 -316.1855 1945.8871)" class="st52" width="77" height="111.2"/>
					</g>
					
						<rect x="950.5" y="1149.7" transform="matrix(0.1251 -0.9921 0.9921 0.1251 -293.0773 1979.7814)" class="st26" width="50.9" height="12.8"/>
				</g>
				<g>
					<path class="st30" d="M965.9,1025.8c0.7,3.6-1.5,22.6-4.5,45.3c-1.7,12.2-3.5,25.3-5.3,37.7c-1.8,12.4-3.6,23.9-4.9,32.8
						l0.7,23.4c0,0,10.9,3.4,10.8,5.2c-0.1,1.8,7,15.8,9,17.3c1.9,1.5-3.6,6.5-3.6,6.5s-6.7-2.2-8.6-1.6c-1.5,0.4-3.7,7.6-6.2,11.2
						c-0.8,1.1-1.6,1.9-2.5,2c-3.7,0.7-8.3,1.5-9.4-0.7c-1.1-2.2-3.1-6.4-5.5-7c-2.4-0.6-9.9-5-10.3-8.2c-0.4-3.2,0.5-13.2,0.5-15.8
						c0-2.6-0.4-11.3-0.4-11.3l1.2-16.1l-2.2-98c-0.2-9.1,6.9-36.2,6.9-36.2l0.3-7.9l-0.7-27.5c-0.3-12.1,2.1-23.9,7.1-34.6
						c4-9.3,12.8-13.4,22.4-15.8c2.7-0.7,5.4-1.2,8-1.7c1.4-0.2,2.8-0.5,4.1-0.7l0,0C972.7,924.6,964,1016.1,965.9,1025.8z"/>
					<path class="st32" d="M960.6,926.9c-7.8,8.4-15.9,16.5-20.6,26.7c-9.4,20.7-2.7,45.1-6.4,67.5c-1,6.1-2.8,12-3.6,18.1
						c-0.8,6.1-0.6,12.2-0.5,18.3c0.2,13.7,0.2,27.3,0.1,41c0,3.8,0,7.5-0.1,11.3c-0.1,14.3-0.2,28.7-0.2,43
						c0,10.8,0.1,21.8,4.1,31.8c3.5,8.8,10.7,16.6,19.7,18.9c-0.8,1.1-1.6,1.9-2.5,2c-3.7,0.7-8.3,1.5-9.4-0.7
						c-1.1-2.2-3.1-6.4-5.5-7c-2.4-0.6-9.9-5-10.3-8.2c-0.4-3.2,0.5-13.2,0.5-15.8c0-2.6-0.4-11.3-0.4-11.3l1.2-16.1l-2.2-98
						c-0.2-9.1,6.9-36.2,6.9-36.2l0.3-7.9l-0.7-27.5c-0.3-12.1,2.1-23.9,7.1-34.6C942.2,933.4,951,929.3,960.6,926.9z"/>
					<g>
						<path class="st48" d="M938.4,1016.7c0,0,0.1,0.3,0.4,0.9c0.1,0.3,0.3,0.7,0.6,1c0.3,0.4,0.5,0.8,1,1.3
							c0.4,0.5,0.8,0.9,1.3,1.4c0.5,0.5,1.1,0.9,1.8,1.3c1.3,0.8,2.9,1.5,4.6,1.9c1.7,0.3,3.4,0.3,4.9,0.1c0.7-0.2,1.4-0.3,2.1-0.6
							c0.6-0.2,1.2-0.5,1.7-0.8c0.5-0.2,0.9-0.6,1.3-0.8c0.4-0.2,0.7-0.5,0.9-0.7c0.5-0.4,0.7-0.7,0.7-0.7s-0.3,0.1-0.9,0.3
							c-0.3,0.1-0.6,0.2-1,0.3c-0.4,0.1-0.8,0.2-1.4,0.2c-0.5,0.1-1,0.2-1.6,0.2c-0.6,0.1-1.2,0-1.9,0c-1.3,0-2.7-0.2-4.2-0.5
							c-1.5-0.3-2.8-0.7-4.1-1.2c-0.6-0.3-1.2-0.5-1.7-0.8c-0.5-0.2-1-0.5-1.5-0.8c-0.5-0.2-0.8-0.5-1.2-0.8
							c-0.4-0.2-0.7-0.5-0.9-0.7C938.7,1016.9,938.4,1016.7,938.4,1016.7z"/>
					</g>
				</g>
			</g>
			<path class="st43" d="M1001.5,917.1l-26.8,92.1v0l-5.8,19.8l-0.8,6.9l-33.2-5.6l-9.5-1.6c0.4-2.4,0.8-4.8,1.3-7.2l0.4-1.8
				c0,0-0.4-28.4,4.7-58.5c4.4-26,12.8-53.3,29.1-64.7c1.5-1,3.1-2,4.7-2.7l4.2,2.7L1001.5,917.1z"/>
			<path class="st60" d="M969.8,896.5c-3.8,3.8-9.4,9.7-17.3,18.5c-16.3,18.1-17.5,94.1-17.6,115.4l-9.5-1.6
				c0.4-2.4,0.8-4.8,1.3-7.2l0.4-1.8c0,0-0.4-28.4,4.7-58.5c4.4-26,12.8-53.3,29.1-64.7c1.5-1,3.1-2,4.7-2.7L969.8,896.5z"/>
			<polygon class="st26" points="922.5,1013.8 921.6,1034.5 969.9,1039.8 972.7,1026.8 			"/>
		</g>
		<path class="st29" d="M965.1,894c0,0,10.3-13.6,22.6-14.5c0,0,20.1,146-17.3,166.8C970.4,1046.3,994,966.2,965.1,894z"/>
	</g>
</g>
<g>
	<rect x="37.9" y="975.4" class="st2" width="465.1" height="51.7"/>
	<text transform="matrix(1 0 0 1 59.2046 1014.7617)" class="st61 st62 st63 st64">Sekolah K.A.R.Y.A</text>
	<path class="st65" d="M52.6,813.2v84.1c3.9,40.1,62.6,66.9,62.6,66.9s56.1-26.8,60-66.9l1.1-84.1L115,800.8L52.6,813.2L52.6,813.2z
		"/>
	<path class="st66" d="M110.8,822.2c-4.1-4.7-10.2-8.9-19.1-10.4v-17.5c16.6,3.5,18.9,19.9,19,20.7l0.2,1.2L110.8,822.2L110.8,822.2
		z"/>
	<path class="st67" d="M94.2,797.8c12.1,4.4,13.9,17,13.9,17.6l0.1,0.9c-3.6-2.9-8.2-5.3-14.1-6.5L94.2,797.8L94.2,797.8z
		 M89.1,791.4v22.7c13.5,1.4,20.5,9.3,24.2,16.3v-15.7l-0.2,0C113,813.9,110.2,793.8,89.1,791.4"/>
	<path class="st66" d="M115,801.5c-1.6-2.8-3.4-5.2-5.5-7.4l5.7-5.5l5.5,5.4C118.2,796.5,116.4,799.1,115,801.5"/>
	<path class="st67" d="M115.1,792.2l2,1.9c-0.7,0.8-1.4,1.7-2.1,2.6c-0.6-0.9-1.3-1.7-2-2.5L115.1,792.2L115.1,792.2z M115.2,782.9
		l-9.4,11.3c4.9,4,7.7,9.2,9.2,13.2c1.6-4.1,4.4-9.2,9.3-13.2L115.2,782.9L115.2,782.9z"/>
	<path class="st66" d="M119.7,813.8c0.9-4.2,4.7-16.4,18.7-19.4v17.5c-8.7,1.4-14.7,5.5-18.7,9.9L119.7,813.8L119.7,813.8z"/>
	<path class="st67" d="M135.9,797.8v12c-5.6,1.2-10.1,3.5-13.7,6.3v-1.9c0.4-1.9,1.6-5.8,4.3-9.4
		C128.9,801.5,132.1,799.2,135.9,797.8 M141,791.4c-18.4,2.1-22.9,17.6-23.8,22.1v16.2c3.7-6.8,10.8-14.2,23.8-15.6V791.4L141,791.4
		z"/>
	<path class="st67" d="M80.2,824.2v22.2c-12.3,6.1-15.5,24-15.9,26.2l-0.8,5l5,0.8l3.8,0.6l4.9,0.8l0.8-5c0.3-1.8,1-4.6,2.1-7.3v8.3
		v0.2l0,0.1l0,0.2v0.1l0,0.2c0,0.1,1,10-3.3,17.3c-3.5-4.6-7.7-8.4-12.3-11.3c-5.2-3.2-11-5.3-17.3-6.2c1-8.7,4-20.6,9.7-31.2
		C64.3,831.5,73,826.1,80.2,824.2 M85.2,818.2c-16.5,0.9-26.9,13.7-32.7,24.5c-7,12.9-10.3,28.1-10.7,38.3
		c15.1,0.6,27,8.2,34.5,21.2c10.8-8.6,8.9-25.9,8.9-26.1l0-0.2v-21.9c-9.4,3.4-12.1,19.8-12.1,20l-3.8-0.6c0.1-0.8,3.4-20.3,16-23.5
		L85.2,818.2L85.2,818.2z"/>
	<path class="st66" d="M88,938.9c-0.4-12.4-2.6-23.3-6.7-32.4c4.8-4.2,8.1-10.3,9.6-17.7c1.3-6.4,0.9-11.8,0.8-13.1v-31.7l0-2.5
		v-20.5c16.6,3.6,18.9,20.3,19,21l0.2,1.3v47.9c0,7.4-1.7,19.9-6.6,30.9C101.2,929,96,937.1,88,938.9"/>
	<path class="st67" d="M94.2,824.4c12.1,4.5,13.9,17.3,13.9,17.9l0.2,1.1v47.8c0,7.1-1.7,19.2-6.4,29.8c-2.4,5.3-6.1,11.5-11.5,14.3
		c-0.6-10.5-2.7-20-6-28.2c4.5-4.5,7.6-10.6,9-17.8c1.3-6.5,1-12.1,0.8-13.7v-29h0v-5.1L94.2,824.4L94.2,824.4z M89.1,818v23.5h0
		v34.3c0.1,0.9,0.6,6.2-0.7,12.5c-1.5,7.7-5.1,13.6-10.2,17.5c4.7,9.6,7.2,21.8,7.3,36l0.1,0.1c10.6-0.6,17.2-10.4,20.9-18.7
		c5-11.3,6.8-24.3,6.8-31.9v-49.5l-0.2,0C113,840.8,110.2,820.5,89.1,818"/>
	<path class="st66" d="M147.3,872.7c0-23.2,6.9-29.4,12.8-31.6l19.5,21.9l-8.2,16c-5,0.5-15.8,2-24,7.4L147.3,872.7L147.3,872.7z"/>
	<path class="st67" d="M159.4,844.2l17.1,19.2l-6.8,13.2c-4.8,0.5-12.7,1.9-19.9,5.5v-9.3C149.8,853.3,154.7,846.7,159.4,844.2
		 M160.9,838.1c-11,3.2-16.1,14.2-16.1,34.6v18.9c8.5-8.3,23.8-9.9,28.2-10.2l9.7-18.8L160.9,838.1L160.9,838.1z"/>
	<path class="st66" d="M114.8,957.4c-3.1-1.4-9.6-4.4-14.4-7.4c-1.5-0.9-3.4-2.3-5.6-3.9c7.1-3.3,13-10.2,17.5-20.2
		c5.4-12.3,7.4-26.3,7.4-34.6v-50.5c1-4.7,5.3-18.6,22.1-20.2l12,13.5c-13.8,7.5-15.4,25.4-15.4,38.7v33.3c0,14-3.2,26.2-9.4,36.2
		C124.3,949.8,118.9,954.6,114.8,957.4"/>
	<path class="st67" d="M140.8,823.2l9.1,10.3c-5,3.5-8.6,8.8-11,15.7c-2.8,8.2-3.1,17.4-3.1,23.5V906c0,13.5-3,25.2-9,34.9
		c-4,6.5-8.6,10.8-12.3,13.6c-3.3-1.5-8.7-4.1-12.8-6.7c-0.7-0.4-1.4-0.9-2.2-1.5c6-4,11.2-10.6,15.1-19.5
		c5.6-12.6,7.6-27.1,7.6-35.6V841c0.5-2,1.7-6.2,4.6-10C130.2,826.7,134.9,824.1,140.8,823.2 M142.8,817.9
		c-20,1.2-24.7,17.8-25.7,22.6v50.8c0,8-1.9,21.6-7.2,33.5c-5.1,11.5-12.1,18.4-20.4,20.4c2.9,2.3,6.5,5.1,9.4,7
		c5.7,3.5,13.3,7,16,8.2c8.4-5.5,25.8-20.9,25.8-54.3v-33.3c0-13.7,1.8-32.1,17.1-37.8L142.8,817.9L142.8,817.9z"/>
	<path class="st66" d="M144.8,814.3v-27l-2,0.1c-6.3,0.4-11.3,2.1-15.2,4.5l-12.3-15.2l-12.6,15.2c-3.9-2.4-8.9-4.2-15.3-4.5l-2-0.1
		v26.6v0.5c-33,1.7-47.4,45.9-47.4,68.7v2h1.9c25.8,0,41.8,22.1,41.8,57.8v0.9l0.7,0.6c0.4,0.3,8.8,7.6,14.8,11.3
		c7.2,4.5,17,8.7,17.4,8.8l0.9,0.4l0.8-0.5c8.6-5.3,28.5-21.7,28.5-58.2v-8.2c6.8-11.7,29.2-12.6,29.4-12.6l1.1,0l11.9-23.2
		L144.8,814.3L144.8,814.3z M141,814.1c-13,1.3-20.1,8.8-23.8,15.6v-16.2c0.9-4.5,5.4-20,23.8-22.1V814.1L141,814.1z M115.2,782.9
		l9.1,11.3c-4.9,4-7.7,9.2-9.3,13.2c-1.6-4-4.4-9.2-9.2-13.2L115.2,782.9L115.2,782.9z M113.1,814.8l0.2,0v15.7
		c-3.6-7-10.7-14.9-24.2-16.3v-22.7C110.2,793.8,113,813.9,113.1,814.8 M41.8,881c0.4-10.2,3.7-25.4,10.7-38.3
		c5.8-10.8,16.2-23.5,32.7-24.5V850c-12.6,3.2-15.8,22.6-16,23.5l3.8,0.6c0-0.2,2.8-16.6,12.1-20v21.9l0,0.2
		c0,0.2,1.9,17.5-8.9,26.1C68.8,889.2,56.9,881.6,41.8,881 M78.2,905.8c5.2-3.9,8.7-9.9,10.2-17.5c1.3-6.3,0.8-11.6,0.7-12.5v-34.3
		h0V818c21.1,2.4,23.9,22.8,24,23.7l0.2,0v49.5c0,7.6-1.8,20.6-6.8,31.9c-3.7,8.3-10.2,18-20.9,18.7l-0.1-0.1
		C85.4,927.6,82.8,915.4,78.2,905.8 M140.9,906c0,33.3-17.4,48.8-25.8,54.3c-2.6-1.2-10.3-4.6-16-8.2c-2.9-1.8-6.6-4.6-9.4-7
		c8.3-2,15.3-9,20.4-20.4c5.3-11.9,7.2-25.5,7.2-33.5v-50.7c0.9-4.8,5.7-21.4,25.7-22.6L158,835c-15.3,5.7-17.1,24.1-17.1,37.8V906
		L140.9,906z M172.9,881.4c-4.4,0.3-19.6,1.9-28.2,10.2v-18.9c0-20.4,5.1-31.4,16.1-34.6l21.8,24.5L172.9,881.4L172.9,881.4z"/>
	<path class="st67" d="M115.2,776.7l-12.6,15.2c-3.9-2.4-8.9-4.2-15.3-4.5l-2-0.1v26.6v0.5c-33,1.6-47.4,45.9-47.4,68.7v2h1.9
		c25.8,0,41.8,22.1,41.8,57.8v0.9l0.7,0.6c0.3,0.3,8.8,7.6,14.8,11.3c7.2,4.5,17,8.7,17.4,8.8l0.9,0.4l0.8-0.5
		c8.6-5.3,28.5-21.7,28.5-58.2v-8.2c6.8-11.7,29.2-12.6,29.4-12.6l1.1,0l11.9-23.2l-42.5-47.7v-27l-2,0.1
		c-6.3,0.3-11.3,2.1-15.2,4.5L115.2,776.7L115.2,776.7z M115,807.4c-1.6-4-4.4-9.2-9.2-13.2l9.4-11.3l9.1,11.3
		C119.4,798.2,116.6,803.3,115,807.4 M117.2,829.7v-16.2c0.9-4.5,5.4-20,23.8-22.1v22.7C127.9,815.5,120.9,822.9,117.2,829.7
		 M113.3,830.4c-3.6-7-10.7-14.9-24.2-16.3v-22.7c21.1,2.4,23.9,22.4,24,23.3l0.2,0V830.4L113.3,830.4z M115.1,960.3
		c-2.6-1.2-10.3-4.6-16-8.2c-2.9-1.8-6.6-4.6-9.4-7c8.3-2,15.3-9,20.4-20.4c5.3-11.9,7.2-25.5,7.2-33.5v-50.7
		c0.9-4.8,5.7-21.4,25.7-22.6L158,835c-15.3,5.7-17.1,24.1-17.1,37.8V906C140.9,939.4,123.5,954.8,115.1,960.3 M85.6,941.8
		L85.6,941.8c-0.2-14.3-2.8-26.4-7.4-36.1c5.2-3.9,8.7-9.9,10.2-17.5c1.3-6.3,0.8-11.6,0.7-12.5v-34.3h0V818
		c21.1,2.4,23.9,22.8,24,23.7l0.2,0v49.5c0,7.6-1.8,20.6-6.8,31.9C102.8,931.4,96.2,941.2,85.6,941.8 M76.3,902.3
		c-7.5-13.1-19.4-20.7-34.5-21.2c0.4-10.2,3.8-25.4,10.7-38.3c5.8-10.8,16.2-23.5,32.7-24.5V850c-12.6,3.2-15.8,22.6-16,23.5
		l3.8,0.6c0-0.2,2.8-16.7,12.1-20v21.9l0,0.2C85.3,876.3,87.1,893.7,76.3,902.3 M144.8,891.6v-18.9c0-20.4,5.1-31.4,16.1-34.6
		l21.8,24.4l-9.7,18.8C168.6,881.7,153.3,883.3,144.8,891.6"/>
	<path class="st2" d="M141,814.1c-13,1.3-20.1,8.8-23.8,15.6v-16.2c0.9-4.5,5.4-20,23.8-22.1V814.1L141,814.1z"/>
	<path class="st68" d="M115.2,782.9l9.1,11.3c-4.9,4.1-7.7,9.2-9.3,13.2c-1.6-4-4.4-9.2-9.2-13.2L115.2,782.9L115.2,782.9z"/>
	<path class="st2" d="M113.1,814.8l0.2,0v15.7c-3.6-7-10.7-14.9-24.2-16.3v-22.7C110.2,793.8,113,813.9,113.1,814.8"/>
	<path class="st2" d="M41.8,881c0.4-10.2,3.7-25.4,10.7-38.3c5.8-10.8,16.2-23.5,32.7-24.5V850c-12.6,3.2-15.8,22.6-16,23.5l3.8,0.6
		c0-0.2,2.8-16.6,12.1-20v21.9l0,0.2c0,0.2,1.9,17.5-8.9,26.1C68.8,889.2,56.9,881.6,41.8,881"/>
	<path class="st69" d="M78.2,905.8c5.2-3.9,8.7-9.8,10.2-17.5c1.3-6.3,0.8-11.6,0.7-12.5v-34.3h0V818c21.1,2.4,23.9,22.8,24,23.7
		l0.2,0v49.5c0,7.6-1.8,20.6-6.8,31.9c-3.7,8.3-10.2,18-20.9,18.7l-0.1-0.1C85.4,927.6,82.8,915.4,78.2,905.8"/>
	<path class="st70" d="M140.9,906c0,33.3-17.4,48.8-25.8,54.3c-2.6-1.2-10.3-4.6-16-8.2c-2.9-1.8-6.6-4.6-9.4-7
		c8.3-2,15.3-9,20.4-20.4c5.3-11.9,7.2-25.5,7.2-33.5v-50.8c0.9-4.8,5.7-21.4,25.7-22.6L158,835c-15.3,5.7-17.1,24.1-17.1,37.8V906
		L140.9,906z"/>
	<path class="st2" d="M172.9,881.4c-4.4,0.3-19.6,1.9-28.2,10.2v-18.9c0-20.4,5.1-31.4,16.1-34.6l21.8,24.5L172.9,881.4L172.9,881.4
		z"/>
	<polygon class="st67" points="167.1,854.6 159.5,854.6 167.1,859.5 	"/>
	<polygon class="st2" points="232.4,836.9 232.4,856.3 225.7,856.3 225.7,815.9 232.4,815.9 232.4,834.3 252.4,834.3 252.4,815.9 
		259.1,815.9 259.1,856.3 252.4,856.3 252.4,836.9 	"/>
	<path class="st2" d="M286.6,814.9l18.8,41.3h-6.8l-6.1-13.5h-17.1l-6.3,13.5h-3.4l19.2-41.3H286.6L286.6,814.9z M276.5,840.2h14.7
		l-7.2-16L276.5,840.2L276.5,840.2z"/>
	<path class="st2" d="M311.9,815.9h13.8c2.4,0,4.5,0.3,6.3,0.8c1.8,0.5,3.3,1.2,4.5,2.2s2.1,2,2.7,3.3c0.6,1.3,0.9,2.7,0.9,4.2
		c0,1.3-0.2,2.4-0.7,3.5s-1.1,2.1-2,3s-1.9,1.6-3.1,2.3c-1.2,0.7-2.5,1.1-4,1.5l14.5,19.6h-7.8l-13.9-19h-4.7v19h-6.7L311.9,815.9
		L311.9,815.9z M318.6,835.2h3.9c1.5,0,2.9-0.2,4.2-0.6s2.4-1,3.3-1.7c0.9-0.7,1.7-1.7,2.2-2.7s0.8-2.3,0.8-3.6
		c0-1.2-0.2-2.3-0.6-3.3c-0.4-1-1-1.9-1.8-2.6c-0.7-0.7-1.6-1.3-2.7-1.7c-1-0.4-2.2-0.6-3.4-0.6h-5.9L318.6,835.2L318.6,835.2z"/>
	<path class="st2" d="M367.4,814.9l18.8,41.3h-6.8l-6.1-13.5h-17.1l-6.3,13.5h-3.4l19.2-41.3H367.4L367.4,814.9z M357.3,840.2H372
		l-7.2-16L357.3,840.2L357.3,840.2z"/>
	<path class="st2" d="M392.7,815.9h12.6c2.1,0,4,0.3,5.9,0.8c1.8,0.5,3.4,1.3,4.8,2.2s2.4,2.2,3.2,3.6c0.8,1.4,1.2,3.1,1.2,4.9
		c0,1.8-0.4,3.4-1.1,4.8c-0.8,1.4-1.7,2.5-3,3.4c-1.2,0.9-2.6,1.6-4.2,2c-1.6,0.4-3.2,0.7-4.8,0.7c-0.7,0-1.4,0-2.2-0.1
		c-0.8,0-1.5-0.1-2.2-0.2c-0.7-0.1-1.4-0.1-2-0.2c-0.6-0.1-1.1-0.2-1.5-0.3v18.7h-6.7L392.7,815.9L392.7,815.9z M399.4,835.3
		c0.7,0.2,1.5,0.4,2.4,0.6c0.9,0.2,1.8,0.3,2.6,0.3c1.5,0,2.7-0.2,3.8-0.7c1.1-0.4,2-1,2.7-1.8c0.7-0.8,1.2-1.7,1.6-2.7
		c0.4-1,0.5-2.1,0.5-3.3c0-1.4-0.2-2.6-0.7-3.7s-1.1-2-1.9-2.8c-0.8-0.8-1.8-1.4-2.8-1.8c-1.1-0.4-2.3-0.6-3.5-0.6h-4.8L399.4,835.3
		L399.4,835.3z"/>
	<path class="st2" d="M440.8,814.9l18.8,41.3h-6.8l-6.1-13.5h-17.1l-6.3,13.5h-3.4l19.2-41.3H440.8L440.8,814.9z M430.7,840.2h14.7
		l-7.2-16L430.7,840.2L430.7,840.2z"/>
	<polygon class="st2" points="466.1,815.9 469.9,815.9 496,845.4 496.3,845.4 496.3,815.9 499.2,815.9 499.2,857.2 497.7,857.2 
		469.4,824.4 469.1,824.4 469.1,856.3 466.1,856.3 	"/>
	<path class="st2" d="M225.7,877.3h16.1c2.1,0,4.1,0.2,5.9,0.7c1.8,0.5,3.3,1.2,4.6,2c1.3,0.9,2.3,1.9,3,3.1c0.7,1.2,1.1,2.6,1.1,4
		c0,1.1-0.1,2.1-0.4,3c-0.2,0.9-0.6,1.7-1.2,2.4s-1.3,1.5-2.2,2.1c-0.9,0.7-2.1,1.3-3.5,2v0.1c1.4,0.2,2.7,0.6,3.9,1.2
		c1.1,0.5,2.1,1.2,2.9,2.1c0.8,0.8,1.4,1.8,1.9,2.9s0.7,2.3,0.7,3.7c0,1.5-0.3,3-1,4.3c-0.7,1.3-1.6,2.5-2.8,3.5
		c-1.2,1-2.7,1.8-4.4,2.3c-1.7,0.6-3.6,0.8-5.8,0.8h-18.6V877.3L225.7,877.3z M232.4,895.5h8.5c1.3,0,2.5-0.2,3.6-0.6
		s1.9-0.9,2.6-1.6s1.3-1.5,1.6-2.4c0.4-0.9,0.6-1.9,0.6-3c0-1.2-0.2-2.2-0.7-3.2s-1.1-1.8-2.1-2.5c-0.9-0.7-2.1-1.2-3.6-1.6
		c-1.4-0.4-3.1-0.5-5.2-0.5h-5.5L232.4,895.5L232.4,895.5z M232.4,914.7h7.2c1.9,0,3.6-0.2,5.1-0.6c1.4-0.4,2.6-0.9,3.6-1.6
		c0.9-0.7,1.6-1.5,2.1-2.5c0.4-1,0.7-2,0.7-3.2c0-1.3-0.2-2.5-0.6-3.6c-0.4-1.1-1.1-2.1-2-2.9s-2.1-1.4-3.6-1.9
		c-1.5-0.5-3.3-0.7-5.4-0.7h-7.1L232.4,914.7L232.4,914.7z"/>
	<path class="st2" d="M282.7,876.3l18.8,41.3h-6.8l-6.1-13.5h-17.1l-6.3,13.5h-3.4l19.2-41.3H282.7L282.7,876.3z M272.7,901.6h14.7
		l-7.2-16L272.7,901.6L272.7,901.6z"/>
	<polygon class="st2" points="308.1,877.3 311.8,877.3 338,906.8 338.2,906.8 338.2,877.3 341.2,877.3 341.2,918.6 339.6,918.6 
		311.3,885.8 311.1,885.8 311.1,917.7 308.1,917.7 	"/>
	<path class="st2" d="M375.3,879.2c-2.4,0-4.6,0.4-6.6,1.3c-2,0.9-3.8,2.1-5.3,3.7c-1.5,1.6-2.6,3.5-3.5,5.8s-1.2,4.8-1.2,7.7
		s0.5,5.4,1.3,7.7c0.9,2.3,2.1,4.2,3.7,5.8c1.5,1.6,3.4,2.8,5.5,3.7s4.4,1.3,6.8,1.3c1.8,0,3.3-0.2,4.8-0.7c1.4-0.5,2.7-1.2,3.8-2.1
		v-14.2H377v-2.4h14.2v17.8c-1.2,0.6-2.3,1.2-3.5,1.7s-2.5,0.9-3.8,1.2c-1.4,0.3-2.9,0.6-4.5,0.8c-1.6,0.2-3.5,0.2-5.6,0.2
		c-2.2,0-4.3-0.2-6.3-0.8s-3.8-1.2-5.5-2.1c-1.7-0.9-3.2-2-4.6-3.3c-1.4-1.3-2.5-2.7-3.5-4.2c-1-1.5-1.7-3.2-2.2-5
		c-0.5-1.8-0.8-3.6-0.8-5.5c0-1.9,0.2-3.7,0.8-5.5c0.5-1.8,1.2-3.5,2.1-5.1c0.9-1.6,2-3,3.4-4.4c1.3-1.3,2.8-2.5,4.5-3.4
		c1.7-1,3.5-1.7,5.4-2.2c2-0.5,4-0.8,6.3-0.8c2.1,0,4.1,0.3,5.9,0.9c1.8,0.6,3.4,1.3,4.9,2.3c1.5,1,2.8,2.1,3.9,3.3s2.1,2.6,3,3.9
		l-2.9,2c-1.7-3.3-3.5-5.7-5.6-7.2C380.4,880,378,879.2,375.3,879.2"/>
	<path class="st2" d="M412.9,916c1,0,2-0.1,2.9-0.4c1-0.3,1.8-0.7,2.6-1.2c0.8-0.5,1.4-1.2,1.8-2c0.5-0.8,0.7-1.7,0.7-2.7
		c0-1.2-0.3-2.3-1-3.3c-0.6-1-1.5-1.8-2.5-2.7c-1-0.8-2.2-1.6-3.5-2.3c-1.3-0.7-2.7-1.4-4-2.1c-1.4-0.7-2.7-1.5-4-2.2
		c-1.3-0.8-2.5-1.7-3.5-2.6s-1.9-2-2.5-3.2c-0.6-1.2-1-2.5-1-4.1s0.3-3,0.9-4.3c0.6-1.3,1.4-2.5,2.5-3.4c1.1-1,2.5-1.7,4.1-2.3
		c1.6-0.5,3.5-0.8,5.6-0.8c3.8,0,6.8,0.8,9,2.4c2.2,1.6,3.8,3.9,4.7,7l-3.4,1.6c-0.4-1.2-0.9-2.4-1.5-3.4s-1.4-1.9-2.2-2.6
		c-0.9-0.7-1.9-1.3-3-1.7s-2.4-0.6-3.8-0.6c-1.3,0-2.4,0.2-3.3,0.5s-1.7,0.8-2.4,1.4s-1.1,1.2-1.4,1.9c-0.3,0.7-0.5,1.5-0.5,2.2
		c0,1.1,0.3,2,1,2.9c0.6,0.9,1.5,1.7,2.5,2.5c1,0.8,2.3,1.5,3.6,2.3c1.4,0.7,2.7,1.5,4.1,2.2s2.8,1.5,4.1,2.3
		c1.4,0.8,2.6,1.7,3.6,2.7s1.9,2,2.5,3.2c0.6,1.2,1,2.4,1,3.8c0,1.6-0.3,3.1-0.9,4.5c-0.6,1.4-1.5,2.6-2.7,3.7
		c-1.2,1-2.7,1.9-4.5,2.5c-1.8,0.6-3.9,0.9-6.2,0.9c-1.9,0-3.6-0.2-5.1-0.6c-1.5-0.4-2.8-1-4-1.9c-1.1-0.8-2.1-1.8-3-3
		c-0.8-1.2-1.5-2.5-2-4l3.6-1.5c0.4,1.3,1,2.5,1.7,3.5c0.7,1,1.5,1.9,2.5,2.7c1,0.7,2,1.3,3.1,1.7C410.4,915.8,411.6,916,412.9,916"
		/>
	<path class="st2" d="M451.8,876.3l18.8,41.3h-6.8l-6.1-13.5h-17.1l-6.3,13.5h-3.4l19.2-41.3H451.8L451.8,876.3z M441.7,901.6h14.7
		l-7.2-16L441.7,901.6L441.7,901.6z"/>
	<polygon class="st2" points="226.4,938.4 228.1,938.4 228.1,949.2 226.4,949.2 	"/>
	<polygon class="st2" points="239.3,938.4 240.9,938.4 240.9,949.2 239.9,949.2 233.8,941.9 233.8,949.2 232.1,949.2 232.1,938.4 
		233,938.4 239.3,945.8 	"/>
	<polygon class="st2" points="247,940 243.9,940 243.9,938.4 251.8,938.4 251.8,940 248.7,940 248.7,949.2 247,949.2 	"/>
	<polygon class="st2" points="254.8,949.2 254.8,938.4 261.6,938.4 261.6,940 256.4,940 256.4,942.9 261.2,942.9 261.2,944.5 
		256.4,944.5 256.4,947.6 261.6,947.6 261.6,949.2 	"/>
	<path class="st2" d="M265.9,947.8c-1-1.1-1.6-2.4-1.6-4c0-1.6,0.5-3,1.6-4c1.1-1.1,2.4-1.6,4-1.6c1.8,0,3.5,0.8,4.4,1.9l-1.1,1.2
		c-0.9-1-1.9-1.4-3.3-1.4c-1.1,0-2,0.4-2.8,1.1s-1.1,1.7-1.1,2.8c0,1.1,0.4,2.1,1.1,2.8c0.7,0.8,1.6,1.1,2.8,1.1
		c1.2,0,2.5-0.5,3.3-1.4v-1.9h-3.4v-1.5h4.9v4.2c-1.3,1.5-3,2.2-4.9,2.2C268.2,949.4,266.9,948.9,265.9,947.8"/>
	<path class="st2" d="M283.9,949.2l-2.6-4.3h-1.4v4.3h-1.7v-10.8h3.8c1.1,0,2,0.3,2.6,1c0.6,0.6,0.9,1.4,0.9,2.3
		c0,1.4-0.8,2.7-2.4,3.1l2.9,4.4H283.9L283.9,949.2z M279.8,940v3.4h1.9c1.4,0,2-0.8,2-1.7c0-1-0.6-1.7-1.7-1.7H279.8L279.8,940z"/>
	<path class="st2" d="M295.7,949.2l-1-2.7h-3.9l-1,2.7h-1.8l4.3-10.8h1.1l4.2,10.8H295.7L295.7,949.2z M292.7,941.1l-1.5,3.9h2.9
		L292.7,941.1L292.7,941.1z"/>
	<polygon class="st2" points="301.4,940 298.3,940 298.3,938.4 306.2,938.4 306.2,940 303.1,940 303.1,949.2 301.4,949.2 	"/>
	<polygon class="st2" points="309.2,949.2 309.2,938.4 316,938.4 316,940 310.9,940 310.9,942.9 315.7,942.9 315.7,944.5 
		310.9,944.5 310.9,947.6 316,947.6 316,949.2 	"/>
	<path class="st2" d="M319.6,949.2v-10.8h4c1.5,0,2.8,0.5,3.7,1.5s1.3,2.3,1.3,4c0,1.7-0.5,3-1.4,3.9c-0.9,1-2.2,1.5-3.8,1.5
		L319.6,949.2L319.6,949.2z M321.3,947.6h2.3c1,0,1.9-0.3,2.4-1.1c0.6-0.7,0.9-1.7,0.9-2.8c0-1.1-0.3-2-0.9-2.7
		c-0.6-0.7-1.4-1.1-2.4-1.1h-2.3V947.6L321.3,947.6z"/>
	<path class="st2" d="M338,947.8c-1.1-1-1.6-2.4-1.6-4c0-1.6,0.5-3,1.6-4c1.1-1.1,2.4-1.6,3.9-1.6c1,0,1.9,0.2,2.7,0.7
		c0.8,0.4,1.5,1,1.9,1.7l-1.2,1.1c-0.9-1.2-2-1.8-3.4-1.8c-1.1,0-2,0.4-2.8,1.1c-0.7,0.8-1.1,1.7-1.1,2.9s0.4,2.1,1.1,2.8
		c0.7,0.7,1.6,1.1,2.8,1.1c1.4,0,2.6-0.6,3.5-1.8l1.2,1.1c-1,1.4-2.7,2.3-4.7,2.3C340.4,949.4,339.1,948.9,338,947.8"/>
	<polygon class="st2" points="349.7,949.2 349.7,938.4 351.4,938.4 351.4,942.9 356.5,942.9 356.5,938.4 358.2,938.4 358.2,949.2 
		356.5,949.2 356.5,944.5 351.4,944.5 351.4,949.2 	"/>
	<path class="st2" d="M367.9,949.2l-2.6-4.3h-1.4v4.3h-1.7v-10.8h3.8c1.1,0,2,0.3,2.6,1c0.6,0.6,0.9,1.4,0.9,2.3
		c0,1.4-0.8,2.7-2.4,3.1l2.9,4.4H367.9L367.9,949.2z M363.9,940v3.4h1.9c1.4,0,2-0.8,2-1.7c0-1-0.6-1.7-1.7-1.7H363.9L363.9,940z"/>
	<polygon class="st2" points="373.1,938.4 374.8,938.4 374.8,949.2 373.1,949.2 	"/>
	<path class="st2" d="M377.9,947.2l1.1-1.1c0.6,1.1,1.6,1.7,2.7,1.7c1.1,0,1.8-0.7,1.8-1.5c0-0.5-0.4-1-1.1-1.4
		c-0.2-0.1-0.5-0.2-1.1-0.5c-0.5-0.2-1-0.5-1.2-0.6c-1.1-0.7-1.6-1.5-1.6-2.6c0-0.8,0.3-1.6,0.9-2.1c0.6-0.6,1.4-0.9,2.4-0.9
		c1.4,0,2.4,0.5,3.3,1.5l-1,1.2c-0.6-0.8-1.3-1.1-2.2-1.1c-0.9,0-1.6,0.5-1.6,1.3c0,0.5,0.3,1,0.9,1.3c0.2,0.1,0.6,0.3,1.2,0.6
		c0.6,0.3,1.1,0.5,1.3,0.6c1.1,0.6,1.6,1.5,1.6,2.6c0,0.9-0.4,1.7-1,2.3c-0.7,0.6-1.6,0.9-2.6,0.9
		C380.1,949.4,378.6,948.7,377.9,947.2"/>
	<polygon class="st2" points="390.5,940 387.4,940 387.4,938.4 395.4,938.4 395.4,940 392.2,940 392.2,949.2 390.5,949.2 	"/>
	<polygon class="st2" points="398.3,938.4 400,938.4 400,949.2 398.3,949.2 	"/>
	<path class="st2" d="M410.6,949.2l-1-2.7h-3.9l-1,2.7h-1.8l4.3-10.8h1.1l4.2,10.8H410.6L410.6,949.2z M407.7,941.1l-1.5,3.9h2.9
		L407.7,941.1L407.7,941.1z"/>
	<polygon class="st2" points="422.5,938.4 424.1,938.4 424.1,949.2 423.1,949.2 417,941.9 417,949.2 415.3,949.2 415.3,938.4 
		416.2,938.4 422.5,945.8 	"/>
	<path class="st2" d="M432.2,947.2l1.1-1.1c0.6,1.1,1.6,1.7,2.6,1.7c1.1,0,1.8-0.7,1.8-1.5c0-0.5-0.4-1-1.1-1.4
		c-0.2-0.1-0.5-0.2-1.1-0.5c-0.5-0.2-1-0.5-1.2-0.6c-1.1-0.7-1.6-1.5-1.6-2.6c0-0.8,0.3-1.6,0.9-2.1c0.6-0.6,1.4-0.9,2.4-0.9
		c1.4,0,2.4,0.5,3.3,1.5l-1,1.2c-0.6-0.8-1.3-1.1-2.2-1.1c-0.9,0-1.6,0.5-1.6,1.3c0,0.5,0.3,1,0.9,1.3c0.2,0.1,0.6,0.3,1.2,0.6
		c0.6,0.3,1.1,0.5,1.3,0.6c1.1,0.6,1.6,1.5,1.6,2.6c0,0.9-0.4,1.7-1,2.3c-0.7,0.6-1.6,0.9-2.6,0.9
		C434.4,949.4,433,948.7,432.2,947.2"/>
	<path class="st2" d="M443.9,947.8c-1.1-1-1.6-2.4-1.6-4c0-1.6,0.5-3,1.6-4c1.1-1.1,2.4-1.6,3.9-1.6c1,0,1.9,0.2,2.7,0.7
		c0.8,0.4,1.5,1,1.9,1.7l-1.2,1.1c-0.9-1.2-2-1.8-3.4-1.8c-1.1,0-2,0.4-2.8,1.1c-0.7,0.8-1.1,1.7-1.1,2.9s0.4,2.1,1.1,2.8
		c0.7,0.7,1.6,1.1,2.8,1.1c1.4,0,2.6-0.6,3.5-1.8l1.2,1.1c-1,1.4-2.7,2.3-4.7,2.3C446.3,949.4,445,948.9,443.9,947.8"/>
	<polygon class="st2" points="455.6,949.2 455.6,938.4 457.3,938.4 457.3,942.9 462.4,942.9 462.4,938.4 464,938.4 464,949.2 
		462.4,949.2 462.4,944.5 457.3,944.5 457.3,949.2 	"/>
	<path class="st2" d="M469,947.8c-1.1-1.1-1.6-2.4-1.6-4c0-1.6,0.5-2.9,1.6-4c1.1-1.1,2.4-1.7,3.9-1.7c1.5,0,2.9,0.5,3.9,1.6
		c1.1,1.1,1.6,2.4,1.6,4c0,1.5-0.5,2.9-1.6,4c-1.1,1.1-2.4,1.6-4,1.6C471.4,949.4,470,948.9,469,947.8 M475.7,946.6
		c0.7-0.8,1.1-1.7,1.1-2.8c0-1.1-0.4-2.1-1.1-2.8s-1.6-1.1-2.7-1.1s-2,0.4-2.7,1.2c-0.7,0.8-1.1,1.7-1.1,2.8c0,1.1,0.4,2,1.1,2.8
		c0.7,0.8,1.6,1.1,2.7,1.1C474,947.8,474.9,947.4,475.7,946.6"/>
	<path class="st2" d="M482.8,947.8c-1-1.1-1.6-2.4-1.6-4c0-1.6,0.5-2.9,1.6-4c1.1-1.1,2.4-1.7,3.9-1.7c1.5,0,2.9,0.5,3.9,1.6
		c1.1,1.1,1.6,2.4,1.6,4c0,1.5-0.5,2.9-1.6,4s-2.4,1.6-4,1.6C485.2,949.4,483.9,948.9,482.8,947.8 M489.5,946.6
		c0.7-0.8,1.1-1.7,1.1-2.8c0-1.1-0.4-2.1-1.1-2.8s-1.6-1.1-2.7-1.1c-1.1,0-2,0.4-2.7,1.2c-0.7,0.8-1.1,1.7-1.1,2.8
		c0,1.1,0.4,2,1.1,2.8c0.7,0.8,1.6,1.1,2.7,1.1C487.8,947.8,488.7,947.4,489.5,946.6"/>
	<polygon class="st2" points="495.7,949.2 495.7,938.4 497.4,938.4 497.4,947.6 503,947.6 503,949.2 	"/>
</g>
<g>
	<g class="st71">
		<g>
			<defs>
				<rect id="SVGID_00000085955149910258245510000006267085920396381370_" x="3902" y="323.6" width="1440.6" height="1440.6"/>
			</defs>
			<clipPath id="SVGID_00000143603494917927164600000015319804345329119399_">
				<use xlink:href="#SVGID_00000085955149910258245510000006267085920396381370_"  style="overflow:visible;"/>
			</clipPath>
			<path style="clip-path:url(#SVGID_00000143603494917927164600000015319804345329119399_);fill:#E65100;" d="M5008.9,543.9
				c55.3,15.3,93.6,65,93.6,121.7v755.2c0,57.2-39.1,107.1-95.1,122L4661,1640l111.3-236V653.7l-94.5-206.6L5008.9,543.9z"/>
			<path style="clip-path:url(#SVGID_00000143603494917927164600000015319804345329119399_);fill:#B71C1C;" d="M4772.3,1374v117.9
				c0,114.1-114.8,187.5-210.7,134.8l-208.2-133.4c-24.1-14-37.1-43.9-28.9-73.7c7.6-27.8,33.6-45.5,61-45.5H4772.3z"/>
			<path style="clip-path:url(#SVGID_00000143603494917927164600000015319804345329119399_);fill:#B71C1C;" d="M4365.8,1290.8
				l-102,45.1c-40.9,24.1-91.7-6.4-91.7-54.9V770.9c0-46.1,24.3-88.5,63.5-110.8l355-200.7c81.7-46.3,181.7,14.6,181.7,110.8v92.7
				l-301.2,104.6c-35.5,14.1-58.9,49.3-58.9,88.5v352.4C4412.2,1242.5,4394.5,1273.9,4365.8,1290.8z"/>
		</g>
	</g>
</g>
</svg>
